<svg width="424" height="178" viewBox="0 0 424 178" fill="none" xmlns="http://www.w3.org/2000/svg">
<rect x="0.425781" width="205.957" height="52.4255" rx="18.7234" fill="white" fill-opacity="0.05"/>
<path d="M53.876 25.5374C54.2554 25.5973 54.5999 25.7521 54.9095 26.0018C55.229 26.2514 55.4787 26.561 55.6584 26.9305C55.8481 27.2999 55.943 27.6944 55.943 28.1138C55.943 28.643 55.8082 29.1223 55.5386 29.5517C55.269 29.9711 54.8745 30.3057 54.3553 30.5553C53.846 30.795 53.2419 30.9148 52.5428 30.9148H48.6484V20.4746H52.3931C53.1021 20.4746 53.7062 20.5945 54.2055 20.8341C54.7048 21.0638 55.0792 21.3783 55.3289 21.7778C55.5785 22.1772 55.7034 22.6266 55.7034 23.1259C55.7034 23.745 55.5336 24.2592 55.1941 24.6687C54.8645 25.0681 54.4252 25.3577 53.876 25.5374ZM50.0114 24.9832H52.3032C52.9423 24.9832 53.4366 24.8334 53.7861 24.5339C54.1356 24.2343 54.3103 23.8199 54.3103 23.2906C54.3103 22.7614 54.1356 22.347 53.7861 22.0474C53.4366 21.7478 52.9323 21.598 52.2732 21.598H50.0114V24.9832ZM52.423 29.7914C53.102 29.7914 53.6313 29.6316 54.0108 29.3121C54.3902 28.9925 54.58 28.5482 54.58 27.979C54.58 27.3998 54.3802 26.9454 53.9808 26.6159C53.5814 26.2764 53.0471 26.1066 52.3781 26.1066H50.0114V29.7914H52.423ZM65.1142 22.7065V30.9148H63.7511V29.7015C63.4915 30.1209 63.127 30.4505 62.6577 30.6901C62.1983 30.9198 61.6891 31.0346 61.1299 31.0346C60.4908 31.0346 59.9166 30.9048 59.4073 30.6452C58.898 30.3756 58.4936 29.9761 58.194 29.4469C57.9044 28.9176 57.7597 28.2735 57.7597 27.5146V22.7065H59.1077V27.3349C59.1077 28.1437 59.3124 28.7678 59.7219 29.2072C60.1313 29.6366 60.6905 29.8513 61.3995 29.8513C62.1284 29.8513 62.7026 29.6266 63.122 29.1773C63.5414 28.7279 63.7511 28.0738 63.7511 27.2151V22.7065H65.1142ZM74.4856 22.7065L69.5426 34.7793H68.1346L69.7523 30.8249L66.442 22.7065H67.9549L70.5312 29.357L73.0776 22.7065H74.4856ZM85.1067 20.4746V28.1887C85.1067 29.0474 84.8421 29.7365 84.3128 30.2557C83.7836 30.765 83.0846 31.0196 82.2158 31.0196C81.3371 31.0196 80.6331 30.76 80.1038 30.2408C79.5746 29.7115 79.3099 28.9925 79.3099 28.0838H80.673C80.683 28.5931 80.8128 29.0075 81.0625 29.3271C81.3221 29.6466 81.7065 29.8064 82.2158 29.8064C82.7251 29.8064 83.1046 29.6566 83.3542 29.357C83.6038 29.0474 83.7287 28.658 83.7287 28.1887V20.4746H85.1067ZM95.2814 26.4961C95.2814 26.7557 95.2664 27.0303 95.2364 27.3199H88.6757C88.7257 28.1288 89.0003 28.7629 89.4996 29.2222C90.0088 29.6716 90.623 29.8962 91.3419 29.8962C91.9311 29.8962 92.4204 29.7614 92.8099 29.4918C93.2093 29.2122 93.4889 28.8427 93.6487 28.3834H95.1166C94.8969 29.1723 94.4575 29.8164 93.7985 30.3156C93.1394 30.805 92.3206 31.0496 91.3419 31.0496C90.5631 31.0496 89.864 30.8749 89.2449 30.5253C88.6358 30.1758 88.1565 29.6815 87.807 29.0425C87.4575 28.3934 87.2827 27.6444 87.2827 26.7956C87.2827 25.9469 87.4525 25.2029 87.792 24.5638C88.1315 23.9247 88.6058 23.4354 89.215 23.0959C89.8341 22.7464 90.5431 22.5716 91.3419 22.5716C92.1208 22.5716 92.8099 22.7414 93.409 23.0809C94.0082 23.4204 94.4675 23.8898 94.7871 24.4889C95.1166 25.0781 95.2814 25.7471 95.2814 26.4961ZM93.8734 26.2115C93.8734 25.6922 93.7585 25.2478 93.5288 24.8784C93.2992 24.4989 92.9846 24.2143 92.5852 24.0246C92.1957 23.8249 91.7614 23.725 91.282 23.725C90.593 23.725 90.0038 23.9447 89.5145 24.3841C89.0352 24.8234 88.7606 25.4326 88.6907 26.2115H93.8734ZM98.7432 23.8299V28.668C98.7432 29.0674 98.8281 29.352 98.9978 29.5218C99.1676 29.6815 99.4622 29.7614 99.8816 29.7614H100.885V30.9148H99.6569C98.898 30.9148 98.3288 30.74 97.9493 30.3905C97.5699 30.041 97.3801 29.4669 97.3801 28.668V23.8299H96.3166V22.7065H97.3801V20.6394H98.7432V22.7065H100.885V23.8299H98.7432ZM104.199 23.8299V28.668C104.199 29.0674 104.284 29.352 104.454 29.5218C104.624 29.6815 104.918 29.7614 105.338 29.7614H106.341V30.9148H105.113C104.354 30.9148 103.785 30.74 103.405 30.3905C103.026 30.041 102.836 29.4669 102.836 28.668V23.8299H101.773V22.7065H102.836V20.6394H104.199V22.7065H106.341V23.8299H104.199ZM111.573 31.0496C110.804 31.0496 110.105 30.8749 109.476 30.5253C108.857 30.1758 108.367 29.6815 108.008 29.0425C107.658 28.3934 107.484 27.6444 107.484 26.7956C107.484 25.9568 107.663 25.2179 108.023 24.5788C108.392 23.9297 108.892 23.4354 109.521 23.0959C110.15 22.7464 110.854 22.5716 111.633 22.5716C112.412 22.5716 113.116 22.7464 113.745 23.0959C114.374 23.4354 114.868 23.9247 115.228 24.5638C115.597 25.2029 115.782 25.9469 115.782 26.7956C115.782 27.6444 115.592 28.3934 115.213 29.0425C114.843 29.6815 114.339 30.1758 113.7 30.5253C113.061 30.8749 112.352 31.0496 111.573 31.0496ZM111.573 29.8513C112.062 29.8513 112.521 29.7365 112.951 29.5068C113.38 29.2771 113.725 28.9326 113.984 28.4733C114.254 28.0139 114.389 27.4547 114.389 26.7956C114.389 26.1366 114.259 25.5774 113.999 25.118C113.74 24.6587 113.4 24.3192 112.981 24.0995C112.561 23.8698 112.107 23.755 111.618 23.755C111.118 23.755 110.659 23.8698 110.24 24.0995C109.83 24.3192 109.501 24.6587 109.251 25.118C109.001 25.5774 108.877 26.1366 108.877 26.7956C108.877 27.4647 108.996 28.0289 109.236 28.4882C109.486 28.9476 109.815 29.2921 110.225 29.5218C110.634 29.7415 111.083 29.8513 111.573 29.8513ZM121.573 22.5567C122.572 22.5567 123.381 22.8612 124 23.4704C124.619 24.0695 124.928 24.9383 124.928 26.0767V30.9148H123.58V26.2714C123.58 25.4526 123.376 24.8284 122.966 24.399C122.557 23.9597 121.998 23.74 121.289 23.74C120.57 23.74 119.995 23.9647 119.566 24.414C119.147 24.8634 118.937 25.5175 118.937 26.3762V30.9148H117.574V22.7065H118.937V23.8748C119.207 23.4554 119.571 23.1309 120.03 22.9012C120.5 22.6715 121.014 22.5567 121.573 22.5567ZM129.995 31.9633H144.974V16.9846H129.995V31.9633Z" fill="white"/>
<rect x="217.617" width="205.957" height="52.4255" rx="18.7234" fill="white" fill-opacity="0.05"/>
<path d="M284.943 31.0196C284.254 31.0196 283.635 30.8998 283.085 30.6602C282.546 30.4105 282.122 30.071 281.812 29.6416C281.503 29.2022 281.343 28.6979 281.333 28.1288H282.786C282.836 28.6181 283.035 29.0325 283.385 29.372C283.744 29.7015 284.264 29.8663 284.943 29.8663C285.592 29.8663 286.101 29.7065 286.471 29.387C286.85 29.0574 287.04 28.638 287.04 28.1288C287.04 27.7293 286.93 27.4048 286.71 27.1551C286.491 26.9055 286.216 26.7158 285.886 26.5859C285.557 26.4561 285.113 26.3163 284.553 26.1665C283.864 25.9868 283.31 25.8071 282.891 25.6273C282.481 25.4476 282.127 25.168 281.827 24.7885C281.538 24.3991 281.393 23.8798 281.393 23.2307C281.393 22.6615 281.538 22.1572 281.827 21.7179C282.117 21.2785 282.521 20.939 283.04 20.6993C283.57 20.4596 284.174 20.3398 284.853 20.3398C285.832 20.3398 286.63 20.5845 287.25 21.0738C287.879 21.5631 288.233 22.2122 288.313 23.021H286.815C286.765 22.6216 286.555 22.2721 286.186 21.9725C285.817 21.6629 285.327 21.5082 284.718 21.5082C284.149 21.5082 283.685 21.6579 283.325 21.9575C282.966 22.2471 282.786 22.6565 282.786 23.1858C282.786 23.5652 282.891 23.8748 283.1 24.1145C283.32 24.3541 283.585 24.5389 283.894 24.6687C284.214 24.7885 284.658 24.9283 285.227 25.0881C285.916 25.2778 286.471 25.4675 286.89 25.6573C287.309 25.837 287.669 26.1216 287.968 26.5111C288.268 26.8905 288.418 27.4098 288.418 28.0688C288.418 28.5781 288.283 29.0574 288.013 29.5068C287.744 29.9562 287.344 30.3206 286.815 30.6002C286.286 30.8798 285.662 31.0196 284.943 31.0196ZM297.913 26.4961C297.913 26.7557 297.898 27.0303 297.868 27.3199H291.307C291.357 28.1288 291.632 28.7629 292.131 29.2222C292.641 29.6716 293.255 29.8962 293.974 29.8962C294.563 29.8962 295.052 29.7614 295.442 29.4918C295.841 29.2122 296.121 28.8427 296.28 28.3834H297.748C297.529 29.1723 297.089 29.8164 296.43 30.3156C295.771 30.805 294.952 31.0496 293.974 31.0496C293.195 31.0496 292.496 30.8749 291.877 30.5253C291.268 30.1758 290.788 29.6815 290.439 29.0425C290.089 28.3934 289.914 27.6444 289.914 26.7956C289.914 25.9469 290.084 25.2029 290.424 24.5638C290.763 23.9247 291.238 23.4354 291.847 23.0959C292.466 22.7464 293.175 22.5716 293.974 22.5716C294.753 22.5716 295.442 22.7414 296.041 23.0809C296.64 23.4204 297.099 23.8898 297.419 24.4889C297.748 25.0781 297.913 25.7471 297.913 26.4961ZM296.505 26.2115C296.505 25.6922 296.39 25.2478 296.161 24.8784C295.931 24.4989 295.616 24.2143 295.217 24.0246C294.827 23.8249 294.393 23.725 293.914 23.725C293.225 23.725 292.636 23.9447 292.146 24.3841C291.667 24.8234 291.392 25.4326 291.322 26.2115H296.505ZM301.075 19.8305V30.9148H299.712V19.8305H301.075ZM304.762 19.8305V30.9148H303.398V19.8305H304.762ZM316.335 20.4746V28.1887C316.335 29.0474 316.071 29.7365 315.542 30.2557C315.012 30.765 314.313 31.0196 313.445 31.0196C312.566 31.0196 311.862 30.76 311.333 30.2408C310.803 29.7115 310.539 28.9925 310.539 28.0838H311.902C311.912 28.5931 312.042 29.0075 312.291 29.3271C312.551 29.6466 312.935 29.8064 313.445 29.8064C313.954 29.8064 314.333 29.6566 314.583 29.357C314.833 29.0474 314.957 28.658 314.957 28.1887V20.4746H316.335ZM326.51 26.4961C326.51 26.7557 326.495 27.0303 326.465 27.3199H319.905C319.954 28.1288 320.229 28.7629 320.728 29.2222C321.238 29.6716 321.852 29.8962 322.571 29.8962C323.16 29.8962 323.649 29.7614 324.039 29.4918C324.438 29.2122 324.718 28.8427 324.877 28.3834H326.345C326.126 29.1723 325.686 29.8164 325.027 30.3156C324.368 30.805 323.549 31.0496 322.571 31.0496C321.792 31.0496 321.093 30.8749 320.474 30.5253C319.865 30.1758 319.385 29.6815 319.036 29.0425C318.686 28.3934 318.512 27.6444 318.512 26.7956C318.512 25.9469 318.681 25.2029 319.021 24.5638C319.36 23.9247 319.835 23.4354 320.444 23.0959C321.063 22.7464 321.772 22.5716 322.571 22.5716C323.35 22.5716 324.039 22.7414 324.638 23.0809C325.237 23.4204 325.696 23.8898 326.016 24.4889C326.345 25.0781 326.51 25.7471 326.51 26.4961ZM325.102 26.2115C325.102 25.6922 324.987 25.2478 324.758 24.8784C324.528 24.4989 324.213 24.2143 323.814 24.0246C323.425 23.8249 322.99 23.725 322.511 23.725C321.822 23.725 321.233 23.9447 320.743 24.3841C320.264 24.8234 319.989 25.4326 319.92 26.2115H325.102ZM329.972 23.8299V28.668C329.972 29.0674 330.057 29.352 330.227 29.5218C330.396 29.6815 330.691 29.7614 331.11 29.7614H332.114V30.9148H330.886C330.127 30.9148 329.558 30.74 329.178 30.3905C328.799 30.041 328.609 29.4669 328.609 28.668V23.8299H327.545V22.7065H328.609V20.6394H329.972V22.7065H332.114V23.8299H329.972ZM335.428 23.8299V28.668C335.428 29.0674 335.513 29.352 335.683 29.5218C335.852 29.6815 336.147 29.7614 336.566 29.7614H337.57V30.9148H336.342C335.583 30.9148 335.014 30.74 334.634 30.3905C334.255 30.041 334.065 29.4669 334.065 28.668V23.8299H333.002V22.7065H334.065V20.6394H335.428V22.7065H337.57V23.8299H335.428ZM342.801 31.0496C342.033 31.0496 341.334 30.8749 340.704 30.5253C340.085 30.1758 339.596 29.6815 339.237 29.0425C338.887 28.3934 338.712 27.6444 338.712 26.7956C338.712 25.9568 338.892 25.2179 339.252 24.5788C339.621 23.9297 340.12 23.4354 340.749 23.0959C341.379 22.7464 342.083 22.5716 342.861 22.5716C343.64 22.5716 344.344 22.7464 344.973 23.0959C345.603 23.4354 346.097 23.9247 346.456 24.5638C346.826 25.2029 347.011 25.9469 347.011 26.7956C347.011 27.6444 346.821 28.3934 346.441 29.0425C346.072 29.6815 345.568 30.1758 344.928 30.5253C344.289 30.8749 343.58 31.0496 342.801 31.0496ZM342.801 29.8513C343.291 29.8513 343.75 29.7365 344.18 29.5068C344.609 29.2771 344.953 28.9326 345.213 28.4733C345.483 28.0139 345.617 27.4547 345.617 26.7956C345.617 26.1366 345.488 25.5774 345.228 25.118C344.968 24.6587 344.629 24.3192 344.209 24.0995C343.79 23.8698 343.336 23.755 342.846 23.755C342.347 23.755 341.888 23.8698 341.468 24.0995C341.059 24.3192 340.729 24.6587 340.48 25.118C340.23 25.5774 340.105 26.1366 340.105 26.7956C340.105 27.4647 340.225 28.0289 340.465 28.4882C340.714 28.9476 341.044 29.2921 341.453 29.5218C341.863 29.7415 342.312 29.8513 342.801 29.8513ZM352.802 22.5567C353.801 22.5567 354.609 22.8612 355.229 23.4704C355.848 24.0695 356.157 24.9383 356.157 26.0767V30.9148H354.809V26.2714C354.809 25.4526 354.604 24.8284 354.195 24.399C353.786 23.9597 353.226 23.74 352.517 23.74C351.798 23.74 351.224 23.9647 350.795 24.414C350.375 24.8634 350.166 25.5175 350.166 26.3762V30.9148H348.803V22.7065H350.166V23.8748C350.435 23.4554 350.8 23.1309 351.259 22.9012C351.729 22.6715 352.243 22.5567 352.802 22.5567ZM361.224 31.9633H376.203V16.9846H361.224V31.9633Z" fill="white"/>
<rect x="0.425781" y="62.4255" width="205.957" height="52.4255" rx="18.7234" fill="white" fill-opacity="0.05"/>
<path d="M83.496 85.9558C83.496 86.8246 83.1964 87.5486 82.5973 88.1277C82.0081 88.6969 81.1044 88.9815 79.8861 88.9815H77.879V93.3403H76.5159V82.9002H79.8861C81.0645 82.9002 81.9582 83.1848 82.5673 83.7539C83.1864 84.3231 83.496 85.0571 83.496 85.9558ZM79.8861 87.8581C80.6451 87.8581 81.2043 87.6934 81.5637 87.3638C81.9232 87.0343 82.103 86.565 82.103 85.9558C82.103 84.6677 81.364 84.0236 79.8861 84.0236H77.879V87.8581H79.8861ZM85.8941 83.7989C85.6345 83.7989 85.4148 83.709 85.2351 83.5293C85.0553 83.3495 84.9654 83.1298 84.9654 82.8702C84.9654 82.6106 85.0553 82.3909 85.2351 82.2111C85.4148 82.0314 85.6345 81.9415 85.8941 81.9415C86.1438 81.9415 86.3535 82.0314 86.5232 82.2111C86.703 82.3909 86.7928 82.6106 86.7928 82.8702C86.7928 83.1298 86.703 83.3495 86.5232 83.5293C86.3535 83.709 86.1438 83.7989 85.8941 83.7989ZM86.5532 85.132V93.3403H85.1901V85.132H86.5532ZM92.8756 84.9822C93.8742 84.9822 94.683 85.2868 95.3022 85.8959C95.9213 86.4951 96.2308 87.3638 96.2308 88.5022V93.3403H94.8828V88.6969C94.8828 87.8781 94.678 87.254 94.2686 86.8246C93.8592 86.3852 93.3 86.1655 92.591 86.1655C91.872 86.1655 91.2978 86.3902 90.8685 86.8396C90.4491 87.2889 90.2394 87.943 90.2394 88.8018V93.3403H88.8763V85.132H90.2394V86.3003C90.509 85.8809 90.8735 85.5564 91.3328 85.3267C91.8021 85.097 92.3164 84.9822 92.8756 84.9822ZM101.297 94.3888H116.276V79.4101H101.297V94.3888Z" fill="white"/>
<rect x="217.617" y="62.4255" width="205.957" height="52.4255" rx="18.7234" fill="white" fill-opacity="0.05"/>
<path d="M283.8 82.9002L279.861 93.3403H278.288L274.349 82.9002H275.801L279.082 91.9024L282.362 82.9002H283.8ZM285.999 83.7989C285.739 83.7989 285.519 83.709 285.34 83.5293C285.16 83.3495 285.07 83.1298 285.07 82.8702C285.07 82.6106 285.16 82.3909 285.34 82.2111C285.519 82.0314 285.739 81.9415 285.999 81.9415C286.248 81.9415 286.458 82.0314 286.628 82.2111C286.808 82.3909 286.897 82.6106 286.897 82.8702C286.897 83.1298 286.808 83.3495 286.628 83.5293C286.458 83.709 286.248 83.7989 285.999 83.7989ZM286.658 85.132V93.3403H285.295V85.132H286.658ZM296.47 88.9216C296.47 89.1812 296.455 89.4558 296.425 89.7454H289.865C289.915 90.5543 290.189 91.1884 290.688 91.6477C291.198 92.0971 291.812 92.3218 292.531 92.3218C293.12 92.3218 293.609 92.187 293.999 91.9174C294.398 91.6378 294.678 91.2683 294.838 90.8089H296.305C296.086 91.5978 295.646 92.2419 294.987 92.7412C294.328 93.2305 293.509 93.4751 292.531 93.4751C291.752 93.4751 291.053 93.3004 290.434 92.9509C289.825 92.6014 289.345 92.1071 288.996 91.468C288.646 90.8189 288.472 90.07 288.472 89.2212C288.472 88.3724 288.641 87.6284 288.981 86.9894C289.32 86.3503 289.795 85.861 290.404 85.5214C291.023 85.1719 291.732 84.9972 292.531 84.9972C293.31 84.9972 293.999 85.1669 294.598 85.5065C295.197 85.846 295.656 86.3153 295.976 86.9145C296.305 87.5036 296.47 88.1727 296.47 88.9216ZM295.062 88.637C295.062 88.1178 294.947 87.6734 294.718 87.3039C294.488 86.9244 294.173 86.6398 293.774 86.4501C293.385 86.2504 292.95 86.1505 292.471 86.1505C291.782 86.1505 291.193 86.3702 290.703 86.8096C290.224 87.249 289.949 87.8581 289.88 88.637H295.062ZM309.204 85.132L306.643 93.3403H305.235L303.257 86.8246L301.28 93.3403H299.872L297.296 85.132H298.689L300.576 92.0222L302.613 85.132H304.006L305.998 92.0372L307.856 85.132H309.204ZM319.283 93.4452C318.315 93.4452 317.431 93.2205 316.632 92.7711C315.833 92.3118 315.199 91.6777 314.73 90.8688C314.27 90.05 314.041 89.1313 314.041 88.1128C314.041 87.0942 314.27 86.1805 314.73 85.3717C315.199 84.5528 315.833 83.9187 316.632 83.4694C317.431 83.01 318.315 82.7803 319.283 82.7803C320.262 82.7803 321.151 83.01 321.949 83.4694C322.748 83.9187 323.377 84.5478 323.837 85.3567C324.296 86.1655 324.526 87.0842 324.526 88.1128C324.526 89.1413 324.296 90.06 323.837 90.8688C323.377 91.6777 322.748 92.3118 321.949 92.7711C321.151 93.2205 320.262 93.4452 319.283 93.4452ZM319.283 92.2619C320.012 92.2619 320.666 92.0921 321.245 91.7526C321.835 91.4131 322.294 90.9288 322.624 90.2997C322.963 89.6705 323.133 88.9416 323.133 88.1128C323.133 87.2739 322.963 86.545 322.624 85.9259C322.294 85.2968 321.84 84.8124 321.26 84.4729C320.681 84.1334 320.022 83.9637 319.283 83.9637C318.544 83.9637 317.885 84.1334 317.306 84.4729C316.727 84.8124 316.268 85.2968 315.928 85.9259C315.599 86.545 315.434 87.2739 315.434 88.1128C315.434 88.9416 315.599 89.6705 315.928 90.2997C316.268 90.9288 316.727 91.4131 317.306 91.7526C317.895 92.0921 318.554 92.2619 319.283 92.2619ZM327.688 86.4651C327.928 85.9958 328.268 85.6313 328.707 85.3717C329.156 85.112 329.7 84.9822 330.34 84.9822V86.3902H329.98C328.452 86.3902 327.688 87.219 327.688 88.8767V93.3403H326.325V85.132H327.688V86.4651ZM331.404 89.2062C331.404 88.3674 331.574 87.6334 331.913 87.0043C332.253 86.3652 332.717 85.8709 333.306 85.5214C333.905 85.1719 334.574 84.9972 335.313 84.9972C335.952 84.9972 336.546 85.147 337.096 85.4465C337.645 85.7361 338.064 86.1206 338.354 86.5999V82.2561H339.732V93.3403H338.354V91.7975C338.084 92.2868 337.685 92.6913 337.156 93.0108C336.626 93.3204 336.007 93.4751 335.298 93.4751C334.569 93.4751 333.905 93.2954 333.306 92.9359C332.717 92.5764 332.253 92.0721 331.913 91.4231C331.574 90.774 331.404 90.035 331.404 89.2062ZM338.354 89.2212C338.354 88.6021 338.229 88.0628 337.979 87.6035C337.73 87.1441 337.39 86.7946 336.961 86.555C336.541 86.3053 336.077 86.1805 335.568 86.1805C335.059 86.1805 334.594 86.3003 334.175 86.54C333.755 86.7797 333.421 87.1292 333.171 87.5885C332.922 88.0478 332.797 88.5871 332.797 89.2062C332.797 89.8353 332.922 90.3845 333.171 90.8539C333.421 91.3132 333.755 91.6677 334.175 91.9174C334.594 92.157 335.059 92.2768 335.568 92.2768C336.077 92.2768 336.541 92.157 336.961 91.9174C337.39 91.6677 337.73 91.3132 337.979 90.8539C338.229 90.3845 338.354 89.8403 338.354 89.2212ZM349.525 88.9216C349.525 89.1812 349.51 89.4558 349.48 89.7454H342.919C342.969 90.5543 343.244 91.1884 343.743 91.6477C344.252 92.0971 344.866 92.3218 345.585 92.3218C346.174 92.3218 346.664 92.187 347.053 91.9174C347.453 91.6378 347.732 91.2683 347.892 90.8089H349.36C349.14 91.5978 348.701 92.2419 348.042 92.7412C347.383 93.2305 346.564 93.4751 345.585 93.4751C344.806 93.4751 344.107 93.3004 343.488 92.9509C342.879 92.6014 342.4 92.1071 342.05 91.468C341.701 90.8189 341.526 90.07 341.526 89.2212C341.526 88.3724 341.696 87.6284 342.035 86.9894C342.375 86.3503 342.849 85.861 343.458 85.5214C344.077 85.1719 344.786 84.9972 345.585 84.9972C346.364 84.9972 347.053 85.1669 347.652 85.5065C348.252 85.846 348.711 86.3153 349.03 86.9145C349.36 87.5036 349.525 88.1727 349.525 88.9216ZM348.117 88.637C348.117 88.1178 348.002 87.6734 347.772 87.3039C347.543 86.9244 347.228 86.6398 346.829 86.4501C346.439 86.2504 346.005 86.1505 345.525 86.1505C344.836 86.1505 344.247 86.3702 343.758 86.8096C343.279 87.249 343.004 87.8581 342.934 88.637H348.117ZM352.687 86.4651C352.927 85.9958 353.266 85.6313 353.706 85.3717C354.155 85.112 354.699 84.9822 355.338 84.9822V86.3902H354.979C353.451 86.3902 352.687 87.219 352.687 88.8767V93.3403H351.324V85.132H352.687V86.4651ZM359.818 93.4751C359.188 93.4751 358.624 93.3703 358.125 93.1606C357.626 92.9409 357.231 92.6413 356.942 92.2619C356.652 91.8724 356.492 91.428 356.462 90.9288H357.87C357.91 91.3382 358.1 91.6727 358.44 91.9323C358.789 92.192 359.243 92.3218 359.803 92.3218C360.322 92.3218 360.731 92.2069 361.031 91.9773C361.33 91.7476 361.48 91.458 361.48 91.1085C361.48 90.749 361.32 90.4844 361.001 90.3146C360.681 90.1349 360.187 89.9601 359.518 89.7904C358.909 89.6306 358.41 89.4708 358.02 89.3111C357.641 89.1413 357.311 88.8966 357.032 88.5771C356.762 88.2476 356.627 87.8182 356.627 87.2889C356.627 86.8695 356.752 86.4851 357.002 86.1356C357.251 85.7861 357.606 85.5115 358.065 85.3117C358.524 85.102 359.049 84.9972 359.638 84.9972C360.547 84.9972 361.281 85.2269 361.84 85.6862C362.399 86.1456 362.698 86.7747 362.738 87.5735H361.375C361.345 87.1441 361.171 86.7996 360.851 86.54C360.542 86.2804 360.122 86.1505 359.593 86.1505C359.104 86.1505 358.714 86.2554 358.425 86.4651C358.135 86.6748 357.99 86.9494 357.99 87.2889C357.99 87.5585 358.075 87.7832 358.245 87.963C358.425 88.1327 358.644 88.2725 358.904 88.3824C359.173 88.4822 359.543 88.5971 360.012 88.7269C360.601 88.8867 361.081 89.0464 361.45 89.2062C361.82 89.356 362.134 89.5857 362.394 89.8952C362.664 90.2048 362.803 90.6092 362.813 91.1085C362.813 91.5579 362.689 91.9623 362.439 92.3218C362.189 92.6813 361.835 92.9659 361.375 93.1756C360.926 93.3753 360.407 93.4751 359.818 93.4751ZM367.577 94.3888H382.556V79.4101H367.577V94.3888Z" fill="white"/>
<rect x="0.425781" y="124.851" width="205.957" height="52.4255" rx="18.7234" fill="white" fill-opacity="0.05"/>
<path d="M65.3256 155.766L62.8391 151.497H61.1915V155.766H59.8284V145.326H63.1986C63.9875 145.326 64.6516 145.461 65.1908 145.73C65.74 146 66.1494 146.364 66.419 146.824C66.6887 147.283 66.8235 147.807 66.8235 148.396C66.8235 149.115 66.6138 149.749 66.1944 150.299C65.7849 150.848 65.1658 151.212 64.337 151.392L66.9583 155.766H65.3256ZM61.1915 150.403H63.1986C63.9376 150.403 64.4918 150.224 64.8613 149.864C65.2307 149.495 65.4155 149.005 65.4155 148.396C65.4155 147.777 65.2307 147.298 64.8613 146.958C64.5018 146.619 63.9476 146.449 63.1986 146.449H61.1915V150.403ZM76.4308 151.347C76.4308 151.607 76.4158 151.881 76.3859 152.171H69.8252C69.8751 152.98 70.1497 153.614 70.649 154.073C71.1583 154.523 71.7724 154.747 72.4914 154.747C73.0806 154.747 73.5699 154.613 73.9593 154.343C74.3587 154.063 74.6383 153.694 74.7981 153.234H76.266C76.0463 154.023 75.607 154.667 74.9479 155.167C74.2888 155.656 73.47 155.901 72.4914 155.901C71.7125 155.901 71.0135 155.726 70.3944 155.376C69.7852 155.027 69.3059 154.533 68.9564 153.894C68.6069 153.244 68.4322 152.496 68.4322 151.647C68.4322 150.798 68.6019 150.054 68.9414 149.415C69.281 148.776 69.7553 148.286 70.3644 147.947C70.9835 147.597 71.6925 147.423 72.4914 147.423C73.2703 147.423 73.9593 147.592 74.5585 147.932C75.1576 148.272 75.617 148.741 75.9365 149.34C76.266 149.929 76.4308 150.598 76.4308 151.347ZM75.0228 151.063C75.0228 150.543 74.908 150.099 74.6783 149.729C74.4486 149.35 74.1341 149.065 73.7346 148.876C73.3452 148.676 72.9108 148.576 72.4315 148.576C71.7425 148.576 71.1533 148.796 70.664 149.235C70.1847 149.675 69.9101 150.284 69.8402 151.063H75.0228ZM81.5703 148.681H79.8477V155.766H78.4846V148.681H77.4212V147.558H78.4846V146.973C78.4846 146.055 78.7193 145.386 79.1886 144.966C79.668 144.537 80.4319 144.322 81.4804 144.322V145.461C80.8812 145.461 80.4568 145.58 80.2072 145.82C79.9675 146.05 79.8477 146.434 79.8477 146.973V147.558H81.5703V148.681ZM84.5226 148.891C84.7622 148.421 85.1018 148.057 85.5411 147.797C85.9905 147.538 86.5347 147.408 87.1738 147.408V148.816H86.8143C85.2865 148.816 84.5226 149.645 84.5226 151.302V155.766H83.1595V147.558H84.5226V148.891ZM96.2367 151.347C96.2367 151.607 96.2217 151.881 96.1917 152.171H89.631C89.681 152.98 89.9556 153.614 90.4549 154.073C90.9641 154.523 91.5783 154.747 92.2972 154.747C92.8864 154.747 93.3757 154.613 93.7652 154.343C94.1646 154.063 94.4442 153.694 94.604 153.234H96.0719C95.8522 154.023 95.4128 154.667 94.7538 155.167C94.0947 155.656 93.2759 155.901 92.2972 155.901C91.5184 155.901 90.8193 155.726 90.2002 155.376C89.5911 155.027 89.1118 154.533 88.7623 153.894C88.4128 153.244 88.238 152.496 88.238 151.647C88.238 150.798 88.4078 150.054 88.7473 149.415C89.0868 148.776 89.5611 148.286 90.1703 147.947C90.7894 147.597 91.4984 147.423 92.2972 147.423C93.0761 147.423 93.7652 147.592 94.3643 147.932C94.9635 148.272 95.4228 148.741 95.7424 149.34C96.0719 149.929 96.2367 150.598 96.2367 151.347ZM94.8287 151.063C94.8287 150.543 94.7138 150.099 94.4841 149.729C94.2545 149.35 93.9399 149.065 93.5405 148.876C93.151 148.676 92.7167 148.576 92.2373 148.576C91.5483 148.576 90.9591 148.796 90.4698 149.235C89.9905 149.675 89.7159 150.284 89.646 151.063H94.8287ZM100.942 155.901C100.313 155.901 99.7484 155.796 99.2491 155.586C98.7498 155.366 98.3554 155.067 98.0658 154.687C97.7762 154.298 97.6164 153.854 97.5865 153.354H98.9945C99.0344 153.764 99.2242 154.098 99.5637 154.358C99.9132 154.618 100.368 154.747 100.927 154.747C101.446 154.747 101.855 154.632 102.155 154.403C102.455 154.173 102.604 153.884 102.604 153.534C102.604 153.175 102.445 152.91 102.125 152.74C101.805 152.56 101.311 152.386 100.642 152.216C100.033 152.056 99.5337 151.896 99.1443 151.737C98.7648 151.567 98.4353 151.322 98.1557 151.003C97.8861 150.673 97.7513 150.244 97.7513 149.714C97.7513 149.295 97.8761 148.911 98.1257 148.561C98.3754 148.212 98.7299 147.937 99.1892 147.737C99.6486 147.528 100.173 147.423 100.762 147.423C101.671 147.423 102.405 147.652 102.964 148.112C103.523 148.571 103.823 149.2 103.863 149.999H102.5C102.47 149.57 102.295 149.225 101.975 148.966C101.666 148.706 101.246 148.576 100.717 148.576C100.228 148.576 99.8383 148.681 99.5487 148.891C99.2591 149.1 99.1143 149.375 99.1143 149.714C99.1143 149.984 99.1992 150.209 99.369 150.389C99.5487 150.558 99.7684 150.698 100.028 150.808C100.298 150.908 100.667 151.023 101.136 151.152C101.726 151.312 102.205 151.472 102.574 151.632C102.944 151.782 103.258 152.011 103.518 152.321C103.788 152.63 103.927 153.035 103.937 153.534C103.937 153.983 103.813 154.388 103.563 154.747C103.313 155.107 102.959 155.391 102.5 155.601C102.05 155.801 101.531 155.901 100.942 155.901ZM109.936 147.408C110.555 147.408 111.114 147.543 111.613 147.812C112.113 148.072 112.502 148.466 112.782 148.995C113.071 149.525 113.216 150.169 113.216 150.928V155.766H111.868V151.122C111.868 150.304 111.663 149.68 111.254 149.25C110.845 148.811 110.285 148.591 109.576 148.591C108.857 148.591 108.283 148.816 107.854 149.265C107.434 149.714 107.225 150.369 107.225 151.227V155.766H105.862V144.682H107.225V148.726C107.494 148.306 107.864 147.982 108.333 147.752C108.812 147.523 109.347 147.408 109.936 147.408ZM118.283 156.814H133.261V141.836H118.283V156.814Z" fill="white"/>
<rect x="217.617" y="124.851" width="205.957" height="52.4255" rx="18.7234" fill="white" fill-opacity="0.05"/>
<path d="M293.64 155.871C292.951 155.871 292.332 155.751 291.783 155.511C291.243 155.262 290.819 154.922 290.509 154.493C290.2 154.053 290.04 153.549 290.03 152.98H291.483C291.533 153.469 291.733 153.884 292.082 154.223C292.442 154.553 292.961 154.717 293.64 154.717C294.289 154.717 294.798 154.558 295.168 154.238C295.547 153.909 295.737 153.489 295.737 152.98C295.737 152.58 295.627 152.256 295.408 152.006C295.188 151.757 294.913 151.567 294.584 151.437C294.254 151.307 293.81 151.167 293.251 151.018C292.562 150.838 292.007 150.658 291.588 150.478C291.179 150.299 290.824 150.019 290.524 149.64C290.235 149.25 290.09 148.731 290.09 148.082C290.09 147.513 290.235 147.008 290.524 146.569C290.814 146.13 291.218 145.79 291.738 145.55C292.267 145.311 292.871 145.191 293.55 145.191C294.529 145.191 295.328 145.436 295.947 145.925C296.576 146.414 296.93 147.063 297.01 147.872H295.512C295.462 147.473 295.253 147.123 294.883 146.824C294.514 146.514 294.024 146.359 293.415 146.359C292.846 146.359 292.382 146.509 292.022 146.809C291.663 147.098 291.483 147.508 291.483 148.037C291.483 148.416 291.588 148.726 291.798 148.966C292.017 149.205 292.282 149.39 292.592 149.52C292.911 149.64 293.355 149.779 293.925 149.939C294.614 150.129 295.168 150.319 295.587 150.508C296.007 150.688 296.366 150.973 296.666 151.362C296.965 151.742 297.115 152.261 297.115 152.92C297.115 153.429 296.98 153.909 296.711 154.358C296.441 154.807 296.042 155.172 295.512 155.451C294.983 155.731 294.359 155.871 293.64 155.871ZM306.61 151.347C306.61 151.607 306.595 151.881 306.565 152.171H300.005C300.055 152.98 300.329 153.614 300.829 154.073C301.338 154.523 301.952 154.747 302.671 154.747C303.26 154.747 303.749 154.613 304.139 154.343C304.538 154.063 304.818 153.694 304.978 153.234H306.446C306.226 154.023 305.786 154.667 305.127 155.167C304.468 155.656 303.65 155.901 302.671 155.901C301.892 155.901 301.193 155.726 300.574 155.376C299.965 155.027 299.485 154.533 299.136 153.894C298.786 153.244 298.612 152.496 298.612 151.647C298.612 150.798 298.781 150.054 299.121 149.415C299.46 148.776 299.935 148.286 300.544 147.947C301.163 147.597 301.872 147.423 302.671 147.423C303.45 147.423 304.139 147.592 304.738 147.932C305.337 148.272 305.796 148.741 306.116 149.34C306.446 149.929 306.61 150.598 306.61 151.347ZM305.202 151.063C305.202 150.543 305.087 150.099 304.858 149.729C304.628 149.35 304.314 149.065 303.914 148.876C303.525 148.676 303.09 148.576 302.611 148.576C301.922 148.576 301.333 148.796 300.843 149.235C300.364 149.675 300.09 150.284 300.02 151.063H305.202ZM310.072 148.681V153.519C310.072 153.918 310.157 154.203 310.327 154.373C310.497 154.533 310.791 154.613 311.211 154.613H312.214V155.766H310.986C310.227 155.766 309.658 155.591 309.278 155.242C308.899 154.892 308.709 154.318 308.709 153.519V148.681H307.646V147.558H308.709V145.49H310.072V147.558H312.214V148.681H310.072ZM315.528 148.681V153.519C315.528 153.918 315.613 154.203 315.783 154.373C315.953 154.533 316.247 154.613 316.667 154.613H317.67V155.766H316.442C315.683 155.766 315.114 155.591 314.734 155.242C314.355 154.892 314.165 154.318 314.165 153.519V148.681H313.102V147.558H314.165V145.49H315.528V147.558H317.67V148.681H315.528ZM320.026 146.224C319.766 146.224 319.546 146.135 319.367 145.955C319.187 145.775 319.097 145.555 319.097 145.296C319.097 145.036 319.187 144.816 319.367 144.637C319.546 144.457 319.766 144.367 320.026 144.367C320.275 144.367 320.485 144.457 320.655 144.637C320.835 144.816 320.924 145.036 320.924 145.296C320.924 145.555 320.835 145.775 320.655 145.955C320.485 146.135 320.275 146.224 320.026 146.224ZM320.685 147.558V155.766H319.322V147.558H320.685ZM327.007 147.408C328.006 147.408 328.815 147.712 329.434 148.321C330.053 148.921 330.362 149.789 330.362 150.928V155.766H329.014V151.122C329.014 150.304 328.81 149.68 328.4 149.25C327.991 148.811 327.432 148.591 326.723 148.591C326.004 148.591 325.429 148.816 325 149.265C324.581 149.714 324.371 150.369 324.371 151.227V155.766H323.008V147.558H324.371V148.726C324.641 148.306 325.005 147.982 325.464 147.752C325.934 147.523 326.448 147.408 327.007 147.408ZM335.974 147.423C336.683 147.423 337.302 147.577 337.832 147.887C338.371 148.197 338.77 148.586 339.03 149.055V147.558H340.408V155.946C340.408 156.695 340.248 157.359 339.929 157.938C339.609 158.527 339.15 158.986 338.551 159.316C337.961 159.645 337.272 159.81 336.483 159.81C335.405 159.81 334.506 159.555 333.787 159.046C333.068 158.537 332.644 157.843 332.514 156.964H333.862C334.012 157.463 334.322 157.863 334.791 158.162C335.26 158.472 335.824 158.627 336.483 158.627C337.232 158.627 337.842 158.392 338.311 157.923C338.79 157.453 339.03 156.794 339.03 155.946V154.223C338.76 154.702 338.361 155.102 337.832 155.421C337.302 155.741 336.683 155.901 335.974 155.901C335.245 155.901 334.581 155.721 333.982 155.361C333.393 155.002 332.929 154.498 332.589 153.849C332.25 153.2 332.08 152.461 332.08 151.632C332.08 150.793 332.25 150.059 332.589 149.43C332.929 148.791 333.393 148.296 333.982 147.947C334.581 147.597 335.245 147.423 335.974 147.423ZM339.03 151.647C339.03 151.028 338.905 150.488 338.655 150.029C338.406 149.57 338.066 149.22 337.637 148.981C337.217 148.731 336.753 148.606 336.244 148.606C335.735 148.606 335.27 148.726 334.851 148.966C334.431 149.205 334.097 149.555 333.847 150.014C333.598 150.473 333.473 151.013 333.473 151.632C333.473 152.261 333.598 152.81 333.847 153.279C334.097 153.739 334.431 154.093 334.851 154.343C335.27 154.583 335.735 154.702 336.244 154.702C336.753 154.702 337.217 154.583 337.637 154.343C338.066 154.093 338.406 153.739 338.655 153.279C338.905 152.81 339.03 152.266 339.03 151.647ZM345.617 155.901C344.988 155.901 344.424 155.796 343.925 155.586C343.425 155.366 343.031 155.067 342.741 154.687C342.452 154.298 342.292 153.854 342.262 153.354H343.67C343.71 153.764 343.9 154.098 344.239 154.358C344.589 154.618 345.043 154.747 345.602 154.747C346.122 154.747 346.531 154.632 346.831 154.403C347.13 154.173 347.28 153.884 347.28 153.534C347.28 153.175 347.12 152.91 346.801 152.74C346.481 152.56 345.987 152.386 345.318 152.216C344.709 152.056 344.209 151.896 343.82 151.737C343.44 151.567 343.111 151.322 342.831 151.003C342.562 150.673 342.427 150.244 342.427 149.714C342.427 149.295 342.552 148.911 342.801 148.561C343.051 148.212 343.405 147.937 343.865 147.737C344.324 147.528 344.848 147.423 345.437 147.423C346.346 147.423 347.08 147.652 347.639 148.112C348.199 148.571 348.498 149.2 348.538 149.999H347.175C347.145 149.57 346.97 149.225 346.651 148.966C346.341 148.706 345.922 148.576 345.393 148.576C344.903 148.576 344.514 148.681 344.224 148.891C343.935 149.1 343.79 149.375 343.79 149.714C343.79 149.984 343.875 150.209 344.044 150.389C344.224 150.558 344.444 150.698 344.704 150.808C344.973 150.908 345.343 151.023 345.812 151.152C346.401 151.312 346.88 151.472 347.25 151.632C347.619 151.782 347.934 152.011 348.194 152.321C348.463 152.63 348.603 153.035 348.613 153.534C348.613 153.983 348.488 154.388 348.239 154.747C347.989 155.107 347.634 155.391 347.175 155.601C346.726 155.801 346.206 155.901 345.617 155.901ZM353.377 156.814H368.356V141.836H353.377V156.814Z" fill="white"/>
</svg>
