<svg width="319" height="234" viewBox="0 0 319 234" fill="none" xmlns="http://www.w3.org/2000/svg">
<g clip-path="url(#clip0_1185_14734)">
<mask id="path-1-inside-1_1185_14734" fill="white">
<path d="M0 36.6956C0 16.4292 16.4292 0 36.6957 0H282.304C302.571 0 319 16.4292 319 36.6957V236H0V36.6956Z"/>
</mask>
<g opacity="0.8">
<path d="M38.4073 32.0783C36.9734 32.0783 35.8533 31.2233 35.6314 29.968H37.0167C37.1898 30.5578 37.7472 30.9474 38.429 30.9474C39.5816 30.9474 40.2742 29.8651 40.2526 27.9766C40.2526 27.9766 40.2471 27.9766 40.2417 27.9766H40.2363H40.2309C39.9279 28.7396 39.127 29.2537 38.1151 29.2537C36.6325 29.2537 35.5232 28.1552 35.5232 26.6725C35.5232 25.0925 36.7515 23.9507 38.4398 23.9507C39.587 23.9507 40.5177 24.5027 41.0372 25.4983C41.4051 26.1368 41.5945 26.9539 41.5945 27.9279C41.5945 30.5307 40.4095 32.0783 38.4073 32.0783ZM38.4452 28.1606C39.3381 28.1606 40.0145 27.5113 40.0145 26.6509C40.0145 25.7797 39.3327 25.0979 38.456 25.0979C37.5848 25.0979 36.8976 25.7743 36.8976 26.6293C36.8976 27.5113 37.5578 28.1606 38.4452 28.1606ZM43.2219 30.9041C42.7673 30.9041 42.4048 30.5415 42.4048 30.087C42.4048 29.6433 42.7673 29.2699 43.2219 29.2699C43.6764 29.2699 44.0389 29.6433 44.0389 30.087C44.0389 30.5415 43.6764 30.9041 43.2219 30.9041ZM43.2219 26.8241C42.7673 26.8241 42.4048 26.4561 42.4048 26.0016C42.4048 25.5578 42.7673 25.1899 43.2219 25.1899C43.6764 25.1899 44.0389 25.5578 44.0389 26.0016C44.0389 26.4561 43.6764 26.8241 43.2219 26.8241ZM48.6803 31.9214V30.4441H44.7842V29.2429C45.4606 27.9658 46.3318 26.5751 48.0255 24.1131H50.0114V29.3024H51.0612V30.4441H50.0114V31.9214H48.6803ZM46.0505 29.297V29.3348H48.7019V25.1466H48.6803C47.4195 26.9756 46.6727 28.1282 46.0505 29.297ZM53.5435 31.9214V25.4442H53.511L51.4927 26.8619V25.547L53.5327 24.1131H54.9125V31.9214H53.5435Z" fill="white"/>
<path fill-rule="evenodd" clip-rule="evenodd" d="M140.808 20.6008C136.755 20.6008 133.469 23.8867 133.469 27.94C133.469 31.9932 136.755 35.2791 140.808 35.2791H168.33C172.383 35.2791 175.669 31.9932 175.669 27.94C175.669 23.8867 172.383 20.6008 168.33 20.6008H140.808ZM168.845 31.1816C170.635 31.1816 172.087 29.7304 172.087 27.9401C172.087 26.1499 170.635 24.6987 168.845 24.6987C167.055 24.6987 165.604 26.1499 165.604 27.9401C165.604 29.7304 167.055 31.1816 168.845 31.1816Z" fill="white"/>
<path opacity="0.35" d="M275.201 25.7245C275.201 24.8405 275.918 24.1238 276.802 24.1238H289.116C290 24.1238 290.716 24.8405 290.716 25.7245V30.1574C290.716 31.0414 290 31.7581 289.116 31.7581H276.802C275.918 31.7581 275.201 31.0414 275.201 30.1574V25.7245Z" stroke="white" stroke-width="0.738806"/>
<path opacity="0.4" d="M291.825 26.4634V29.4186C292.419 29.1683 292.806 28.5861 292.806 27.941C292.806 27.2959 292.419 26.7137 291.825 26.4634Z" fill="white"/>
<path d="M276.31 26.0449C276.31 25.596 276.674 25.2322 277.123 25.2322H288.796C289.245 25.2322 289.609 25.596 289.609 26.0449V29.8374C289.609 30.2862 289.245 30.6501 288.796 30.6501H277.123C276.674 30.6501 276.31 30.2862 276.31 29.8374V26.0449Z" fill="white"/>
<path fill-rule="evenodd" clip-rule="evenodd" d="M265.472 25.4347C267.109 25.4348 268.684 26.0638 269.87 27.1918C269.96 27.2789 270.102 27.2778 270.19 27.1894L271.044 26.3274C271.089 26.2826 271.114 26.2218 271.113 26.1586C271.113 26.0953 271.087 26.0349 271.042 25.9905C267.928 23.0061 263.015 23.0061 259.901 25.9905C259.856 26.0348 259.83 26.0953 259.83 26.1585C259.83 26.2217 259.854 26.2825 259.899 26.3274L260.753 27.1894C260.841 27.2779 260.984 27.279 261.073 27.1918C262.26 26.0637 263.835 25.4347 265.472 25.4347ZM265.472 28.239C266.372 28.2389 267.239 28.5732 267.906 29.177C267.996 29.2627 268.138 29.2608 268.226 29.1728L269.079 28.3109C269.124 28.2657 269.149 28.2043 269.148 28.1406C269.147 28.0769 269.121 28.016 269.075 27.9718C267.045 26.0831 263.901 26.0831 261.87 27.9718C261.825 28.016 261.798 28.0769 261.798 28.1406C261.797 28.2044 261.822 28.2657 261.867 28.3109L262.72 29.1728C262.808 29.2608 262.95 29.2627 263.04 29.177C263.706 28.5736 264.573 28.2393 265.472 28.239ZM267.181 30.1257C267.182 30.1896 267.157 30.2513 267.111 30.296L265.636 31.7852C265.593 31.829 265.534 31.8536 265.472 31.8536C265.411 31.8536 265.352 31.829 265.308 31.7852L263.832 30.296C263.787 30.2512 263.762 30.1896 263.763 30.1257C263.764 30.0618 263.792 30.0012 263.84 29.9584C264.782 29.1613 266.162 29.1613 267.105 29.9584C267.152 30.0013 267.18 30.0618 267.181 30.1257Z" fill="white"/>
<path fill-rule="evenodd" clip-rule="evenodd" d="M255.377 24.0005H254.638C254.23 24.0005 253.899 24.3313 253.899 24.7393V31.1423C253.899 31.5503 254.23 31.8811 254.638 31.8811H255.377C255.785 31.8811 256.116 31.5503 256.116 31.1423V24.7393C256.116 24.3313 255.785 24.0005 255.377 24.0005ZM251.19 25.7244H251.929C252.337 25.7244 252.668 26.0551 252.668 26.4632V31.1423C252.668 31.5503 252.337 31.8811 251.929 31.8811H251.19C250.782 31.8811 250.452 31.5503 250.452 31.1423V26.4632C250.452 26.0551 250.782 25.7244 251.19 25.7244ZM248.482 27.4482H247.743C247.335 27.4482 247.004 27.779 247.004 28.1871V31.1423C247.004 31.5503 247.335 31.8811 247.743 31.8811H248.482C248.89 31.8811 249.22 31.5503 249.22 31.1423V28.1871C249.22 27.779 248.89 27.4482 248.482 27.4482ZM245.034 28.9259H244.295C243.887 28.9259 243.556 29.2566 243.556 29.6647V31.1423C243.556 31.5503 243.887 31.8811 244.295 31.8811H245.034C245.442 31.8811 245.773 31.5503 245.773 31.1423V29.6647C245.773 29.2566 245.442 28.9259 245.034 28.9259Z" fill="white"/>
</g>
<rect x="21" y="82" width="276" height="203.899" rx="15.5056" fill="white" fill-opacity="0.07"/>
<rect x="29.5278" y="92.0786" width="257.393" height="87.6067" rx="7.75282" fill="white" fill-opacity="0.05"/>
<path d="M46.6462 104.141L44.5064 108.262V110.607H43.4459V108.262L41.2968 104.141H42.4783L43.9762 107.313L45.474 104.141H46.6462ZM49.3393 110.69C48.8555 110.69 48.4182 110.582 48.0275 110.365C47.6367 110.142 47.3297 109.831 47.1064 109.434C46.8832 109.031 46.7715 108.566 46.7715 108.039C46.7715 107.518 46.8863 107.056 47.1158 106.653C47.3452 106.25 47.6584 105.939 48.0554 105.722C48.4523 105.505 48.8958 105.397 49.3858 105.397C49.8758 105.397 50.3192 105.505 50.7162 105.722C51.1131 105.939 51.4263 106.25 51.6558 106.653C51.8853 107.056 52 107.518 52 108.039C52 108.56 51.8822 109.022 51.6465 109.425C51.4108 109.828 51.0883 110.142 50.6789 110.365C50.2758 110.582 49.8292 110.69 49.3393 110.69ZM49.3393 109.769C49.6122 109.769 49.8664 109.704 50.1021 109.574C50.344 109.444 50.5394 109.248 50.6882 108.988C50.8371 108.727 50.9115 108.411 50.9115 108.039C50.9115 107.667 50.8402 107.354 50.6976 107.099C50.5549 106.839 50.3657 106.643 50.13 106.513C49.8944 106.383 49.6401 106.318 49.3672 106.318C49.0943 106.318 48.84 106.383 48.6043 106.513C48.3748 106.643 48.1918 106.839 48.0554 107.099C47.9189 107.354 47.8507 107.667 47.8507 108.039C47.8507 108.591 47.9903 109.019 48.2694 109.323C48.5547 109.621 48.9113 109.769 49.3393 109.769ZM57.3187 105.481V110.607H56.2581V110.002C56.0907 110.213 55.8705 110.38 55.5976 110.504C55.3309 110.622 55.0456 110.681 54.7417 110.681C54.3385 110.681 53.9757 110.597 53.6532 110.43C53.3369 110.262 53.0857 110.014 52.8996 109.686C52.7198 109.357 52.6298 108.96 52.6298 108.495V105.481H53.6811V108.337C53.6811 108.796 53.7958 109.149 54.0253 109.397C54.2548 109.639 54.568 109.76 54.965 109.76C55.3619 109.76 55.6751 109.639 55.9046 109.397C56.1403 109.149 56.2581 108.796 56.2581 108.337V105.481H57.3187ZM61.4511 106.234C61.631 105.998 61.8759 105.8 62.1861 105.639C62.4962 105.477 62.8466 105.397 63.2373 105.397C63.6839 105.397 64.0902 105.508 64.4561 105.732C64.8282 105.949 65.1197 106.256 65.3306 106.653C65.5415 107.05 65.6469 107.506 65.6469 108.02C65.6469 108.535 65.5415 108.997 65.3306 109.407C65.1197 109.81 64.8282 110.126 64.4561 110.355C64.0902 110.579 63.6839 110.69 63.2373 110.69C62.8466 110.69 62.4993 110.613 62.1954 110.458C61.8915 110.297 61.6434 110.098 61.4511 109.862V113.044H60.3905V105.481H61.4511V106.234ZM64.5677 108.02C64.5677 107.667 64.4933 107.363 64.3444 107.109C64.2018 106.848 64.0095 106.653 63.7676 106.523C63.532 106.386 63.2777 106.318 63.0048 106.318C62.7381 106.318 62.4838 106.386 62.2419 106.523C62.0062 106.659 61.8139 106.857 61.6651 107.118C61.5224 107.378 61.4511 107.685 61.4511 108.039C61.4511 108.392 61.5224 108.703 61.6651 108.969C61.8139 109.23 62.0062 109.428 62.2419 109.565C62.4838 109.701 62.7381 109.769 63.0048 109.769C63.2777 109.769 63.532 109.701 63.7676 109.565C64.0095 109.422 64.2018 109.217 64.3444 108.951C64.4933 108.684 64.5677 108.374 64.5677 108.02ZM65.9701 108.02C65.9701 107.506 66.0755 107.05 66.2864 106.653C66.5035 106.256 66.795 105.949 67.1609 105.732C67.533 105.508 67.9424 105.397 68.3889 105.397C68.7921 105.397 69.1425 105.477 69.4402 105.639C69.7441 105.794 69.986 105.989 70.1659 106.225V105.481H71.2358V110.607H70.1659V109.844C69.986 110.086 69.741 110.287 69.4309 110.449C69.1208 110.61 68.7673 110.69 68.3703 110.69C67.93 110.69 67.5268 110.579 67.1609 110.355C66.795 110.126 66.5035 109.81 66.2864 109.407C66.0755 108.997 65.9701 108.535 65.9701 108.02ZM70.1659 108.039C70.1659 107.685 70.0915 107.378 69.9426 107.118C69.8 106.857 69.6108 106.659 69.3751 106.523C69.1394 106.386 68.8851 106.318 68.6122 106.318C68.3393 106.318 68.085 106.386 67.8493 106.523C67.6137 106.653 67.4214 106.848 67.2725 107.109C67.1299 107.363 67.0586 107.667 67.0586 108.02C67.0586 108.374 67.1299 108.684 67.2725 108.951C67.4214 109.217 67.6137 109.422 67.8493 109.565C68.0912 109.701 68.3455 109.769 68.6122 109.769C68.8851 109.769 69.1394 109.701 69.3751 109.565C69.6108 109.428 69.8 109.23 69.9426 108.969C70.0915 108.703 70.1659 108.392 70.1659 108.039ZM76.8712 105.481L73.7266 113.016H72.6288L73.6708 110.523L71.652 105.481H72.8335L74.2755 109.388L75.7734 105.481H76.8712Z" fill="white" fill-opacity="0.5"/>
<rect x="197.764" y="115.337" width="79.1686" height="31.7865" rx="15.8933" fill="white" fill-opacity="0.1"/>
<circle cx="212.882" cy="131.23" r="9.69101" fill="#0088CC"/>
<path d="M217.953 129.702L213.461 136.855C213.407 136.942 213.331 137.013 213.241 137.063C213.151 137.112 213.049 137.138 212.947 137.137C212.844 137.137 212.743 137.111 212.654 137.061C212.564 137.011 212.488 136.939 212.434 136.852L208.03 129.699C207.907 129.499 207.842 129.268 207.842 129.032C207.848 128.685 207.991 128.354 208.241 128.112C208.49 127.87 208.825 127.737 209.173 127.742H216.823C217.553 127.742 218.147 128.317 218.147 129.03C218.147 129.266 218.08 129.499 217.953 129.702M209.111 129.463L212.388 134.515V128.953H209.454C209.115 128.953 208.963 129.178 209.112 129.463M213.6 134.515L216.877 129.463C217.028 129.178 216.874 128.953 216.535 128.953H213.6V134.515Z" fill="white"/>
<path d="M234.537 125.532V126.83H231.955V135.23H230.365V126.83H227.769V125.532H234.537ZM240.014 135.328C239.111 135.328 238.279 135.119 237.516 134.7C236.762 134.272 236.162 133.681 235.716 132.928C235.278 132.165 235.06 131.309 235.06 130.36C235.06 129.411 235.278 128.56 235.716 127.806C236.162 127.053 236.762 126.467 237.516 126.048C238.279 125.62 239.111 125.406 240.014 125.406C240.926 125.406 241.758 125.62 242.512 126.048C243.275 126.467 243.875 127.053 244.312 127.806C244.749 128.56 244.968 129.411 244.968 130.36C244.968 131.309 244.749 132.165 244.312 132.928C243.875 133.681 243.275 134.272 242.512 134.7C241.758 135.119 240.926 135.328 240.014 135.328ZM240.014 133.947C240.656 133.947 241.228 133.802 241.73 133.514C242.233 133.216 242.623 132.798 242.902 132.258C243.191 131.709 243.335 131.077 243.335 130.36C243.335 129.644 243.191 129.016 242.902 128.476C242.623 127.937 242.233 127.523 241.73 127.234C241.228 126.946 240.656 126.802 240.014 126.802C239.372 126.802 238.8 126.946 238.297 127.234C237.795 127.523 237.4 127.937 237.111 128.476C236.832 129.016 236.692 129.644 236.692 130.36C236.692 131.077 236.832 131.709 237.111 132.258C237.4 132.798 237.795 133.216 238.297 133.514C238.8 133.802 239.372 133.947 240.014 133.947ZM253.943 135.23H252.353L247.566 127.988V135.23H245.975V125.518H247.566L252.353 132.746V125.518H253.943V135.23Z" fill="white"/>
<path d="M259.876 130.067L262.59 132.393L265.303 130.067" stroke="white" stroke-width="0.775282" stroke-linecap="round" stroke-linejoin="round"/>
<path d="M46.4912 136.105C46.6235 136.833 46.9212 137.395 47.3843 137.792C47.8639 138.172 48.5007 138.363 49.2946 138.363C50.32 138.363 51.0643 137.941 51.5274 137.097C51.9905 136.237 52.222 134.798 52.222 132.781C51.8416 133.31 51.3041 133.723 50.6095 134.021C49.9313 134.319 49.1953 134.468 48.4015 134.468C47.3429 134.468 46.3837 134.253 45.5236 133.823C44.6801 133.376 44.0103 132.723 43.5141 131.863C43.0179 130.986 42.7698 129.928 42.7698 128.687C42.7698 126.851 43.3156 125.396 44.4072 124.321C45.4988 123.229 46.9873 122.683 48.8728 122.683C51.2214 122.683 52.8754 123.436 53.8346 124.941C54.8105 126.446 55.2984 128.712 55.2984 131.739C55.2984 133.889 55.1082 135.65 54.7278 137.023C54.3639 138.396 53.7271 139.438 52.8175 140.149C51.9243 140.86 50.7004 141.216 49.1457 141.216C47.9218 141.216 46.8798 140.984 46.0198 140.521C45.1597 140.041 44.4982 139.421 44.0351 138.66C43.5885 137.883 43.3321 137.031 43.266 136.105H46.4912ZM49.1209 131.639C49.981 131.639 50.6591 131.375 51.1553 130.846C51.6514 130.316 51.8995 129.605 51.8995 128.712C51.8995 127.736 51.6349 126.984 51.1056 126.454C50.5929 125.909 49.89 125.636 48.9969 125.636C48.1038 125.636 47.3926 125.917 46.8633 126.479C46.3506 127.025 46.0942 127.753 46.0942 128.662C46.0942 129.539 46.3423 130.258 46.8385 130.821C47.3512 131.367 48.112 131.639 49.1209 131.639ZM60.0363 131.615C58.3824 130.755 57.5554 129.423 57.5554 127.62C57.5554 126.727 57.7787 125.917 58.2252 125.189C58.6883 124.445 59.3747 123.858 60.2844 123.428C61.2106 122.981 62.3353 122.758 63.6584 122.758C64.9816 122.758 66.098 122.981 67.0076 123.428C67.9338 123.858 68.6202 124.445 69.0668 125.189C69.5299 125.917 69.7614 126.727 69.7614 127.62C69.7614 128.53 69.5382 129.332 69.0916 130.027C68.645 130.705 68.0496 131.234 67.3053 131.615C68.215 132.012 68.9262 132.59 69.4389 133.351C69.9516 134.112 70.208 135.013 70.208 136.055C70.208 137.18 69.9186 138.164 69.3397 139.008C68.7773 139.835 68 140.471 67.0076 140.918C66.0153 141.365 64.8989 141.588 63.6584 141.588C62.418 141.588 61.3016 141.365 60.3092 140.918C59.3334 140.471 58.556 139.835 57.9772 139.008C57.4148 138.164 57.1336 137.18 57.1336 136.055C57.1336 135.013 57.39 134.112 57.9027 133.351C58.4154 132.574 59.1266 131.995 60.0363 131.615ZM66.3874 128.117C66.3874 127.306 66.1393 126.678 65.6431 126.231C65.1635 125.785 64.5019 125.561 63.6584 125.561C62.8315 125.561 62.1699 125.785 61.6737 126.231C61.1941 126.678 60.9542 127.314 60.9542 128.141C60.9542 128.886 61.2023 129.481 61.6985 129.928C62.2112 130.374 62.8645 130.597 63.6584 130.597C64.4523 130.597 65.1056 130.374 65.6183 129.928C66.1311 129.465 66.3874 128.861 66.3874 128.117ZM63.6584 133.128C62.7157 133.128 61.9466 133.368 61.3512 133.847C60.7723 134.327 60.4829 135.013 60.4829 135.907C60.4829 136.734 60.764 137.412 61.3264 137.941C61.9052 138.454 62.6826 138.71 63.6584 138.71C64.6342 138.71 65.4033 138.445 65.9657 137.916C66.528 137.387 66.8092 136.717 66.8092 135.907C66.8092 135.03 66.5197 134.352 65.9408 133.872C65.362 133.376 64.6012 133.128 63.6584 133.128ZM73.8941 141.365C73.2656 141.365 72.7446 141.174 72.3311 140.794C71.9342 140.397 71.7357 139.909 71.7357 139.33C71.7357 138.751 71.9342 138.272 72.3311 137.891C72.7446 137.494 73.2656 137.296 73.8941 137.296C74.506 137.296 75.0105 137.494 75.4074 137.891C75.8044 138.272 76.0028 138.751 76.0028 139.33C76.0028 139.909 75.8044 140.397 75.4074 140.794C75.0105 141.174 74.506 141.365 73.8941 141.365ZM78.5027 137.271C80.0905 135.948 81.3558 134.848 82.2985 133.971C83.2413 133.078 84.0269 132.152 84.6554 131.193C85.2839 130.234 85.5981 129.291 85.5981 128.365C85.5981 127.521 85.3996 126.86 85.0027 126.38C84.6058 125.9 83.9938 125.66 83.1668 125.66C82.3399 125.66 81.7031 125.942 81.2565 126.504C80.81 127.05 80.5784 127.802 80.5619 128.762H77.1879C77.254 126.777 77.8412 125.272 78.9493 124.246C80.074 123.221 81.4964 122.708 83.2164 122.708C85.1019 122.708 86.5491 123.213 87.558 124.222C88.5669 125.214 89.0714 126.529 89.0714 128.166C89.0714 129.456 88.724 130.688 88.0294 131.863C87.3347 133.037 86.5409 134.062 85.6477 134.939C84.7546 135.799 83.5886 136.841 82.1497 138.065H89.4683V140.943H77.2127V138.363L78.5027 137.271ZM102.176 125.735L95.5768 141.191H92.0539L98.7027 126.132H90.218V123.155H102.176V125.735Z" fill="white"/>
<path d="M47.0618 162.727C47.0618 163.089 46.9713 163.429 46.7904 163.747C46.6168 164.066 46.3563 164.334 46.0089 164.551C45.6688 164.768 45.2636 164.898 44.7933 164.941V165.821H44.0878V164.941C43.4076 164.876 42.8577 164.663 42.438 164.301C42.0183 163.939 41.8085 163.462 41.8085 162.868H43.1326C43.1544 163.15 43.2448 163.386 43.404 163.574C43.5632 163.755 43.7911 163.87 44.0878 163.921V161.533C43.603 161.41 43.2086 161.287 42.9047 161.164C42.6008 161.034 42.3403 160.831 42.1232 160.556C41.9134 160.281 41.8085 159.905 41.8085 159.428C41.8085 158.827 42.0183 158.331 42.438 157.941C42.8577 157.543 43.4076 157.311 44.0878 157.246V156.367H44.7933V157.246C45.4301 157.304 45.9402 157.506 46.3237 157.854C46.7144 158.194 46.9351 158.664 46.9858 159.265H45.6616C45.6399 159.04 45.5531 158.841 45.4011 158.668C45.2492 158.487 45.0466 158.364 44.7933 158.299V160.643C45.2781 160.759 45.6725 160.882 45.9764 161.012C46.2803 161.135 46.5372 161.334 46.747 161.609C46.9568 161.877 47.0618 162.25 47.0618 162.727ZM43.0675 159.362C43.0675 159.659 43.1544 159.891 43.328 160.057C43.5089 160.223 43.7622 160.357 44.0878 160.459V158.266C43.7766 158.302 43.527 158.415 43.3389 158.603C43.158 158.791 43.0675 159.044 43.0675 159.362ZM44.7933 163.921C45.1117 163.87 45.3613 163.744 45.5422 163.541C45.7231 163.331 45.8136 163.082 45.8136 162.792C45.8136 162.503 45.7231 162.279 45.5422 162.119C45.3686 161.953 45.1189 161.819 44.7933 161.718V163.921ZM48.2708 158.093V156.964H50.5284V164.876H49.2802V158.093H48.2708ZM51.7941 160.817C51.7941 159.565 52.0039 158.588 52.4236 157.886C52.8505 157.177 53.5814 156.823 54.6161 156.823C55.6509 156.823 56.3781 157.177 56.7978 157.886C57.2247 158.588 57.4381 159.565 57.4381 160.817C57.4381 162.083 57.2247 163.074 56.7978 163.791C56.3781 164.5 55.6509 164.855 54.6161 164.855C53.5814 164.855 52.8505 164.5 52.4236 163.791C52.0039 163.074 51.7941 162.083 51.7941 160.817ZM56.2225 160.817C56.2225 160.231 56.1827 159.735 56.1031 159.33C56.0307 158.925 55.8788 158.595 55.6472 158.342C55.4157 158.082 55.072 157.951 54.6161 157.951C54.1602 157.951 53.8165 158.082 53.585 158.342C53.3534 158.595 53.1979 158.925 53.1183 159.33C53.0459 159.735 53.0097 160.231 53.0097 160.817C53.0097 161.425 53.0459 161.935 53.1183 162.347C53.1906 162.76 53.3426 163.093 53.5741 163.346C53.8129 163.599 54.1602 163.726 54.6161 163.726C55.072 163.726 55.4157 163.599 55.6472 163.346C55.886 163.093 56.0416 162.76 56.114 162.347C56.1863 161.935 56.2225 161.425 56.2225 160.817ZM58.3132 160.817C58.3132 159.565 58.5231 158.588 58.9428 157.886C59.3697 157.177 60.1005 156.823 61.1353 156.823C62.17 156.823 62.8972 157.177 63.3169 157.886C63.7438 158.588 63.9573 159.565 63.9573 160.817C63.9573 162.083 63.7438 163.074 63.3169 163.791C62.8972 164.5 62.17 164.855 61.1353 164.855C60.1005 164.855 59.3697 164.5 58.9428 163.791C58.5231 163.074 58.3132 162.083 58.3132 160.817ZM62.7416 160.817C62.7416 160.231 62.7018 159.735 62.6223 159.33C62.5499 158.925 62.3979 158.595 62.1664 158.342C61.9348 158.082 61.5911 157.951 61.1353 157.951C60.6794 157.951 60.3357 158.082 60.1041 158.342C59.8726 158.595 59.717 158.925 59.6374 159.33C59.5651 159.735 59.5289 160.231 59.5289 160.817C59.5289 161.425 59.5651 161.935 59.6374 162.347C59.7098 162.76 59.8617 163.093 60.0933 163.346C60.3321 163.599 60.6794 163.726 61.1353 163.726C61.5911 163.726 61.9348 163.599 62.1664 163.346C62.4052 163.093 62.5607 162.76 62.6331 162.347C62.7055 161.935 62.7416 161.425 62.7416 160.817Z" fill="white" fill-opacity="0.5"/>
<rect x="247.769" y="154.489" width="29.0787" height="14.7753" rx="7.38764" stroke="white" stroke-opacity="0.09" stroke-width="0.775282"/>
<path d="M260.316 158.411V164.876H259.256V160.448L257.284 164.876H256.549L254.567 160.448V164.876H253.506V158.411H254.651L256.921 163.481L259.181 158.411H260.316ZM260.985 162.29C260.985 161.775 261.09 161.319 261.301 160.923C261.518 160.526 261.81 160.219 262.176 160.001C262.548 159.778 262.957 159.667 263.404 159.667C263.807 159.667 264.157 159.747 264.455 159.908C264.759 160.064 265.001 160.259 265.181 160.495V159.75H266.25V164.876H265.181V164.114C265.001 164.355 264.756 164.557 264.446 164.718C264.135 164.88 263.782 164.96 263.385 164.96C262.945 164.96 262.542 164.849 262.176 164.625C261.81 164.396 261.518 164.079 261.301 163.676C261.09 163.267 260.985 162.805 260.985 162.29ZM265.181 162.309C265.181 161.955 265.106 161.648 264.957 161.388C264.815 161.127 264.625 160.929 264.39 160.792C264.154 160.656 263.9 160.588 263.627 160.588C263.354 160.588 263.1 160.656 262.864 160.792C262.628 160.923 262.436 161.118 262.287 161.378C262.145 161.633 262.073 161.937 262.073 162.29C262.073 162.644 262.145 162.954 262.287 163.22C262.436 163.487 262.628 163.692 262.864 163.834C263.106 163.971 263.36 164.039 263.627 164.039C263.9 164.039 264.154 163.971 264.39 163.834C264.625 163.698 264.815 163.5 264.957 163.239C265.106 162.972 265.181 162.662 265.181 162.309ZM269.467 162.281L271.123 164.876H269.923L268.816 163.137L267.774 164.876H266.667L268.323 162.355L266.667 159.75H267.867L268.974 161.49L270.016 159.75H271.123L269.467 162.281Z" fill="white" fill-opacity="0.5"/>
<rect x="215.983" y="154.489" width="29.0787" height="14.7753" rx="7.38764" stroke="white" stroke-opacity="0.09" stroke-width="0.775282"/>
<path d="M225.953 159.006H222.837V160.858C222.967 160.684 223.159 160.538 223.413 160.42C223.674 160.303 223.95 160.244 224.241 160.244C224.762 160.244 225.184 160.355 225.507 160.579C225.835 160.802 226.068 161.084 226.204 161.425C226.347 161.766 226.418 162.126 226.418 162.504C226.418 162.963 226.328 163.373 226.149 163.732C225.975 164.086 225.711 164.365 225.358 164.57C225.011 164.774 224.583 164.877 224.074 164.877C223.398 164.877 222.855 164.709 222.446 164.374C222.037 164.039 221.792 163.596 221.711 163.044H222.744C222.812 163.335 222.964 163.568 223.199 163.742C223.435 163.909 223.73 163.993 224.083 163.993C224.524 163.993 224.852 163.86 225.069 163.593C225.293 163.326 225.404 162.973 225.404 162.532C225.404 162.086 225.293 161.745 225.069 161.509C224.846 161.267 224.517 161.146 224.083 161.146C223.779 161.146 223.522 161.224 223.311 161.379C223.106 161.527 222.958 161.732 222.865 161.993H221.86V158.076H225.953V159.006ZM227.15 161.397C227.15 160.324 227.33 159.487 227.69 158.885C228.056 158.278 228.682 157.974 229.569 157.974C230.456 157.974 231.079 158.278 231.439 158.885C231.805 159.487 231.988 160.324 231.988 161.397C231.988 162.483 231.805 163.332 231.439 163.946C231.079 164.554 230.456 164.858 229.569 164.858C228.682 164.858 228.056 164.554 227.69 163.946C227.33 163.332 227.15 162.483 227.15 161.397ZM230.946 161.397C230.946 160.895 230.912 160.47 230.844 160.123C230.782 159.775 230.652 159.493 230.453 159.276C230.255 159.053 229.96 158.941 229.569 158.941C229.178 158.941 228.884 159.053 228.685 159.276C228.487 159.493 228.354 159.775 228.285 160.123C228.223 160.47 228.192 160.895 228.192 161.397C228.192 161.918 228.223 162.355 228.285 162.709C228.347 163.063 228.478 163.348 228.676 163.565C228.881 163.782 229.178 163.891 229.569 163.891C229.96 163.891 230.255 163.782 230.453 163.565C230.658 163.348 230.791 163.063 230.853 162.709C230.915 162.355 230.946 161.918 230.946 161.397ZM232.571 159.732C232.571 159.279 232.701 158.926 232.961 158.671C233.228 158.411 233.569 158.281 233.985 158.281C234.4 158.281 234.738 158.411 234.999 158.671C235.266 158.926 235.399 159.279 235.399 159.732C235.399 160.185 235.266 160.541 234.999 160.802C234.738 161.062 234.4 161.193 233.985 161.193C233.569 161.193 233.228 161.062 232.961 160.802C232.701 160.541 232.571 160.185 232.571 159.732ZM238.246 158.402L234.534 164.877H233.492L237.204 158.402H238.246ZM233.985 158.923C233.594 158.923 233.399 159.192 233.399 159.732C233.399 160.278 233.594 160.551 233.985 160.551C234.171 160.551 234.314 160.486 234.413 160.355C234.518 160.219 234.571 160.011 234.571 159.732C234.571 159.192 234.376 158.923 233.985 158.923ZM236.357 163.537C236.357 163.084 236.487 162.731 236.748 162.476C237.015 162.216 237.356 162.086 237.771 162.086C238.181 162.086 238.516 162.216 238.776 162.476C239.043 162.731 239.176 163.084 239.176 163.537C239.176 163.99 239.043 164.346 238.776 164.607C238.516 164.867 238.181 164.998 237.771 164.998C237.356 164.998 237.015 164.867 236.748 164.607C236.487 164.346 236.357 163.99 236.357 163.537ZM237.762 162.728C237.371 162.728 237.176 162.997 237.176 163.537C237.176 164.077 237.371 164.346 237.762 164.346C238.153 164.346 238.348 164.077 238.348 163.537C238.348 162.997 238.153 162.728 237.762 162.728Z" fill="white" fill-opacity="0.5"/>
<rect x="31.0786" y="188.213" width="257.393" height="87.6067" rx="7.75282" fill="white" fill-opacity="0.05"/>
<path d="M48.197 200.276L46.0572 204.397V206.742H44.9966V204.397L42.8476 200.276H44.0291L45.5269 203.448L47.0248 200.276H48.197ZM50.89 206.825C50.4063 206.825 49.969 206.717 49.5783 206.5C49.1875 206.277 48.8805 205.966 48.6572 205.569C48.4339 205.166 48.3223 204.701 48.3223 204.174C48.3223 203.653 48.437 203.191 48.6665 202.788C48.896 202.385 49.2092 202.075 49.6062 201.857C50.0031 201.64 50.4466 201.532 50.9366 201.532C51.4265 201.532 51.87 201.64 52.2669 201.857C52.6639 202.075 52.9771 202.385 53.2066 202.788C53.4361 203.191 53.5508 203.653 53.5508 204.174C53.5508 204.695 53.433 205.157 53.1973 205.56C52.9616 205.963 52.6391 206.277 52.2297 206.5C51.8266 206.717 51.38 206.825 50.89 206.825ZM50.89 205.904C51.1629 205.904 51.4172 205.839 51.6529 205.709C51.8948 205.579 52.0902 205.383 52.239 205.123C52.3879 204.862 52.4623 204.546 52.4623 204.174C52.4623 203.802 52.391 203.489 52.2483 203.234C52.1057 202.974 51.9165 202.778 51.6808 202.648C51.4451 202.518 51.1908 202.453 50.9179 202.453C50.6451 202.453 50.3908 202.518 50.1551 202.648C49.9256 202.778 49.7426 202.974 49.6062 203.234C49.4697 203.489 49.4015 203.802 49.4015 204.174C49.4015 204.726 49.541 205.154 49.8202 205.458C50.1055 205.756 50.4621 205.904 50.89 205.904ZM58.8695 201.616V206.742H57.8089V206.137C57.6415 206.348 57.4213 206.515 57.1484 206.639C56.8817 206.757 56.5964 206.816 56.2925 206.816C55.8893 206.816 55.5265 206.732 55.204 206.565C54.8877 206.397 54.6365 206.149 54.4504 205.821C54.2705 205.492 54.1806 205.095 54.1806 204.63V201.616H55.2319V204.472C55.2319 204.931 55.3466 205.284 55.5761 205.532C55.8056 205.774 56.1188 205.895 56.5157 205.895C56.9127 205.895 57.2259 205.774 57.4554 205.532C57.6911 205.284 57.8089 204.931 57.8089 204.472V201.616H58.8695ZM63.0019 202.36C63.1569 202.099 63.3616 201.898 63.6159 201.755C63.8764 201.606 64.1834 201.532 64.5369 201.532V202.63H64.2671C63.8516 202.63 63.5353 202.735 63.3182 202.946C63.1073 203.157 63.0019 203.523 63.0019 204.044V206.742H61.9413V201.616H63.0019V202.36ZM69.8379 204.053C69.8379 204.245 69.8255 204.419 69.8007 204.574H65.884C65.915 204.983 66.0669 205.312 66.3398 205.56C66.6127 205.808 66.9476 205.932 67.3446 205.932C67.9152 205.932 68.3183 205.694 68.554 205.216H69.6983C69.5433 205.687 69.2611 206.075 68.8517 206.379C68.4486 206.677 67.9462 206.825 67.3446 206.825C66.8546 206.825 66.4143 206.717 66.0235 206.5C65.639 206.277 65.3351 205.966 65.1118 205.569C64.8947 205.166 64.7862 204.701 64.7862 204.174C64.7862 203.647 64.8916 203.185 65.1025 202.788C65.3196 202.385 65.6204 202.075 66.0049 201.857C66.3956 201.64 66.8422 201.532 67.3446 201.532C67.8284 201.532 68.2594 201.637 68.6378 201.848C69.0161 202.059 69.3107 202.357 69.5216 202.741C69.7325 203.12 69.8379 203.557 69.8379 204.053ZM68.7308 203.718C68.7246 203.327 68.585 203.014 68.3121 202.778C68.0392 202.543 67.7012 202.425 67.2981 202.425C66.9321 202.425 66.6189 202.543 66.3584 202.778C66.0979 203.008 65.9429 203.321 65.8933 203.718H68.7308ZM70.156 204.174C70.156 203.647 70.2614 203.185 70.4723 202.788C70.6894 202.385 70.9871 202.075 71.3654 201.857C71.7437 201.64 72.1779 201.532 72.6679 201.532C73.2881 201.532 73.7998 201.681 74.2029 201.978C74.6123 202.27 74.8883 202.689 75.0309 203.234H73.8866C73.7936 202.98 73.6447 202.782 73.44 202.639C73.2354 202.496 72.978 202.425 72.6679 202.425C72.2337 202.425 71.8864 202.58 71.6259 202.89C71.3716 203.194 71.2445 203.622 71.2445 204.174C71.2445 204.726 71.3716 205.157 71.6259 205.467C71.8864 205.777 72.2337 205.932 72.6679 205.932C73.2819 205.932 73.6881 205.663 73.8866 205.123H75.0309C74.8821 205.644 74.603 206.059 74.1936 206.37C73.7843 206.673 73.2757 206.825 72.6679 206.825C72.1779 206.825 71.7437 206.717 71.3654 206.5C70.9871 206.277 70.6894 205.966 70.4723 205.569C70.2614 205.166 70.156 204.701 70.156 204.174ZM76.2553 200.936C76.0631 200.936 75.9018 200.871 75.7716 200.741C75.6413 200.611 75.5762 200.45 75.5762 200.257C75.5762 200.065 75.6413 199.904 75.7716 199.773C75.9018 199.643 76.0631 199.578 76.2553 199.578C76.4414 199.578 76.5996 199.643 76.7298 199.773C76.8601 199.904 76.9252 200.065 76.9252 200.257C76.9252 200.45 76.8601 200.611 76.7298 200.741C76.5996 200.871 76.4414 200.936 76.2553 200.936ZM76.7763 201.616V206.742H75.7157V201.616H76.7763ZM82.4949 204.053C82.4949 204.245 82.4824 204.419 82.4576 204.574H78.5409C78.5719 204.983 78.7239 205.312 78.9968 205.56C79.2697 205.808 79.6046 205.932 80.0015 205.932C80.5722 205.932 80.9753 205.694 81.211 205.216H82.3553C82.2002 205.687 81.918 206.075 81.5087 206.379C81.1055 206.677 80.6032 206.825 80.0015 206.825C79.5116 206.825 79.0712 206.717 78.6805 206.5C78.2959 206.277 77.992 205.966 77.7687 205.569C77.5517 205.166 77.4431 204.701 77.4431 204.174C77.4431 203.647 77.5486 203.185 77.7594 202.788C77.9765 202.385 78.2773 202.075 78.6619 201.857C79.0526 201.64 79.4992 201.532 80.0015 201.532C80.4853 201.532 80.9164 201.637 81.2947 201.848C81.6731 202.059 81.9677 202.357 82.1785 202.741C82.3894 203.12 82.4949 203.557 82.4949 204.053ZM81.3878 203.718C81.3815 203.327 81.242 203.014 80.9691 202.778C80.6962 202.543 80.3582 202.425 79.955 202.425C79.5891 202.425 79.2759 202.543 79.0154 202.778C78.7549 203.008 78.5998 203.321 78.5502 203.718H81.3878ZM85.1481 205.793L86.5994 201.616H87.7251L85.7714 206.742H84.5061L82.5617 201.616H83.6967L85.1481 205.793ZM92.8529 204.053C92.8529 204.245 92.8405 204.419 92.8156 204.574H88.8989C88.9299 204.983 89.0819 205.312 89.3548 205.56C89.6277 205.808 89.9626 205.932 90.3596 205.932C90.9302 205.932 91.3333 205.694 91.569 205.216H92.7133C92.5583 205.687 92.276 206.075 91.8667 206.379C91.4636 206.677 90.9612 206.825 90.3596 206.825C89.8696 206.825 89.4292 206.717 89.0385 206.5C88.6539 206.277 88.35 205.966 88.1267 205.569C87.9097 205.166 87.8011 204.701 87.8011 204.174C87.8011 203.647 87.9066 203.185 88.1174 202.788C88.3345 202.385 88.6353 202.075 89.0199 201.857C89.4106 201.64 89.8572 201.532 90.3596 201.532C90.8433 201.532 91.2744 201.637 91.6527 201.848C92.0311 202.059 92.3257 202.357 92.5365 202.741C92.7474 203.12 92.8529 203.557 92.8529 204.053ZM91.7458 203.718C91.7396 203.327 91.6 203.014 91.3271 202.778C91.0542 202.543 90.7162 202.425 90.313 202.425C89.9471 202.425 89.6339 202.543 89.3734 202.778C89.1129 203.008 88.9578 203.321 88.9082 203.718H91.7458Z" fill="white" fill-opacity="0.5"/>
<rect x="192.337" y="211.472" width="86.1686" height="31.7865" rx="15.8933" fill="white" fill-opacity="0.1"/>
<circle cx="207.455" cy="227.365" r="9.69101" fill="#009393"/>
<path d="M207.843 233.18L201.641 226.966L204.007 223.101H211.679L214.045 226.966L207.843 233.18ZM208.463 227.51V226.742C209.58 226.799 210.621 227.019 210.944 227.306C210.569 227.64 209.226 227.882 207.843 227.882C206.46 227.882 205.117 227.64 204.742 227.306C205.061 227.019 206.106 226.802 207.223 226.739V227.51H208.463ZM204.742 227.303V227.766C205.061 228.052 206.103 228.27 207.223 228.333V230.03H208.463V228.329C209.58 228.273 210.625 228.052 210.944 227.766V226.843C210.625 226.556 209.58 226.336 208.463 226.276V225.621H210.324V224.676H205.362V225.621H207.223V226.276C206.103 226.336 205.061 226.556 204.742 226.843V227.303Z" fill="white"/>
<path d="M224.421 221.666V227.849C224.421 228.584 224.612 229.137 224.993 229.509C225.384 229.881 225.923 230.067 226.612 230.067C227.31 230.067 227.849 229.881 228.231 229.509C228.621 229.137 228.817 228.584 228.817 227.849V221.666H230.408V227.821C230.408 228.611 230.236 229.281 229.891 229.83C229.547 230.379 229.087 230.788 228.51 231.058C227.933 231.328 227.296 231.463 226.598 231.463C225.9 231.463 225.263 231.328 224.686 231.058C224.119 230.788 223.667 230.379 223.332 229.83C222.997 229.281 222.83 228.611 222.83 227.821V221.666H224.421ZM235.116 231.463C234.465 231.463 233.879 231.351 233.358 231.128C232.837 230.895 232.428 230.57 232.13 230.151C231.832 229.732 231.684 229.244 231.684 228.686H233.386C233.423 229.105 233.586 229.449 233.874 229.719C234.172 229.988 234.586 230.123 235.116 230.123C235.665 230.123 236.093 229.993 236.4 229.732C236.707 229.463 236.861 229.118 236.861 228.7C236.861 228.374 236.763 228.109 236.568 227.904C236.382 227.7 236.145 227.542 235.856 227.43C235.577 227.318 235.186 227.197 234.684 227.067C234.051 226.9 233.535 226.732 233.135 226.565C232.744 226.388 232.409 226.118 232.13 225.755C231.851 225.392 231.711 224.909 231.711 224.304C231.711 223.746 231.851 223.257 232.13 222.839C232.409 222.42 232.8 222.099 233.302 221.876C233.805 221.653 234.386 221.541 235.047 221.541C235.986 221.541 236.754 221.778 237.349 222.253C237.954 222.718 238.289 223.36 238.354 224.178H236.596C236.568 223.825 236.4 223.522 236.093 223.271C235.786 223.02 235.382 222.895 234.879 222.895C234.423 222.895 234.051 223.011 233.763 223.243C233.474 223.476 233.33 223.811 233.33 224.248C233.33 224.546 233.419 224.792 233.595 224.988C233.781 225.174 234.014 225.323 234.293 225.434C234.572 225.546 234.954 225.667 235.437 225.797C236.079 225.974 236.6 226.151 237 226.327C237.41 226.504 237.754 226.779 238.033 227.151C238.322 227.514 238.466 228.002 238.466 228.616C238.466 229.109 238.331 229.574 238.061 230.012C237.801 230.449 237.414 230.802 236.903 231.072C236.4 231.333 235.805 231.463 235.116 231.463ZM242.952 221.666C243.985 221.666 244.888 221.866 245.66 222.267C246.441 222.657 247.041 223.225 247.46 223.969C247.888 224.704 248.102 225.565 248.102 226.551C248.102 227.537 247.888 228.393 247.46 229.118C247.041 229.844 246.441 230.402 245.66 230.793C244.888 231.175 243.985 231.365 242.952 231.365H239.785V221.666H242.952ZM242.952 230.067C244.087 230.067 244.957 229.76 245.562 229.146C246.167 228.532 246.469 227.667 246.469 226.551C246.469 225.425 246.167 224.546 245.562 223.913C244.957 223.281 244.087 222.964 242.952 222.964H241.376V230.067H242.952ZM255.386 221.666V222.964H252.805V231.365H251.214V222.964H248.618V221.666H255.386Z" fill="white"/>
<path d="M261.449 226.202L264.163 228.528L266.876 226.202" stroke="white" stroke-width="0.775282" stroke-linecap="round" stroke-linejoin="round"/>
<path d="M43.6011 222.44V219.24H49.5801V237.326H46.0076V222.44H43.6011ZM52.0189 228.047C52.0189 225.186 52.5317 222.945 53.5571 221.324C54.5991 219.703 56.3192 218.893 58.7174 218.893C61.1156 218.893 62.8274 219.703 63.8528 221.324C64.8948 222.945 65.4158 225.186 65.4158 228.047C65.4158 230.925 64.8948 233.183 63.8528 234.82C62.8274 236.457 61.1156 237.276 58.7174 237.276C56.3192 237.276 54.5991 236.457 53.5571 234.82C52.5317 233.183 52.0189 230.925 52.0189 228.047ZM61.9922 228.047C61.9922 226.823 61.9095 225.798 61.7441 224.971C61.5952 224.127 61.281 223.441 60.8013 222.912C60.3382 222.382 59.6436 222.118 58.7174 222.118C57.7912 222.118 57.0883 222.382 56.6086 222.912C56.1455 223.441 55.8313 224.127 55.6659 224.971C55.517 225.798 55.4426 226.823 55.4426 228.047C55.4426 229.304 55.517 230.363 55.6659 231.223C55.8147 232.066 56.129 232.753 56.6086 233.282C57.0883 233.795 57.7912 234.051 58.7174 234.051C59.6436 234.051 60.3465 233.795 60.8261 233.282C61.3058 232.753 61.62 232.066 61.7689 231.223C61.9177 230.363 61.9922 229.304 61.9922 228.047ZM67.0652 228.047C67.0652 225.186 67.5779 222.945 68.6034 221.324C69.6454 219.703 71.3655 218.893 73.7637 218.893C76.1619 218.893 77.8737 219.703 78.8991 221.324C79.9411 222.945 80.4621 225.186 80.4621 228.047C80.4621 230.925 79.9411 233.183 78.8991 234.82C77.8737 236.457 76.1619 237.276 73.7637 237.276C71.3655 237.276 69.6454 236.457 68.6034 234.82C67.5779 233.183 67.0652 230.925 67.0652 228.047ZM77.0384 228.047C77.0384 226.823 76.9558 225.798 76.7904 224.971C76.6415 224.127 76.3273 223.441 75.8476 222.912C75.3845 222.382 74.6899 222.118 73.7637 222.118C72.8375 222.118 72.1345 222.382 71.6549 222.912C71.1918 223.441 70.8775 224.127 70.7121 224.971C70.5633 225.798 70.4889 226.823 70.4889 228.047C70.4889 229.304 70.5633 230.363 70.7121 231.223C70.861 232.066 71.1753 232.753 71.6549 233.282C72.1345 233.795 72.8375 234.051 73.7637 234.051C74.6899 234.051 75.3928 233.795 75.8724 233.282C76.3521 232.753 76.6663 232.066 76.8152 231.223C76.964 230.363 77.0384 229.304 77.0384 228.047Z" fill="white"/>
<circle cx="159.775" cy="187.051" r="17.0562" fill="url(#paint0_linear_1185_14734)"/>
<path d="M159.7 183.942L156.667 180.91M156.667 180.91L153.635 183.942M156.667 180.91V193.039M161.216 190.007L164.248 193.039M164.248 193.039L167.28 190.007M164.248 193.039V180.91" stroke="white" stroke-width="1.10262" stroke-linecap="round" stroke-linejoin="round"/>
</g>
<path d="M-3.66957 36.6957C-3.66957 14.4026 14.4026 -3.66957 36.6957 -3.66957H282.304C304.597 -3.66957 322.67 14.4026 322.67 36.6957L315.33 36.6956C315.33 18.4558 300.544 3.66957 282.304 3.66957H36.6956C18.4558 3.66957 3.66957 18.4558 3.66957 36.6956L-3.66957 36.6957ZM319 236H0H319ZM-3.66957 236V36.6957C-3.66957 14.4026 14.4026 -3.66957 36.6957 -3.66957L36.6956 3.66957C18.4558 3.66957 3.66957 18.4558 3.66957 36.6956V236H-3.66957ZM282.304 -3.66957C304.597 -3.66957 322.67 14.4026 322.67 36.6957V236H315.33V36.6956C315.33 18.4558 300.544 3.66957 282.304 3.66957V-3.66957Z" fill="white" fill-opacity="0.13" mask="url(#path-1-inside-1_1185_14734)"/>
<defs>
<linearGradient id="paint0_linear_1185_14734" x1="140.563" y1="183.729" x2="177.476" y2="185.323" gradientUnits="userSpaceOnUse">
<stop stop-color="#3DB3FC"/>
<stop offset="0.452482" stop-color="#5C80FA"/>
<stop offset="1" stop-color="#936BF9"/>
</linearGradient>
<clipPath id="clip0_1185_14734">
<path d="M0 36.6956C0 16.4292 16.4292 0 36.6957 0H282.304C302.571 0 319 16.4292 319 36.6957V236H0V36.6956Z" fill="white"/>
</clipPath>
</defs>
</svg>
