<svg width="399" height="293" viewBox="0 0 399 293" fill="none" xmlns="http://www.w3.org/2000/svg">
<g filter="url(#filter0_f_1185_14877)">
<path d="M254.684 150.081L248.916 144.313C248.698 144.095 248.426 144 248.14 144C247.855 144 247.583 144.109 247.365 144.313L237.012 154.665C232.512 151.616 227.199 149.99 221.763 149.999C214.797 149.999 207.832 152.652 202.513 157.971L188.651 171.833C188.448 172.038 188.335 172.314 188.335 172.602C188.335 172.89 188.448 173.166 188.651 173.371L225.612 210.332C225.83 210.55 226.102 210.645 226.388 210.645C226.66 210.645 226.946 210.536 227.163 210.332L241.025 196.47C250.399 187.083 251.5 172.568 244.331 161.984L254.684 151.632C255.105 151.196 255.105 150.503 254.684 150.081ZM208.594 204.21C208.39 204.008 208.113 203.894 207.825 203.894C207.538 203.894 207.261 204.008 207.057 204.21L197.997 213.271L185.712 200.986L194.786 191.913C195.208 191.491 195.208 190.797 194.786 190.375L189.834 185.424C189.63 185.221 189.354 185.107 189.066 185.107C188.778 185.107 188.502 185.221 188.297 185.424L179.223 194.497L173.374 188.648C173.272 188.546 173.151 188.466 173.018 188.412C172.885 188.358 172.742 188.332 172.598 188.335C172.326 188.335 172.041 188.444 171.823 188.648L157.974 202.51C148.601 211.883 147.499 226.412 154.669 236.996L144.316 247.348C144.114 247.553 144 247.829 144 248.117C144 248.404 144.114 248.681 144.316 248.885L150.084 254.653C150.302 254.871 150.574 254.966 150.86 254.966C151.145 254.966 151.417 254.857 151.635 254.653L161.987 244.301C166.572 247.416 171.905 248.967 177.237 248.967C184.202 248.967 191.168 246.314 196.487 240.995L210.349 227.133C210.771 226.711 210.771 226.017 210.349 225.596L204.499 219.746L213.573 210.672C213.995 210.25 213.995 209.557 213.573 209.135L208.594 204.21Z" fill="url(#paint0_linear_1185_14877)"/>
</g>
<g opacity="0.5" filter="url(#filter1_f_1185_14877)">
<path d="M254.684 150.081L248.916 144.313C248.698 144.095 248.426 144 248.14 144C247.855 144 247.583 144.109 247.365 144.313L237.012 154.665C232.512 151.616 227.199 149.99 221.763 149.999C214.797 149.999 207.832 152.652 202.513 157.971L188.651 171.833C188.448 172.038 188.335 172.314 188.335 172.602C188.335 172.89 188.448 173.166 188.651 173.371L225.612 210.332C225.83 210.55 226.102 210.645 226.388 210.645C226.66 210.645 226.946 210.536 227.163 210.332L241.025 196.47C250.399 187.083 251.5 172.568 244.331 161.984L254.684 151.632C255.105 151.196 255.105 150.503 254.684 150.081ZM208.594 204.21C208.39 204.008 208.113 203.894 207.825 203.894C207.538 203.894 207.261 204.008 207.057 204.21L197.997 213.271L185.712 200.986L194.786 191.913C195.208 191.491 195.208 190.797 194.786 190.375L189.834 185.424C189.63 185.221 189.354 185.107 189.066 185.107C188.778 185.107 188.502 185.221 188.297 185.424L179.223 194.497L173.374 188.648C173.272 188.546 173.151 188.466 173.018 188.412C172.885 188.358 172.742 188.332 172.598 188.335C172.326 188.335 172.041 188.444 171.823 188.648L157.974 202.51C148.601 211.883 147.499 226.412 154.669 236.996L144.316 247.348C144.114 247.553 144 247.829 144 248.117C144 248.404 144.114 248.681 144.316 248.885L150.084 254.653C150.302 254.871 150.574 254.966 150.86 254.966C151.145 254.966 151.417 254.857 151.635 254.653L161.987 244.301C166.572 247.416 171.905 248.967 177.237 248.967C184.202 248.967 191.168 246.314 196.487 240.995L210.349 227.133C210.771 226.711 210.771 226.017 210.349 225.596L204.499 219.746L213.573 210.672C213.995 210.25 213.995 209.557 213.573 209.135L208.594 204.21Z" fill="url(#paint1_linear_1185_14877)"/>
</g>
<g filter="url(#filter2_di_1185_14877)">
<path d="M254.684 150.081L248.916 144.313C248.698 144.095 248.426 144 248.14 144C247.855 144 247.583 144.109 247.365 144.313L237.597 154.081C237.257 154.42 236.726 154.469 236.321 154.212C231.973 151.455 226.923 149.991 221.763 149.999C214.797 149.999 207.832 152.652 202.513 157.971L188.651 171.833C188.448 172.038 188.335 172.314 188.335 172.602C188.335 172.89 188.448 173.166 188.651 173.371L225.612 210.332C225.83 210.55 226.102 210.645 226.388 210.645C226.66 210.645 226.946 210.536 227.163 210.332L241.025 196.47C250.196 187.286 251.449 173.193 244.784 162.676C244.528 162.271 244.576 161.739 244.915 161.4L254.684 151.632C255.105 151.196 255.105 150.503 254.684 150.081ZM208.594 204.21C208.39 204.008 208.113 203.894 207.825 203.894C207.538 203.894 207.261 204.008 207.057 204.21L198.704 212.563C198.313 212.954 197.68 212.954 197.29 212.563L186.42 201.693C186.029 201.303 186.029 200.67 186.42 200.279L194.786 191.913C195.208 191.491 195.208 190.797 194.786 190.375L189.834 185.424C189.63 185.221 189.354 185.107 189.066 185.107C188.778 185.107 188.502 185.221 188.297 185.424L179.931 193.79C179.54 194.181 178.907 194.181 178.516 193.79L173.374 188.648C173.272 188.546 173.151 188.466 173.018 188.412C172.885 188.358 172.742 188.332 172.598 188.335C172.326 188.335 172.041 188.444 171.823 188.648L157.974 202.51C148.804 211.68 147.551 225.786 154.215 236.304C154.472 236.709 154.424 237.241 154.085 237.58L144.316 247.348C144.114 247.553 144 247.829 144 248.117C144 248.404 144.114 248.681 144.316 248.885L150.084 254.653C150.302 254.871 150.574 254.966 150.86 254.966C151.145 254.966 151.417 254.857 151.635 254.653L161.403 244.886C161.742 244.546 162.274 244.498 162.679 244.755C167.104 247.567 172.171 248.967 177.237 248.967C184.202 248.967 191.168 246.314 196.487 240.995L210.349 227.133C210.771 226.711 210.771 226.017 210.349 225.596L205.206 220.453C204.816 220.062 204.816 219.429 205.206 219.039L213.573 210.672C213.995 210.25 213.995 209.557 213.573 209.135L208.594 204.21Z" fill="url(#paint2_linear_1185_14877)"/>
<path d="M247.365 144.313L237.597 154.081C237.257 154.42 236.726 154.469 236.321 154.212C231.973 151.455 226.923 149.991 221.763 149.999C214.797 149.999 207.832 152.652 202.513 157.971L188.651 171.833M247.365 144.313L247.707 144.678C247.709 144.676 247.71 144.674 247.712 144.673M247.365 144.313C247.583 144.109 247.855 144 248.14 144C248.426 144 248.698 144.095 248.916 144.313L254.684 150.081C255.105 150.503 255.105 151.196 254.684 151.632M247.365 144.313L247.718 144.666L247.712 144.673M247.712 144.673L237.95 154.435C237.439 154.946 236.649 155.012 236.054 154.635C231.785 151.929 226.829 150.491 221.763 150.499L221.763 150.499C214.924 150.499 208.088 153.103 202.867 158.325L189.006 172.185L188.651 171.833M247.712 144.673C247.839 144.556 247.988 144.5 248.14 144.5C248.309 144.5 248.449 144.553 248.562 144.666L254.33 150.434C254.553 150.657 254.561 151.037 254.327 151.281L254.33 151.278L254.684 151.632M188.651 171.833L189.004 172.187L189.006 172.186C188.896 172.297 188.835 172.446 188.835 172.602C188.835 172.758 188.896 172.907 189.005 173.018L189.004 173.017L188.651 173.371M188.651 171.833C188.448 172.038 188.335 172.314 188.335 172.602C188.335 172.89 188.448 173.166 188.651 173.371M188.651 173.371L225.612 210.332C225.83 210.55 226.102 210.645 226.388 210.645C226.66 210.645 226.946 210.536 227.163 210.332M188.651 173.371L189.006 173.019L225.966 209.979C226.079 210.092 226.219 210.145 226.388 210.145C226.53 210.145 226.691 210.087 226.816 209.972M227.163 210.332L241.025 196.47M227.163 210.332L226.821 209.967C226.82 209.969 226.818 209.97 226.816 209.972M227.163 210.332L226.81 209.979L226.816 209.972M241.025 196.47C250.196 187.286 251.449 173.193 244.784 162.676C244.528 162.271 244.576 161.739 244.915 161.4L254.684 151.632M241.025 196.47L240.672 196.117M241.025 196.47L240.672 196.116L240.672 196.117M254.684 151.632L254.325 151.284L244.562 161.047C244.05 161.558 243.985 162.349 244.362 162.943C250.904 173.267 249.674 187.102 240.672 196.117M240.672 196.117L226.816 209.972M208.242 204.566L208.242 204.566L213.219 209.489C213.22 209.489 213.22 209.489 213.221 209.49C213.446 209.716 213.446 210.093 213.219 210.319L204.853 218.685C204.267 219.271 204.267 220.221 204.853 220.807L209.995 225.949C210.222 226.176 210.222 226.553 209.995 226.779L196.133 240.641C190.912 245.863 184.075 248.467 177.237 248.467C172.262 248.467 167.289 247.092 162.947 244.333C162.352 243.955 161.561 244.021 161.049 244.532L151.288 254.293C151.161 254.41 151.012 254.466 150.86 254.466C150.691 254.466 150.551 254.413 150.438 254.3L144.671 248.533C144.671 248.533 144.671 248.533 144.671 248.533C144.561 248.422 144.5 248.272 144.5 248.117C144.5 247.961 144.561 247.811 144.671 247.7C144.671 247.7 144.671 247.7 144.671 247.7L154.438 237.933C154.949 237.422 155.014 236.631 154.638 236.036C148.096 225.712 149.327 211.865 158.328 202.863L158.328 202.863L172.17 189.008C172.295 188.893 172.457 188.835 172.598 188.835V188.835L172.608 188.835C172.684 188.833 172.76 188.847 172.831 188.876C172.902 188.904 172.966 188.947 173.02 189.001L173.02 189.001L178.163 194.144C178.749 194.73 179.698 194.73 180.284 194.144L188.649 185.779C188.649 185.779 188.649 185.778 188.65 185.778C188.761 185.669 188.91 185.607 189.066 185.607C189.222 185.607 189.371 185.669 189.482 185.778C189.482 185.778 189.482 185.779 189.483 185.779L194.433 190.729C194.659 190.955 194.659 191.333 194.433 191.559L186.066 199.926C185.48 200.511 185.48 201.461 186.066 202.047L196.936 212.917C197.522 213.503 198.472 213.503 199.057 212.917L207.409 204.566C207.409 204.565 207.409 204.565 207.41 204.565C207.52 204.455 207.67 204.394 207.825 204.394C207.982 204.394 208.131 204.456 208.242 204.566Z" stroke="white" stroke-opacity="0.16"/>
</g>
<defs>
<filter id="filter0_f_1185_14877" x="0" y="0" width="399" height="398.966" filterUnits="userSpaceOnUse" color-interpolation-filters="sRGB">
<feFlood flood-opacity="0" result="BackgroundImageFix"/>
<feBlend mode="normal" in="SourceGraphic" in2="BackgroundImageFix" result="shape"/>
<feGaussianBlur stdDeviation="72" result="effect1_foregroundBlur_1185_14877"/>
</filter>
<filter id="filter1_f_1185_14877" x="100" y="100" width="199" height="198.966" filterUnits="userSpaceOnUse" color-interpolation-filters="sRGB">
<feFlood flood-opacity="0" result="BackgroundImageFix"/>
<feBlend mode="normal" in="SourceGraphic" in2="BackgroundImageFix" result="shape"/>
<feGaussianBlur stdDeviation="22" result="effect1_foregroundBlur_1185_14877"/>
</filter>
<filter id="filter2_di_1185_14877" x="144" y="144" width="111" height="114.966" filterUnits="userSpaceOnUse" color-interpolation-filters="sRGB">
<feFlood flood-opacity="0" result="BackgroundImageFix"/>
<feColorMatrix in="SourceAlpha" type="matrix" values="0 0 0 0 0 0 0 0 0 0 0 0 0 0 0 0 0 0 127 0" result="hardAlpha"/>
<feOffset dy="4"/>
<feComposite in2="hardAlpha" operator="out"/>
<feColorMatrix type="matrix" values="0 0 0 0 0 0 0 0 0 0 0 0 0 0 0 0 0 0 0.08 0"/>
<feBlend mode="normal" in2="BackgroundImageFix" result="effect1_dropShadow_1185_14877"/>
<feBlend mode="normal" in="SourceGraphic" in2="effect1_dropShadow_1185_14877" result="shape"/>
<feColorMatrix in="SourceAlpha" type="matrix" values="0 0 0 0 0 0 0 0 0 0 0 0 0 0 0 0 0 0 127 0" result="hardAlpha"/>
<feOffset dy="4"/>
<feGaussianBlur stdDeviation="2"/>
<feComposite in2="hardAlpha" operator="arithmetic" k2="-1" k3="1"/>
<feColorMatrix type="matrix" values="0 0 0 0 1 0 0 0 0 1 0 0 0 0 1 0 0 0 0.25 0"/>
<feBlend mode="normal" in2="shape" result="effect2_innerShadow_1185_14877"/>
</filter>
<linearGradient id="paint0_linear_1185_14877" x1="136.984" y1="188.678" x2="257.097" y2="193.867" gradientUnits="userSpaceOnUse">
<stop stop-color="#3DB3FC"/>
<stop offset="0.452482" stop-color="#5C80FA"/>
<stop offset="1" stop-color="#936BF9"/>
</linearGradient>
<linearGradient id="paint1_linear_1185_14877" x1="136.984" y1="188.678" x2="257.097" y2="193.867" gradientUnits="userSpaceOnUse">
<stop stop-color="#3DB3FC"/>
<stop offset="0.452482" stop-color="#5C80FA"/>
<stop offset="1" stop-color="#936BF9"/>
</linearGradient>
<linearGradient id="paint2_linear_1185_14877" x1="136.984" y1="188.678" x2="257.097" y2="193.867" gradientUnits="userSpaceOnUse">
<stop stop-color="#3DB3FC"/>
<stop offset="0.452482" stop-color="#5C80FA"/>
<stop offset="1" stop-color="#936BF9"/>
</linearGradient>
</defs>
</svg>
