<svg width="363" height="162" viewBox="0 0 363 162" fill="none" xmlns="http://www.w3.org/2000/svg">
<path d="M9.70991 97.5795L10.1286 97.6016L10.0963 97.541L10.1531 97.5466L10.1472 97.4121L9.70991 97.5795Z" fill="white"/>
<path d="M172.765 91.5252L171.278 91.4746L64.6352 80.9839L11.1111 96.7599L10.2396 96.6742L9.96412 196.116L111.359 206.09L170.474 188.894L172.765 91.5252Z" fill="white"/>
<path opacity="0.2" d="M111.55 106.927L172.722 91.9606L170.398 189.67L111.247 207.226L111.55 106.927Z" fill="black"/>
<path opacity="0.2" d="M9.76667 97.0101L64.6353 80.9838L171.998 91.5453L111.613 106.283L9.76667 97.0101Z" fill="white"/>
<path opacity="0.06" d="M9.76709 97.0106L64.6357 80.9842L171.998 91.5458L111.613 106.284L9.76709 97.0106Z" fill="black"/>
<path d="M149.922 195.978L152.967 95.4123L48.2949 85.1154L37.9004 89.2767L133.26 101.297L135.928 199.593L149.922 195.978Z" fill="url(#paint0_linear_1185_18320)"/>
<path d="M116.735 86.1097L65.6447 101.647L61.742 201.21L46.5859 199.719L45.874 100.008L102.848 84.7436L116.735 86.1097Z" fill="url(#paint1_linear_1185_18320)"/>
<g opacity="0.2">
<path d="M149.922 195.977L152.967 95.4119L48.2948 85.1149L37.9003 89.2763L133.26 101.297L135.928 199.593L149.922 195.977Z" fill="white"/>
<path d="M116.734 86.1092L65.6435 101.646L61.7408 201.209L46.5846 199.718L45.8727 100.008L102.847 84.7431L116.734 86.1092Z" fill="white"/>
</g>
<path opacity="0.2" d="M152.881 96.2836L133.237 101.524L135.896 199.915L149.879 196.413L152.881 96.2836Z" fill="black"/>
<path opacity="0.1" d="M45.8303 100.444L65.6215 101.874L61.7412 201.209L46.585 199.718L45.8303 100.444Z" fill="black"/>
<path d="M84.6175 90.7732C84.6175 90.7732 58.3131 66.4938 45.4316 70.6591C35.2573 73.9431 35.4277 86.7951 59.7946 92.4631C50.4484 92.3854 39.3337 92.784 32.5327 94.6399L50.9396 98.6696C62.4152 96.7226 74.0297 95.7093 85.669 95.6397C85.9381 97.7881 85.7236 99.9695 85.041 102.024L97.8992 102.18C97.8992 102.18 94.4624 98.2263 91.6902 95.2947C106.44 95.2728 138.179 93.6703 142.677 80.2255C148.559 62.632 102.309 70.1906 84.6175 90.7732ZM45.0756 74.2777C48.5349 69.8359 82.682 92.1705 82.682 92.1705C65.5499 92.8762 41.5974 78.7177 45.0756 74.2777ZM87.7807 91.8687C87.7807 91.8687 129.051 68.0392 137.767 75.1133C146.482 82.1875 99.3221 94.1326 87.7997 91.8706L87.7807 91.8687Z" fill="url(#paint2_linear_1185_18320)"/>
<path opacity="0.1" d="M84.6175 90.7732C84.6175 90.7732 58.3131 66.4938 45.4316 70.6591C35.2573 73.9431 35.4277 86.7951 59.7946 92.4631C50.4484 92.3854 39.3337 92.784 32.5327 94.6399L50.9396 98.6696C62.4152 96.7226 74.0297 95.7093 85.669 95.6397C85.9381 97.7881 85.7236 99.9695 85.041 102.024L97.8992 102.18C97.8992 102.18 94.4624 98.2263 91.6902 95.2947C106.44 95.2728 138.179 93.6703 142.677 80.2255C148.559 62.632 102.309 70.1906 84.6175 90.7732ZM45.0756 74.2777C48.5349 69.8359 82.682 92.1705 82.682 92.1705C65.5499 92.8762 41.5974 78.7177 45.0756 74.2777ZM87.7807 91.8687C87.7807 91.8687 129.051 68.0392 137.767 75.1133C146.482 82.1875 99.3221 94.1326 87.7997 91.8706L87.7807 91.8687Z" fill="white"/>
<path d="M143.416 49.5974L143.95 49.6255L143.909 49.5483L143.981 49.5554L143.974 49.3838L143.416 49.5974Z" fill="white"/>
<path d="M351.41 41.8744L349.513 41.8098L213.479 28.4277L145.203 48.5518L144.091 48.4425L143.74 175.291L273.08 188.014L348.488 166.079L351.41 41.8744Z" fill="white"/>
<path opacity="0.2" d="M273.323 61.5211L351.356 42.43L348.391 167.069L272.938 189.464L273.323 61.5211Z" fill="black"/>
<path opacity="0.2" d="M143.488 48.8714L213.479 28.428L350.432 41.9004L273.404 60.7L143.488 48.8714Z" fill="white"/>
<path opacity="0.06" d="M143.489 48.8719L213.48 28.4285L350.432 41.9009L273.405 60.7005L143.489 48.8719Z" fill="black"/>
<path d="M322.272 175.115L326.156 46.8328L192.635 33.698L179.376 39.0062L301.017 54.3397L304.421 179.727L322.272 175.115Z" fill="url(#paint3_linear_1185_18320)"/>
<path d="M279.938 34.966L214.767 54.7855L209.788 181.789L190.455 179.887L189.547 52.695L262.224 33.2234L279.938 34.966Z" fill="url(#paint4_linear_1185_18320)"/>
<g opacity="0.2">
<path d="M322.272 175.115L326.156 46.8328L192.635 33.698L179.376 39.0062L301.017 54.3397L304.421 179.727L322.272 175.115Z" fill="white"/>
<path d="M279.937 34.966L214.766 54.7855L209.787 181.789L190.454 179.887L189.546 52.695L262.223 33.2234L279.937 34.966Z" fill="white"/>
</g>
<path opacity="0.2" d="M326.047 47.9438L300.989 54.6289L304.38 180.137L322.217 175.67L326.047 47.9438Z" fill="black"/>
<path opacity="0.1" d="M189.492 53.2511L214.737 55.0758L209.788 181.789L190.454 179.887L189.492 53.2511Z" fill="black"/>
<path d="M238.969 40.9156C238.969 40.9156 205.415 9.94456 188.983 15.2579C176.004 19.4469 176.222 35.841 207.304 43.0712C195.382 42.972 181.204 43.4805 172.529 45.848L196.009 50.9882C210.647 48.5047 225.463 47.2121 240.31 47.1233C240.653 49.8638 240.38 52.6464 239.509 55.2675L255.911 55.4657C255.911 55.4657 251.527 50.4228 247.991 46.6832C266.806 46.6553 307.293 44.6112 313.03 27.4608C320.533 5.01833 261.536 14.6601 238.969 40.9156ZM188.529 19.8737C192.941 14.2077 236.5 42.698 236.5 42.698C214.646 43.5982 184.092 25.5374 188.529 19.8737ZM243.004 42.313C243.004 42.313 295.649 11.9158 306.767 20.9397C317.884 29.9635 257.726 45.2009 243.028 42.3153L243.004 42.313Z" fill="url(#paint5_linear_1185_18320)"/>
<path opacity="0.1" d="M238.969 40.9156C238.969 40.9156 205.415 9.94456 188.983 15.2579C176.004 19.4469 176.222 35.841 207.304 43.0712C195.382 42.972 181.204 43.4805 172.529 45.848L196.009 50.9882C210.647 48.5047 225.463 47.2121 240.31 47.1233C240.653 49.8638 240.38 52.6464 239.509 55.2675L255.911 55.4657C255.911 55.4657 251.527 50.4228 247.991 46.6832C266.806 46.6553 307.293 44.6112 313.03 27.4608C320.533 5.01833 261.536 14.6601 238.969 40.9156ZM188.529 19.8737C192.941 14.2077 236.5 42.698 236.5 42.698C214.646 43.5982 184.092 25.5374 188.529 19.8737ZM243.004 42.313C243.004 42.313 295.649 11.9158 306.767 20.9397C317.884 29.9635 257.726 45.2009 243.028 42.3153L243.004 42.313Z" fill="white"/>
<defs>
<linearGradient id="paint0_linear_1185_18320" x1="26.5828" y1="125.601" x2="157.161" y2="145.069" gradientUnits="userSpaceOnUse">
<stop stop-color="#3DB3FC"/>
<stop offset="0.452482" stop-color="#5C80FA"/>
<stop offset="1" stop-color="#936BF9"/>
</linearGradient>
<linearGradient id="paint1_linear_1185_18320" x1="38.8293" y1="126.967" x2="113.218" y2="136.16" gradientUnits="userSpaceOnUse">
<stop stop-color="#3DB3FC"/>
<stop offset="0.452482" stop-color="#5C80FA"/>
<stop offset="1" stop-color="#936BF9"/>
</linearGradient>
<linearGradient id="paint2_linear_1185_18320" x1="27.6054" y1="74.6945" x2="141.23" y2="100.944" gradientUnits="userSpaceOnUse">
<stop stop-color="#3DB3FC"/>
<stop offset="0.452482" stop-color="#5C80FA"/>
<stop offset="1" stop-color="#936BF9"/>
</linearGradient>
<linearGradient id="paint3_linear_1185_18320" x1="164.939" y1="85.3419" x2="331.506" y2="110.175" gradientUnits="userSpaceOnUse">
<stop stop-color="#3DB3FC"/>
<stop offset="0.452482" stop-color="#5C80FA"/>
<stop offset="1" stop-color="#936BF9"/>
</linearGradient>
<linearGradient id="paint4_linear_1185_18320" x1="180.561" y1="87.0839" x2="275.452" y2="98.8105" gradientUnits="userSpaceOnUse">
<stop stop-color="#3DB3FC"/>
<stop offset="0.452482" stop-color="#5C80FA"/>
<stop offset="1" stop-color="#936BF9"/>
</linearGradient>
<linearGradient id="paint5_linear_1185_18320" x1="166.244" y1="20.4054" x2="311.184" y2="53.8897" gradientUnits="userSpaceOnUse">
<stop stop-color="#3DB3FC"/>
<stop offset="0.452482" stop-color="#5C80FA"/>
<stop offset="1" stop-color="#936BF9"/>
</linearGradient>
</defs>
</svg>
