<svg width="104" height="121" viewBox="0 0 104 121" fill="none" xmlns="http://www.w3.org/2000/svg">
<path d="M0.0649414 32.0452C0.0649414 31.0629 0.590889 30.1559 1.44337 29.668L51.8956 0.791186C53.7216 -0.253942 55.9953 1.06443 55.9953 3.16837V14.9926C55.9953 16.7086 53.8131 17.8657 52.0972 17.8657C48.5433 17.8657 45.6624 20.7467 45.6624 24.3006C45.6624 26.3291 46.601 28.1384 48.0677 29.3178C48.931 30.0121 49.6368 30.9706 49.6368 32.0785V37.9657C49.6368 39.4784 48.4105 40.7047 46.8977 40.7047H23.1999C19.6896 40.7047 16.844 43.5504 16.844 47.0606V63.5552C16.844 64.0794 16.3725 64.475 15.8483 64.475C12.4513 64.475 9.6974 67.2289 9.6974 70.6259C9.6974 74.023 12.4513 76.7769 15.8483 76.7769C16.3725 76.7769 16.844 77.1725 16.844 77.6967V90.1238C16.844 93.6341 19.6896 96.4797 23.1999 96.4797H23.7872C26.9922 96.4797 27.5893 101.04 24.4922 101.865L3.50906 107.455C1.77035 107.919 0.0649414 106.608 0.0649414 104.809V32.0452Z" fill="url(#paint0_linear_1315_7968)"/>
<path d="M49.8787 96.4797C48.3659 96.4797 47.1396 97.706 47.1396 99.2187V117.746C47.1396 119.851 49.4159 121.17 51.2419 120.122L101.694 91.1692C102.545 90.6809 103.07 89.7747 103.07 88.7936V16.8123C103.07 15.0129 101.365 13.7023 99.6258 14.1655L60.2572 24.6533C59.182 24.9397 58.437 25.8753 57.9882 26.8934C57.5885 27.8003 56.9856 28.5973 56.2371 29.227C55.4138 29.9195 54.7468 30.8576 54.7468 31.9334V37.9657C54.7468 39.4784 55.9731 40.7047 57.4858 40.7047H79.6243C83.1345 40.7047 85.9801 43.5504 85.9801 47.0606V62.9571C85.9801 63.9357 86.9578 64.6301 87.9363 64.6301C91.3334 64.6301 94.0873 67.3839 94.0873 70.781C94.0873 74.178 91.3334 76.9319 87.9363 76.9319C86.9578 76.9319 85.9801 77.6263 85.9801 78.6048V90.1238C85.9801 93.6341 83.1345 96.4797 79.6243 96.4797H49.8787Z" fill="url(#paint1_linear_1315_7968)"/>
<path d="M43.0126 59.3146C43.0126 62.8684 40.1316 65.7494 36.5778 65.7494C33.0239 65.7494 30.143 62.8684 30.143 59.3146C30.143 55.7607 33.0239 52.8798 36.5778 52.8798C40.1316 52.8798 43.0126 55.7607 43.0126 59.3146Z" fill="url(#paint2_linear_1315_7968)"/>
<path d="M64.9667 65.7494C68.5205 65.7494 71.4015 62.8684 71.4015 59.3146C71.4015 55.7607 68.5205 52.8798 64.9667 52.8798C61.4128 52.8798 58.5319 55.7607 58.5319 59.3146C58.5319 62.8684 61.4128 65.7494 64.9667 65.7494Z" fill="url(#paint3_linear_1315_7968)"/>
<defs>
<linearGradient id="paint0_linear_1315_7968" x1="-6.44591" y1="48.7668" x2="105.071" y2="52.8986" gradientUnits="userSpaceOnUse">
<stop stop-color="#3DB3FC"/>
<stop offset="0.452482" stop-color="#5C80FA"/>
<stop offset="1" stop-color="#936BF9"/>
</linearGradient>
<linearGradient id="paint1_linear_1315_7968" x1="-6.44591" y1="48.7668" x2="105.071" y2="52.8986" gradientUnits="userSpaceOnUse">
<stop stop-color="#3DB3FC"/>
<stop offset="0.452482" stop-color="#5C80FA"/>
<stop offset="1" stop-color="#936BF9"/>
</linearGradient>
<linearGradient id="paint2_linear_1315_7968" x1="-6.44591" y1="48.7668" x2="105.071" y2="52.8986" gradientUnits="userSpaceOnUse">
<stop stop-color="#3DB3FC"/>
<stop offset="0.452482" stop-color="#5C80FA"/>
<stop offset="1" stop-color="#936BF9"/>
</linearGradient>
<linearGradient id="paint3_linear_1315_7968" x1="-6.44591" y1="48.7668" x2="105.071" y2="52.8986" gradientUnits="userSpaceOnUse">
<stop stop-color="#3DB3FC"/>
<stop offset="0.452482" stop-color="#5C80FA"/>
<stop offset="1" stop-color="#936BF9"/>
</linearGradient>
</defs>
</svg>
