<svg width="403" height="391" viewBox="0 0 403 391" fill="none" xmlns="http://www.w3.org/2000/svg">
<g clip-path="url(#clip0_1181_8910)">
<rect width="403" height="391" rx="30" fill="white" fill-opacity="0.04"/>
<path d="M39.554 194.342C39.554 191.486 40.212 188.924 41.528 186.656C42.872 184.388 44.678 182.624 46.946 181.364C49.242 180.076 51.748 179.432 54.464 179.432C57.572 179.432 60.33 180.202 62.738 181.742C65.174 183.254 66.938 185.41 68.03 188.21H62.276C61.52 186.67 60.47 185.522 59.126 184.766C57.782 184.01 56.228 183.632 54.464 183.632C52.532 183.632 50.81 184.066 49.298 184.934C47.786 185.802 46.596 187.048 45.728 188.672C44.888 190.296 44.468 192.186 44.468 194.342C44.468 196.498 44.888 198.388 45.728 200.012C46.596 201.636 47.786 202.896 49.298 203.792C50.81 204.66 52.532 205.094 54.464 205.094C56.228 205.094 57.782 204.716 59.126 203.96C60.47 203.204 61.52 202.056 62.276 200.516H68.03C66.938 203.316 65.174 205.472 62.738 206.984C60.33 208.496 57.572 209.252 54.464 209.252C51.72 209.252 49.214 208.622 46.946 207.362C44.678 206.074 42.872 204.296 41.528 202.028C40.212 199.76 39.554 197.198 39.554 194.342ZM76.7424 189.218C77.4424 188.042 78.3664 187.132 79.5144 186.488C80.6904 185.816 82.0764 185.48 83.6724 185.48V190.436H82.4544C80.5784 190.436 79.1504 190.912 78.1704 191.864C77.2184 192.816 76.7424 194.468 76.7424 196.82V209H71.9544V185.858H76.7424V189.218ZM107.604 196.862C107.604 197.73 107.548 198.514 107.436 199.214H89.7535C89.8935 201.062 90.5795 202.546 91.8115 203.666C93.0435 204.786 94.5555 205.346 96.3475 205.346C98.9235 205.346 100.744 204.268 101.808 202.112H106.974C106.274 204.24 105 205.99 103.152 207.362C101.332 208.706 99.0635 209.378 96.3475 209.378C94.1355 209.378 92.1475 208.888 90.3835 207.908C88.6475 206.9 87.2755 205.5 86.2675 203.708C85.2875 201.888 84.7975 199.788 84.7975 197.408C84.7975 195.028 85.2735 192.942 86.2255 191.15C87.2055 189.33 88.5635 187.93 90.2995 186.95C92.0635 185.97 94.0795 185.48 96.3475 185.48C98.5315 185.48 100.478 185.956 102.186 186.908C103.894 187.86 105.224 189.204 106.176 190.94C107.128 192.648 107.604 194.622 107.604 196.862ZM102.606 195.35C102.578 193.586 101.948 192.172 100.716 191.108C99.4835 190.044 97.9575 189.512 96.1375 189.512C94.4855 189.512 93.0715 190.044 91.8955 191.108C90.7195 192.144 90.0195 193.558 89.7955 195.35H102.606ZM109.039 197.324C109.039 195 109.515 192.942 110.467 191.15C111.447 189.358 112.763 187.972 114.415 186.992C116.095 185.984 117.943 185.48 119.959 185.48C121.779 185.48 123.361 185.844 124.705 186.572C126.077 187.272 127.169 188.154 127.981 189.218V185.858H132.811V209H127.981V205.556C127.169 206.648 126.063 207.558 124.663 208.286C123.263 209.014 121.667 209.378 119.875 209.378C117.887 209.378 116.067 208.874 114.415 207.866C112.763 206.83 111.447 205.402 110.467 203.582C109.515 201.734 109.039 199.648 109.039 197.324ZM127.981 197.408C127.981 195.812 127.645 194.426 126.973 193.25C126.329 192.074 125.475 191.178 124.411 190.562C123.347 189.946 122.199 189.638 120.967 189.638C119.735 189.638 118.587 189.946 117.523 190.562C116.459 191.15 115.591 192.032 114.919 193.208C114.275 194.356 113.953 195.728 113.953 197.324C113.953 198.92 114.275 200.32 114.919 201.524C115.591 202.728 116.459 203.652 117.523 204.296C118.615 204.912 119.763 205.22 120.967 205.22C122.199 205.22 123.347 204.912 124.411 204.296C125.475 203.68 126.329 202.784 126.973 201.608C127.645 200.404 127.981 199.004 127.981 197.408ZM143.006 189.764V202.574C143.006 203.442 143.202 204.072 143.594 204.464C144.014 204.828 144.714 205.01 145.694 205.01H148.634V209H144.854C142.698 209 141.046 208.496 139.898 207.488C138.75 206.48 138.176 204.842 138.176 202.574V189.764H135.446V185.858H138.176V180.104H143.006V185.858H148.634V189.764H143.006ZM172.577 196.862C172.577 197.73 172.521 198.514 172.409 199.214H154.727C154.867 201.062 155.553 202.546 156.785 203.666C158.017 204.786 159.529 205.346 161.321 205.346C163.897 205.346 165.717 204.268 166.781 202.112H171.947C171.247 204.24 169.973 205.99 168.125 207.362C166.305 208.706 164.037 209.378 161.321 209.378C159.109 209.378 157.121 208.888 155.357 207.908C153.621 206.9 152.249 205.5 151.241 203.708C150.261 201.888 149.771 199.788 149.771 197.408C149.771 195.028 150.247 192.942 151.199 191.15C152.179 189.33 153.537 187.93 155.273 186.95C157.037 185.97 159.053 185.48 161.321 185.48C163.505 185.48 165.451 185.956 167.159 186.908C168.867 187.86 170.197 189.204 171.149 190.94C172.101 192.648 172.577 194.622 172.577 196.862ZM167.579 195.35C167.551 193.586 166.921 192.172 165.689 191.108C164.457 190.044 162.931 189.512 161.111 189.512C159.459 189.512 158.045 190.044 156.869 191.108C155.693 192.144 154.993 193.558 154.769 195.35H167.579ZM200.463 194.006C202.031 194.286 203.361 195.112 204.453 196.484C205.545 197.856 206.091 199.41 206.091 201.146C206.091 202.63 205.699 203.974 204.915 205.178C204.159 206.354 203.053 207.292 201.597 207.992C200.141 208.664 198.447 209 196.515 209H184.839V179.81H195.969C197.957 179.81 199.665 180.146 201.093 180.818C202.521 181.49 203.599 182.4 204.327 183.548C205.055 184.668 205.419 185.928 205.419 187.328C205.419 189.008 204.971 190.408 204.075 191.528C203.179 192.648 201.975 193.474 200.463 194.006ZM189.627 192.074H195.549C197.117 192.074 198.335 191.724 199.203 191.024C200.099 190.296 200.547 189.26 200.547 187.916C200.547 186.6 200.099 185.578 199.203 184.85C198.335 184.094 197.117 183.716 195.549 183.716H189.627V192.074ZM196.095 205.094C197.719 205.094 198.993 204.702 199.917 203.918C200.841 203.134 201.303 202.042 201.303 200.642C201.303 199.214 200.813 198.08 199.833 197.24C198.853 196.4 197.551 195.98 195.927 195.98H189.627V205.094H196.095ZM230.572 185.858V209H225.784V206.27C225.028 207.222 224.034 207.978 222.802 208.538C221.598 209.07 220.31 209.336 218.938 209.336C217.118 209.336 215.48 208.958 214.024 208.202C212.596 207.446 211.462 206.326 210.622 204.842C209.81 203.358 209.404 201.566 209.404 199.466V185.858H214.15V198.752C214.15 200.824 214.668 202.42 215.704 203.54C216.74 204.632 218.154 205.178 219.946 205.178C221.738 205.178 223.152 204.632 224.188 203.54C225.252 202.42 225.784 200.824 225.784 198.752V185.858H230.572ZM256.042 185.858L241.846 219.878H236.89L241.594 208.622L232.48 185.858H237.814L244.324 203.498L251.086 185.858H256.042ZM45.938 242.136H55.808V246H41.15V216.81H45.938V242.136ZM60.5681 219.792C59.7001 219.792 58.9721 219.498 58.3841 218.91C57.7961 218.322 57.5021 217.594 57.5021 216.726C57.5021 215.858 57.7961 215.13 58.3841 214.542C58.9721 213.954 59.7001 213.66 60.5681 213.66C61.4081 213.66 62.1221 213.954 62.7101 214.542C63.2981 215.13 63.5921 215.858 63.5921 216.726C63.5921 217.594 63.2981 218.322 62.7101 218.91C62.1221 219.498 61.4081 219.792 60.5681 219.792ZM62.9201 222.858V246H58.1321V222.858H62.9201ZM95.5403 222.48C97.3603 222.48 98.9843 222.858 100.412 223.614C101.868 224.37 103.002 225.49 103.814 226.974C104.654 228.458 105.074 230.25 105.074 232.35V246H100.328V233.064C100.328 230.992 99.8103 229.41 98.7743 228.318C97.7383 227.198 96.3243 226.638 94.5323 226.638C92.7403 226.638 91.3123 227.198 90.2483 228.318C89.2123 229.41 88.6943 230.992 88.6943 233.064V246H83.9483V233.064C83.9483 230.992 83.4303 229.41 82.3943 228.318C81.3583 227.198 79.9443 226.638 78.1523 226.638C76.3603 226.638 74.9323 227.198 73.8683 228.318C72.8323 229.41 72.3143 230.992 72.3143 233.064V246H67.5263V222.858H72.3143V225.504C73.0983 224.552 74.0923 223.81 75.2963 223.278C76.5003 222.746 77.7883 222.48 79.1603 222.48C81.0083 222.48 82.6603 222.872 84.1163 223.656C85.5723 224.44 86.6923 225.574 87.4763 227.058C88.1763 225.658 89.2683 224.552 90.7523 223.74C92.2363 222.9 93.8323 222.48 95.5403 222.48ZM111.923 219.792C111.055 219.792 110.327 219.498 109.739 218.91C109.151 218.322 108.857 217.594 108.857 216.726C108.857 215.858 109.151 215.13 109.739 214.542C110.327 213.954 111.055 213.66 111.923 213.66C112.763 213.66 113.477 213.954 114.065 214.542C114.653 215.13 114.947 215.858 114.947 216.726C114.947 217.594 114.653 218.322 114.065 218.91C113.477 219.498 112.763 219.792 111.923 219.792ZM114.275 222.858V246H109.487V222.858H114.275ZM124.467 226.764V239.574C124.467 240.442 124.663 241.072 125.055 241.464C125.475 241.828 126.175 242.01 127.155 242.01H130.095V246H126.315C124.159 246 122.507 245.496 121.359 244.488C120.211 243.48 119.637 241.842 119.637 239.574V226.764H116.907V222.858H119.637V217.104H124.467V222.858H130.095V226.764H124.467ZM152.096 246.378C149.912 246.378 147.938 245.888 146.174 244.908C144.41 243.9 143.024 242.5 142.016 240.708C141.008 238.888 140.504 236.788 140.504 234.408C140.504 232.056 141.022 229.97 142.058 228.15C143.094 226.33 144.508 224.93 146.3 223.95C148.092 222.97 150.094 222.48 152.306 222.48C154.518 222.48 156.52 222.97 158.312 223.95C160.104 224.93 161.518 226.33 162.554 228.15C163.59 229.97 164.108 232.056 164.108 234.408C164.108 236.76 163.576 238.846 162.512 240.666C161.448 242.486 159.992 243.9 158.144 244.908C156.324 245.888 154.308 246.378 152.096 246.378ZM152.096 242.22C153.328 242.22 154.476 241.926 155.54 241.338C156.632 240.75 157.514 239.868 158.186 238.692C158.858 237.516 159.194 236.088 159.194 234.408C159.194 232.728 158.872 231.314 158.228 230.166C157.584 228.99 156.73 228.108 155.666 227.52C154.602 226.932 153.454 226.638 152.222 226.638C150.99 226.638 149.842 226.932 148.778 227.52C147.742 228.108 146.916 228.99 146.3 230.166C145.684 231.314 145.376 232.728 145.376 234.408C145.376 236.9 146.006 238.832 147.266 240.204C148.554 241.548 150.164 242.22 152.096 242.22ZM171.949 226.218C172.649 225.042 173.573 224.132 174.721 223.488C175.897 222.816 177.283 222.48 178.879 222.48V227.436H177.661C175.785 227.436 174.357 227.912 173.377 228.864C172.425 229.816 171.949 231.468 171.949 233.82V246H167.161V222.858H171.949V226.218ZM180.005 234.324C180.005 232 180.481 229.942 181.433 228.15C182.413 226.358 183.729 224.972 185.381 223.992C187.061 222.984 188.923 222.48 190.967 222.48C192.479 222.48 193.963 222.816 195.419 223.488C196.903 224.132 198.079 225 198.947 226.092V214.92H203.777V246H198.947V242.514C198.163 243.634 197.071 244.558 195.671 245.286C194.299 246.014 192.717 246.378 190.925 246.378C188.909 246.378 187.061 245.874 185.381 244.866C183.729 243.83 182.413 242.402 181.433 240.582C180.481 238.734 180.005 236.648 180.005 234.324ZM198.947 234.408C198.947 232.812 198.611 231.426 197.939 230.25C197.295 229.074 196.441 228.178 195.377 227.562C194.313 226.946 193.165 226.638 191.933 226.638C190.701 226.638 189.553 226.946 188.489 227.562C187.425 228.15 186.557 229.032 185.885 230.208C185.241 231.356 184.919 232.728 184.919 234.324C184.919 235.92 185.241 237.32 185.885 238.524C186.557 239.728 187.425 240.652 188.489 241.296C189.581 241.912 190.729 242.22 191.933 242.22C193.165 242.22 194.313 241.912 195.377 241.296C196.441 240.68 197.295 239.784 197.939 238.608C198.611 237.404 198.947 236.004 198.947 234.408ZM229.595 233.862C229.595 234.73 229.539 235.514 229.427 236.214H211.745C211.885 238.062 212.571 239.546 213.803 240.666C215.035 241.786 216.547 242.346 218.339 242.346C220.915 242.346 222.735 241.268 223.799 239.112H228.965C228.265 241.24 226.991 242.99 225.143 244.362C223.323 245.706 221.055 246.378 218.339 246.378C216.127 246.378 214.139 245.888 212.375 244.908C210.639 243.9 209.267 242.5 208.259 240.708C207.279 238.888 206.789 236.788 206.789 234.408C206.789 232.028 207.265 229.942 208.217 228.15C209.197 226.33 210.555 224.93 212.291 223.95C214.055 222.97 216.071 222.48 218.339 222.48C220.523 222.48 222.469 222.956 224.177 223.908C225.885 224.86 227.215 226.204 228.167 227.94C229.119 229.648 229.595 231.622 229.595 233.862ZM224.597 232.35C224.569 230.586 223.939 229.172 222.707 228.108C221.475 227.044 219.949 226.512 218.129 226.512C216.477 226.512 215.063 227.044 213.887 228.108C212.711 229.144 212.011 230.558 211.787 232.35H224.597ZM237.415 226.218C238.115 225.042 239.039 224.132 240.187 223.488C241.363 222.816 242.749 222.48 244.345 222.48V227.436H243.127C241.251 227.436 239.823 227.912 238.843 228.864C237.891 229.816 237.415 231.468 237.415 233.82V246H232.627V222.858H237.415V226.218ZM255.466 246.378C253.646 246.378 252.008 246.056 250.552 245.412C249.124 244.74 247.99 243.844 247.15 242.724C246.31 241.576 245.862 240.302 245.806 238.902H250.762C250.846 239.882 251.308 240.708 252.148 241.38C253.016 242.024 254.094 242.346 255.382 242.346C256.726 242.346 257.762 242.094 258.49 241.59C259.246 241.058 259.624 240.386 259.624 239.574C259.624 238.706 259.204 238.062 258.364 237.642C257.552 237.222 256.25 236.76 254.458 236.256C252.722 235.78 251.308 235.318 250.216 234.87C249.124 234.422 248.172 233.736 247.36 232.812C246.576 231.888 246.184 230.67 246.184 229.158C246.184 227.926 246.548 226.806 247.276 225.798C248.004 224.762 249.04 223.95 250.384 223.362C251.756 222.774 253.324 222.48 255.088 222.48C257.72 222.48 259.834 223.152 261.43 224.496C263.054 225.812 263.922 227.618 264.034 229.914H259.246C259.162 228.878 258.742 228.052 257.986 227.436C257.23 226.82 256.208 226.512 254.92 226.512C253.66 226.512 252.694 226.75 252.022 227.226C251.35 227.702 251.014 228.332 251.014 229.116C251.014 229.732 251.238 230.25 251.686 230.67C252.134 231.09 252.68 231.426 253.324 231.678C253.968 231.902 254.92 232.196 256.18 232.56C257.86 233.008 259.232 233.47 260.296 233.946C261.388 234.394 262.326 235.066 263.11 235.962C263.894 236.858 264.3 238.048 264.328 239.532C264.328 240.848 263.964 242.024 263.236 243.06C262.508 244.096 261.472 244.908 260.128 245.496C258.812 246.084 257.258 246.378 255.466 246.378Z" fill="white"/>
<path d="M38.96 280C38.96 278.627 39.26 277.4 39.86 276.32C40.46 275.227 41.28 274.38 42.32 273.78C43.36 273.167 44.52 272.86 45.8 272.86C47.36 272.86 48.6933 273.233 49.8 273.98C50.92 274.713 51.7333 275.753 52.24 277.1H50.6C50.2 276.153 49.5867 275.413 48.76 274.88C47.9467 274.347 46.96 274.08 45.8 274.08C44.7733 274.08 43.8467 274.32 43.02 274.8C42.2067 275.28 41.5667 275.973 41.1 276.88C40.6333 277.773 40.4 278.813 40.4 280C40.4 281.187 40.6333 282.227 41.1 283.12C41.5667 284.013 42.2067 284.7 43.02 285.18C43.8467 285.66 44.7733 285.9 45.8 285.9C46.96 285.9 47.9467 285.64 48.76 285.12C49.5867 284.587 50.2 283.853 50.6 282.92H52.24C51.7333 284.253 50.92 285.287 49.8 286.02C48.68 286.753 47.3467 287.12 45.8 287.12C44.52 287.12 43.36 286.82 42.32 286.22C41.28 285.607 40.46 284.76 39.86 283.68C39.26 282.6 38.96 281.373 38.96 280ZM56.4297 278.02C56.7364 277.34 57.203 276.813 57.8297 276.44C58.4697 276.067 59.2497 275.88 60.1697 275.88V277.34H59.7897C58.7764 277.34 57.963 277.613 57.3497 278.16C56.7364 278.707 56.4297 279.62 56.4297 280.9V287H55.0297V276.08H56.4297V278.02ZM72.1558 280.98C72.1558 281.46 72.1424 281.827 72.1158 282.08H63.0558C63.0958 282.907 63.2958 283.613 63.6558 284.2C64.0158 284.787 64.4891 285.233 65.0758 285.54C65.6624 285.833 66.3024 285.98 66.9958 285.98C67.9024 285.98 68.6624 285.76 69.2758 285.32C69.9024 284.88 70.3158 284.287 70.5158 283.54H71.9958C71.7291 284.607 71.1558 285.48 70.2758 286.16C69.4091 286.827 68.3158 287.16 66.9958 287.16C65.9691 287.16 65.0491 286.933 64.2358 286.48C63.4224 286.013 62.7824 285.36 62.3158 284.52C61.8624 283.667 61.6358 282.673 61.6358 281.54C61.6358 280.407 61.8624 279.413 62.3158 278.56C62.7691 277.707 63.4024 277.053 64.2158 276.6C65.0291 276.147 65.9558 275.92 66.9958 275.92C68.0358 275.92 68.9424 276.147 69.7158 276.6C70.5024 277.053 71.1024 277.667 71.5158 278.44C71.9424 279.2 72.1558 280.047 72.1558 280.98ZM70.7358 280.94C70.7491 280.127 70.5824 279.433 70.2358 278.86C69.9024 278.287 69.4424 277.853 68.8558 277.56C68.2691 277.267 67.6291 277.12 66.9358 277.12C65.8958 277.12 65.0091 277.453 64.2758 278.12C63.5424 278.787 63.1358 279.727 63.0558 280.94H70.7358ZM74.0772 281.52C74.0772 280.4 74.2972 279.42 74.7372 278.58C75.1905 277.727 75.8105 277.073 76.5972 276.62C77.3972 276.153 78.2972 275.92 79.2972 275.92C80.3372 275.92 81.2305 276.16 81.9772 276.64C82.7372 277.12 83.2839 277.733 83.6172 278.48V276.08H85.0172V287H83.6172V284.58C83.2705 285.327 82.7172 285.947 81.9572 286.44C81.2105 286.92 80.3172 287.16 79.2772 287.16C78.2905 287.16 77.3972 286.927 76.5972 286.46C75.8105 285.993 75.1905 285.333 74.7372 284.48C74.2972 283.627 74.0772 282.64 74.0772 281.52ZM83.6172 281.54C83.6172 280.66 83.4372 279.887 83.0772 279.22C82.7172 278.553 82.2239 278.04 81.5972 277.68C80.9839 277.32 80.3039 277.14 79.5572 277.14C78.7839 277.14 78.0905 277.313 77.4772 277.66C76.8639 278.007 76.3772 278.513 76.0172 279.18C75.6705 279.833 75.4972 280.613 75.4972 281.52C75.4972 282.413 75.6705 283.2 76.0172 283.88C76.3772 284.547 76.8639 285.06 77.4772 285.42C78.0905 285.767 78.7839 285.94 79.5572 285.94C80.3039 285.94 80.9839 285.76 81.5972 285.4C82.2239 285.04 82.7172 284.527 83.0772 283.86C83.4372 283.193 83.6172 282.42 83.6172 281.54ZM90.0333 277.26V284.04C90.0333 284.707 90.1599 285.167 90.4133 285.42C90.6666 285.673 91.1133 285.8 91.7533 285.8H93.0333V287H91.5333C90.5466 287 89.8133 286.773 89.3333 286.32C88.8533 285.853 88.6133 285.093 88.6133 284.04V277.26H87.0933V276.08H88.6133V273.34H90.0333V276.08H93.0333V277.26H90.0333ZM105.222 280.98C105.222 281.46 105.209 281.827 105.182 282.08H96.1222C96.1622 282.907 96.3622 283.613 96.7222 284.2C97.0822 284.787 97.5555 285.233 98.1422 285.54C98.7289 285.833 99.3689 285.98 100.062 285.98C100.969 285.98 101.729 285.76 102.342 285.32C102.969 284.88 103.382 284.287 103.582 283.54H105.062C104.796 284.607 104.222 285.48 103.342 286.16C102.476 286.827 101.382 287.16 100.062 287.16C99.0355 287.16 98.1155 286.933 97.3022 286.48C96.4889 286.013 95.8489 285.36 95.3822 284.52C94.9289 283.667 94.7022 282.673 94.7022 281.54C94.7022 280.407 94.9289 279.413 95.3822 278.56C95.8355 277.707 96.4689 277.053 97.2822 276.6C98.0955 276.147 99.0222 275.92 100.062 275.92C101.102 275.92 102.009 276.147 102.782 276.6C103.569 277.053 104.169 277.667 104.582 278.44C105.009 279.2 105.222 280.047 105.222 280.98ZM103.802 280.94C103.816 280.127 103.649 279.433 103.302 278.86C102.969 278.287 102.509 277.853 101.922 277.56C101.336 277.267 100.696 277.12 100.002 277.12C98.9622 277.12 98.0755 277.453 97.3422 278.12C96.6089 278.787 96.2022 279.727 96.1222 280.94H103.802ZM114.652 278.5C115.012 277.74 115.565 277.12 116.312 276.64C117.072 276.16 117.965 275.92 118.992 275.92C119.992 275.92 120.885 276.153 121.672 276.62C122.459 277.073 123.072 277.727 123.512 278.58C123.965 279.42 124.192 280.4 124.192 281.52C124.192 282.64 123.965 283.627 123.512 284.48C123.072 285.333 122.452 285.993 121.652 286.46C120.865 286.927 119.979 287.16 118.992 287.16C117.952 287.16 117.052 286.927 116.292 286.46C115.545 285.98 114.999 285.36 114.652 284.6V287H113.272V272.2H114.652V278.5ZM122.772 281.52C122.772 280.613 122.592 279.833 122.232 279.18C121.885 278.513 121.405 278.007 120.792 277.66C120.179 277.313 119.485 277.14 118.712 277.14C117.965 277.14 117.279 277.32 116.652 277.68C116.039 278.04 115.552 278.553 115.192 279.22C114.832 279.887 114.652 280.66 114.652 281.54C114.652 282.42 114.832 283.193 115.192 283.86C115.552 284.527 116.039 285.04 116.652 285.4C117.279 285.76 117.965 285.94 118.712 285.94C119.485 285.94 120.179 285.767 120.792 285.42C121.405 285.06 121.885 284.547 122.232 283.88C122.592 283.2 122.772 282.413 122.772 281.52ZM136.228 276.08V287H134.828V285.08C134.508 285.76 134.015 286.28 133.348 286.64C132.681 287 131.935 287.18 131.108 287.18C129.801 287.18 128.735 286.78 127.908 285.98C127.081 285.167 126.668 283.993 126.668 282.46V276.08H128.048V282.3C128.048 283.487 128.341 284.393 128.928 285.02C129.528 285.647 130.341 285.96 131.368 285.96C132.421 285.96 133.261 285.627 133.888 284.96C134.515 284.293 134.828 283.313 134.828 282.02V276.08H136.228ZM148.424 276.08L141.944 292.14H140.484L142.604 286.94L138.124 276.08H139.664L143.384 285.4L146.984 276.08H148.424ZM157.211 272.2V287H155.811V272.2H157.211ZM161.081 274.02C160.801 274.02 160.561 273.92 160.361 273.72C160.161 273.52 160.061 273.273 160.061 272.98C160.061 272.687 160.161 272.447 160.361 272.26C160.561 272.06 160.801 271.96 161.081 271.96C161.361 271.96 161.601 272.06 161.801 272.26C162.001 272.447 162.101 272.687 162.101 272.98C162.101 273.273 162.001 273.52 161.801 273.72C161.601 273.92 161.361 274.02 161.081 274.02ZM161.781 276.08V287H160.381V276.08H161.781ZM177.952 275.88C179.232 275.88 180.272 276.287 181.072 277.1C181.885 277.9 182.292 279.067 182.292 280.6V287H180.912V280.76C180.912 279.573 180.625 278.667 180.052 278.04C179.478 277.413 178.698 277.1 177.712 277.1C176.685 277.1 175.865 277.44 175.252 278.12C174.638 278.8 174.332 279.787 174.332 281.08V287H172.952V280.76C172.952 279.573 172.665 278.667 172.092 278.04C171.518 277.413 170.732 277.1 169.732 277.1C168.705 277.1 167.885 277.44 167.272 278.12C166.658 278.8 166.352 279.787 166.352 281.08V287H164.952V276.08H166.352V277.96C166.698 277.28 167.192 276.767 167.832 276.42C168.472 276.06 169.185 275.88 169.972 275.88C170.918 275.88 171.745 276.107 172.452 276.56C173.172 277.013 173.692 277.68 174.012 278.56C174.305 277.693 174.805 277.033 175.512 276.58C176.232 276.113 177.045 275.88 177.952 275.88ZM186.101 274.02C185.821 274.02 185.581 273.92 185.381 273.72C185.181 273.52 185.081 273.273 185.081 272.98C185.081 272.687 185.181 272.447 185.381 272.26C185.581 272.06 185.821 271.96 186.101 271.96C186.381 271.96 186.621 272.06 186.821 272.26C187.021 272.447 187.121 272.687 187.121 272.98C187.121 273.273 187.021 273.52 186.821 273.72C186.621 273.92 186.381 274.02 186.101 274.02ZM186.801 276.08V287H185.401V276.08H186.801ZM191.791 277.26V284.04C191.791 284.707 191.918 285.167 192.171 285.42C192.424 285.673 192.871 285.8 193.511 285.8H194.791V287H193.291C192.304 287 191.571 286.773 191.091 286.32C190.611 285.853 190.371 285.093 190.371 284.04V277.26H188.851V276.08H190.371V273.34H191.791V276.08H194.791V277.26H191.791ZM207.368 287.16C206.342 287.16 205.415 286.933 204.588 286.48C203.775 286.013 203.128 285.36 202.648 284.52C202.182 283.667 201.948 282.673 201.948 281.54C201.948 280.407 202.188 279.42 202.668 278.58C203.148 277.727 203.802 277.073 204.628 276.62C205.455 276.153 206.382 275.92 207.408 275.92C208.435 275.92 209.362 276.153 210.188 276.62C211.028 277.073 211.682 277.727 212.148 278.58C212.628 279.42 212.868 280.407 212.868 281.54C212.868 282.66 212.628 283.647 212.148 284.5C211.668 285.353 211.008 286.013 210.168 286.48C209.328 286.933 208.395 287.16 207.368 287.16ZM207.368 285.94C208.088 285.94 208.755 285.78 209.368 285.46C209.982 285.127 210.475 284.633 210.848 283.98C211.235 283.313 211.428 282.5 211.428 281.54C211.428 280.58 211.242 279.773 210.868 279.12C210.495 278.453 210.002 277.96 209.388 277.64C208.775 277.307 208.108 277.14 207.388 277.14C206.668 277.14 206.002 277.307 205.388 277.64C204.775 277.96 204.282 278.453 203.908 279.12C203.548 279.773 203.368 280.58 203.368 281.54C203.368 282.5 203.548 283.313 203.908 283.98C204.282 284.633 204.768 285.127 205.368 285.46C205.982 285.78 206.648 285.94 207.368 285.94ZM216.82 278.02C217.127 277.34 217.594 276.813 218.22 276.44C218.86 276.067 219.64 275.88 220.56 275.88V277.34H220.18C219.167 277.34 218.354 277.613 217.74 278.16C217.127 278.707 216.82 279.62 216.82 280.9V287H215.42V276.08H216.82V278.02ZM222.026 281.52C222.026 280.4 222.253 279.42 222.706 278.58C223.16 277.727 223.78 277.073 224.566 276.62C225.366 276.153 226.266 275.92 227.266 275.92C228.226 275.92 229.093 276.153 229.866 276.62C230.64 277.087 231.206 277.693 231.566 278.44V272.2H232.966V287H231.566V284.56C231.233 285.32 230.686 285.947 229.926 286.44C229.166 286.92 228.273 287.16 227.246 287.16C226.246 287.16 225.346 286.927 224.546 286.46C223.76 285.993 223.14 285.333 222.686 284.48C222.246 283.627 222.026 282.64 222.026 281.52ZM231.566 281.54C231.566 280.66 231.386 279.887 231.026 279.22C230.666 278.553 230.173 278.04 229.546 277.68C228.933 277.32 228.253 277.14 227.506 277.14C226.733 277.14 226.04 277.313 225.426 277.66C224.813 278.007 224.326 278.513 223.966 279.18C223.62 279.833 223.446 280.613 223.446 281.52C223.446 282.413 223.62 283.2 223.966 283.88C224.326 284.547 224.813 285.06 225.426 285.42C226.04 285.767 226.733 285.94 227.506 285.94C228.253 285.94 228.933 285.76 229.546 285.4C230.173 285.04 230.666 284.527 231.026 283.86C231.386 283.193 231.566 282.42 231.566 281.54ZM246.043 280.98C246.043 281.46 246.029 281.827 246.003 282.08H236.943C236.983 282.907 237.183 283.613 237.543 284.2C237.903 284.787 238.376 285.233 238.963 285.54C239.549 285.833 240.189 285.98 240.883 285.98C241.789 285.98 242.549 285.76 243.163 285.32C243.789 284.88 244.203 284.287 244.403 283.54H245.883C245.616 284.607 245.043 285.48 244.163 286.16C243.296 286.827 242.203 287.16 240.883 287.16C239.856 287.16 238.936 286.933 238.123 286.48C237.309 286.013 236.669 285.36 236.203 284.52C235.749 283.667 235.523 282.673 235.523 281.54C235.523 280.407 235.749 279.413 236.203 278.56C236.656 277.707 237.289 277.053 238.103 276.6C238.916 276.147 239.843 275.92 240.883 275.92C241.923 275.92 242.829 276.147 243.603 276.6C244.389 277.053 244.989 277.667 245.403 278.44C245.829 279.2 246.043 280.047 246.043 280.98ZM244.623 280.94C244.636 280.127 244.469 279.433 244.123 278.86C243.789 278.287 243.329 277.853 242.743 277.56C242.156 277.267 241.516 277.12 240.823 277.12C239.783 277.12 238.896 277.453 238.163 278.12C237.429 278.787 237.023 279.727 236.943 280.94H244.623ZM250.004 278.02C250.311 277.34 250.777 276.813 251.404 276.44C252.044 276.067 252.824 275.88 253.744 275.88V277.34H253.364C252.351 277.34 251.537 277.613 250.924 278.16C250.311 278.707 250.004 279.62 250.004 280.9V287H248.604V276.08H250.004V278.02ZM259.61 287.16C258.357 287.16 257.33 286.873 256.53 286.3C255.743 285.713 255.303 284.92 255.21 283.92H256.65C256.717 284.533 257.003 285.033 257.51 285.42C258.03 285.793 258.723 285.98 259.59 285.98C260.35 285.98 260.943 285.8 261.37 285.44C261.81 285.08 262.03 284.633 262.03 284.1C262.03 283.727 261.91 283.42 261.67 283.18C261.43 282.94 261.123 282.753 260.75 282.62C260.39 282.473 259.897 282.32 259.27 282.16C258.457 281.947 257.797 281.733 257.29 281.52C256.783 281.307 256.35 280.993 255.99 280.58C255.643 280.153 255.47 279.587 255.47 278.88C255.47 278.347 255.63 277.853 255.95 277.4C256.27 276.947 256.723 276.587 257.31 276.32C257.897 276.053 258.563 275.92 259.31 275.92C260.483 275.92 261.43 276.22 262.15 276.82C262.87 277.407 263.257 278.22 263.31 279.26H261.91C261.87 278.62 261.617 278.107 261.15 277.72C260.697 277.32 260.07 277.12 259.27 277.12C258.563 277.12 257.99 277.287 257.55 277.62C257.11 277.953 256.89 278.367 256.89 278.86C256.89 279.287 257.017 279.64 257.27 279.92C257.537 280.187 257.863 280.4 258.25 280.56C258.637 280.707 259.157 280.873 259.81 281.06C260.597 281.273 261.223 281.48 261.69 281.68C262.157 281.88 262.557 282.173 262.89 282.56C263.223 282.947 263.397 283.46 263.41 284.1C263.41 284.687 263.25 285.213 262.93 285.68C262.61 286.133 262.163 286.493 261.59 286.76C261.017 287.027 260.357 287.16 259.61 287.16ZM273.354 277.26V284.04C273.354 284.707 273.48 285.167 273.734 285.42C273.987 285.673 274.434 285.8 275.074 285.8H276.354V287H274.854C273.867 287 273.134 286.773 272.654 286.32C272.174 285.853 271.934 285.093 271.934 284.04V277.26H270.414V276.08H271.934V273.34H273.354V276.08H276.354V277.26H273.354ZM283.443 287.16C282.416 287.16 281.489 286.933 280.663 286.48C279.849 286.013 279.203 285.36 278.723 284.52C278.256 283.667 278.023 282.673 278.023 281.54C278.023 280.407 278.263 279.42 278.743 278.58C279.223 277.727 279.876 277.073 280.703 276.62C281.529 276.153 282.456 275.92 283.483 275.92C284.509 275.92 285.436 276.153 286.263 276.62C287.103 277.073 287.756 277.727 288.223 278.58C288.703 279.42 288.943 280.407 288.943 281.54C288.943 282.66 288.703 283.647 288.223 284.5C287.743 285.353 287.083 286.013 286.243 286.48C285.403 286.933 284.469 287.16 283.443 287.16ZM283.443 285.94C284.163 285.94 284.829 285.78 285.443 285.46C286.056 285.127 286.549 284.633 286.923 283.98C287.309 283.313 287.503 282.5 287.503 281.54C287.503 280.58 287.316 279.773 286.943 279.12C286.569 278.453 286.076 277.96 285.463 277.64C284.849 277.307 284.183 277.14 283.463 277.14C282.743 277.14 282.076 277.307 281.463 277.64C280.849 277.96 280.356 278.453 279.983 279.12C279.623 279.773 279.443 280.58 279.443 281.54C279.443 282.5 279.623 283.313 279.983 283.98C280.356 284.633 280.843 285.127 281.443 285.46C282.056 285.78 282.723 285.94 283.443 285.94ZM40.98 307.48C41.3267 306.747 41.8733 306.14 42.62 305.66C43.38 305.167 44.28 304.92 45.32 304.92C46.3067 304.92 47.1933 305.153 47.98 305.62C48.78 306.073 49.4 306.727 49.84 307.58C50.2933 308.42 50.52 309.4 50.52 310.52C50.52 311.64 50.2933 312.627 49.84 313.48C49.4 314.333 48.78 314.993 47.98 315.46C47.1933 315.927 46.3067 316.16 45.32 316.16C44.2933 316.16 43.4 315.92 42.64 315.44C41.88 314.947 41.3267 314.333 40.98 313.6V321.16H39.6V305.08H40.98V307.48ZM49.1 310.52C49.1 309.613 48.92 308.833 48.56 308.18C48.2133 307.513 47.7333 307.007 47.12 306.66C46.5067 306.313 45.8133 306.14 45.04 306.14C44.2933 306.14 43.6067 306.32 42.98 306.68C42.3667 307.04 41.88 307.553 41.52 308.22C41.16 308.887 40.98 309.66 40.98 310.54C40.98 311.42 41.16 312.193 41.52 312.86C41.88 313.527 42.3667 314.04 42.98 314.4C43.6067 314.76 44.2933 314.94 45.04 314.94C45.8133 314.94 46.5067 314.767 47.12 314.42C47.7333 314.06 48.2133 313.547 48.56 312.88C48.92 312.2 49.1 311.413 49.1 310.52ZM62.5561 305.08V316H61.1561V314.08C60.8361 314.76 60.3428 315.28 59.6761 315.64C59.0094 316 58.2628 316.18 57.4361 316.18C56.1294 316.18 55.0628 315.78 54.2361 314.98C53.4094 314.167 52.9961 312.993 52.9961 311.46V305.08H54.3761V311.3C54.3761 312.487 54.6694 313.393 55.2561 314.02C55.8561 314.647 56.6694 314.96 57.6961 314.96C58.7494 314.96 59.5894 314.627 60.2161 313.96C60.8428 313.293 61.1561 312.313 61.1561 311.02V305.08H62.5561ZM67.1523 307.02C67.459 306.34 67.9257 305.813 68.5523 305.44C69.1923 305.067 69.9723 304.88 70.8923 304.88V306.34H70.5123C69.499 306.34 68.6857 306.613 68.0723 307.16C67.459 307.707 67.1523 308.62 67.1523 309.9V316H65.7523V305.08H67.1523V307.02ZM72.3584 310.54C72.3584 309.407 72.5851 308.42 73.0384 307.58C73.4918 306.727 74.1184 306.073 74.9184 305.62C75.7184 305.153 76.6318 304.92 77.6584 304.92C79.0051 304.92 80.1118 305.253 80.9784 305.92C81.8584 306.587 82.4251 307.493 82.6784 308.64H81.1784C80.9918 307.853 80.5851 307.24 79.9584 306.8C79.3451 306.347 78.5784 306.12 77.6584 306.12C76.9251 306.12 76.2651 306.287 75.6784 306.62C75.0918 306.953 74.6251 307.453 74.2784 308.12C73.9451 308.773 73.7784 309.58 73.7784 310.54C73.7784 311.5 73.9451 312.313 74.2784 312.98C74.6251 313.647 75.0918 314.147 75.6784 314.48C76.2651 314.813 76.9251 314.98 77.6584 314.98C78.5784 314.98 79.3451 314.76 79.9584 314.32C80.5851 313.867 80.9918 313.24 81.1784 312.44H82.6784C82.4251 313.56 81.8584 314.46 80.9784 315.14C80.0984 315.82 78.9918 316.16 77.6584 316.16C76.6318 316.16 75.7184 315.933 74.9184 315.48C74.1184 315.013 73.4918 314.36 73.0384 313.52C72.5851 312.667 72.3584 311.673 72.3584 310.54ZM90.4641 304.88C91.2907 304.88 92.0307 305.053 92.6841 305.4C93.3507 305.747 93.8707 306.28 94.2441 307C94.6307 307.707 94.8241 308.573 94.8241 309.6V316H93.4441V309.76C93.4441 308.573 93.1441 307.667 92.5441 307.04C91.9574 306.413 91.1507 306.1 90.1241 306.1C89.0707 306.1 88.2307 306.433 87.6041 307.1C86.9774 307.767 86.6641 308.747 86.6641 310.04V316H85.2641V301.2H86.6641V306.94C87.0107 306.287 87.5174 305.78 88.1841 305.42C88.8641 305.06 89.6241 304.88 90.4641 304.88ZM97.2803 310.52C97.2803 309.4 97.5003 308.42 97.9403 307.58C98.3936 306.727 99.0136 306.073 99.8003 305.62C100.6 305.153 101.5 304.92 102.5 304.92C103.54 304.92 104.434 305.16 105.18 305.64C105.94 306.12 106.487 306.733 106.82 307.48V305.08H108.22V316H106.82V313.58C106.474 314.327 105.92 314.947 105.16 315.44C104.414 315.92 103.52 316.16 102.48 316.16C101.494 316.16 100.6 315.927 99.8003 315.46C99.0136 314.993 98.3936 314.333 97.9403 313.48C97.5003 312.627 97.2803 311.64 97.2803 310.52ZM106.82 310.54C106.82 309.66 106.64 308.887 106.28 308.22C105.92 307.553 105.427 307.04 104.8 306.68C104.187 306.32 103.507 306.14 102.76 306.14C101.987 306.14 101.294 306.313 100.68 306.66C100.067 307.007 99.5803 307.513 99.2203 308.18C98.8736 308.833 98.7003 309.613 98.7003 310.52C98.7003 311.413 98.8736 312.2 99.2203 312.88C99.5803 313.547 100.067 314.06 100.68 314.42C101.294 314.767 101.987 314.94 102.76 314.94C103.507 314.94 104.187 314.76 104.8 314.4C105.427 314.04 105.92 313.527 106.28 312.86C106.64 312.193 106.82 311.42 106.82 310.54ZM115.176 316.16C113.923 316.16 112.896 315.873 112.096 315.3C111.31 314.713 110.87 313.92 110.776 312.92H112.216C112.283 313.533 112.57 314.033 113.076 314.42C113.596 314.793 114.29 314.98 115.156 314.98C115.916 314.98 116.51 314.8 116.936 314.44C117.376 314.08 117.596 313.633 117.596 313.1C117.596 312.727 117.476 312.42 117.236 312.18C116.996 311.94 116.69 311.753 116.316 311.62C115.956 311.473 115.463 311.32 114.836 311.16C114.023 310.947 113.363 310.733 112.856 310.52C112.35 310.307 111.916 309.993 111.556 309.58C111.21 309.153 111.036 308.587 111.036 307.88C111.036 307.347 111.196 306.853 111.516 306.4C111.836 305.947 112.29 305.587 112.876 305.32C113.463 305.053 114.13 304.92 114.876 304.92C116.05 304.92 116.996 305.22 117.716 305.82C118.436 306.407 118.823 307.22 118.876 308.26H117.476C117.436 307.62 117.183 307.107 116.716 306.72C116.263 306.32 115.636 306.12 114.836 306.12C114.13 306.12 113.556 306.287 113.116 306.62C112.676 306.953 112.456 307.367 112.456 307.86C112.456 308.287 112.583 308.64 112.836 308.92C113.103 309.187 113.43 309.4 113.816 309.56C114.203 309.707 114.723 309.873 115.376 310.06C116.163 310.273 116.79 310.48 117.256 310.68C117.723 310.88 118.123 311.173 118.456 311.56C118.79 311.947 118.963 312.46 118.976 313.1C118.976 313.687 118.816 314.213 118.496 314.68C118.176 315.133 117.73 315.493 117.156 315.76C116.583 316.027 115.923 316.16 115.176 316.16ZM131.492 309.98C131.492 310.46 131.478 310.827 131.452 311.08H122.392C122.432 311.907 122.632 312.613 122.992 313.2C123.352 313.787 123.825 314.233 124.412 314.54C124.998 314.833 125.638 314.98 126.332 314.98C127.238 314.98 127.998 314.76 128.612 314.32C129.238 313.88 129.652 313.287 129.852 312.54H131.332C131.065 313.607 130.492 314.48 129.612 315.16C128.745 315.827 127.652 316.16 126.332 316.16C125.305 316.16 124.385 315.933 123.572 315.48C122.758 315.013 122.118 314.36 121.652 313.52C121.198 312.667 120.972 311.673 120.972 310.54C120.972 309.407 121.198 308.413 121.652 307.56C122.105 306.707 122.738 306.053 123.552 305.6C124.365 305.147 125.292 304.92 126.332 304.92C127.372 304.92 128.278 305.147 129.052 305.6C129.838 306.053 130.438 306.667 130.852 307.44C131.278 308.2 131.492 309.047 131.492 309.98ZM130.072 309.94C130.085 309.127 129.918 308.433 129.572 307.86C129.238 307.287 128.778 306.853 128.192 306.56C127.605 306.267 126.965 306.12 126.272 306.12C125.232 306.12 124.345 306.453 123.612 307.12C122.878 307.787 122.472 308.727 122.392 309.94H130.072ZM147.721 302.02V303.18H143.841V316H142.441V303.18H138.541V302.02H147.721ZM156.212 316.14C154.919 316.14 153.745 315.84 152.692 315.24C151.639 314.627 150.805 313.78 150.192 312.7C149.592 311.607 149.292 310.373 149.292 309C149.292 307.627 149.592 306.4 150.192 305.32C150.805 304.227 151.639 303.38 152.692 302.78C153.745 302.167 154.919 301.86 156.212 301.86C157.519 301.86 158.699 302.167 159.752 302.78C160.805 303.38 161.632 304.227 162.232 305.32C162.832 306.4 163.132 307.627 163.132 309C163.132 310.373 162.832 311.607 162.232 312.7C161.632 313.78 160.805 314.627 159.752 315.24C158.699 315.84 157.519 316.14 156.212 316.14ZM156.212 314.92C157.252 314.92 158.185 314.68 159.012 314.2C159.839 313.72 160.492 313.033 160.972 312.14C161.452 311.233 161.692 310.187 161.692 309C161.692 307.813 161.452 306.773 160.972 305.88C160.492 304.987 159.839 304.3 159.012 303.82C158.185 303.34 157.252 303.1 156.212 303.1C155.172 303.1 154.239 303.34 153.412 303.82C152.585 304.3 151.932 304.987 151.452 305.88C150.972 306.773 150.732 307.813 150.732 309C150.732 310.187 150.972 311.233 151.452 312.14C151.932 313.033 152.585 313.72 153.412 314.2C154.239 314.68 155.172 314.92 156.212 314.92ZM176.234 316H174.834L167.094 304.24V316H165.694V302.02H167.094L174.834 313.76V302.02H176.234V316ZM189.673 316.16C188.646 316.16 187.72 315.933 186.893 315.48C186.08 315.013 185.433 314.36 184.953 313.52C184.486 312.667 184.253 311.673 184.253 310.54C184.253 309.407 184.493 308.42 184.973 307.58C185.453 306.727 186.106 306.073 186.933 305.62C187.76 305.153 188.686 304.92 189.713 304.92C190.74 304.92 191.666 305.153 192.493 305.62C193.333 306.073 193.986 306.727 194.453 307.58C194.933 308.42 195.173 309.407 195.173 310.54C195.173 311.66 194.933 312.647 194.453 313.5C193.973 314.353 193.313 315.013 192.473 315.48C191.633 315.933 190.7 316.16 189.673 316.16ZM189.673 314.94C190.393 314.94 191.06 314.78 191.673 314.46C192.286 314.127 192.78 313.633 193.153 312.98C193.54 312.313 193.733 311.5 193.733 310.54C193.733 309.58 193.546 308.773 193.173 308.12C192.8 307.453 192.306 306.96 191.693 306.64C191.08 306.307 190.413 306.14 189.693 306.14C188.973 306.14 188.306 306.307 187.693 306.64C187.08 306.96 186.586 307.453 186.213 308.12C185.853 308.773 185.673 309.58 185.673 310.54C185.673 311.5 185.853 312.313 186.213 312.98C186.586 313.633 187.073 314.127 187.673 314.46C188.286 314.78 188.953 314.94 189.673 314.94ZM199.125 307.02C199.432 306.34 199.898 305.813 200.525 305.44C201.165 305.067 201.945 304.88 202.865 304.88V306.34H202.485C201.472 306.34 200.658 306.613 200.045 307.16C199.432 307.707 199.125 308.62 199.125 309.9V316H197.725V305.08H199.125V307.02ZM215.239 316.16C214.213 316.16 213.286 315.933 212.459 315.48C211.646 315.013 210.999 314.36 210.519 313.52C210.053 312.667 209.819 311.673 209.819 310.54C209.819 309.407 210.059 308.42 210.539 307.58C211.019 306.727 211.673 306.073 212.499 305.62C213.326 305.153 214.253 304.92 215.279 304.92C216.306 304.92 217.233 305.153 218.059 305.62C218.899 306.073 219.553 306.727 220.019 307.58C220.499 308.42 220.739 309.407 220.739 310.54C220.739 311.66 220.499 312.647 220.019 313.5C219.539 314.353 218.879 315.013 218.039 315.48C217.199 315.933 216.266 316.16 215.239 316.16ZM215.239 314.94C215.959 314.94 216.626 314.78 217.239 314.46C217.853 314.127 218.346 313.633 218.719 312.98C219.106 312.313 219.299 311.5 219.299 310.54C219.299 309.58 219.113 308.773 218.739 308.12C218.366 307.453 217.873 306.96 217.259 306.64C216.646 306.307 215.979 306.14 215.259 306.14C214.539 306.14 213.873 306.307 213.259 306.64C212.646 306.96 212.153 307.453 211.779 308.12C211.419 308.773 211.239 309.58 211.239 310.54C211.239 311.5 211.419 312.313 211.779 312.98C212.153 313.633 212.639 314.127 213.239 314.46C213.853 314.78 214.519 314.94 215.239 314.94ZM225.111 306.26V313.04C225.111 313.707 225.238 314.167 225.491 314.42C225.745 314.673 226.191 314.8 226.831 314.8H228.111V316H226.611C225.625 316 224.891 315.773 224.411 315.32C223.931 314.853 223.691 314.093 223.691 313.04V306.26H222.171V305.08H223.691V302.34H225.111V305.08H228.111V306.26H225.111ZM235.62 304.88C236.447 304.88 237.187 305.053 237.84 305.4C238.507 305.747 239.027 306.28 239.4 307C239.787 307.707 239.98 308.573 239.98 309.6V316H238.6V309.76C238.6 308.573 238.3 307.667 237.7 307.04C237.114 306.413 236.307 306.1 235.28 306.1C234.227 306.1 233.387 306.433 232.76 307.1C232.134 307.767 231.82 308.747 231.82 310.04V316H230.42V301.2H231.82V306.94C232.167 306.287 232.674 305.78 233.34 305.42C234.02 305.06 234.78 304.88 235.62 304.88ZM252.957 309.98C252.957 310.46 252.943 310.827 252.917 311.08H243.857C243.897 311.907 244.097 312.613 244.457 313.2C244.817 313.787 245.29 314.233 245.877 314.54C246.463 314.833 247.103 314.98 247.797 314.98C248.703 314.98 249.463 314.76 250.077 314.32C250.703 313.88 251.117 313.287 251.317 312.54H252.797C252.53 313.607 251.957 314.48 251.077 315.16C250.21 315.827 249.117 316.16 247.797 316.16C246.77 316.16 245.85 315.933 245.037 315.48C244.223 315.013 243.583 314.36 243.117 313.52C242.663 312.667 242.437 311.673 242.437 310.54C242.437 309.407 242.663 308.413 243.117 307.56C243.57 306.707 244.203 306.053 245.017 305.6C245.83 305.147 246.757 304.92 247.797 304.92C248.837 304.92 249.743 305.147 250.517 305.6C251.303 306.053 251.903 306.667 252.317 307.44C252.743 308.2 252.957 309.047 252.957 309.98ZM251.537 309.94C251.55 309.127 251.383 308.433 251.037 307.86C250.703 307.287 250.243 306.853 249.657 306.56C249.07 306.267 248.43 306.12 247.737 306.12C246.697 306.12 245.81 306.453 245.077 307.12C244.343 307.787 243.937 308.727 243.857 309.94H251.537ZM256.918 307.02C257.225 306.34 257.691 305.813 258.318 305.44C258.958 305.067 259.738 304.88 260.658 304.88V306.34H260.278C259.265 306.34 258.451 306.613 257.838 307.16C257.225 307.707 256.918 308.62 256.918 309.9V316H255.518V305.08H256.918V307.02ZM270.072 306.26V313.04C270.072 313.707 270.199 314.167 270.452 314.42C270.706 314.673 271.152 314.8 271.792 314.8H273.072V316H271.572C270.586 316 269.852 315.773 269.372 315.32C268.892 314.853 268.652 314.093 268.652 313.04V306.26H267.132V305.08H268.652V302.34H270.072V305.08H273.072V306.26H270.072ZM280.161 316.16C279.135 316.16 278.208 315.933 277.381 315.48C276.568 315.013 275.921 314.36 275.441 313.52C274.975 312.667 274.741 311.673 274.741 310.54C274.741 309.407 274.981 308.42 275.461 307.58C275.941 306.727 276.595 306.073 277.421 305.62C278.248 305.153 279.175 304.92 280.201 304.92C281.228 304.92 282.155 305.153 282.981 305.62C283.821 306.073 284.475 306.727 284.941 307.58C285.421 308.42 285.661 309.407 285.661 310.54C285.661 311.66 285.421 312.647 284.941 313.5C284.461 314.353 283.801 315.013 282.961 315.48C282.121 315.933 281.188 316.16 280.161 316.16ZM280.161 314.94C280.881 314.94 281.548 314.78 282.161 314.46C282.775 314.127 283.268 313.633 283.641 312.98C284.028 312.313 284.221 311.5 284.221 310.54C284.221 309.58 284.035 308.773 283.661 308.12C283.288 307.453 282.795 306.96 282.181 306.64C281.568 306.307 280.901 306.14 280.181 306.14C279.461 306.14 278.795 306.307 278.181 306.64C277.568 306.96 277.075 307.453 276.701 308.12C276.341 308.773 276.161 309.58 276.161 310.54C276.161 311.5 276.341 312.313 276.701 312.98C277.075 313.633 277.561 314.127 278.161 314.46C278.775 314.78 279.441 314.94 280.161 314.94ZM294.113 316L289.613 311.1V316H288.213V301.2H289.613V309.96L294.013 305.08H295.973L290.793 310.52L296.013 316H294.113ZM307.703 309.98C307.703 310.46 307.689 310.827 307.663 311.08H298.603C298.643 311.907 298.843 312.613 299.203 313.2C299.563 313.787 300.036 314.233 300.623 314.54C301.209 314.833 301.849 314.98 302.543 314.98C303.449 314.98 304.209 314.76 304.823 314.32C305.449 313.88 305.863 313.287 306.063 312.54H307.543C307.276 313.607 306.703 314.48 305.823 315.16C304.956 315.827 303.863 316.16 302.543 316.16C301.516 316.16 300.596 315.933 299.783 315.48C298.969 315.013 298.329 314.36 297.863 313.52C297.409 312.667 297.183 311.673 297.183 310.54C297.183 309.407 297.409 308.413 297.863 307.56C298.316 306.707 298.949 306.053 299.763 305.6C300.576 305.147 301.503 304.92 302.543 304.92C303.583 304.92 304.489 305.147 305.263 305.6C306.049 306.053 306.649 306.667 307.063 307.44C307.489 308.2 307.703 309.047 307.703 309.98ZM306.283 309.94C306.296 309.127 306.129 308.433 305.783 307.86C305.449 307.287 304.989 306.853 304.403 306.56C303.816 306.267 303.176 306.12 302.483 306.12C301.443 306.12 300.556 306.453 299.823 307.12C299.089 307.787 298.683 308.727 298.603 309.94H306.283ZM315.384 304.88C316.691 304.88 317.757 305.287 318.584 306.1C319.411 306.9 319.824 308.067 319.824 309.6V316H318.444V309.76C318.444 308.573 318.144 307.667 317.544 307.04C316.957 306.413 316.151 306.1 315.124 306.1C314.071 306.1 313.231 306.433 312.604 307.1C311.977 307.767 311.664 308.747 311.664 310.04V316H310.264V305.08H311.664V306.94C312.011 306.273 312.511 305.767 313.164 305.42C313.817 305.06 314.557 304.88 315.384 304.88ZM326.68 316.16C325.427 316.16 324.4 315.873 323.6 315.3C322.814 314.713 322.374 313.92 322.28 312.92H323.72C323.787 313.533 324.074 314.033 324.58 314.42C325.1 314.793 325.794 314.98 326.66 314.98C327.42 314.98 328.014 314.8 328.44 314.44C328.88 314.08 329.1 313.633 329.1 313.1C329.1 312.727 328.98 312.42 328.74 312.18C328.5 311.94 328.194 311.753 327.82 311.62C327.46 311.473 326.967 311.32 326.34 311.16C325.527 310.947 324.867 310.733 324.36 310.52C323.854 310.307 323.42 309.993 323.06 309.58C322.714 309.153 322.54 308.587 322.54 307.88C322.54 307.347 322.7 306.853 323.02 306.4C323.34 305.947 323.794 305.587 324.38 305.32C324.967 305.053 325.634 304.92 326.38 304.92C327.554 304.92 328.5 305.22 329.22 305.82C329.94 306.407 330.327 307.22 330.38 308.26H328.98C328.94 307.62 328.687 307.107 328.22 306.72C327.767 306.32 327.14 306.12 326.34 306.12C325.634 306.12 325.06 306.287 324.62 306.62C324.18 306.953 323.96 307.367 323.96 307.86C323.96 308.287 324.087 308.64 324.34 308.92C324.607 309.187 324.934 309.4 325.32 309.56C325.707 309.707 326.227 309.873 326.88 310.06C327.667 310.273 328.294 310.48 328.76 310.68C329.227 310.88 329.627 311.173 329.96 311.56C330.294 311.947 330.467 312.46 330.48 313.1C330.48 313.687 330.32 314.213 330 314.68C329.68 315.133 329.234 315.493 328.66 315.76C328.087 316.027 327.427 316.16 326.68 316.16ZM337.964 310.52C337.964 309.4 338.184 308.42 338.624 307.58C339.077 306.727 339.697 306.073 340.484 305.62C341.284 305.153 342.184 304.92 343.184 304.92C344.224 304.92 345.117 305.16 345.864 305.64C346.624 306.12 347.171 306.733 347.504 307.48V305.08H348.904V316H347.504V313.58C347.157 314.327 346.604 314.947 345.844 315.44C345.097 315.92 344.204 316.16 343.164 316.16C342.177 316.16 341.284 315.927 340.484 315.46C339.697 314.993 339.077 314.333 338.624 313.48C338.184 312.627 337.964 311.64 337.964 310.52ZM347.504 310.54C347.504 309.66 347.324 308.887 346.964 308.22C346.604 307.553 346.111 307.04 345.484 306.68C344.871 306.32 344.191 306.14 343.444 306.14C342.671 306.14 341.977 306.313 341.364 306.66C340.751 307.007 340.264 307.513 339.904 308.18C339.557 308.833 339.384 309.613 339.384 310.52C339.384 311.413 339.557 312.2 339.904 312.88C340.264 313.547 340.751 314.06 341.364 314.42C341.977 314.767 342.671 314.94 343.444 314.94C344.191 314.94 344.871 314.76 345.484 314.4C346.111 314.04 346.604 313.527 346.964 312.86C347.324 312.193 347.504 311.42 347.504 310.54ZM353.92 306.26V313.04C353.92 313.707 354.047 314.167 354.3 314.42C354.553 314.673 355 314.8 355.64 314.8H356.92V316H355.42C354.433 316 353.7 315.773 353.22 315.32C352.74 314.853 352.5 314.093 352.5 313.04V306.26H350.98V305.08H352.5V302.34H353.92V305.08H356.92V306.26H353.92ZM364.077 310.52C364.077 309.4 364.297 308.42 364.737 307.58C365.191 306.727 365.811 306.073 366.597 305.62C367.397 305.153 368.297 304.92 369.297 304.92C370.337 304.92 371.231 305.16 371.977 305.64C372.737 306.12 373.284 306.733 373.617 307.48V305.08H375.017V316H373.617V313.58C373.271 314.327 372.717 314.947 371.957 315.44C371.211 315.92 370.317 316.16 369.277 316.16C368.291 316.16 367.397 315.927 366.597 315.46C365.811 314.993 365.191 314.333 364.737 313.48C364.297 312.627 364.077 311.64 364.077 310.52ZM373.617 310.54C373.617 309.66 373.437 308.887 373.077 308.22C372.717 307.553 372.224 307.04 371.597 306.68C370.984 306.32 370.304 306.14 369.557 306.14C368.784 306.14 368.091 306.313 367.477 306.66C366.864 307.007 366.377 307.513 366.017 308.18C365.671 308.833 365.497 309.613 365.497 310.52C365.497 311.413 365.671 312.2 366.017 312.88C366.377 313.547 366.864 314.06 367.477 314.42C368.091 314.767 368.784 314.94 369.557 314.94C370.304 314.94 370.984 314.76 371.597 314.4C372.224 314.04 372.717 313.527 373.077 312.86C373.437 312.193 373.617 311.42 373.617 310.54ZM43.36 345.16C42.1067 345.16 41.08 344.873 40.28 344.3C39.4933 343.713 39.0533 342.92 38.96 341.92H40.4C40.4667 342.533 40.7533 343.033 41.26 343.42C41.78 343.793 42.4733 343.98 43.34 343.98C44.1 343.98 44.6933 343.8 45.12 343.44C45.56 343.08 45.78 342.633 45.78 342.1C45.78 341.727 45.66 341.42 45.42 341.18C45.18 340.94 44.8733 340.753 44.5 340.62C44.14 340.473 43.6467 340.32 43.02 340.16C42.2067 339.947 41.5467 339.733 41.04 339.52C40.5333 339.307 40.1 338.993 39.74 338.58C39.3933 338.153 39.22 337.587 39.22 336.88C39.22 336.347 39.38 335.853 39.7 335.4C40.02 334.947 40.4733 334.587 41.06 334.32C41.6467 334.053 42.3133 333.92 43.06 333.92C44.2333 333.92 45.18 334.22 45.9 334.82C46.62 335.407 47.0067 336.22 47.06 337.26H45.66C45.62 336.62 45.3667 336.107 44.9 335.72C44.4467 335.32 43.82 335.12 43.02 335.12C42.3133 335.12 41.74 335.287 41.3 335.62C40.86 335.953 40.64 336.367 40.64 336.86C40.64 337.287 40.7667 337.64 41.02 337.92C41.2867 338.187 41.6133 338.4 42 338.56C42.3867 338.707 42.9067 338.873 43.56 339.06C44.3467 339.273 44.9733 339.48 45.44 339.68C45.9067 339.88 46.3067 340.173 46.64 340.56C46.9733 340.947 47.1467 341.46 47.16 342.1C47.16 342.687 47 343.213 46.68 343.68C46.36 344.133 45.9133 344.493 45.34 344.76C44.7667 345.027 44.1067 345.16 43.36 345.16ZM51.1753 336.48C51.522 335.747 52.0686 335.14 52.8153 334.66C53.5753 334.167 54.4753 333.92 55.5153 333.92C56.502 333.92 57.3886 334.153 58.1753 334.62C58.9753 335.073 59.5953 335.727 60.0353 336.58C60.4886 337.42 60.7153 338.4 60.7153 339.52C60.7153 340.64 60.4886 341.627 60.0353 342.48C59.5953 343.333 58.9753 343.993 58.1753 344.46C57.3886 344.927 56.502 345.16 55.5153 345.16C54.4886 345.16 53.5953 344.92 52.8353 344.44C52.0753 343.947 51.522 343.333 51.1753 342.6V350.16H49.7953V334.08H51.1753V336.48ZM59.2953 339.52C59.2953 338.613 59.1153 337.833 58.7553 337.18C58.4086 336.513 57.9286 336.007 57.3153 335.66C56.702 335.313 56.0086 335.14 55.2353 335.14C54.4886 335.14 53.802 335.32 53.1753 335.68C52.562 336.04 52.0753 336.553 51.7153 337.22C51.3553 337.887 51.1753 338.66 51.1753 339.54C51.1753 340.42 51.3553 341.193 51.7153 341.86C52.0753 342.527 52.562 343.04 53.1753 343.4C53.802 343.76 54.4886 343.94 55.2353 343.94C56.0086 343.94 56.702 343.767 57.3153 343.42C57.9286 343.06 58.4086 342.547 58.7553 341.88C59.1153 341.2 59.2953 340.413 59.2953 339.52ZM73.1714 338.98C73.1714 339.46 73.1581 339.827 73.1314 340.08H64.0714C64.1114 340.907 64.3114 341.613 64.6714 342.2C65.0314 342.787 65.5047 343.233 66.0914 343.54C66.6781 343.833 67.3181 343.98 68.0114 343.98C68.9181 343.98 69.6781 343.76 70.2914 343.32C70.9181 342.88 71.3314 342.287 71.5314 341.54H73.0114C72.7447 342.607 72.1714 343.48 71.2914 344.16C70.4247 344.827 69.3314 345.16 68.0114 345.16C66.9847 345.16 66.0647 344.933 65.2514 344.48C64.4381 344.013 63.7981 343.36 63.3314 342.52C62.8781 341.667 62.6514 340.673 62.6514 339.54C62.6514 338.407 62.8781 337.413 63.3314 336.56C63.7847 335.707 64.4181 335.053 65.2314 334.6C66.0447 334.147 66.9714 333.92 68.0114 333.92C69.0514 333.92 69.9581 334.147 70.7314 334.6C71.5181 335.053 72.1181 335.667 72.5314 336.44C72.9581 337.2 73.1714 338.047 73.1714 338.98ZM71.7514 338.94C71.7647 338.127 71.5981 337.433 71.2514 336.86C70.9181 336.287 70.4581 335.853 69.8714 335.56C69.2847 335.267 68.6447 335.12 67.9514 335.12C66.9114 335.12 66.0247 335.453 65.2914 336.12C64.5581 336.787 64.1514 337.727 64.0714 338.94H71.7514ZM75.0928 339.54C75.0928 338.407 75.3195 337.42 75.7728 336.58C76.2261 335.727 76.8528 335.073 77.6528 334.62C78.4528 334.153 79.3661 333.92 80.3928 333.92C81.7395 333.92 82.8461 334.253 83.7128 334.92C84.5928 335.587 85.1595 336.493 85.4128 337.64H83.9128C83.7261 336.853 83.3195 336.24 82.6928 335.8C82.0795 335.347 81.3128 335.12 80.3928 335.12C79.6595 335.12 78.9995 335.287 78.4128 335.62C77.8261 335.953 77.3595 336.453 77.0128 337.12C76.6795 337.773 76.5128 338.58 76.5128 339.54C76.5128 340.5 76.6795 341.313 77.0128 341.98C77.3595 342.647 77.8261 343.147 78.4128 343.48C78.9995 343.813 79.6595 343.98 80.3928 343.98C81.3128 343.98 82.0795 343.76 82.6928 343.32C83.3195 342.867 83.7261 342.24 83.9128 341.44H85.4128C85.1595 342.56 84.5928 343.46 83.7128 344.14C82.8328 344.82 81.7261 345.16 80.3928 345.16C79.3661 345.16 78.4528 344.933 77.6528 344.48C76.8528 344.013 76.2261 343.36 75.7728 342.52C75.3195 341.667 75.0928 340.673 75.0928 339.54ZM88.6984 332.02C88.4184 332.02 88.1784 331.92 87.9784 331.72C87.7784 331.52 87.6784 331.273 87.6784 330.98C87.6784 330.687 87.7784 330.447 87.9784 330.26C88.1784 330.06 88.4184 329.96 88.6984 329.96C88.9784 329.96 89.2184 330.06 89.4184 330.26C89.6184 330.447 89.7184 330.687 89.7184 330.98C89.7184 331.273 89.6184 331.52 89.4184 331.72C89.2184 331.92 88.9784 332.02 88.6984 332.02ZM89.3984 334.08V345H87.9984V334.08H89.3984ZM96.8688 335.26H94.3288V345H92.9288V335.26H91.4088V334.08H92.9288V333.32C92.9288 332.133 93.2288 331.26 93.8288 330.7C94.4421 330.14 95.4288 329.86 96.7888 329.86V331.06C95.8821 331.06 95.2421 331.233 94.8688 331.58C94.5088 331.927 94.3288 332.507 94.3288 333.32V334.08H96.8688V335.26ZM99.7727 332.02C99.4927 332.02 99.2527 331.92 99.0527 331.72C98.8527 331.52 98.7527 331.273 98.7527 330.98C98.7527 330.687 98.8527 330.447 99.0527 330.26C99.2527 330.06 99.4927 329.96 99.7727 329.96C100.053 329.96 100.293 330.06 100.493 330.26C100.693 330.447 100.793 330.687 100.793 330.98C100.793 331.273 100.693 331.52 100.493 331.72C100.293 331.92 100.053 332.02 99.7727 332.02ZM100.473 334.08V345H99.0727V334.08H100.473ZM103.003 339.54C103.003 338.407 103.23 337.42 103.683 336.58C104.136 335.727 104.763 335.073 105.563 334.62C106.363 334.153 107.276 333.92 108.303 333.92C109.65 333.92 110.756 334.253 111.623 334.92C112.503 335.587 113.07 336.493 113.323 337.64H111.823C111.636 336.853 111.23 336.24 110.603 335.8C109.99 335.347 109.223 335.12 108.303 335.12C107.57 335.12 106.91 335.287 106.323 335.62C105.736 335.953 105.27 336.453 104.923 337.12C104.59 337.773 104.423 338.58 104.423 339.54C104.423 340.5 104.59 341.313 104.923 341.98C105.27 342.647 105.736 343.147 106.323 343.48C106.91 343.813 107.57 343.98 108.303 343.98C109.223 343.98 109.99 343.76 110.603 343.32C111.23 342.867 111.636 342.24 111.823 341.44H113.323C113.07 342.56 112.503 343.46 111.623 344.14C110.743 344.82 109.636 345.16 108.303 345.16C107.276 345.16 106.363 344.933 105.563 344.48C104.763 344.013 104.136 343.36 103.683 342.52C103.23 341.667 103.003 340.673 103.003 339.54ZM122.777 336.48C123.124 335.747 123.67 335.14 124.417 334.66C125.177 334.167 126.077 333.92 127.117 333.92C128.104 333.92 128.99 334.153 129.777 334.62C130.577 335.073 131.197 335.727 131.637 336.58C132.09 337.42 132.317 338.4 132.317 339.52C132.317 340.64 132.09 341.627 131.637 342.48C131.197 343.333 130.577 343.993 129.777 344.46C128.99 344.927 128.104 345.16 127.117 345.16C126.09 345.16 125.197 344.92 124.437 344.44C123.677 343.947 123.124 343.333 122.777 342.6V350.16H121.397V334.08H122.777V336.48ZM130.897 339.52C130.897 338.613 130.717 337.833 130.357 337.18C130.01 336.513 129.53 336.007 128.917 335.66C128.304 335.313 127.61 335.14 126.837 335.14C126.09 335.14 125.404 335.32 124.777 335.68C124.164 336.04 123.677 336.553 123.317 337.22C122.957 337.887 122.777 338.66 122.777 339.54C122.777 340.42 122.957 341.193 123.317 341.86C123.677 342.527 124.164 343.04 124.777 343.4C125.404 343.76 126.09 343.94 126.837 343.94C127.61 343.94 128.304 343.767 128.917 343.42C129.53 343.06 130.01 342.547 130.357 341.88C130.717 341.2 130.897 340.413 130.897 339.52ZM136.293 336.02C136.6 335.34 137.066 334.813 137.693 334.44C138.333 334.067 139.113 333.88 140.033 333.88V335.34H139.653C138.64 335.34 137.826 335.613 137.213 336.16C136.6 336.707 136.293 337.62 136.293 338.9V345H134.893V334.08H136.293V336.02ZM142.839 332.02C142.559 332.02 142.319 331.92 142.119 331.72C141.919 331.52 141.819 331.273 141.819 330.98C141.819 330.687 141.919 330.447 142.119 330.26C142.319 330.06 142.559 329.96 142.839 329.96C143.119 329.96 143.359 330.06 143.559 330.26C143.759 330.447 143.859 330.687 143.859 330.98C143.859 331.273 143.759 331.52 143.559 331.72C143.359 331.92 143.119 332.02 142.839 332.02ZM143.539 334.08V345H142.139V334.08H143.539ZM146.069 339.54C146.069 338.407 146.296 337.42 146.749 336.58C147.203 335.727 147.829 335.073 148.629 334.62C149.429 334.153 150.343 333.92 151.369 333.92C152.716 333.92 153.823 334.253 154.689 334.92C155.569 335.587 156.136 336.493 156.389 337.64H154.889C154.703 336.853 154.296 336.24 153.669 335.8C153.056 335.347 152.289 335.12 151.369 335.12C150.636 335.12 149.976 335.287 149.389 335.62C148.803 335.953 148.336 336.453 147.989 337.12C147.656 337.773 147.489 338.58 147.489 339.54C147.489 340.5 147.656 341.313 147.989 341.98C148.336 342.647 148.803 343.147 149.389 343.48C149.976 343.813 150.636 343.98 151.369 343.98C152.289 343.98 153.056 343.76 153.669 343.32C154.296 342.867 154.703 342.24 154.889 341.44H156.389C156.136 342.56 155.569 343.46 154.689 344.14C153.809 344.82 152.703 345.16 151.369 345.16C150.343 345.16 149.429 344.933 148.629 344.48C147.829 344.013 147.203 343.36 146.749 342.52C146.296 341.667 146.069 340.673 146.069 339.54ZM168.855 338.98C168.855 339.46 168.842 339.827 168.815 340.08H159.755C159.795 340.907 159.995 341.613 160.355 342.2C160.715 342.787 161.188 343.233 161.775 343.54C162.362 343.833 163.002 343.98 163.695 343.98C164.602 343.98 165.362 343.76 165.975 343.32C166.602 342.88 167.015 342.287 167.215 341.54H168.695C168.428 342.607 167.855 343.48 166.975 344.16C166.108 344.827 165.015 345.16 163.695 345.16C162.668 345.16 161.748 344.933 160.935 344.48C160.122 344.013 159.482 343.36 159.015 342.52C158.562 341.667 158.335 340.673 158.335 339.54C158.335 338.407 158.562 337.413 159.015 336.56C159.468 335.707 160.102 335.053 160.915 334.6C161.728 334.147 162.655 333.92 163.695 333.92C164.735 333.92 165.642 334.147 166.415 334.6C167.202 335.053 167.802 335.667 168.215 336.44C168.642 337.2 168.855 338.047 168.855 338.98ZM167.435 338.94C167.448 338.127 167.282 337.433 166.935 336.86C166.602 336.287 166.142 335.853 165.555 335.56C164.968 335.267 164.328 335.12 163.635 335.12C162.595 335.12 161.708 335.453 160.975 336.12C160.242 336.787 159.835 337.727 159.755 338.94H167.435ZM176.265 339.52C176.265 338.4 176.491 337.42 176.945 336.58C177.398 335.727 178.018 335.073 178.805 334.62C179.605 334.153 180.505 333.92 181.505 333.92C182.465 333.92 183.331 334.153 184.105 334.62C184.878 335.087 185.445 335.693 185.805 336.44V330.2H187.205V345H185.805V342.56C185.471 343.32 184.925 343.947 184.165 344.44C183.405 344.92 182.511 345.16 181.485 345.16C180.485 345.16 179.585 344.927 178.785 344.46C177.998 343.993 177.378 343.333 176.925 342.48C176.485 341.627 176.265 340.64 176.265 339.52ZM185.805 339.54C185.805 338.66 185.625 337.887 185.265 337.22C184.905 336.553 184.411 336.04 183.785 335.68C183.171 335.32 182.491 335.14 181.745 335.14C180.971 335.14 180.278 335.313 179.665 335.66C179.051 336.007 178.565 336.513 178.205 337.18C177.858 337.833 177.685 338.613 177.685 339.52C177.685 340.413 177.858 341.2 178.205 341.88C178.565 342.547 179.051 343.06 179.665 343.42C180.278 343.767 180.971 343.94 181.745 343.94C182.491 343.94 183.171 343.76 183.785 343.4C184.411 343.04 184.905 342.527 185.265 341.86C185.625 341.193 185.805 340.42 185.805 339.54ZM191.101 332.02C190.821 332.02 190.581 331.92 190.381 331.72C190.181 331.52 190.081 331.273 190.081 330.98C190.081 330.687 190.181 330.447 190.381 330.26C190.581 330.06 190.821 329.96 191.101 329.96C191.381 329.96 191.621 330.06 191.821 330.26C192.021 330.447 192.121 330.687 192.121 330.98C192.121 331.273 192.021 331.52 191.821 331.72C191.621 331.92 191.381 332.02 191.101 332.02ZM191.801 334.08V345H190.401V334.08H191.801ZM196.371 336.02C196.678 335.34 197.144 334.813 197.771 334.44C198.411 334.067 199.191 333.88 200.111 333.88V335.34H199.731C198.718 335.34 197.904 335.613 197.291 336.16C196.678 336.707 196.371 337.62 196.371 338.9V345H194.971V334.08H196.371V336.02ZM212.097 338.98C212.097 339.46 212.084 339.827 212.057 340.08H202.997C203.037 340.907 203.237 341.613 203.597 342.2C203.957 342.787 204.431 343.233 205.017 343.54C205.604 343.833 206.244 343.98 206.937 343.98C207.844 343.98 208.604 343.76 209.217 343.32C209.844 342.88 210.257 342.287 210.457 341.54H211.937C211.671 342.607 211.097 343.48 210.217 344.16C209.351 344.827 208.257 345.16 206.937 345.16C205.911 345.16 204.991 344.933 204.177 344.48C203.364 344.013 202.724 343.36 202.257 342.52C201.804 341.667 201.577 340.673 201.577 339.54C201.577 338.407 201.804 337.413 202.257 336.56C202.711 335.707 203.344 335.053 204.157 334.6C204.971 334.147 205.897 333.92 206.937 333.92C207.977 333.92 208.884 334.147 209.657 334.6C210.444 335.053 211.044 335.667 211.457 336.44C211.884 337.2 212.097 338.047 212.097 338.98ZM210.677 338.94C210.691 338.127 210.524 337.433 210.177 336.86C209.844 336.287 209.384 335.853 208.797 335.56C208.211 335.267 207.571 335.12 206.877 335.12C205.837 335.12 204.951 335.453 204.217 336.12C203.484 336.787 203.077 337.727 202.997 338.94H210.677ZM214.019 339.54C214.019 338.407 214.245 337.42 214.699 336.58C215.152 335.727 215.779 335.073 216.579 334.62C217.379 334.153 218.292 333.92 219.319 333.92C220.665 333.92 221.772 334.253 222.639 334.92C223.519 335.587 224.085 336.493 224.339 337.64H222.839C222.652 336.853 222.245 336.24 221.619 335.8C221.005 335.347 220.239 335.12 219.319 335.12C218.585 335.12 217.925 335.287 217.339 335.62C216.752 335.953 216.285 336.453 215.939 337.12C215.605 337.773 215.439 338.58 215.439 339.54C215.439 340.5 215.605 341.313 215.939 341.98C216.285 342.647 216.752 343.147 217.339 343.48C217.925 343.813 218.585 343.98 219.319 343.98C220.239 343.98 221.005 343.76 221.619 343.32C222.245 342.867 222.652 342.24 222.839 341.44H224.339C224.085 342.56 223.519 343.46 222.639 344.14C221.759 344.82 220.652 345.16 219.319 345.16C218.292 345.16 217.379 344.933 216.579 344.48C215.779 344.013 215.152 343.36 214.699 342.52C214.245 341.667 214.019 340.673 214.019 339.54ZM228.744 335.26V342.04C228.744 342.707 228.871 343.167 229.124 343.42C229.378 343.673 229.824 343.8 230.464 343.8H231.744V345H230.244C229.258 345 228.524 344.773 228.044 344.32C227.564 343.853 227.324 343.093 227.324 342.04V335.26H225.804V334.08H227.324V331.34H228.744V334.08H231.744V335.26H228.744ZM235.453 330.2V345H234.053V330.2H235.453ZM247.623 334.08L241.143 350.14H239.683L241.803 344.94L237.323 334.08H238.863L242.583 343.4L246.183 334.08H247.623ZM259.79 345.16C258.763 345.16 257.837 344.933 257.01 344.48C256.197 344.013 255.55 343.36 255.07 342.52C254.603 341.667 254.37 340.673 254.37 339.54C254.37 338.407 254.61 337.42 255.09 336.58C255.57 335.727 256.223 335.073 257.05 334.62C257.877 334.153 258.803 333.92 259.83 333.92C260.857 333.92 261.783 334.153 262.61 334.62C263.45 335.073 264.103 335.727 264.57 336.58C265.05 337.42 265.29 338.407 265.29 339.54C265.29 340.66 265.05 341.647 264.57 342.5C264.09 343.353 263.43 344.013 262.59 344.48C261.75 344.933 260.817 345.16 259.79 345.16ZM259.79 343.94C260.51 343.94 261.177 343.78 261.79 343.46C262.403 343.127 262.897 342.633 263.27 341.98C263.657 341.313 263.85 340.5 263.85 339.54C263.85 338.58 263.663 337.773 263.29 337.12C262.917 336.453 262.423 335.96 261.81 335.64C261.197 335.307 260.53 335.14 259.81 335.14C259.09 335.14 258.423 335.307 257.81 335.64C257.197 335.96 256.703 336.453 256.33 337.12C255.97 337.773 255.79 338.58 255.79 339.54C255.79 340.5 255.97 341.313 256.33 341.98C256.703 342.633 257.19 343.127 257.79 343.46C258.403 343.78 259.07 343.94 259.79 343.94ZM272.962 333.88C274.269 333.88 275.336 334.287 276.162 335.1C276.989 335.9 277.402 337.067 277.402 338.6V345H276.022V338.76C276.022 337.573 275.722 336.667 275.122 336.04C274.536 335.413 273.729 335.1 272.702 335.1C271.649 335.1 270.809 335.433 270.182 336.1C269.556 336.767 269.242 337.747 269.242 339.04V345H267.842V334.08H269.242V335.94C269.589 335.273 270.089 334.767 270.742 334.42C271.396 334.06 272.136 333.88 272.962 333.88ZM287.807 335.26V342.04C287.807 342.707 287.933 343.167 288.187 343.42C288.44 343.673 288.887 343.8 289.527 343.8H290.807V345H289.307C288.32 345 287.587 344.773 287.107 344.32C286.627 343.853 286.387 343.093 286.387 342.04V335.26H284.867V334.08H286.387V331.34H287.807V334.08H290.807V335.26H287.807ZM298.316 333.88C299.142 333.88 299.882 334.053 300.536 334.4C301.202 334.747 301.722 335.28 302.096 336C302.482 336.707 302.676 337.573 302.676 338.6V345H301.296V338.76C301.296 337.573 300.996 336.667 300.396 336.04C299.809 335.413 299.002 335.1 297.976 335.1C296.922 335.1 296.082 335.433 295.456 336.1C294.829 336.767 294.516 337.747 294.516 339.04V345H293.116V330.2H294.516V335.94C294.862 335.287 295.369 334.78 296.036 334.42C296.716 334.06 297.476 333.88 298.316 333.88ZM315.652 338.98C315.652 339.46 315.639 339.827 315.612 340.08H306.552C306.592 340.907 306.792 341.613 307.152 342.2C307.512 342.787 307.985 343.233 308.572 343.54C309.159 343.833 309.799 343.98 310.492 343.98C311.399 343.98 312.159 343.76 312.772 343.32C313.399 342.88 313.812 342.287 314.012 341.54H315.492C315.225 342.607 314.652 343.48 313.772 344.16C312.905 344.827 311.812 345.16 310.492 345.16C309.465 345.16 308.545 344.933 307.732 344.48C306.919 344.013 306.279 343.36 305.812 342.52C305.359 341.667 305.132 340.673 305.132 339.54C305.132 338.407 305.359 337.413 305.812 336.56C306.265 335.707 306.899 335.053 307.712 334.6C308.525 334.147 309.452 333.92 310.492 333.92C311.532 333.92 312.439 334.147 313.212 334.6C313.999 335.053 314.599 335.667 315.012 336.44C315.439 337.2 315.652 338.047 315.652 338.98ZM314.232 338.94C314.245 338.127 314.079 337.433 313.732 336.86C313.399 336.287 312.939 335.853 312.352 335.56C311.765 335.267 311.125 335.12 310.432 335.12C309.392 335.12 308.505 335.453 307.772 336.12C307.039 336.787 306.632 337.727 306.552 338.94H314.232ZM325.082 336.5C325.442 335.74 325.995 335.12 326.742 334.64C327.502 334.16 328.395 333.92 329.422 333.92C330.422 333.92 331.315 334.153 332.102 334.62C332.888 335.073 333.502 335.727 333.942 336.58C334.395 337.42 334.622 338.4 334.622 339.52C334.622 340.64 334.395 341.627 333.942 342.48C333.502 343.333 332.882 343.993 332.082 344.46C331.295 344.927 330.408 345.16 329.422 345.16C328.382 345.16 327.482 344.927 326.722 344.46C325.975 343.98 325.428 343.36 325.082 342.6V345H323.702V330.2H325.082V336.5ZM333.202 339.52C333.202 338.613 333.022 337.833 332.662 337.18C332.315 336.513 331.835 336.007 331.222 335.66C330.608 335.313 329.915 335.14 329.142 335.14C328.395 335.14 327.708 335.32 327.082 335.68C326.468 336.04 325.982 336.553 325.622 337.22C325.262 337.887 325.082 338.66 325.082 339.54C325.082 340.42 325.262 341.193 325.622 341.86C325.982 342.527 326.468 343.04 327.082 343.4C327.708 343.76 328.395 343.94 329.142 343.94C329.915 343.94 330.608 343.767 331.222 343.42C331.835 343.06 332.315 342.547 332.662 341.88C333.022 341.2 333.202 340.413 333.202 339.52ZM341.978 345.16C340.951 345.16 340.024 344.933 339.198 344.48C338.384 344.013 337.738 343.36 337.258 342.52C336.791 341.667 336.558 340.673 336.558 339.54C336.558 338.407 336.798 337.42 337.278 336.58C337.758 335.727 338.411 335.073 339.238 334.62C340.064 334.153 340.991 333.92 342.018 333.92C343.044 333.92 343.971 334.153 344.798 334.62C345.638 335.073 346.291 335.727 346.758 336.58C347.238 337.42 347.478 338.407 347.478 339.54C347.478 340.66 347.238 341.647 346.758 342.5C346.278 343.353 345.618 344.013 344.778 344.48C343.938 344.933 343.004 345.16 341.978 345.16ZM341.978 343.94C342.698 343.94 343.364 343.78 343.978 343.46C344.591 343.127 345.084 342.633 345.458 341.98C345.844 341.313 346.038 340.5 346.038 339.54C346.038 338.58 345.851 337.773 345.478 337.12C345.104 336.453 344.611 335.96 343.998 335.64C343.384 335.307 342.718 335.14 341.998 335.14C341.278 335.14 340.611 335.307 339.998 335.64C339.384 335.96 338.891 336.453 338.518 337.12C338.158 337.773 337.978 338.58 337.978 339.54C337.978 340.5 338.158 341.313 338.518 341.98C338.891 342.633 339.378 343.127 339.978 343.46C340.591 343.78 341.258 343.94 341.978 343.94ZM351.85 335.26V342.04C351.85 342.707 351.976 343.167 352.23 343.42C352.483 343.673 352.93 343.8 353.57 343.8H354.85V345H353.35C352.363 345 351.63 344.773 351.15 344.32C350.67 343.853 350.43 343.093 350.43 342.04V335.26H348.91V334.08H350.43V331.34H351.85V334.08H354.85V335.26H351.85Z" fill="white" fill-opacity="0.6"/>
<circle cx="75" cy="112" r="37" fill="white" fill-opacity="0.15"/>
<mask id="mask0_1181_8910" style="mask-type:alpha" maskUnits="userSpaceOnUse" x="38" y="75" width="74" height="74">
<circle cx="75" cy="112" r="37" fill="#D9D9D9"/>
</mask>
<g mask="url(#mask0_1181_8910)">
<path d="M98.9633 76.0699C104.504 74.8813 118.735 68.1762 119.546 57.0003C119.586 56.4494 120.03 56 120.582 56L128.701 56C129.357 56 129.836 56.6208 129.65 57.2501C126.323 68.5295 118.072 80.3747 100.331 84.496C93.0087 86.0668 78.9856 94.2552 77.3439 114.579C77.2804 115.366 78.1265 115.884 78.8097 115.488L87.9442 110.199C88.4221 109.922 89.0339 110.085 89.3107 110.563L92.3826 115.868C92.6594 116.346 92.4963 116.957 92.0183 117.234L69.125 130.492C68.6471 130.768 68.0352 130.605 67.7585 130.127L54.5011 107.234C54.2244 106.756 54.3874 106.144 54.8654 105.867L60.1701 102.795C60.648 102.519 61.2598 102.682 61.5366 103.16L66.1262 111.085C66.6233 111.944 67.9796 111.639 68.1061 110.655C69.7753 97.678 77.2827 81.1063 98.9633 76.0699Z" fill="white" fill-opacity="0.3"/>
</g>
<g opacity="0.4">
<g filter="url(#filter0_df_1181_8910)">
<path d="M356.72 7.86058C363.728 6.35635 376.26 1.32533 387.153 -6.88961C398.044 -15.1028 407.394 -26.5745 407.818 -40.9781C407.827 -41.274 408.066 -41.5 408.333 -41.5L431.664 -41.5C431.996 -41.5 432.227 -41.1904 432.142 -40.8833C424.353 -12.7351 404.25 17.3015 359.868 27.6131C341.36 31.5854 305.773 52.5274 302.744 104.721C302.676 105.895 303.942 106.711 304.979 106.11L331.018 91.0317C331.257 90.8933 331.563 90.9748 331.701 91.2138L340.721 106.79C340.86 107.029 340.778 107.335 340.539 107.474L281.694 141.55C281.455 141.689 281.149 141.607 281.011 141.368L246.934 82.5229C246.795 82.284 246.877 81.9781 247.116 81.8397L262.693 72.8194C262.932 72.681 263.238 72.7625 263.376 73.0015L277.837 97.9733C278.587 99.2679 280.552 98.7883 280.679 97.3286C283.494 64.9488 300.944 20.8193 356.72 7.86058Z" stroke="url(#paint0_linear_1181_8910)" stroke-linecap="round" stroke-linejoin="round"/>
</g>
<path d="M356.72 7.86058C363.728 6.35635 376.26 1.32533 387.153 -6.88961C398.044 -15.1028 407.394 -26.5745 407.818 -40.9781C407.827 -41.274 408.066 -41.5 408.333 -41.5L431.664 -41.5C431.996 -41.5 432.227 -41.1904 432.142 -40.8833C424.353 -12.7351 404.25 17.3015 359.868 27.6131C341.36 31.5854 305.773 52.5274 302.744 104.721C302.676 105.895 303.942 106.711 304.979 106.11L331.018 91.0317C331.257 90.8933 331.563 90.9748 331.701 91.2138L340.721 106.79C340.86 107.029 340.778 107.335 340.539 107.474L281.694 141.55C281.455 141.689 281.149 141.607 281.011 141.368L246.934 82.5229C246.795 82.284 246.877 81.9781 247.116 81.8397L262.693 72.8194C262.932 72.681 263.238 72.7625 263.376 73.0015L277.837 97.9733C278.587 99.2679 280.552 98.7883 280.679 97.3286C283.494 64.9488 300.944 20.8193 356.72 7.86058Z" fill="url(#paint1_linear_1181_8910)" fill-opacity="0.07" stroke="url(#paint2_linear_1181_8910)" stroke-linecap="round" stroke-linejoin="round"/>
<path d="M356.611 7.37255C370.48 4.39746 406.482 -12.6275 407.319 -40.9928C407.335 -41.5449 407.781 -42 408.333 -42L431.664 -42C432.32 -42 432.799 -41.3824 432.624 -40.7499C424.797 -12.4658 404.579 17.7401 359.977 28.1011C341.649 32.0327 306.257 52.8164 303.244 104.75C303.198 105.538 304.046 106.073 304.729 105.678L330.767 90.599C331.245 90.3222 331.857 90.4853 332.134 90.9632L341.154 106.54C341.431 107.018 341.268 107.63 340.79 107.906L281.944 141.983C281.467 142.26 280.855 142.097 280.578 141.619L246.501 82.7735C246.224 82.2955 246.387 81.6837 246.865 81.407L262.442 72.3867C262.92 72.1099 263.532 72.273 263.809 72.7509L278.27 97.7227C278.767 98.5812 280.095 98.2736 280.181 97.2853C283.007 64.7804 300.544 20.397 356.611 7.37255Z" fill="url(#paint3_linear_1181_8910)" fill-opacity="0.17"/>
</g>
</g>
<rect x="0.5" y="0.5" width="402" height="390" rx="29.5" stroke="white" stroke-opacity="0.12"/>
<defs>
<filter id="filter0_df_1181_8910" x="226.366" y="-62" width="226.294" height="224.118" filterUnits="userSpaceOnUse" color-interpolation-filters="sRGB">
<feFlood flood-opacity="0" result="BackgroundImageFix"/>
<feColorMatrix in="SourceAlpha" type="matrix" values="0 0 0 0 0 0 0 0 0 0 0 0 0 0 0 0 0 0 127 0" result="hardAlpha"/>
<feOffset dy="14"/>
<feColorMatrix type="matrix" values="0 0 0 0 0.301961 0 0 0 0 0.364706 0 0 0 0 1 0 0 0 1 0"/>
<feBlend mode="normal" in2="BackgroundImageFix" result="effect1_dropShadow_1181_8910"/>
<feBlend mode="normal" in="SourceGraphic" in2="effect1_dropShadow_1181_8910" result="shape"/>
<feGaussianBlur stdDeviation="10" result="effect2_foregroundBlur_1181_8910"/>
</filter>
<linearGradient id="paint0_linear_1181_8910" x1="392" y1="-37" x2="262.5" y2="142" gradientUnits="userSpaceOnUse">
<stop stop-color="white" stop-opacity="0"/>
<stop offset="0.361152" stop-color="white" stop-opacity="0.03"/>
<stop offset="1" stop-color="white"/>
</linearGradient>
<linearGradient id="paint1_linear_1181_8910" x1="402.5" y1="-37" x2="283" y2="137.5" gradientUnits="userSpaceOnUse">
<stop stop-color="white" stop-opacity="0"/>
<stop offset="0.313738" stop-color="white" stop-opacity="0.18258"/>
<stop offset="1" stop-color="white"/>
</linearGradient>
<linearGradient id="paint2_linear_1181_8910" x1="392" y1="-37" x2="262.5" y2="142" gradientUnits="userSpaceOnUse">
<stop stop-color="white" stop-opacity="0"/>
<stop offset="0.361152" stop-color="white" stop-opacity="0.03"/>
<stop offset="1" stop-color="white"/>
</linearGradient>
<linearGradient id="paint3_linear_1181_8910" x1="402.5" y1="-37" x2="283" y2="137.5" gradientUnits="userSpaceOnUse">
<stop stop-color="white" stop-opacity="0"/>
<stop offset="0.313738" stop-color="white" stop-opacity="0.18258"/>
<stop offset="1" stop-color="white"/>
</linearGradient>
<clipPath id="clip0_1181_8910">
<rect width="403" height="391" rx="30" fill="white"/>
</clipPath>
</defs>
</svg>
