<svg width="403" height="391" viewBox="0 0 403 391" fill="none" xmlns="http://www.w3.org/2000/svg">
<rect width="403" height="391" rx="30" fill="white" fill-opacity="0.04"/>
<rect x="0.5" y="0.5" width="402" height="390" rx="29.5" stroke="white" stroke-opacity="0.12"/>
<path d="M50.768 209.294C48.808 209.294 47.044 208.958 45.476 208.286C43.908 207.586 42.676 206.606 41.78 205.346C40.884 204.086 40.436 202.616 40.436 200.936H45.56C45.672 202.196 46.162 203.232 47.03 204.044C47.926 204.856 49.172 205.262 50.768 205.262C52.42 205.262 53.708 204.87 54.632 204.086C55.556 203.274 56.018 202.238 56.018 200.978C56.018 199.998 55.724 199.2 55.136 198.584C54.576 197.968 53.862 197.492 52.994 197.156C52.154 196.82 50.978 196.456 49.466 196.064C47.562 195.56 46.008 195.056 44.804 194.552C43.628 194.02 42.62 193.208 41.78 192.116C40.94 191.024 40.52 189.568 40.52 187.748C40.52 186.068 40.94 184.598 41.78 183.338C42.62 182.078 43.796 181.112 45.308 180.44C46.82 179.768 48.57 179.432 50.558 179.432C53.386 179.432 55.696 180.146 57.488 181.574C59.308 182.974 60.316 184.906 60.512 187.37H55.22C55.136 186.306 54.632 185.396 53.708 184.64C52.784 183.884 51.566 183.506 50.054 183.506C48.682 183.506 47.562 183.856 46.694 184.556C45.826 185.256 45.392 186.264 45.392 187.58C45.392 188.476 45.658 189.218 46.19 189.806C46.75 190.366 47.45 190.814 48.29 191.15C49.13 191.486 50.278 191.85 51.734 192.242C53.666 192.774 55.234 193.306 56.438 193.838C57.67 194.37 58.706 195.196 59.546 196.316C60.414 197.408 60.848 198.878 60.848 200.726C60.848 202.21 60.442 203.61 59.63 204.926C58.846 206.242 57.684 207.306 56.144 208.118C54.632 208.902 52.84 209.294 50.768 209.294ZM86.0277 196.862C86.0277 197.73 85.9717 198.514 85.8597 199.214H68.1777C68.3177 201.062 69.0037 202.546 70.2357 203.666C71.4677 204.786 72.9797 205.346 74.7717 205.346C77.3477 205.346 79.1677 204.268 80.2317 202.112H85.3977C84.6977 204.24 83.4237 205.99 81.5757 207.362C79.7557 208.706 77.4877 209.378 74.7717 209.378C72.5597 209.378 70.5717 208.888 68.8077 207.908C67.0717 206.9 65.6997 205.5 64.6917 203.708C63.7117 201.888 63.2217 199.788 63.2217 197.408C63.2217 195.028 63.6977 192.942 64.6497 191.15C65.6297 189.33 66.9877 187.93 68.7237 186.95C70.4877 185.97 72.5037 185.48 74.7717 185.48C76.9557 185.48 78.9017 185.956 80.6097 186.908C82.3177 187.86 83.6477 189.204 84.5997 190.94C85.5517 192.648 86.0277 194.622 86.0277 196.862ZM81.0297 195.35C81.0017 193.586 80.3717 192.172 79.1397 191.108C77.9077 190.044 76.3817 189.512 74.5617 189.512C72.9097 189.512 71.4957 190.044 70.3197 191.108C69.1437 192.144 68.4437 193.558 68.2197 195.35H81.0297ZM93.8475 177.92V209H89.0595V177.92H93.8475ZM103.242 177.92V209H98.4537V177.92H103.242ZM137.91 185.858L123.714 219.878H118.758L123.462 208.622L114.348 185.858H119.682L126.192 203.498L132.954 185.858H137.91ZM149.881 209.378C147.697 209.378 145.723 208.888 143.959 207.908C142.195 206.9 140.809 205.5 139.801 203.708C138.793 201.888 138.289 199.788 138.289 197.408C138.289 195.056 138.807 192.97 139.843 191.15C140.879 189.33 142.293 187.93 144.085 186.95C145.877 185.97 147.879 185.48 150.091 185.48C152.303 185.48 154.305 185.97 156.097 186.95C157.889 187.93 159.303 189.33 160.339 191.15C161.375 192.97 161.893 195.056 161.893 197.408C161.893 199.76 161.361 201.846 160.297 203.666C159.233 205.486 157.777 206.9 155.929 207.908C154.109 208.888 152.093 209.378 149.881 209.378ZM149.881 205.22C151.113 205.22 152.261 204.926 153.325 204.338C154.417 203.75 155.299 202.868 155.971 201.692C156.643 200.516 156.979 199.088 156.979 197.408C156.979 195.728 156.657 194.314 156.013 193.166C155.369 191.99 154.515 191.108 153.451 190.52C152.387 189.932 151.239 189.638 150.007 189.638C148.775 189.638 147.627 189.932 146.563 190.52C145.527 191.108 144.701 191.99 144.085 193.166C143.469 194.314 143.161 195.728 143.161 197.408C143.161 199.9 143.791 201.832 145.051 203.204C146.339 204.548 147.949 205.22 149.881 205.22ZM185.905 185.858V209H181.117V206.27C180.361 207.222 179.367 207.978 178.135 208.538C176.931 209.07 175.643 209.336 174.271 209.336C172.451 209.336 170.813 208.958 169.357 208.202C167.929 207.446 166.795 206.326 165.955 204.842C165.143 203.358 164.737 201.566 164.737 199.466V185.858H169.483V198.752C169.483 200.824 170.001 202.42 171.037 203.54C172.073 204.632 173.487 205.178 175.279 205.178C177.071 205.178 178.485 204.632 179.521 203.54C180.585 202.42 181.117 200.824 181.117 198.752V185.858H185.905ZM195.33 189.218C196.03 188.042 196.954 187.132 198.102 186.488C199.278 185.816 200.664 185.48 202.26 185.48V190.436H201.042C199.166 190.436 197.738 190.912 196.758 191.864C195.806 192.816 195.33 194.468 195.33 196.82V209H190.542V185.858H195.33V189.218ZM60.008 216.81V220.716H52.238V246H47.45V220.716H39.638V216.81H60.008ZM73.215 246.378C71.031 246.378 69.057 245.888 67.293 244.908C65.529 243.9 64.143 242.5 63.135 240.708C62.127 238.888 61.623 236.788 61.623 234.408C61.623 232.056 62.141 229.97 63.177 228.15C64.213 226.33 65.627 224.93 67.419 223.95C69.211 222.97 71.213 222.48 73.425 222.48C75.637 222.48 77.639 222.97 79.431 223.95C81.223 224.93 82.637 226.33 83.673 228.15C84.709 229.97 85.227 232.056 85.227 234.408C85.227 236.76 84.695 238.846 83.631 240.666C82.567 242.486 81.111 243.9 79.263 244.908C77.443 245.888 75.427 246.378 73.215 246.378ZM73.215 242.22C74.447 242.22 75.595 241.926 76.659 241.338C77.751 240.75 78.633 239.868 79.305 238.692C79.977 237.516 80.313 236.088 80.313 234.408C80.313 232.728 79.991 231.314 79.347 230.166C78.703 228.99 77.849 228.108 76.785 227.52C75.721 226.932 74.573 226.638 73.341 226.638C72.109 226.638 70.961 226.932 69.897 227.52C68.861 228.108 68.035 228.99 67.419 230.166C66.803 231.314 66.495 232.728 66.495 234.408C66.495 236.9 67.125 238.832 68.385 240.204C69.673 241.548 71.283 242.22 73.215 242.22ZM97.4362 234.45L108.104 246H101.636L93.0682 236.046V246H88.2802V214.92H93.0682V232.98L101.468 222.858H108.104L97.4362 234.45ZM131.066 233.862C131.066 234.73 131.01 235.514 130.898 236.214H113.216C113.356 238.062 114.042 239.546 115.274 240.666C116.506 241.786 118.018 242.346 119.81 242.346C122.386 242.346 124.206 241.268 125.27 239.112H130.436C129.736 241.24 128.462 242.99 126.614 244.362C124.794 245.706 122.526 246.378 119.81 246.378C117.598 246.378 115.61 245.888 113.846 244.908C112.11 243.9 110.738 242.5 109.73 240.708C108.75 238.888 108.26 236.788 108.26 234.408C108.26 232.028 108.736 229.942 109.688 228.15C110.668 226.33 112.026 224.93 113.762 223.95C115.526 222.97 117.542 222.48 119.81 222.48C121.994 222.48 123.94 222.956 125.648 223.908C127.356 224.86 128.686 226.204 129.638 227.94C130.59 229.648 131.066 231.622 131.066 233.862ZM126.068 232.35C126.04 230.586 125.41 229.172 124.178 228.108C122.946 227.044 121.42 226.512 119.6 226.512C117.948 226.512 116.534 227.044 115.358 228.108C114.182 229.144 113.482 230.558 113.258 232.35H126.068ZM145.774 222.48C147.594 222.48 149.218 222.858 150.646 223.614C152.102 224.37 153.236 225.49 154.048 226.974C154.86 228.458 155.266 230.25 155.266 232.35V246H150.52V233.064C150.52 230.992 150.002 229.41 148.966 228.318C147.93 227.198 146.516 226.638 144.724 226.638C142.932 226.638 141.504 227.198 140.44 228.318C139.404 229.41 138.886 230.992 138.886 233.064V246H134.098V222.858H138.886V225.504C139.67 224.552 140.664 223.81 141.868 223.278C143.1 222.746 144.402 222.48 145.774 222.48ZM168.093 246.378C166.273 246.378 164.635 246.056 163.179 245.412C161.751 244.74 160.617 243.844 159.777 242.724C158.937 241.576 158.489 240.302 158.433 238.902H163.389C163.473 239.882 163.935 240.708 164.775 241.38C165.643 242.024 166.721 242.346 168.009 242.346C169.353 242.346 170.389 242.094 171.117 241.59C171.873 241.058 172.251 240.386 172.251 239.574C172.251 238.706 171.831 238.062 170.991 237.642C170.179 237.222 168.877 236.76 167.085 236.256C165.349 235.78 163.935 235.318 162.843 234.87C161.751 234.422 160.799 233.736 159.987 232.812C159.203 231.888 158.811 230.67 158.811 229.158C158.811 227.926 159.175 226.806 159.903 225.798C160.631 224.762 161.667 223.95 163.011 223.362C164.383 222.774 165.951 222.48 167.715 222.48C170.347 222.48 172.461 223.152 174.057 224.496C175.681 225.812 176.549 227.618 176.661 229.914H171.873C171.789 228.878 171.369 228.052 170.613 227.436C169.857 226.82 168.835 226.512 167.547 226.512C166.287 226.512 165.321 226.75 164.649 227.226C163.977 227.702 163.641 228.332 163.641 229.116C163.641 229.732 163.865 230.25 164.313 230.67C164.761 231.09 165.307 231.426 165.951 231.678C166.595 231.902 167.547 232.196 168.807 232.56C170.487 233.008 171.859 233.47 172.923 233.946C174.015 234.394 174.953 235.066 175.737 235.962C176.521 236.858 176.927 238.048 176.955 239.532C176.955 240.848 176.591 242.024 175.863 243.06C175.135 244.096 174.099 244.908 172.755 245.496C171.439 246.084 169.885 246.378 168.093 246.378Z" fill="white"/>
<path d="M43.84 287.14C42.92 287.14 42.1067 286.98 41.4 286.66C40.7067 286.34 40.16 285.893 39.76 285.32C39.36 284.747 39.1467 284.107 39.12 283.4H40.6C40.6667 284.08 40.9667 284.68 41.5 285.2C42.0333 285.707 42.8133 285.96 43.84 285.96C44.7867 285.96 45.5333 285.72 46.08 285.24C46.64 284.747 46.92 284.127 46.92 283.38C46.92 282.78 46.7667 282.3 46.46 281.94C46.1533 281.567 45.7733 281.293 45.32 281.12C44.8667 280.933 44.24 280.733 43.44 280.52C42.5067 280.267 41.7667 280.02 41.22 279.78C40.6733 279.54 40.2067 279.167 39.82 278.66C39.4333 278.153 39.24 277.467 39.24 276.6C39.24 275.88 39.4267 275.24 39.8 274.68C40.1733 274.107 40.7 273.66 41.38 273.34C42.06 273.02 42.84 272.86 43.72 272.86C45.0133 272.86 46.0533 273.18 46.84 273.82C47.64 274.447 48.1 275.26 48.22 276.26H46.7C46.6067 275.687 46.2933 275.18 45.76 274.74C45.2267 274.287 44.5067 274.06 43.6 274.06C42.76 274.06 42.06 274.287 41.5 274.74C40.94 275.18 40.66 275.787 40.66 276.56C40.66 277.147 40.8133 277.62 41.12 277.98C41.4267 278.34 41.8067 278.613 42.26 278.8C42.7267 278.987 43.3533 279.187 44.14 279.4C45.0467 279.653 45.78 279.907 46.34 280.16C46.9 280.4 47.3733 280.773 47.76 281.28C48.1467 281.787 48.34 282.467 48.34 283.32C48.34 283.973 48.1667 284.593 47.82 285.18C47.4733 285.767 46.96 286.24 46.28 286.6C45.6 286.96 44.7867 287.14 43.84 287.14ZM60.9253 280.98C60.9253 281.46 60.912 281.827 60.8853 282.08H51.8253C51.8653 282.907 52.0653 283.613 52.4253 284.2C52.7853 284.787 53.2586 285.233 53.8453 285.54C54.432 285.833 55.072 285.98 55.7653 285.98C56.672 285.98 57.432 285.76 58.0453 285.32C58.672 284.88 59.0853 284.287 59.2853 283.54H60.7653C60.4986 284.607 59.9253 285.48 59.0453 286.16C58.1786 286.827 57.0853 287.16 55.7653 287.16C54.7386 287.16 53.8186 286.933 53.0053 286.48C52.192 286.013 51.552 285.36 51.0853 284.52C50.632 283.667 50.4053 282.673 50.4053 281.54C50.4053 280.407 50.632 279.413 51.0853 278.56C51.5386 277.707 52.172 277.053 52.9853 276.6C53.7986 276.147 54.7253 275.92 55.7653 275.92C56.8053 275.92 57.712 276.147 58.4853 276.6C59.272 277.053 59.872 277.667 60.2853 278.44C60.712 279.2 60.9253 280.047 60.9253 280.98ZM59.5053 280.94C59.5186 280.127 59.352 279.433 59.0053 278.86C58.672 278.287 58.212 277.853 57.6253 277.56C57.0386 277.267 56.3986 277.12 55.7053 277.12C54.6653 277.12 53.7786 277.453 53.0453 278.12C52.312 278.787 51.9053 279.727 51.8253 280.94H59.5053ZM64.8867 272.2V287H63.4867V272.2H64.8867ZM69.457 272.2V287H68.057V272.2H69.457ZM87.1156 276.08L80.6356 292.14H79.1756L81.2956 286.94L76.8156 276.08H78.3556L82.0756 285.4L85.6756 276.08H87.1156ZM93.7941 287.16C92.7674 287.16 91.8407 286.933 91.0141 286.48C90.2007 286.013 89.5541 285.36 89.0741 284.52C88.6074 283.667 88.3741 282.673 88.3741 281.54C88.3741 280.407 88.6141 279.42 89.0941 278.58C89.5741 277.727 90.2274 277.073 91.0541 276.62C91.8807 276.153 92.8074 275.92 93.8341 275.92C94.8607 275.92 95.7874 276.153 96.6141 276.62C97.4541 277.073 98.1074 277.727 98.5741 278.58C99.0541 279.42 99.2941 280.407 99.2941 281.54C99.2941 282.66 99.0541 283.647 98.5741 284.5C98.0941 285.353 97.4341 286.013 96.5941 286.48C95.7541 286.933 94.8207 287.16 93.7941 287.16ZM93.7941 285.94C94.5141 285.94 95.1807 285.78 95.7941 285.46C96.4074 285.127 96.9007 284.633 97.2741 283.98C97.6607 283.313 97.8541 282.5 97.8541 281.54C97.8541 280.58 97.6674 279.773 97.2941 279.12C96.9207 278.453 96.4274 277.96 95.8141 277.64C95.2007 277.307 94.5341 277.14 93.8141 277.14C93.0941 277.14 92.4274 277.307 91.8141 277.64C91.2007 277.96 90.7074 278.453 90.3341 279.12C89.9741 279.773 89.7941 280.58 89.7941 281.54C89.7941 282.5 89.9741 283.313 90.3341 283.98C90.7074 284.633 91.1941 285.127 91.7941 285.46C92.4074 285.78 93.0741 285.94 93.7941 285.94ZM111.306 276.08V287H109.906V285.08C109.586 285.76 109.093 286.28 108.426 286.64C107.759 287 107.013 287.18 106.186 287.18C104.879 287.18 103.813 286.78 102.986 285.98C102.159 285.167 101.746 283.993 101.746 282.46V276.08H103.126V282.3C103.126 283.487 103.419 284.393 104.006 285.02C104.606 285.647 105.419 285.96 106.446 285.96C107.499 285.96 108.339 285.627 108.966 284.96C109.593 284.293 109.906 283.313 109.906 282.02V276.08H111.306ZM115.902 278.02C116.209 277.34 116.676 276.813 117.302 276.44C117.942 276.067 118.722 275.88 119.642 275.88V277.34H119.262C118.249 277.34 117.436 277.613 116.822 278.16C116.209 278.707 115.902 279.62 115.902 280.9V287H114.502V276.08H115.902V278.02ZM135.417 273.02V274.18H131.537V287H130.137V274.18H126.237V273.02H135.417ZM143.907 287.14C142.614 287.14 141.441 286.84 140.387 286.24C139.334 285.627 138.501 284.78 137.887 283.7C137.287 282.607 136.987 281.373 136.987 280C136.987 278.627 137.287 277.4 137.887 276.32C138.501 275.227 139.334 274.38 140.387 273.78C141.441 273.167 142.614 272.86 143.907 272.86C145.214 272.86 146.394 273.167 147.447 273.78C148.501 274.38 149.327 275.227 149.927 276.32C150.527 277.4 150.827 278.627 150.827 280C150.827 281.373 150.527 282.607 149.927 283.7C149.327 284.78 148.501 285.627 147.447 286.24C146.394 286.84 145.214 287.14 143.907 287.14ZM143.907 285.92C144.947 285.92 145.881 285.68 146.707 285.2C147.534 284.72 148.187 284.033 148.667 283.14C149.147 282.233 149.387 281.187 149.387 280C149.387 278.813 149.147 277.773 148.667 276.88C148.187 275.987 147.534 275.3 146.707 274.82C145.881 274.34 144.947 274.1 143.907 274.1C142.867 274.1 141.934 274.34 141.107 274.82C140.281 275.3 139.627 275.987 139.147 276.88C138.667 277.773 138.427 278.813 138.427 280C138.427 281.187 138.667 282.233 139.147 283.14C139.627 284.033 140.281 284.72 141.107 285.2C141.934 285.68 142.867 285.92 143.907 285.92ZM163.929 287H162.529L154.789 275.24V287H153.389V273.02H154.789L162.529 284.76V273.02H163.929V287ZM177.368 287.16C176.342 287.16 175.415 286.933 174.588 286.48C173.775 286.013 173.128 285.36 172.648 284.52C172.182 283.667 171.948 282.673 171.948 281.54C171.948 280.407 172.188 279.42 172.668 278.58C173.148 277.727 173.802 277.073 174.628 276.62C175.455 276.153 176.382 275.92 177.408 275.92C178.435 275.92 179.362 276.153 180.188 276.62C181.028 277.073 181.682 277.727 182.148 278.58C182.628 279.42 182.868 280.407 182.868 281.54C182.868 282.66 182.628 283.647 182.148 284.5C181.668 285.353 181.008 286.013 180.168 286.48C179.328 286.933 178.395 287.16 177.368 287.16ZM177.368 285.94C178.088 285.94 178.755 285.78 179.368 285.46C179.982 285.127 180.475 284.633 180.848 283.98C181.235 283.313 181.428 282.5 181.428 281.54C181.428 280.58 181.242 279.773 180.868 279.12C180.495 278.453 180.002 277.96 179.388 277.64C178.775 277.307 178.108 277.14 177.388 277.14C176.668 277.14 176.002 277.307 175.388 277.64C174.775 277.96 174.282 278.453 173.908 279.12C173.548 279.773 173.368 280.58 173.368 281.54C173.368 282.5 173.548 283.313 173.908 283.98C174.282 284.633 174.768 285.127 175.368 285.46C175.982 285.78 176.648 285.94 177.368 285.94ZM186.82 278.02C187.127 277.34 187.594 276.813 188.22 276.44C188.86 276.067 189.64 275.88 190.56 275.88V277.34H190.18C189.167 277.34 188.354 277.613 187.74 278.16C187.127 278.707 186.82 279.62 186.82 280.9V287H185.42V276.08H186.82V278.02ZM202.935 287.16C201.908 287.16 200.981 286.933 200.155 286.48C199.341 286.013 198.695 285.36 198.215 284.52C197.748 283.667 197.515 282.673 197.515 281.54C197.515 280.407 197.755 279.42 198.235 278.58C198.715 277.727 199.368 277.073 200.195 276.62C201.021 276.153 201.948 275.92 202.975 275.92C204.001 275.92 204.928 276.153 205.755 276.62C206.595 277.073 207.248 277.727 207.715 278.58C208.195 279.42 208.435 280.407 208.435 281.54C208.435 282.66 208.195 283.647 207.715 284.5C207.235 285.353 206.575 286.013 205.735 286.48C204.895 286.933 203.961 287.16 202.935 287.16ZM202.935 285.94C203.655 285.94 204.321 285.78 204.935 285.46C205.548 285.127 206.041 284.633 206.415 283.98C206.801 283.313 206.995 282.5 206.995 281.54C206.995 280.58 206.808 279.773 206.435 279.12C206.061 278.453 205.568 277.96 204.955 277.64C204.341 277.307 203.675 277.14 202.955 277.14C202.235 277.14 201.568 277.307 200.955 277.64C200.341 277.96 199.848 278.453 199.475 279.12C199.115 279.773 198.935 280.58 198.935 281.54C198.935 282.5 199.115 283.313 199.475 283.98C199.848 284.633 200.335 285.127 200.935 285.46C201.548 285.78 202.215 285.94 202.935 285.94ZM212.807 277.26V284.04C212.807 284.707 212.933 285.167 213.187 285.42C213.44 285.673 213.887 285.8 214.527 285.8H215.807V287H214.307C213.32 287 212.587 286.773 212.107 286.32C211.627 285.853 211.387 285.093 211.387 284.04V277.26H209.867V276.08H211.387V273.34H212.807V276.08H215.807V277.26H212.807ZM223.316 275.88C224.142 275.88 224.882 276.053 225.536 276.4C226.202 276.747 226.722 277.28 227.096 278C227.482 278.707 227.676 279.573 227.676 280.6V287H226.296V280.76C226.296 279.573 225.996 278.667 225.396 278.04C224.809 277.413 224.002 277.1 222.976 277.1C221.922 277.1 221.082 277.433 220.456 278.1C219.829 278.767 219.516 279.747 219.516 281.04V287H218.116V272.2H219.516V277.94C219.862 277.287 220.369 276.78 221.036 276.42C221.716 276.06 222.476 275.88 223.316 275.88ZM240.652 280.98C240.652 281.46 240.639 281.827 240.612 282.08H231.552C231.592 282.907 231.792 283.613 232.152 284.2C232.512 284.787 232.985 285.233 233.572 285.54C234.159 285.833 234.799 285.98 235.492 285.98C236.399 285.98 237.159 285.76 237.772 285.32C238.399 284.88 238.812 284.287 239.012 283.54H240.492C240.225 284.607 239.652 285.48 238.772 286.16C237.905 286.827 236.812 287.16 235.492 287.16C234.465 287.16 233.545 286.933 232.732 286.48C231.919 286.013 231.279 285.36 230.812 284.52C230.359 283.667 230.132 282.673 230.132 281.54C230.132 280.407 230.359 279.413 230.812 278.56C231.265 277.707 231.899 277.053 232.712 276.6C233.525 276.147 234.452 275.92 235.492 275.92C236.532 275.92 237.439 276.147 238.212 276.6C238.999 277.053 239.599 277.667 240.012 278.44C240.439 279.2 240.652 280.047 240.652 280.98ZM239.232 280.94C239.245 280.127 239.079 279.433 238.732 278.86C238.399 278.287 237.939 277.853 237.352 277.56C236.765 277.267 236.125 277.12 235.432 277.12C234.392 277.12 233.505 277.453 232.772 278.12C232.039 278.787 231.632 279.727 231.552 280.94H239.232ZM244.613 278.02C244.92 277.34 245.387 276.813 246.013 276.44C246.653 276.067 247.433 275.88 248.353 275.88V277.34H247.973C246.96 277.34 246.147 277.613 245.533 278.16C244.92 278.707 244.613 279.62 244.613 280.9V287H243.213V276.08H244.613V278.02ZM257.768 277.26V284.04C257.768 284.707 257.894 285.167 258.148 285.42C258.401 285.673 258.848 285.8 259.488 285.8H260.768V287H259.268C258.281 287 257.548 286.773 257.068 286.32C256.588 285.853 256.348 285.093 256.348 284.04V277.26H254.828V276.08H256.348V273.34H257.768V276.08H260.768V277.26H257.768ZM267.857 287.16C266.83 287.16 265.903 286.933 265.077 286.48C264.263 286.013 263.617 285.36 263.137 284.52C262.67 283.667 262.437 282.673 262.437 281.54C262.437 280.407 262.677 279.42 263.157 278.58C263.637 277.727 264.29 277.073 265.117 276.62C265.943 276.153 266.87 275.92 267.897 275.92C268.923 275.92 269.85 276.153 270.677 276.62C271.517 277.073 272.17 277.727 272.637 278.58C273.117 279.42 273.357 280.407 273.357 281.54C273.357 282.66 273.117 283.647 272.637 284.5C272.157 285.353 271.497 286.013 270.657 286.48C269.817 286.933 268.883 287.16 267.857 287.16ZM267.857 285.94C268.577 285.94 269.243 285.78 269.857 285.46C270.47 285.127 270.963 284.633 271.337 283.98C271.723 283.313 271.917 282.5 271.917 281.54C271.917 280.58 271.73 279.773 271.357 279.12C270.983 278.453 270.49 277.96 269.877 277.64C269.263 277.307 268.597 277.14 267.877 277.14C267.157 277.14 266.49 277.307 265.877 277.64C265.263 277.96 264.77 278.453 264.397 279.12C264.037 279.773 263.857 280.58 263.857 281.54C263.857 282.5 264.037 283.313 264.397 283.98C264.77 284.633 265.257 285.127 265.857 285.46C266.47 285.78 267.137 285.94 267.857 285.94ZM281.809 287L277.309 282.1V287H275.909V272.2H277.309V280.96L281.709 276.08H283.669L278.489 281.52L283.709 287H281.809ZM295.398 280.98C295.398 281.46 295.385 281.827 295.358 282.08H286.298C286.338 282.907 286.538 283.613 286.898 284.2C287.258 284.787 287.731 285.233 288.318 285.54C288.905 285.833 289.545 285.98 290.238 285.98C291.145 285.98 291.905 285.76 292.518 285.32C293.145 284.88 293.558 284.287 293.758 283.54H295.238C294.971 284.607 294.398 285.48 293.518 286.16C292.651 286.827 291.558 287.16 290.238 287.16C289.211 287.16 288.291 286.933 287.478 286.48C286.665 286.013 286.025 285.36 285.558 284.52C285.105 283.667 284.878 282.673 284.878 281.54C284.878 280.407 285.105 279.413 285.558 278.56C286.011 277.707 286.645 277.053 287.458 276.6C288.271 276.147 289.198 275.92 290.238 275.92C291.278 275.92 292.185 276.147 292.958 276.6C293.745 277.053 294.345 277.667 294.758 278.44C295.185 279.2 295.398 280.047 295.398 280.98ZM293.978 280.94C293.991 280.127 293.825 279.433 293.478 278.86C293.145 278.287 292.685 277.853 292.098 277.56C291.511 277.267 290.871 277.12 290.178 277.12C289.138 277.12 288.251 277.453 287.518 278.12C286.785 278.787 286.378 279.727 286.298 280.94H293.978ZM303.079 275.88C304.386 275.88 305.453 276.287 306.279 277.1C307.106 277.9 307.519 279.067 307.519 280.6V287H306.139V280.76C306.139 279.573 305.839 278.667 305.239 278.04C304.653 277.413 303.846 277.1 302.819 277.1C301.766 277.1 300.926 277.433 300.299 278.1C299.673 278.767 299.359 279.747 299.359 281.04V287H297.959V276.08H299.359V277.94C299.706 277.273 300.206 276.767 300.859 276.42C301.513 276.06 302.253 275.88 303.079 275.88ZM314.376 287.16C313.122 287.16 312.096 286.873 311.296 286.3C310.509 285.713 310.069 284.92 309.976 283.92H311.416C311.482 284.533 311.769 285.033 312.276 285.42C312.796 285.793 313.489 285.98 314.356 285.98C315.116 285.98 315.709 285.8 316.136 285.44C316.576 285.08 316.796 284.633 316.796 284.1C316.796 283.727 316.676 283.42 316.436 283.18C316.196 282.94 315.889 282.753 315.516 282.62C315.156 282.473 314.662 282.32 314.036 282.16C313.222 281.947 312.562 281.733 312.056 281.52C311.549 281.307 311.116 280.993 310.756 280.58C310.409 280.153 310.236 279.587 310.236 278.88C310.236 278.347 310.396 277.853 310.716 277.4C311.036 276.947 311.489 276.587 312.076 276.32C312.662 276.053 313.329 275.92 314.076 275.92C315.249 275.92 316.196 276.22 316.916 276.82C317.636 277.407 318.022 278.22 318.076 279.26H316.676C316.636 278.62 316.382 278.107 315.916 277.72C315.462 277.32 314.836 277.12 314.036 277.12C313.329 277.12 312.756 277.287 312.316 277.62C311.876 277.953 311.656 278.367 311.656 278.86C311.656 279.287 311.782 279.64 312.036 279.92C312.302 280.187 312.629 280.4 313.016 280.56C313.402 280.707 313.922 280.873 314.576 281.06C315.362 281.273 315.989 281.48 316.456 281.68C316.922 281.88 317.322 282.173 317.656 282.56C317.989 282.947 318.162 283.46 318.176 284.1C318.176 284.687 318.016 285.213 317.696 285.68C317.376 286.133 316.929 286.493 316.356 286.76C315.782 287.027 315.122 287.16 314.376 287.16ZM38.96 310.52C38.96 309.4 39.1867 308.42 39.64 307.58C40.0933 306.727 40.7133 306.073 41.5 305.62C42.3 305.153 43.2 304.92 44.2 304.92C45.2267 304.92 46.12 305.167 46.88 305.66C47.64 306.14 48.18 306.747 48.5 307.48V305.08H49.9V321.16H48.5V313.6C48.18 314.333 47.6333 314.947 46.86 315.44C46.1 315.92 45.2 316.16 44.16 316.16C43.1733 316.16 42.28 315.927 41.48 315.46C40.6933 314.993 40.0733 314.333 39.62 313.48C39.18 312.627 38.96 311.64 38.96 310.52ZM48.5 310.54C48.5 309.66 48.32 308.887 47.96 308.22C47.6 307.553 47.1067 307.04 46.48 306.68C45.8667 306.32 45.1867 306.14 44.44 306.14C43.6667 306.14 42.9733 306.313 42.36 306.66C41.7467 307.007 41.26 307.513 40.9 308.18C40.5533 308.833 40.38 309.613 40.38 310.52C40.38 311.413 40.5533 312.2 40.9 312.88C41.26 313.547 41.7467 314.06 42.36 314.42C42.9733 314.767 43.6667 314.94 44.44 314.94C45.1867 314.94 45.8667 314.76 46.48 314.4C47.1067 314.04 47.6 313.527 47.96 312.86C48.32 312.193 48.5 311.42 48.5 310.54ZM62.5561 305.08V316H61.1561V314.08C60.8361 314.76 60.3428 315.28 59.6761 315.64C59.0094 316 58.2628 316.18 57.4361 316.18C56.1294 316.18 55.0628 315.78 54.2361 314.98C53.4094 314.167 52.9961 312.993 52.9961 311.46V305.08H54.3761V311.3C54.3761 312.487 54.6694 313.393 55.2561 314.02C55.8561 314.647 56.6694 314.96 57.6961 314.96C58.7494 314.96 59.5894 314.627 60.2161 313.96C60.8428 313.293 61.1561 312.313 61.1561 311.02V305.08H62.5561ZM66.4523 303.02C66.1723 303.02 65.9323 302.92 65.7323 302.72C65.5323 302.52 65.4323 302.273 65.4323 301.98C65.4323 301.687 65.5323 301.447 65.7323 301.26C65.9323 301.06 66.1723 300.96 66.4523 300.96C66.7323 300.96 66.9723 301.06 67.1723 301.26C67.3723 301.447 67.4723 301.687 67.4723 301.98C67.4723 302.273 67.3723 302.52 67.1723 302.72C66.9723 302.92 66.7323 303.02 66.4523 303.02ZM67.1523 305.08V316H65.7523V305.08H67.1523ZM69.6827 310.54C69.6827 309.407 69.9093 308.42 70.3627 307.58C70.816 306.727 71.4427 306.073 72.2427 305.62C73.0427 305.153 73.956 304.92 74.9827 304.92C76.3293 304.92 77.436 305.253 78.3027 305.92C79.1827 306.587 79.7493 307.493 80.0027 308.64H78.5027C78.316 307.853 77.9093 307.24 77.2827 306.8C76.6693 306.347 75.9027 306.12 74.9827 306.12C74.2493 306.12 73.5893 306.287 73.0027 306.62C72.416 306.953 71.9493 307.453 71.6027 308.12C71.2693 308.773 71.1027 309.58 71.1027 310.54C71.1027 311.5 71.2693 312.313 71.6027 312.98C71.9493 313.647 72.416 314.147 73.0027 314.48C73.5893 314.813 74.2493 314.98 74.9827 314.98C75.9027 314.98 76.6693 314.76 77.2827 314.32C77.9093 313.867 78.316 313.24 78.5027 312.44H80.0027C79.7493 313.56 79.1827 314.46 78.3027 315.14C77.4227 315.82 76.316 316.16 74.9827 316.16C73.956 316.16 73.0427 315.933 72.2427 315.48C71.4427 315.013 70.816 314.36 70.3627 313.52C69.9093 312.667 69.6827 311.673 69.6827 310.54ZM88.4883 316L83.9883 311.1V316H82.5883V301.2H83.9883V309.96L88.3883 305.08H90.3483L85.1683 310.52L90.3883 316H88.4883ZM93.5977 301.2V316H92.1977V301.2H93.5977ZM105.768 305.08L99.288 321.14H97.828L99.948 315.94L95.468 305.08H97.008L100.728 314.4L104.328 305.08H105.768ZM112.515 310.52C112.515 309.4 112.735 308.42 113.175 307.58C113.628 306.727 114.248 306.073 115.035 305.62C115.835 305.153 116.735 304.92 117.735 304.92C118.775 304.92 119.668 305.16 120.415 305.64C121.175 306.12 121.721 306.733 122.055 307.48V305.08H123.455V316H122.055V313.58C121.708 314.327 121.155 314.947 120.395 315.44C119.648 315.92 118.755 316.16 117.715 316.16C116.728 316.16 115.835 315.927 115.035 315.46C114.248 314.993 113.628 314.333 113.175 313.48C112.735 312.627 112.515 311.64 112.515 310.52ZM122.055 310.54C122.055 309.66 121.875 308.887 121.515 308.22C121.155 307.553 120.661 307.04 120.035 306.68C119.421 306.32 118.741 306.14 117.995 306.14C117.221 306.14 116.528 306.313 115.915 306.66C115.301 307.007 114.815 307.513 114.455 308.18C114.108 308.833 113.935 309.613 113.935 310.52C113.935 311.413 114.108 312.2 114.455 312.88C114.815 313.547 115.301 314.06 115.915 314.42C116.528 314.767 117.221 314.94 117.995 314.94C118.741 314.94 119.421 314.76 120.035 314.4C120.661 314.04 121.155 313.527 121.515 312.86C121.875 312.193 122.055 311.42 122.055 310.54ZM131.771 304.88C133.077 304.88 134.144 305.287 134.971 306.1C135.797 306.9 136.211 308.067 136.211 309.6V316H134.831V309.76C134.831 308.573 134.531 307.667 133.931 307.04C133.344 306.413 132.537 306.1 131.511 306.1C130.457 306.1 129.617 306.433 128.991 307.1C128.364 307.767 128.051 308.747 128.051 310.04V316H126.651V305.08H128.051V306.94C128.397 306.273 128.897 305.767 129.551 305.42C130.204 305.06 130.944 304.88 131.771 304.88ZM138.667 310.52C138.667 309.4 138.894 308.42 139.347 307.58C139.8 306.727 140.42 306.073 141.207 305.62C142.007 305.153 142.907 304.92 143.907 304.92C144.867 304.92 145.734 305.153 146.507 305.62C147.28 306.087 147.847 306.693 148.207 307.44V301.2H149.607V316H148.207V313.56C147.874 314.32 147.327 314.947 146.567 315.44C145.807 315.92 144.914 316.16 143.887 316.16C142.887 316.16 141.987 315.927 141.187 315.46C140.4 314.993 139.78 314.333 139.327 313.48C138.887 312.627 138.667 311.64 138.667 310.52ZM148.207 310.54C148.207 309.66 148.027 308.887 147.667 308.22C147.307 307.553 146.814 307.04 146.187 306.68C145.574 306.32 144.894 306.14 144.147 306.14C143.374 306.14 142.68 306.313 142.067 306.66C141.454 307.007 140.967 307.513 140.607 308.18C140.26 308.833 140.087 309.613 140.087 310.52C140.087 311.413 140.26 312.2 140.607 312.88C140.967 313.547 141.454 314.06 142.067 314.42C142.68 314.767 143.374 314.94 144.147 314.94C144.894 314.94 145.574 314.76 146.187 314.4C146.814 314.04 147.307 313.527 147.667 312.86C148.027 312.193 148.207 311.42 148.207 310.54ZM168.171 309.98C168.171 310.46 168.158 310.827 168.131 311.08H159.071C159.111 311.907 159.311 312.613 159.671 313.2C160.031 313.787 160.505 314.233 161.091 314.54C161.678 314.833 162.318 314.98 163.011 314.98C163.918 314.98 164.678 314.76 165.291 314.32C165.918 313.88 166.331 313.287 166.531 312.54H168.011C167.745 313.607 167.171 314.48 166.291 315.16C165.425 315.827 164.331 316.16 163.011 316.16C161.985 316.16 161.065 315.933 160.251 315.48C159.438 315.013 158.798 314.36 158.331 313.52C157.878 312.667 157.651 311.673 157.651 310.54C157.651 309.407 157.878 308.413 158.331 307.56C158.785 306.707 159.418 306.053 160.231 305.6C161.045 305.147 161.971 304.92 163.011 304.92C164.051 304.92 164.958 305.147 165.731 305.6C166.518 306.053 167.118 306.667 167.531 307.44C167.958 308.2 168.171 309.047 168.171 309.98ZM166.751 309.94C166.765 309.127 166.598 308.433 166.251 307.86C165.918 307.287 165.458 306.853 164.871 306.56C164.285 306.267 163.645 306.12 162.951 306.12C161.911 306.12 161.025 306.453 160.291 307.12C159.558 307.787 159.151 308.727 159.071 309.94H166.751ZM170.093 310.52C170.093 309.4 170.313 308.42 170.753 307.58C171.206 306.727 171.826 306.073 172.613 305.62C173.413 305.153 174.313 304.92 175.313 304.92C176.353 304.92 177.246 305.16 177.993 305.64C178.753 306.12 179.299 306.733 179.633 307.48V305.08H181.033V316H179.633V313.58C179.286 314.327 178.733 314.947 177.973 315.44C177.226 315.92 176.333 316.16 175.293 316.16C174.306 316.16 173.413 315.927 172.613 315.46C171.826 314.993 171.206 314.333 170.753 313.48C170.313 312.627 170.093 311.64 170.093 310.52ZM179.633 310.54C179.633 309.66 179.453 308.887 179.093 308.22C178.733 307.553 178.239 307.04 177.613 306.68C176.999 306.32 176.319 306.14 175.573 306.14C174.799 306.14 174.106 306.313 173.493 306.66C172.879 307.007 172.393 307.513 172.033 308.18C171.686 308.833 171.513 309.613 171.513 310.52C171.513 311.413 171.686 312.2 172.033 312.88C172.393 313.547 172.879 314.06 173.493 314.42C174.106 314.767 174.799 314.94 175.573 314.94C176.319 314.94 176.999 314.76 177.613 314.4C178.239 314.04 178.733 313.527 179.093 312.86C179.453 312.193 179.633 311.42 179.633 310.54ZM187.989 316.16C186.736 316.16 185.709 315.873 184.909 315.3C184.122 314.713 183.682 313.92 183.589 312.92H185.029C185.096 313.533 185.382 314.033 185.889 314.42C186.409 314.793 187.102 314.98 187.969 314.98C188.729 314.98 189.322 314.8 189.749 314.44C190.189 314.08 190.409 313.633 190.409 313.1C190.409 312.727 190.289 312.42 190.049 312.18C189.809 311.94 189.502 311.753 189.129 311.62C188.769 311.473 188.276 311.32 187.649 311.16C186.836 310.947 186.176 310.733 185.669 310.52C185.162 310.307 184.729 309.993 184.369 309.58C184.022 309.153 183.849 308.587 183.849 307.88C183.849 307.347 184.009 306.853 184.329 306.4C184.649 305.947 185.102 305.587 185.689 305.32C186.276 305.053 186.942 304.92 187.689 304.92C188.862 304.92 189.809 305.22 190.529 305.82C191.249 306.407 191.636 307.22 191.689 308.26H190.289C190.249 307.62 189.996 307.107 189.529 306.72C189.076 306.32 188.449 306.12 187.649 306.12C186.942 306.12 186.369 306.287 185.929 306.62C185.489 306.953 185.269 307.367 185.269 307.86C185.269 308.287 185.396 308.64 185.649 308.92C185.916 309.187 186.242 309.4 186.629 309.56C187.016 309.707 187.536 309.873 188.189 310.06C188.976 310.273 189.602 310.48 190.069 310.68C190.536 310.88 190.936 311.173 191.269 311.56C191.602 311.947 191.776 312.46 191.789 313.1C191.789 313.687 191.629 314.213 191.309 314.68C190.989 315.133 190.542 315.493 189.969 315.76C189.396 316.027 188.736 316.16 187.989 316.16ZM195.124 303.02C194.844 303.02 194.604 302.92 194.404 302.72C194.204 302.52 194.104 302.273 194.104 301.98C194.104 301.687 194.204 301.447 194.404 301.26C194.604 301.06 194.844 300.96 195.124 300.96C195.404 300.96 195.644 301.06 195.844 301.26C196.044 301.447 196.144 301.687 196.144 301.98C196.144 302.273 196.044 302.52 195.844 302.72C195.644 302.92 195.404 303.02 195.124 303.02ZM195.824 305.08V316H194.424V305.08H195.824ZM200.395 301.2V316H198.995V301.2H200.395ZM212.565 305.08L206.085 321.14H204.625L206.745 315.94L202.265 305.08H203.805L207.525 314.4L211.125 305.08H212.565ZM234.352 305.08L230.932 316H229.532L226.512 306.84L223.492 316H222.072L218.652 305.08H220.072L222.792 314.58L225.852 305.08H227.252L230.272 314.6L232.972 305.08H234.352ZM236.96 303.02C236.68 303.02 236.44 302.92 236.24 302.72C236.04 302.52 235.94 302.273 235.94 301.98C235.94 301.687 236.04 301.447 236.24 301.26C236.44 301.06 236.68 300.96 236.96 300.96C237.24 300.96 237.48 301.06 237.68 301.26C237.88 301.447 237.98 301.687 237.98 301.98C237.98 302.273 237.88 302.52 237.68 302.72C237.48 302.92 237.24 303.02 236.96 303.02ZM237.66 305.08V316H236.26V305.08H237.66ZM242.65 306.26V313.04C242.65 313.707 242.777 314.167 243.03 314.42C243.284 314.673 243.73 314.8 244.37 314.8H245.65V316H244.15C243.164 316 242.43 315.773 241.95 315.32C241.47 314.853 241.23 314.093 241.23 313.04V306.26H239.71V305.08H241.23V302.34H242.65V305.08H245.65V306.26H242.65ZM253.159 304.88C253.986 304.88 254.726 305.053 255.379 305.4C256.046 305.747 256.566 306.28 256.939 307C257.326 307.707 257.519 308.573 257.519 309.6V316H256.139V309.76C256.139 308.573 255.839 307.667 255.239 307.04C254.653 306.413 253.846 306.1 252.819 306.1C251.766 306.1 250.926 306.433 250.299 307.1C249.673 307.767 249.359 308.747 249.359 310.04V316H247.959V301.2H249.359V306.94C249.706 306.287 250.213 305.78 250.879 305.42C251.559 305.06 252.319 304.88 253.159 304.88ZM274.284 302.02V303.18H270.404V316H269.004V303.18H265.104V302.02H274.284ZM281.275 316.16C280.248 316.16 279.321 315.933 278.495 315.48C277.681 315.013 277.035 314.36 276.555 313.52C276.088 312.667 275.855 311.673 275.855 310.54C275.855 309.407 276.095 308.42 276.575 307.58C277.055 306.727 277.708 306.073 278.535 305.62C279.361 305.153 280.288 304.92 281.315 304.92C282.341 304.92 283.268 305.153 284.095 305.62C284.935 306.073 285.588 306.727 286.055 307.58C286.535 308.42 286.775 309.407 286.775 310.54C286.775 311.66 286.535 312.647 286.055 313.5C285.575 314.353 284.915 315.013 284.075 315.48C283.235 315.933 282.301 316.16 281.275 316.16ZM281.275 314.94C281.995 314.94 282.661 314.78 283.275 314.46C283.888 314.127 284.381 313.633 284.755 312.98C285.141 312.313 285.335 311.5 285.335 310.54C285.335 309.58 285.148 308.773 284.775 308.12C284.401 307.453 283.908 306.96 283.295 306.64C282.681 306.307 282.015 306.14 281.295 306.14C280.575 306.14 279.908 306.307 279.295 306.64C278.681 306.96 278.188 307.453 277.815 308.12C277.455 308.773 277.275 309.58 277.275 310.54C277.275 311.5 277.455 312.313 277.815 312.98C278.188 313.633 278.675 314.127 279.275 314.46C279.888 314.78 280.555 314.94 281.275 314.94ZM294.447 304.88C295.753 304.88 296.82 305.287 297.647 306.1C298.473 306.9 298.887 308.067 298.887 309.6V316H297.507V309.76C297.507 308.573 297.207 307.667 296.607 307.04C296.02 306.413 295.213 306.1 294.187 306.1C293.133 306.1 292.293 306.433 291.667 307.1C291.04 307.767 290.727 308.747 290.727 310.04V316H289.327V305.08H290.727V306.94C291.073 306.273 291.573 305.767 292.227 305.42C292.88 305.06 293.62 304.88 294.447 304.88ZM301.343 310.52C301.343 309.4 301.569 308.42 302.023 307.58C302.476 306.727 303.096 306.073 303.883 305.62C304.683 305.153 305.583 304.92 306.583 304.92C307.543 304.92 308.409 305.153 309.183 305.62C309.956 306.087 310.523 306.693 310.883 307.44V301.2H312.283V316H310.883V313.56C310.549 314.32 310.003 314.947 309.243 315.44C308.483 315.92 307.589 316.16 306.563 316.16C305.563 316.16 304.663 315.927 303.863 315.46C303.076 314.993 302.456 314.333 302.003 313.48C301.563 312.627 301.343 311.64 301.343 310.52ZM310.883 310.54C310.883 309.66 310.703 308.887 310.343 308.22C309.983 307.553 309.489 307.04 308.863 306.68C308.249 306.32 307.569 306.14 306.823 306.14C306.049 306.14 305.356 306.313 304.743 306.66C304.129 307.007 303.643 307.513 303.283 308.18C302.936 308.833 302.763 309.613 302.763 310.52C302.763 311.413 302.936 312.2 303.283 312.88C303.643 313.547 304.129 314.06 304.743 314.42C305.356 314.767 306.049 314.94 306.823 314.94C307.569 314.94 308.249 314.76 308.863 314.4C309.489 314.04 309.983 313.527 310.343 312.86C310.703 312.193 310.883 311.42 310.883 310.54ZM325.359 309.98C325.359 310.46 325.346 310.827 325.319 311.08H316.259C316.299 311.907 316.499 312.613 316.859 313.2C317.219 313.787 317.692 314.233 318.279 314.54C318.866 314.833 319.506 314.98 320.199 314.98C321.106 314.98 321.866 314.76 322.479 314.32C323.106 313.88 323.519 313.287 323.719 312.54H325.199C324.932 313.607 324.359 314.48 323.479 315.16C322.612 315.827 321.519 316.16 320.199 316.16C319.172 316.16 318.252 315.933 317.439 315.48C316.626 315.013 315.986 314.36 315.519 313.52C315.066 312.667 314.839 311.673 314.839 310.54C314.839 309.407 315.066 308.413 315.519 307.56C315.972 306.707 316.606 306.053 317.419 305.6C318.232 305.147 319.159 304.92 320.199 304.92C321.239 304.92 322.146 305.147 322.919 305.6C323.706 306.053 324.306 306.667 324.719 307.44C325.146 308.2 325.359 309.047 325.359 309.98ZM323.939 309.94C323.952 309.127 323.786 308.433 323.439 307.86C323.106 307.287 322.646 306.853 322.059 306.56C321.472 306.267 320.832 306.12 320.139 306.12C319.099 306.12 318.212 306.453 317.479 307.12C316.746 307.787 316.339 308.727 316.259 309.94H323.939ZM329.32 307.02C329.627 306.34 330.094 305.813 330.72 305.44C331.36 305.067 332.14 304.88 333.06 304.88V306.34H332.68C331.667 306.34 330.854 306.613 330.24 307.16C329.627 307.707 329.32 308.62 329.32 309.9V316H327.92V305.08H329.32V307.02ZM341.706 308.78C342.493 308.927 343.16 309.327 343.706 309.98C344.253 310.633 344.526 311.393 344.526 312.26C344.526 312.967 344.346 313.607 343.986 314.18C343.64 314.74 343.126 315.187 342.446 315.52C341.766 315.84 340.953 316 340.006 316H335.166V302.02H339.866C341.28 302.02 342.353 302.347 343.086 303C343.833 303.653 344.206 304.5 344.206 305.54C344.206 306.407 343.973 307.113 343.506 307.66C343.04 308.193 342.44 308.567 341.706 308.78ZM336.566 308.2H339.826C340.773 308.2 341.5 307.98 342.006 307.54C342.526 307.087 342.786 306.467 342.786 305.68C342.786 304.907 342.526 304.3 342.006 303.86C341.5 303.42 340.753 303.2 339.766 303.2H336.566V308.2ZM339.906 314.82C340.92 314.82 341.706 314.58 342.266 314.1C342.84 313.62 343.126 312.96 343.126 312.12C343.126 311.28 342.826 310.613 342.226 310.12C341.64 309.613 340.846 309.36 339.846 309.36H336.566V314.82H339.906ZM351.88 316.16C350.853 316.16 349.927 315.933 349.1 315.48C348.287 315.013 347.64 314.36 347.16 313.52C346.693 312.667 346.46 311.673 346.46 310.54C346.46 309.407 346.7 308.42 347.18 307.58C347.66 306.727 348.313 306.073 349.14 305.62C349.967 305.153 350.893 304.92 351.92 304.92C352.947 304.92 353.873 305.153 354.7 305.62C355.54 306.073 356.193 306.727 356.66 307.58C357.14 308.42 357.38 309.407 357.38 310.54C357.38 311.66 357.14 312.647 356.66 313.5C356.18 314.353 355.52 315.013 354.68 315.48C353.84 315.933 352.907 316.16 351.88 316.16ZM351.88 314.94C352.6 314.94 353.267 314.78 353.88 314.46C354.493 314.127 354.987 313.633 355.36 312.98C355.747 312.313 355.94 311.5 355.94 310.54C355.94 309.58 355.753 308.773 355.38 308.12C355.007 307.453 354.513 306.96 353.9 306.64C353.287 306.307 352.62 306.14 351.9 306.14C351.18 306.14 350.513 306.307 349.9 306.64C349.287 306.96 348.793 307.453 348.42 308.12C348.06 308.773 347.88 309.58 347.88 310.54C347.88 311.5 348.06 312.313 348.42 312.98C348.793 313.633 349.28 314.127 349.88 314.46C350.493 314.78 351.16 314.94 351.88 314.94ZM361.752 306.26V313.04C361.752 313.707 361.879 314.167 362.132 314.42C362.385 314.673 362.832 314.8 363.472 314.8H364.752V316H363.252C362.265 316 361.532 315.773 361.052 315.32C360.572 314.853 360.332 314.093 360.332 313.04V306.26H358.812V305.08H360.332V302.34H361.752V305.08H364.752V306.26H361.752Z" fill="white" fill-opacity="0.6"/>
<circle cx="75" cy="112" r="37" fill="white" fill-opacity="0.15"/>
<mask id="mask0_1181_8907" style="mask-type:alpha" maskUnits="userSpaceOnUse" x="38" y="75" width="74" height="74">
<circle cx="75" cy="112" r="37" fill="#D9D9D9"/>
</mask>
<g mask="url(#mask0_1181_8907)">
<path d="M50.0367 144.923C44.4959 146.111 30.265 152.816 29.4543 163.992C29.4143 164.543 28.9704 164.993 28.4181 164.993L20.2988 164.993C19.6427 164.993 19.1639 164.372 19.3496 163.743C22.6768 152.463 30.9275 140.618 48.6686 136.497C55.9913 134.926 70.0144 126.737 71.6561 106.413C71.7196 105.626 70.8735 105.109 70.1903 105.504L61.0558 110.794C60.5779 111.071 59.9661 110.908 59.6893 110.43L56.6174 105.125C56.3406 104.647 56.5037 104.035 56.9817 103.758L79.875 90.5012C80.3529 90.2244 80.9648 90.3875 81.2415 90.8654L94.4989 113.759C94.7756 114.237 94.6126 114.849 94.1346 115.125L88.8299 118.197C88.352 118.474 87.7402 118.311 87.4634 117.833L82.8738 109.907C82.3767 109.049 81.0204 109.354 80.8939 110.337C79.2247 123.315 71.7173 139.886 50.0367 144.923Z" fill="white" fill-opacity="0.3"/>
</g>
<g opacity="0.4">
<g filter="url(#filter0_df_1181_8907)">
<path d="M266.242 159.624C259.234 161.128 246.702 166.159 235.809 174.374C224.918 182.587 215.569 194.059 215.144 208.462C215.135 208.758 214.897 208.984 214.629 208.984L191.299 208.984C190.966 208.984 190.735 208.675 190.82 208.368C198.609 180.219 218.712 150.183 263.095 139.871C281.603 135.899 317.189 114.957 320.218 62.7636C320.286 61.5894 319.021 60.7733 317.983 61.3741L291.945 76.4527C291.706 76.5911 291.4 76.5096 291.261 76.2706L282.241 60.6939C282.103 60.4549 282.184 60.149 282.423 60.0107L341.268 25.9339C341.507 25.7955 341.813 25.8771 341.952 26.116L376.029 84.9615C376.167 85.2004 376.085 85.5063 375.846 85.6447L360.27 94.665C360.031 94.8034 359.725 94.7219 359.587 94.4829L345.126 69.5111C344.376 68.2165 342.41 68.6961 342.283 70.1558C339.468 102.536 322.018 146.665 266.242 159.624Z" stroke="url(#paint0_linear_1181_8907)" stroke-linecap="round" stroke-linejoin="round"/>
</g>
<path d="M266.242 159.624C259.234 161.128 246.702 166.159 235.809 174.374C224.918 182.587 215.569 194.059 215.144 208.462C215.135 208.758 214.897 208.984 214.629 208.984L191.299 208.984C190.966 208.984 190.735 208.675 190.82 208.368C198.609 180.219 218.712 150.183 263.095 139.871C281.603 135.899 317.189 114.957 320.218 62.7636C320.286 61.5894 319.021 60.7733 317.983 61.3741L291.945 76.4527C291.706 76.5911 291.4 76.5096 291.261 76.2706L282.241 60.6939C282.103 60.4549 282.184 60.149 282.423 60.0107L341.268 25.9339C341.507 25.7955 341.813 25.8771 341.952 26.116L376.029 84.9615C376.167 85.2004 376.085 85.5063 375.846 85.6447L360.27 94.665C360.031 94.8034 359.725 94.7219 359.587 94.4829L345.126 69.5111C344.376 68.2165 342.41 68.6961 342.283 70.1558C339.468 102.536 322.018 146.665 266.242 159.624Z" fill="url(#paint1_linear_1181_8907)" fill-opacity="0.07" stroke="url(#paint2_linear_1181_8907)" stroke-linecap="round" stroke-linejoin="round"/>
<path d="M266.351 160.112C252.482 163.087 216.48 180.112 215.644 208.477C215.627 209.029 215.181 209.484 214.629 209.484L191.299 209.484C190.643 209.484 190.163 208.867 190.338 208.234C198.165 179.95 218.384 149.744 262.986 139.383C281.314 135.452 316.705 114.668 319.719 62.7346C319.765 61.9465 318.917 61.4112 318.234 61.8068L292.195 76.8854C291.717 77.1622 291.105 76.9991 290.829 76.5212L281.808 60.9445C281.532 60.4665 281.695 59.8547 282.173 59.578L341.018 25.5012C341.496 25.2245 342.108 25.3875 342.384 25.8655L376.461 84.7109C376.738 85.1888 376.575 85.8006 376.097 86.0774L360.52 95.0977C360.042 95.3745 359.431 95.2114 359.154 94.7335L344.693 69.7616C344.196 68.9032 342.868 69.2108 342.782 70.1991C339.955 102.704 322.418 147.087 266.351 160.112Z" fill="url(#paint3_linear_1181_8907)" fill-opacity="0.17"/>
</g>
<defs>
<filter id="filter0_df_1181_8907" x="170.302" y="5.36646" width="226.294" height="224.118" filterUnits="userSpaceOnUse" color-interpolation-filters="sRGB">
<feFlood flood-opacity="0" result="BackgroundImageFix"/>
<feColorMatrix in="SourceAlpha" type="matrix" values="0 0 0 0 0 0 0 0 0 0 0 0 0 0 0 0 0 0 127 0" result="hardAlpha"/>
<feOffset dy="14"/>
<feColorMatrix type="matrix" values="0 0 0 0 0.301961 0 0 0 0 0.364706 0 0 0 0 1 0 0 0 1 0"/>
<feBlend mode="normal" in2="BackgroundImageFix" result="effect1_dropShadow_1181_8907"/>
<feBlend mode="normal" in="SourceGraphic" in2="effect1_dropShadow_1181_8907" result="shape"/>
<feGaussianBlur stdDeviation="10" result="effect2_foregroundBlur_1181_8907"/>
</filter>
<linearGradient id="paint0_linear_1181_8907" x1="230.962" y1="204.484" x2="360.462" y2="25.4844" gradientUnits="userSpaceOnUse">
<stop stop-color="white" stop-opacity="0"/>
<stop offset="0.361152" stop-color="white" stop-opacity="0.03"/>
<stop offset="1" stop-color="white"/>
</linearGradient>
<linearGradient id="paint1_linear_1181_8907" x1="220.462" y1="204.484" x2="339.962" y2="29.9844" gradientUnits="userSpaceOnUse">
<stop stop-color="white" stop-opacity="0"/>
<stop offset="0.313738" stop-color="white" stop-opacity="0.18258"/>
<stop offset="1" stop-color="white"/>
</linearGradient>
<linearGradient id="paint2_linear_1181_8907" x1="230.962" y1="204.484" x2="360.462" y2="25.4844" gradientUnits="userSpaceOnUse">
<stop stop-color="white" stop-opacity="0"/>
<stop offset="0.361152" stop-color="white" stop-opacity="0.03"/>
<stop offset="1" stop-color="white"/>
</linearGradient>
<linearGradient id="paint3_linear_1181_8907" x1="220.462" y1="204.484" x2="339.962" y2="29.9844" gradientUnits="userSpaceOnUse">
<stop stop-color="white" stop-opacity="0"/>
<stop offset="0.313738" stop-color="white" stop-opacity="0.18258"/>
<stop offset="1" stop-color="white"/>
</linearGradient>
</defs>
</svg>
