<svg width="403" height="391" viewBox="0 0 403 391" fill="none" xmlns="http://www.w3.org/2000/svg">
<g clip-path="url(#clip0_1181_8914)">
<rect width="403" height="391" rx="30" fill="white" fill-opacity="0.04"/>
<path d="M50.768 209.294C48.808 209.294 47.044 208.958 45.476 208.286C43.908 207.586 42.676 206.606 41.78 205.346C40.884 204.086 40.436 202.616 40.436 200.936H45.56C45.672 202.196 46.162 203.232 47.03 204.044C47.926 204.856 49.172 205.262 50.768 205.262C52.42 205.262 53.708 204.87 54.632 204.086C55.556 203.274 56.018 202.238 56.018 200.978C56.018 199.998 55.724 199.2 55.136 198.584C54.576 197.968 53.862 197.492 52.994 197.156C52.154 196.82 50.978 196.456 49.466 196.064C47.562 195.56 46.008 195.056 44.804 194.552C43.628 194.02 42.62 193.208 41.78 192.116C40.94 191.024 40.52 189.568 40.52 187.748C40.52 186.068 40.94 184.598 41.78 183.338C42.62 182.078 43.796 181.112 45.308 180.44C46.82 179.768 48.57 179.432 50.558 179.432C53.386 179.432 55.696 180.146 57.488 181.574C59.308 182.974 60.316 184.906 60.512 187.37H55.22C55.136 186.306 54.632 185.396 53.708 184.64C52.784 183.884 51.566 183.506 50.054 183.506C48.682 183.506 47.562 183.856 46.694 184.556C45.826 185.256 45.392 186.264 45.392 187.58C45.392 188.476 45.658 189.218 46.19 189.806C46.75 190.366 47.45 190.814 48.29 191.15C49.13 191.486 50.278 191.85 51.734 192.242C53.666 192.774 55.234 193.306 56.438 193.838C57.67 194.37 58.706 195.196 59.546 196.316C60.414 197.408 60.848 198.878 60.848 200.726C60.848 202.21 60.442 203.61 59.63 204.926C58.846 206.242 57.684 207.306 56.144 208.118C54.632 208.902 52.84 209.294 50.768 209.294ZM95.8977 185.858L88.7157 209H83.6757L79.0137 191.906L74.3517 209H69.3117L62.0877 185.858H66.9597L71.7897 204.464L76.7037 185.858H81.7017L86.4057 204.38L91.1937 185.858H95.8977ZM96.1999 197.324C96.1999 195 96.6759 192.942 97.6279 191.15C98.6079 189.358 99.9239 187.972 101.576 186.992C103.256 185.984 105.104 185.48 107.12 185.48C108.94 185.48 110.522 185.844 111.866 186.572C113.238 187.272 114.33 188.154 115.142 189.218V185.858H119.972V209H115.142V205.556C114.33 206.648 113.224 207.558 111.824 208.286C110.424 209.014 108.828 209.378 107.036 209.378C105.048 209.378 103.228 208.874 101.576 207.866C99.9239 206.83 98.6079 205.402 97.6279 203.582C96.6759 201.734 96.1999 199.648 96.1999 197.324ZM115.142 197.408C115.142 195.812 114.806 194.426 114.134 193.25C113.49 192.074 112.636 191.178 111.572 190.562C110.508 189.946 109.36 189.638 108.128 189.638C106.896 189.638 105.748 189.946 104.684 190.562C103.62 191.15 102.752 192.032 102.08 193.208C101.436 194.356 101.114 195.728 101.114 197.324C101.114 198.92 101.436 200.32 102.08 201.524C102.752 202.728 103.62 203.652 104.684 204.296C105.776 204.912 106.924 205.22 108.128 205.22C109.36 205.22 110.508 204.912 111.572 204.296C112.636 203.68 113.49 202.784 114.134 201.608C114.806 200.404 115.142 199.004 115.142 197.408ZM129.369 189.26C130.181 188.196 131.287 187.3 132.687 186.572C134.087 185.844 135.669 185.48 137.433 185.48C139.449 185.48 141.283 185.984 142.935 186.992C144.615 187.972 145.931 189.358 146.883 191.15C147.835 192.942 148.311 195 148.311 197.324C148.311 199.648 147.835 201.734 146.883 203.582C145.931 205.402 144.615 206.83 142.935 207.866C141.283 208.874 139.449 209.378 137.433 209.378C135.669 209.378 134.101 209.028 132.729 208.328C131.357 207.6 130.237 206.704 129.369 205.64V220.004H124.581V185.858H129.369V189.26ZM143.439 197.324C143.439 195.728 143.103 194.356 142.431 193.208C141.787 192.032 140.919 191.15 139.827 190.562C138.763 189.946 137.615 189.638 136.383 189.638C135.179 189.638 134.031 189.946 132.939 190.562C131.875 191.178 131.007 192.074 130.335 193.25C129.691 194.426 129.369 195.812 129.369 197.408C129.369 199.004 129.691 200.404 130.335 201.608C131.007 202.784 131.875 203.68 132.939 204.296C134.031 204.912 135.179 205.22 136.383 205.22C137.615 205.22 138.763 204.912 139.827 204.296C140.919 203.652 141.787 202.728 142.431 201.524C143.103 200.32 143.439 198.92 143.439 197.324ZM60.008 216.81V220.716H52.238V246H47.45V220.716H39.638V216.81H60.008ZM73.215 246.378C71.031 246.378 69.057 245.888 67.293 244.908C65.529 243.9 64.143 242.5 63.135 240.708C62.127 238.888 61.623 236.788 61.623 234.408C61.623 232.056 62.141 229.97 63.177 228.15C64.213 226.33 65.627 224.93 67.419 223.95C69.211 222.97 71.213 222.48 73.425 222.48C75.637 222.48 77.639 222.97 79.431 223.95C81.223 224.93 82.637 226.33 83.673 228.15C84.709 229.97 85.227 232.056 85.227 234.408C85.227 236.76 84.695 238.846 83.631 240.666C82.567 242.486 81.111 243.9 79.263 244.908C77.443 245.888 75.427 246.378 73.215 246.378ZM73.215 242.22C74.447 242.22 75.595 241.926 76.659 241.338C77.751 240.75 78.633 239.868 79.305 238.692C79.977 237.516 80.313 236.088 80.313 234.408C80.313 232.728 79.991 231.314 79.347 230.166C78.703 228.99 77.849 228.108 76.785 227.52C75.721 226.932 74.573 226.638 73.341 226.638C72.109 226.638 70.961 226.932 69.897 227.52C68.861 228.108 68.035 228.99 67.419 230.166C66.803 231.314 66.495 232.728 66.495 234.408C66.495 236.9 67.125 238.832 68.385 240.204C69.673 241.548 71.283 242.22 73.215 242.22ZM97.4362 234.45L108.104 246H101.636L93.0682 236.046V246H88.2802V214.92H93.0682V232.98L101.468 222.858H108.104L97.4362 234.45ZM131.066 233.862C131.066 234.73 131.01 235.514 130.898 236.214H113.216C113.356 238.062 114.042 239.546 115.274 240.666C116.506 241.786 118.018 242.346 119.81 242.346C122.386 242.346 124.206 241.268 125.27 239.112H130.436C129.736 241.24 128.462 242.99 126.614 244.362C124.794 245.706 122.526 246.378 119.81 246.378C117.598 246.378 115.61 245.888 113.846 244.908C112.11 243.9 110.738 242.5 109.73 240.708C108.75 238.888 108.26 236.788 108.26 234.408C108.26 232.028 108.736 229.942 109.688 228.15C110.668 226.33 112.026 224.93 113.762 223.95C115.526 222.97 117.542 222.48 119.81 222.48C121.994 222.48 123.94 222.956 125.648 223.908C127.356 224.86 128.686 226.204 129.638 227.94C130.59 229.648 131.066 231.622 131.066 233.862ZM126.068 232.35C126.04 230.586 125.41 229.172 124.178 228.108C122.946 227.044 121.42 226.512 119.6 226.512C117.948 226.512 116.534 227.044 115.358 228.108C114.182 229.144 113.482 230.558 113.258 232.35H126.068ZM145.774 222.48C147.594 222.48 149.218 222.858 150.646 223.614C152.102 224.37 153.236 225.49 154.048 226.974C154.86 228.458 155.266 230.25 155.266 232.35V246H150.52V233.064C150.52 230.992 150.002 229.41 148.966 228.318C147.93 227.198 146.516 226.638 144.724 226.638C142.932 226.638 141.504 227.198 140.44 228.318C139.404 229.41 138.886 230.992 138.886 233.064V246H134.098V222.858H138.886V225.504C139.67 224.552 140.664 223.81 141.868 223.278C143.1 222.746 144.402 222.48 145.774 222.48ZM168.093 246.378C166.273 246.378 164.635 246.056 163.179 245.412C161.751 244.74 160.617 243.844 159.777 242.724C158.937 241.576 158.489 240.302 158.433 238.902H163.389C163.473 239.882 163.935 240.708 164.775 241.38C165.643 242.024 166.721 242.346 168.009 242.346C169.353 242.346 170.389 242.094 171.117 241.59C171.873 241.058 172.251 240.386 172.251 239.574C172.251 238.706 171.831 238.062 170.991 237.642C170.179 237.222 168.877 236.76 167.085 236.256C165.349 235.78 163.935 235.318 162.843 234.87C161.751 234.422 160.799 233.736 159.987 232.812C159.203 231.888 158.811 230.67 158.811 229.158C158.811 227.926 159.175 226.806 159.903 225.798C160.631 224.762 161.667 223.95 163.011 223.362C164.383 222.774 165.951 222.48 167.715 222.48C170.347 222.48 172.461 223.152 174.057 224.496C175.681 225.812 176.549 227.618 176.661 229.914H171.873C171.789 228.878 171.369 228.052 170.613 227.436C169.857 226.82 168.835 226.512 167.547 226.512C166.287 226.512 165.321 226.75 164.649 227.226C163.977 227.702 163.641 228.332 163.641 229.116C163.641 229.732 163.865 230.25 164.313 230.67C164.761 231.09 165.307 231.426 165.951 231.678C166.595 231.902 167.547 232.196 168.807 232.56C170.487 233.008 171.859 233.47 172.923 233.946C174.015 234.394 174.953 235.066 175.737 235.962C176.521 236.858 176.927 238.048 176.955 239.532C176.955 240.848 176.591 242.024 175.863 243.06C175.135 244.096 174.099 244.908 172.755 245.496C171.439 246.084 169.885 246.378 168.093 246.378Z" fill="white"/>
<path d="M41 274.16V279.38H46.3V280.54H41V285.84H46.9V287H39.6V273H46.9V274.16H41ZM49.0186 281.52C49.0186 280.4 49.2386 279.42 49.6786 278.58C50.1319 277.727 50.7519 277.073 51.5386 276.62C52.3386 276.153 53.2386 275.92 54.2386 275.92C55.2786 275.92 56.1719 276.16 56.9186 276.64C57.6786 277.12 58.2253 277.733 58.5586 278.48V276.08H59.9586V287H58.5586V284.58C58.2119 285.327 57.6586 285.947 56.8986 286.44C56.1519 286.92 55.2586 287.16 54.2186 287.16C53.2319 287.16 52.3386 286.927 51.5386 286.46C50.7519 285.993 50.1319 285.333 49.6786 284.48C49.2386 283.627 49.0186 282.64 49.0186 281.52ZM58.5586 281.54C58.5586 280.66 58.3786 279.887 58.0186 279.22C57.6586 278.553 57.1653 278.04 56.5386 277.68C55.9253 277.32 55.2453 277.14 54.4986 277.14C53.7253 277.14 53.0319 277.313 52.4186 277.66C51.8053 278.007 51.3186 278.513 50.9586 279.18C50.6119 279.833 50.4386 280.613 50.4386 281.52C50.4386 282.413 50.6119 283.2 50.9586 283.88C51.3186 284.547 51.8053 285.06 52.4186 285.42C53.0319 285.767 53.7253 285.94 54.4986 285.94C55.2453 285.94 55.9253 285.76 56.5386 285.4C57.1653 285.04 57.6586 284.527 58.0186 283.86C58.3786 283.193 58.5586 282.42 58.5586 281.54ZM66.9147 287.16C65.6614 287.16 64.6347 286.873 63.8347 286.3C63.048 285.713 62.608 284.92 62.5147 283.92H63.9547C64.0214 284.533 64.308 285.033 64.8147 285.42C65.3347 285.793 66.028 285.98 66.8947 285.98C67.6547 285.98 68.248 285.8 68.6747 285.44C69.1147 285.08 69.3347 284.633 69.3347 284.1C69.3347 283.727 69.2147 283.42 68.9747 283.18C68.7347 282.94 68.428 282.753 68.0547 282.62C67.6947 282.473 67.2014 282.32 66.5747 282.16C65.7614 281.947 65.1014 281.733 64.5947 281.52C64.088 281.307 63.6547 280.993 63.2947 280.58C62.948 280.153 62.7747 279.587 62.7747 278.88C62.7747 278.347 62.9347 277.853 63.2547 277.4C63.5747 276.947 64.028 276.587 64.6147 276.32C65.2014 276.053 65.868 275.92 66.6147 275.92C67.788 275.92 68.7347 276.22 69.4547 276.82C70.1747 277.407 70.5614 278.22 70.6147 279.26H69.2147C69.1747 278.62 68.9214 278.107 68.4547 277.72C68.0014 277.32 67.3747 277.12 66.5747 277.12C65.868 277.12 65.2947 277.287 64.8547 277.62C64.4147 277.953 64.1947 278.367 64.1947 278.86C64.1947 279.287 64.3214 279.64 64.5747 279.92C64.8414 280.187 65.168 280.4 65.5547 280.56C65.9414 280.707 66.4614 280.873 67.1147 281.06C67.9014 281.273 68.528 281.48 68.9947 281.68C69.4614 281.88 69.8614 282.173 70.1947 282.56C70.528 282.947 70.7014 283.46 70.7147 284.1C70.7147 284.687 70.5547 285.213 70.2347 285.68C69.9147 286.133 69.468 286.493 68.8947 286.76C68.3214 287.027 67.6614 287.16 66.9147 287.16ZM74.05 274.02C73.77 274.02 73.53 273.92 73.33 273.72C73.13 273.52 73.03 273.273 73.03 272.98C73.03 272.687 73.13 272.447 73.33 272.26C73.53 272.06 73.77 271.96 74.05 271.96C74.33 271.96 74.57 272.06 74.77 272.26C74.97 272.447 75.07 272.687 75.07 272.98C75.07 273.273 74.97 273.52 74.77 273.72C74.57 273.92 74.33 274.02 74.05 274.02ZM74.75 276.08V287H73.35V276.08H74.75ZM79.3203 272.2V287H77.9203V272.2H79.3203ZM91.4906 276.08L85.0106 292.14H83.5506L85.6706 286.94L81.1906 276.08H82.7306L86.4506 285.4L90.0506 276.08H91.4906ZM102.637 287.16C101.384 287.16 100.357 286.873 99.5573 286.3C98.7707 285.713 98.3307 284.92 98.2373 283.92H99.6773C99.744 284.533 100.031 285.033 100.537 285.42C101.057 285.793 101.751 285.98 102.617 285.98C103.377 285.98 103.971 285.8 104.397 285.44C104.837 285.08 105.057 284.633 105.057 284.1C105.057 283.727 104.937 283.42 104.697 283.18C104.457 282.94 104.151 282.753 103.777 282.62C103.417 282.473 102.924 282.32 102.297 282.16C101.484 281.947 100.824 281.733 100.317 281.52C99.8107 281.307 99.3773 280.993 99.0173 280.58C98.6707 280.153 98.4973 279.587 98.4973 278.88C98.4973 278.347 98.6573 277.853 98.9773 277.4C99.2973 276.947 99.7507 276.587 100.337 276.32C100.924 276.053 101.591 275.92 102.337 275.92C103.511 275.92 104.457 276.22 105.177 276.82C105.897 277.407 106.284 278.22 106.337 279.26H104.937C104.897 278.62 104.644 278.107 104.177 277.72C103.724 277.32 103.097 277.12 102.297 277.12C101.591 277.12 101.017 277.287 100.577 277.62C100.137 277.953 99.9173 278.367 99.9173 278.86C99.9173 279.287 100.044 279.64 100.297 279.92C100.564 280.187 100.891 280.4 101.277 280.56C101.664 280.707 102.184 280.873 102.837 281.06C103.624 281.273 104.251 281.48 104.717 281.68C105.184 281.88 105.584 282.173 105.917 282.56C106.251 282.947 106.424 283.46 106.437 284.1C106.437 284.687 106.277 285.213 105.957 285.68C105.637 286.133 105.191 286.493 104.617 286.76C104.044 287.027 103.384 287.16 102.637 287.16ZM123.473 276.08L120.053 287H118.653L115.633 277.84L112.613 287H111.193L107.773 276.08H109.193L111.913 285.58L114.973 276.08H116.373L119.393 285.6L122.093 276.08H123.473ZM124.741 281.52C124.741 280.4 124.961 279.42 125.401 278.58C125.855 277.727 126.475 277.073 127.261 276.62C128.061 276.153 128.961 275.92 129.961 275.92C131.001 275.92 131.895 276.16 132.641 276.64C133.401 277.12 133.948 277.733 134.281 278.48V276.08H135.681V287H134.281V284.58C133.935 285.327 133.381 285.947 132.621 286.44C131.875 286.92 130.981 287.16 129.941 287.16C128.955 287.16 128.061 286.927 127.261 286.46C126.475 285.993 125.855 285.333 125.401 284.48C124.961 283.627 124.741 282.64 124.741 281.52ZM134.281 281.54C134.281 280.66 134.101 279.887 133.741 279.22C133.381 278.553 132.888 278.04 132.261 277.68C131.648 277.32 130.968 277.14 130.221 277.14C129.448 277.14 128.755 277.313 128.141 277.66C127.528 278.007 127.041 278.513 126.681 279.18C126.335 279.833 126.161 280.613 126.161 281.52C126.161 282.413 126.335 283.2 126.681 283.88C127.041 284.547 127.528 285.06 128.141 285.42C128.755 285.767 129.448 285.94 130.221 285.94C130.968 285.94 131.648 285.76 132.261 285.4C132.888 285.04 133.381 284.527 133.741 283.86C134.101 283.193 134.281 282.42 134.281 281.54ZM140.257 278.48C140.604 277.747 141.151 277.14 141.897 276.66C142.657 276.167 143.557 275.92 144.597 275.92C145.584 275.92 146.471 276.153 147.257 276.62C148.057 277.073 148.677 277.727 149.117 278.58C149.571 279.42 149.797 280.4 149.797 281.52C149.797 282.64 149.571 283.627 149.117 284.48C148.677 285.333 148.057 285.993 147.257 286.46C146.471 286.927 145.584 287.16 144.597 287.16C143.571 287.16 142.677 286.92 141.917 286.44C141.157 285.947 140.604 285.333 140.257 284.6V292.16H138.877V276.08H140.257V278.48ZM148.377 281.52C148.377 280.613 148.197 279.833 147.837 279.18C147.491 278.513 147.011 278.007 146.397 277.66C145.784 277.313 145.091 277.14 144.317 277.14C143.571 277.14 142.884 277.32 142.257 277.68C141.644 278.04 141.157 278.553 140.797 279.22C140.437 279.887 140.257 280.66 140.257 281.54C140.257 282.42 140.437 283.193 140.797 283.86C141.157 284.527 141.644 285.04 142.257 285.4C142.884 285.76 143.571 285.94 144.317 285.94C145.091 285.94 145.784 285.767 146.397 285.42C147.011 285.06 147.491 284.547 147.837 283.88C148.197 283.2 148.377 282.413 148.377 281.52ZM159.682 277.26V284.04C159.682 284.707 159.808 285.167 160.062 285.42C160.315 285.673 160.762 285.8 161.402 285.8H162.682V287H161.182C160.195 287 159.462 286.773 158.982 286.32C158.502 285.853 158.262 285.093 158.262 284.04V277.26H156.742V276.08H158.262V273.34H159.682V276.08H162.682V277.26H159.682ZM169.771 287.16C168.744 287.16 167.817 286.933 166.991 286.48C166.177 286.013 165.531 285.36 165.051 284.52C164.584 283.667 164.351 282.673 164.351 281.54C164.351 280.407 164.591 279.42 165.071 278.58C165.551 277.727 166.204 277.073 167.031 276.62C167.857 276.153 168.784 275.92 169.811 275.92C170.837 275.92 171.764 276.153 172.591 276.62C173.431 277.073 174.084 277.727 174.551 278.58C175.031 279.42 175.271 280.407 175.271 281.54C175.271 282.66 175.031 283.647 174.551 284.5C174.071 285.353 173.411 286.013 172.571 286.48C171.731 286.933 170.797 287.16 169.771 287.16ZM169.771 285.94C170.491 285.94 171.157 285.78 171.771 285.46C172.384 285.127 172.877 284.633 173.251 283.98C173.637 283.313 173.831 282.5 173.831 281.54C173.831 280.58 173.644 279.773 173.271 279.12C172.897 278.453 172.404 277.96 171.791 277.64C171.177 277.307 170.511 277.14 169.791 277.14C169.071 277.14 168.404 277.307 167.791 277.64C167.177 277.96 166.684 278.453 166.311 279.12C165.951 279.773 165.771 280.58 165.771 281.54C165.771 282.5 165.951 283.313 166.311 283.98C166.684 284.633 167.171 285.127 167.771 285.46C168.384 285.78 169.051 285.94 169.771 285.94ZM191.491 273.02V274.18H187.611V287H186.211V274.18H182.311V273.02H191.491ZM199.982 287.14C198.688 287.14 197.515 286.84 196.462 286.24C195.408 285.627 194.575 284.78 193.962 283.7C193.362 282.607 193.062 281.373 193.062 280C193.062 278.627 193.362 277.4 193.962 276.32C194.575 275.227 195.408 274.38 196.462 273.78C197.515 273.167 198.688 272.86 199.982 272.86C201.288 272.86 202.468 273.167 203.522 273.78C204.575 274.38 205.402 275.227 206.002 276.32C206.602 277.4 206.902 278.627 206.902 280C206.902 281.373 206.602 282.607 206.002 283.7C205.402 284.78 204.575 285.627 203.522 286.24C202.468 286.84 201.288 287.14 199.982 287.14ZM199.982 285.92C201.022 285.92 201.955 285.68 202.782 285.2C203.608 284.72 204.262 284.033 204.742 283.14C205.222 282.233 205.462 281.187 205.462 280C205.462 278.813 205.222 277.773 204.742 276.88C204.262 275.987 203.608 275.3 202.782 274.82C201.955 274.34 201.022 274.1 199.982 274.1C198.942 274.1 198.008 274.34 197.182 274.82C196.355 275.3 195.702 275.987 195.222 276.88C194.742 277.773 194.502 278.813 194.502 280C194.502 281.187 194.742 282.233 195.222 283.14C195.702 284.033 196.355 284.72 197.182 285.2C198.008 285.68 198.942 285.92 199.982 285.92ZM220.003 287H218.603L210.863 275.24V287H209.463V273.02H210.863L218.603 284.76V273.02H220.003V287ZM228.023 281.52C228.023 280.4 228.243 279.42 228.683 278.58C229.136 277.727 229.756 277.073 230.543 276.62C231.343 276.153 232.243 275.92 233.243 275.92C234.283 275.92 235.176 276.16 235.923 276.64C236.683 277.12 237.229 277.733 237.563 278.48V276.08H238.963V287H237.563V284.58C237.216 285.327 236.663 285.947 235.903 286.44C235.156 286.92 234.263 287.16 233.223 287.16C232.236 287.16 231.343 286.927 230.543 286.46C229.756 285.993 229.136 285.333 228.683 284.48C228.243 283.627 228.023 282.64 228.023 281.52ZM237.563 281.54C237.563 280.66 237.383 279.887 237.023 279.22C236.663 278.553 236.169 278.04 235.543 277.68C234.929 277.32 234.249 277.14 233.503 277.14C232.729 277.14 232.036 277.313 231.423 277.66C230.809 278.007 230.323 278.513 229.963 279.18C229.616 279.833 229.443 280.613 229.443 281.52C229.443 282.413 229.616 283.2 229.963 283.88C230.323 284.547 230.809 285.06 231.423 285.42C232.036 285.767 232.729 285.94 233.503 285.94C234.249 285.94 234.929 285.76 235.543 285.4C236.169 285.04 236.663 284.527 237.023 283.86C237.383 283.193 237.563 282.42 237.563 281.54ZM247.279 275.88C248.585 275.88 249.652 276.287 250.479 277.1C251.305 277.9 251.719 279.067 251.719 280.6V287H250.339V280.76C250.339 279.573 250.039 278.667 249.439 278.04C248.852 277.413 248.045 277.1 247.019 277.1C245.965 277.1 245.125 277.433 244.499 278.1C243.872 278.767 243.559 279.747 243.559 281.04V287H242.159V276.08H243.559V277.94C243.905 277.273 244.405 276.767 245.059 276.42C245.712 276.06 246.452 275.88 247.279 275.88ZM254.175 281.52C254.175 280.4 254.402 279.42 254.855 278.58C255.308 277.727 255.928 277.073 256.715 276.62C257.515 276.153 258.415 275.92 259.415 275.92C260.375 275.92 261.242 276.153 262.015 276.62C262.788 277.087 263.355 277.693 263.715 278.44V272.2H265.115V287H263.715V284.56C263.382 285.32 262.835 285.947 262.075 286.44C261.315 286.92 260.422 287.16 259.395 287.16C258.395 287.16 257.495 286.927 256.695 286.46C255.908 285.993 255.288 285.333 254.835 284.48C254.395 283.627 254.175 282.64 254.175 281.52ZM263.715 281.54C263.715 280.66 263.535 279.887 263.175 279.22C262.815 278.553 262.322 278.04 261.695 277.68C261.082 277.32 260.402 277.14 259.655 277.14C258.882 277.14 258.188 277.313 257.575 277.66C256.962 278.007 256.475 278.513 256.115 279.18C255.768 279.833 255.595 280.613 255.595 281.52C255.595 282.413 255.768 283.2 256.115 283.88C256.475 284.547 256.962 285.06 257.575 285.42C258.188 285.767 258.882 285.94 259.655 285.94C260.402 285.94 261.082 285.76 261.695 285.4C262.322 285.04 262.815 284.527 263.175 283.86C263.535 283.193 263.715 282.42 263.715 281.54ZM278.579 287.16C277.553 287.16 276.626 286.933 275.799 286.48C274.986 286.013 274.339 285.36 273.859 284.52C273.393 283.667 273.159 282.673 273.159 281.54C273.159 280.407 273.399 279.42 273.879 278.58C274.359 277.727 275.013 277.073 275.839 276.62C276.666 276.153 277.593 275.92 278.619 275.92C279.646 275.92 280.573 276.153 281.399 276.62C282.239 277.073 282.893 277.727 283.359 278.58C283.839 279.42 284.079 280.407 284.079 281.54C284.079 282.66 283.839 283.647 283.359 284.5C282.879 285.353 282.219 286.013 281.379 286.48C280.539 286.933 279.606 287.16 278.579 287.16ZM278.579 285.94C279.299 285.94 279.966 285.78 280.579 285.46C281.193 285.127 281.686 284.633 282.059 283.98C282.446 283.313 282.639 282.5 282.639 281.54C282.639 280.58 282.453 279.773 282.079 279.12C281.706 278.453 281.213 277.96 280.599 277.64C279.986 277.307 279.319 277.14 278.599 277.14C277.879 277.14 277.213 277.307 276.599 277.64C275.986 277.96 275.493 278.453 275.119 279.12C274.759 279.773 274.579 280.58 274.579 281.54C274.579 282.5 274.759 283.313 275.119 283.98C275.493 284.633 275.979 285.127 276.579 285.46C277.193 285.78 277.859 285.94 278.579 285.94ZM288.451 277.26V284.04C288.451 284.707 288.578 285.167 288.831 285.42C289.085 285.673 289.531 285.8 290.171 285.8H291.451V287H289.951C288.965 287 288.231 286.773 287.751 286.32C287.271 285.853 287.031 285.093 287.031 284.04V277.26H285.511V276.08H287.031V273.34H288.451V276.08H291.451V277.26H288.451ZM298.96 275.88C299.787 275.88 300.527 276.053 301.18 276.4C301.847 276.747 302.367 277.28 302.74 278C303.127 278.707 303.32 279.573 303.32 280.6V287H301.94V280.76C301.94 279.573 301.64 278.667 301.04 278.04C300.453 277.413 299.647 277.1 298.62 277.1C297.567 277.1 296.727 277.433 296.1 278.1C295.473 278.767 295.16 279.747 295.16 281.04V287H293.76V272.2H295.16V277.94C295.507 277.287 296.013 276.78 296.68 276.42C297.36 276.06 298.12 275.88 298.96 275.88ZM316.296 280.98C316.296 281.46 316.283 281.827 316.256 282.08H307.196C307.236 282.907 307.436 283.613 307.796 284.2C308.156 284.787 308.63 285.233 309.216 285.54C309.803 285.833 310.443 285.98 311.136 285.98C312.043 285.98 312.803 285.76 313.416 285.32C314.043 284.88 314.456 284.287 314.656 283.54H316.136C315.87 284.607 315.296 285.48 314.416 286.16C313.55 286.827 312.456 287.16 311.136 287.16C310.11 287.16 309.19 286.933 308.376 286.48C307.563 286.013 306.923 285.36 306.456 284.52C306.003 283.667 305.776 282.673 305.776 281.54C305.776 280.407 306.003 279.413 306.456 278.56C306.91 277.707 307.543 277.053 308.356 276.6C309.17 276.147 310.096 275.92 311.136 275.92C312.176 275.92 313.083 276.147 313.856 276.6C314.643 277.053 315.243 277.667 315.656 278.44C316.083 279.2 316.296 280.047 316.296 280.98ZM314.876 280.94C314.89 280.127 314.723 279.433 314.376 278.86C314.043 278.287 313.583 277.853 312.996 277.56C312.41 277.267 311.77 277.12 311.076 277.12C310.036 277.12 309.15 277.453 308.416 278.12C307.683 278.787 307.276 279.727 307.196 280.94H314.876ZM320.258 278.02C320.564 277.34 321.031 276.813 321.658 276.44C322.298 276.067 323.078 275.88 323.998 275.88V277.34H323.618C322.604 277.34 321.791 277.613 321.178 278.16C320.564 278.707 320.258 279.62 320.258 280.9V287H318.858V276.08H320.258V278.02ZM41.42 306.26V313.04C41.42 313.707 41.5467 314.167 41.8 314.42C42.0533 314.673 42.5 314.8 43.14 314.8H44.42V316H42.92C41.9333 316 41.2 315.773 40.72 315.32C40.24 314.853 40 314.093 40 313.04V306.26H38.48V305.08H40V302.34H41.42V305.08H44.42V306.26H41.42ZM51.5089 316.16C50.4822 316.16 49.5556 315.933 48.7289 315.48C47.9156 315.013 47.2689 314.36 46.7889 313.52C46.3222 312.667 46.0889 311.673 46.0889 310.54C46.0889 309.407 46.3289 308.42 46.8089 307.58C47.2889 306.727 47.9422 306.073 48.7689 305.62C49.5956 305.153 50.5222 304.92 51.5489 304.92C52.5756 304.92 53.5022 305.153 54.3289 305.62C55.1689 306.073 55.8222 306.727 56.2889 307.58C56.7689 308.42 57.0089 309.407 57.0089 310.54C57.0089 311.66 56.7689 312.647 56.2889 313.5C55.8089 314.353 55.1489 315.013 54.3089 315.48C53.4689 315.933 52.5356 316.16 51.5089 316.16ZM51.5089 314.94C52.2289 314.94 52.8956 314.78 53.5089 314.46C54.1222 314.127 54.6156 313.633 54.9889 312.98C55.3756 312.313 55.5689 311.5 55.5689 310.54C55.5689 309.58 55.3822 308.773 55.0089 308.12C54.6356 307.453 54.1422 306.96 53.5289 306.64C52.9156 306.307 52.2489 306.14 51.5289 306.14C50.8089 306.14 50.1422 306.307 49.5289 306.64C48.9156 306.96 48.4222 307.453 48.0489 308.12C47.6889 308.773 47.5089 309.58 47.5089 310.54C47.5089 311.5 47.6889 312.313 48.0489 312.98C48.4222 313.633 48.9089 314.127 49.5089 314.46C50.1222 314.78 50.7889 314.94 51.5089 314.94ZM65.4609 316L60.9609 311.1V316H59.5609V301.2H60.9609V309.96L65.3609 305.08H67.3209L62.1409 310.52L67.3609 316H65.4609ZM79.0503 309.98C79.0503 310.46 79.037 310.827 79.0103 311.08H69.9503C69.9903 311.907 70.1903 312.613 70.5503 313.2C70.9103 313.787 71.3836 314.233 71.9703 314.54C72.557 314.833 73.197 314.98 73.8903 314.98C74.797 314.98 75.557 314.76 76.1703 314.32C76.797 313.88 77.2103 313.287 77.4103 312.54H78.8903C78.6236 313.607 78.0503 314.48 77.1703 315.16C76.3036 315.827 75.2103 316.16 73.8903 316.16C72.8636 316.16 71.9436 315.933 71.1303 315.48C70.317 315.013 69.677 314.36 69.2103 313.52C68.757 312.667 68.5303 311.673 68.5303 310.54C68.5303 309.407 68.757 308.413 69.2103 307.56C69.6636 306.707 70.297 306.053 71.1103 305.6C71.9236 305.147 72.8503 304.92 73.8903 304.92C74.9303 304.92 75.837 305.147 76.6103 305.6C77.397 306.053 77.997 306.667 78.4103 307.44C78.837 308.2 79.0503 309.047 79.0503 309.98ZM77.6303 309.94C77.6436 309.127 77.477 308.433 77.1303 307.86C76.797 307.287 76.337 306.853 75.7503 306.56C75.1636 306.267 74.5236 306.12 73.8303 306.12C72.7903 306.12 71.9036 306.453 71.1703 307.12C70.437 307.787 70.0303 308.727 69.9503 309.94H77.6303ZM86.7317 304.88C88.0384 304.88 89.1051 305.287 89.9317 306.1C90.7584 306.9 91.1717 308.067 91.1717 309.6V316H89.7917V309.76C89.7917 308.573 89.4917 307.667 88.8917 307.04C88.3051 306.413 87.4984 306.1 86.4717 306.1C85.4184 306.1 84.5784 306.433 83.9517 307.1C83.3251 307.767 83.0117 308.747 83.0117 310.04V316H81.6117V305.08H83.0117V306.94C83.3584 306.273 83.8584 305.767 84.5117 305.42C85.1651 305.06 85.9051 304.88 86.7317 304.88ZM98.028 316.16C96.7746 316.16 95.748 315.873 94.948 315.3C94.1613 314.713 93.7213 313.92 93.628 312.92H95.068C95.1346 313.533 95.4213 314.033 95.928 314.42C96.448 314.793 97.1413 314.98 98.008 314.98C98.768 314.98 99.3613 314.8 99.788 314.44C100.228 314.08 100.448 313.633 100.448 313.1C100.448 312.727 100.328 312.42 100.088 312.18C99.848 311.94 99.5413 311.753 99.168 311.62C98.808 311.473 98.3146 311.32 97.688 311.16C96.8746 310.947 96.2146 310.733 95.708 310.52C95.2013 310.307 94.768 309.993 94.408 309.58C94.0613 309.153 93.888 308.587 93.888 307.88C93.888 307.347 94.048 306.853 94.368 306.4C94.688 305.947 95.1413 305.587 95.728 305.32C96.3146 305.053 96.9813 304.92 97.728 304.92C98.9013 304.92 99.848 305.22 100.568 305.82C101.288 306.407 101.675 307.22 101.728 308.26H100.328C100.288 307.62 100.035 307.107 99.568 306.72C99.1146 306.32 98.488 306.12 97.688 306.12C96.9813 306.12 96.408 306.287 95.968 306.62C95.528 306.953 95.308 307.367 95.308 307.86C95.308 308.287 95.4346 308.64 95.688 308.92C95.9546 309.187 96.2813 309.4 96.668 309.56C97.0546 309.707 97.5746 309.873 98.228 310.06C99.0146 310.273 99.6413 310.48 100.108 310.68C100.575 310.88 100.975 311.173 101.308 311.56C101.641 311.947 101.815 312.46 101.828 313.1C101.828 313.687 101.668 314.213 101.348 314.68C101.028 315.133 100.581 315.493 100.008 315.76C99.4346 316.027 98.7746 316.16 98.028 316.16ZM111.352 307.02C111.658 306.34 112.125 305.813 112.752 305.44C113.392 305.067 114.172 304.88 115.092 304.88V306.34H114.712C113.698 306.34 112.885 306.613 112.272 307.16C111.658 307.707 111.352 308.62 111.352 309.9V316H109.952V305.08H111.352V307.02ZM117.898 303.02C117.618 303.02 117.378 302.92 117.178 302.72C116.978 302.52 116.878 302.273 116.878 301.98C116.878 301.687 116.978 301.447 117.178 301.26C117.378 301.06 117.618 300.96 117.898 300.96C118.178 300.96 118.418 301.06 118.618 301.26C118.818 301.447 118.918 301.687 118.918 301.98C118.918 302.273 118.818 302.52 118.618 302.72C118.418 302.92 118.178 303.02 117.898 303.02ZM118.598 305.08V316H117.198V305.08H118.598ZM126.348 304.92C127.375 304.92 128.268 305.16 129.028 305.64C129.788 306.12 130.335 306.727 130.668 307.46V305.08H132.068V316.28C132.068 317.28 131.848 318.167 131.408 318.94C130.981 319.713 130.381 320.307 129.608 320.72C128.835 321.147 127.955 321.36 126.968 321.36C125.568 321.36 124.401 321.027 123.468 320.36C122.548 319.693 121.975 318.787 121.748 317.64H123.128C123.368 318.4 123.821 319.007 124.488 319.46C125.168 319.913 125.995 320.14 126.968 320.14C127.675 320.14 128.308 319.987 128.868 319.68C129.428 319.387 129.868 318.947 130.188 318.36C130.508 317.773 130.668 317.08 130.668 316.28V313.58C130.321 314.327 129.768 314.947 129.008 315.44C128.261 315.92 127.375 316.16 126.348 316.16C125.348 316.16 124.448 315.927 123.648 315.46C122.861 314.993 122.241 314.333 121.788 313.48C121.348 312.627 121.128 311.64 121.128 310.52C121.128 309.4 121.348 308.42 121.788 307.58C122.241 306.727 122.861 306.073 123.648 305.62C124.448 305.153 125.348 304.92 126.348 304.92ZM130.668 310.54C130.668 309.66 130.488 308.887 130.128 308.22C129.768 307.553 129.275 307.04 128.648 306.68C128.035 306.32 127.355 306.14 126.608 306.14C125.835 306.14 125.141 306.313 124.528 306.66C123.915 307.007 123.428 307.513 123.068 308.18C122.721 308.833 122.548 309.613 122.548 310.52C122.548 311.413 122.721 312.2 123.068 312.88C123.428 313.547 123.915 314.06 124.528 314.42C125.141 314.767 125.835 314.94 126.608 314.94C127.355 314.94 128.035 314.76 128.648 314.4C129.275 314.04 129.768 313.527 130.128 312.86C130.488 312.193 130.668 311.42 130.668 310.54ZM140.464 304.88C141.291 304.88 142.031 305.053 142.684 305.4C143.351 305.747 143.871 306.28 144.244 307C144.631 307.707 144.824 308.573 144.824 309.6V316H143.444V309.76C143.444 308.573 143.144 307.667 142.544 307.04C141.957 306.413 141.151 306.1 140.124 306.1C139.071 306.1 138.231 306.433 137.604 307.1C136.977 307.767 136.664 308.747 136.664 310.04V316H135.264V301.2H136.664V306.94C137.011 306.287 137.517 305.78 138.184 305.42C138.864 305.06 139.624 304.88 140.464 304.88ZM149.74 306.26V313.04C149.74 313.707 149.867 314.167 150.12 314.42C150.374 314.673 150.82 314.8 151.46 314.8H152.74V316H151.24C150.254 316 149.52 315.773 149.04 315.32C148.56 314.853 148.32 314.093 148.32 313.04V306.26H146.8V305.08H148.32V302.34H149.74V305.08H152.74V306.26H149.74ZM165.318 316.16C164.291 316.16 163.364 315.933 162.538 315.48C161.724 315.013 161.078 314.36 160.598 313.52C160.131 312.667 159.898 311.673 159.898 310.54C159.898 309.407 160.138 308.42 160.618 307.58C161.098 306.727 161.751 306.073 162.578 305.62C163.404 305.153 164.331 304.92 165.358 304.92C166.384 304.92 167.311 305.153 168.138 305.62C168.978 306.073 169.631 306.727 170.098 307.58C170.578 308.42 170.818 309.407 170.818 310.54C170.818 311.66 170.578 312.647 170.098 313.5C169.618 314.353 168.958 315.013 168.118 315.48C167.278 315.933 166.344 316.16 165.318 316.16ZM165.318 314.94C166.038 314.94 166.704 314.78 167.318 314.46C167.931 314.127 168.424 313.633 168.798 312.98C169.184 312.313 169.378 311.5 169.378 310.54C169.378 309.58 169.191 308.773 168.818 308.12C168.444 307.453 167.951 306.96 167.338 306.64C166.724 306.307 166.058 306.14 165.338 306.14C164.618 306.14 163.951 306.307 163.338 306.64C162.724 306.96 162.231 307.453 161.858 308.12C161.498 308.773 161.318 309.58 161.318 310.54C161.318 311.5 161.498 312.313 161.858 312.98C162.231 313.633 162.718 314.127 163.318 314.46C163.931 314.78 164.598 314.94 165.318 314.94ZM178.49 304.88C179.796 304.88 180.863 305.287 181.69 306.1C182.516 306.9 182.93 308.067 182.93 309.6V316H181.55V309.76C181.55 308.573 181.25 307.667 180.65 307.04C180.063 306.413 179.256 306.1 178.23 306.1C177.176 306.1 176.336 306.433 175.71 307.1C175.083 307.767 174.77 308.747 174.77 310.04V316H173.37V305.08H174.77V306.94C175.116 306.273 175.616 305.767 176.27 305.42C176.923 305.06 177.663 304.88 178.49 304.88ZM193.334 306.26V313.04C193.334 313.707 193.461 314.167 193.714 314.42C193.967 314.673 194.414 314.8 195.054 314.8H196.334V316H194.834C193.847 316 193.114 315.773 192.634 315.32C192.154 314.853 191.914 314.093 191.914 313.04V306.26H190.394V305.08H191.914V302.34H193.334V305.08H196.334V306.26H193.334ZM203.843 304.88C204.67 304.88 205.41 305.053 206.063 305.4C206.73 305.747 207.25 306.28 207.623 307C208.01 307.707 208.203 308.573 208.203 309.6V316H206.823V309.76C206.823 308.573 206.523 307.667 205.923 307.04C205.336 306.413 204.53 306.1 203.503 306.1C202.45 306.1 201.61 306.433 200.983 307.1C200.356 307.767 200.043 308.747 200.043 310.04V316H198.643V301.2H200.043V306.94C200.39 306.287 200.896 305.78 201.563 305.42C202.243 305.06 203.003 304.88 203.843 304.88ZM221.179 309.98C221.179 310.46 221.166 310.827 221.139 311.08H212.079C212.119 311.907 212.319 312.613 212.679 313.2C213.039 313.787 213.513 314.233 214.099 314.54C214.686 314.833 215.326 314.98 216.019 314.98C216.926 314.98 217.686 314.76 218.299 314.32C218.926 313.88 219.339 313.287 219.539 312.54H221.019C220.753 313.607 220.179 314.48 219.299 315.16C218.433 315.827 217.339 316.16 216.019 316.16C214.993 316.16 214.073 315.933 213.259 315.48C212.446 315.013 211.806 314.36 211.339 313.52C210.886 312.667 210.659 311.673 210.659 310.54C210.659 309.407 210.886 308.413 211.339 307.56C211.793 306.707 212.426 306.053 213.239 305.6C214.053 305.147 214.979 304.92 216.019 304.92C217.059 304.92 217.966 305.147 218.739 305.6C219.526 306.053 220.126 306.667 220.539 307.44C220.966 308.2 221.179 309.047 221.179 309.98ZM219.759 309.94C219.773 309.127 219.606 308.433 219.259 307.86C218.926 307.287 218.466 306.853 217.879 306.56C217.293 306.267 216.653 306.12 215.959 306.12C214.919 306.12 214.033 306.453 213.299 307.12C212.566 307.787 212.159 308.727 212.079 309.94H219.759ZM230.609 307.5C230.969 306.74 231.522 306.12 232.269 305.64C233.029 305.16 233.922 304.92 234.949 304.92C235.949 304.92 236.842 305.153 237.629 305.62C238.416 306.073 239.029 306.727 239.469 307.58C239.922 308.42 240.149 309.4 240.149 310.52C240.149 311.64 239.922 312.627 239.469 313.48C239.029 314.333 238.409 314.993 237.609 315.46C236.822 315.927 235.936 316.16 234.949 316.16C233.909 316.16 233.009 315.927 232.249 315.46C231.502 314.98 230.956 314.36 230.609 313.6V316H229.229V301.2H230.609V307.5ZM238.729 310.52C238.729 309.613 238.549 308.833 238.189 308.18C237.842 307.513 237.362 307.007 236.749 306.66C236.136 306.313 235.442 306.14 234.669 306.14C233.922 306.14 233.236 306.32 232.609 306.68C231.996 307.04 231.509 307.553 231.149 308.22C230.789 308.887 230.609 309.66 230.609 310.54C230.609 311.42 230.789 312.193 231.149 312.86C231.509 313.527 231.996 314.04 232.609 314.4C233.236 314.76 233.922 314.94 234.669 314.94C235.442 314.94 236.136 314.767 236.749 314.42C237.362 314.06 237.842 313.547 238.189 312.88C238.549 312.2 238.729 311.413 238.729 310.52ZM247.505 316.16C246.478 316.16 245.552 315.933 244.725 315.48C243.912 315.013 243.265 314.36 242.785 313.52C242.318 312.667 242.085 311.673 242.085 310.54C242.085 309.407 242.325 308.42 242.805 307.58C243.285 306.727 243.938 306.073 244.765 305.62C245.592 305.153 246.518 304.92 247.545 304.92C248.572 304.92 249.498 305.153 250.325 305.62C251.165 306.073 251.818 306.727 252.285 307.58C252.765 308.42 253.005 309.407 253.005 310.54C253.005 311.66 252.765 312.647 252.285 313.5C251.805 314.353 251.145 315.013 250.305 315.48C249.465 315.933 248.532 316.16 247.505 316.16ZM247.505 314.94C248.225 314.94 248.892 314.78 249.505 314.46C250.118 314.127 250.612 313.633 250.985 312.98C251.372 312.313 251.565 311.5 251.565 310.54C251.565 309.58 251.378 308.773 251.005 308.12C250.632 307.453 250.138 306.96 249.525 306.64C248.912 306.307 248.245 306.14 247.525 306.14C246.805 306.14 246.138 306.307 245.525 306.64C244.912 306.96 244.418 307.453 244.045 308.12C243.685 308.773 243.505 309.58 243.505 310.54C243.505 311.5 243.685 312.313 244.045 312.98C244.418 313.633 244.905 314.127 245.505 314.46C246.118 314.78 246.785 314.94 247.505 314.94ZM257.377 306.26V313.04C257.377 313.707 257.504 314.167 257.757 314.42C258.01 314.673 258.457 314.8 259.097 314.8H260.377V316H258.877C257.89 316 257.157 315.773 256.677 315.32C256.197 314.853 255.957 314.093 255.957 313.04V306.26H254.437V305.08H255.957V302.34H257.377V305.08H260.377V306.26H257.377Z" fill="white" fill-opacity="0.6"/>
<circle cx="75" cy="112" r="37" fill="#8055FF"/>
<mask id="mask0_1181_8914" style="mask-type:alpha" maskUnits="userSpaceOnUse" x="38" y="75" width="74" height="74">
<circle cx="75" cy="112" r="37" fill="#D9D9D9"/>
</mask>
<g mask="url(#mask0_1181_8914)">
<path d="M55.8267 113.994C56.3775 104.519 61.232 90.9011 78.0257 87L79 93.0016C73.6311 94.1533 63.2052 100.299 62.5471 115.727L70.7934 110.952L73.6953 115.963L56.1565 126.119L46 108.58L51.0111 105.679L55.8267 113.994Z" fill="white"/>
<path d="M94.1733 110.125C93.6225 119.6 88.768 133.218 71.9743 137.119L71 131.118C76.3689 129.966 86.7948 123.82 87.4529 108.392L79.2066 113.168L76.3047 108.157L93.8435 98L104 115.539L98.9889 118.441L94.1733 110.125Z" fill="white"/>
</g>
<g filter="url(#filter0_df_1181_8914)">
<mask id="path-9-inside-1_1181_8914" fill="white">
<path fill-rule="evenodd" clip-rule="evenodd" d="M286.273 181.661C286.366 182.232 286.936 182.603 287.499 182.466C332.227 171.578 346.506 136.053 348.963 109.704C349.055 108.717 350.387 108.413 350.885 109.272L362.33 129.036C362.606 129.514 363.218 129.677 363.696 129.4L376.135 122.197C376.613 121.92 376.776 121.309 376.499 120.831L348.783 72.969C348.506 72.4911 347.894 72.328 347.416 72.6048L299.555 100.321C299.077 100.598 298.914 101.21 299.19 101.687L306.393 114.126C306.67 114.604 307.282 114.767 307.76 114.49L328.634 102.402C329.317 102.007 330.165 102.539 330.116 103.327C327.57 144.754 299.802 161.847 284.606 165.537C284.088 165.663 283.757 166.159 283.842 166.685L286.273 181.661ZM303.727 42.0558C303.634 41.4845 303.064 41.1138 302.501 41.2507C257.773 52.1388 243.494 87.6636 241.037 114.012C240.945 115 239.613 115.303 239.115 114.445L227.67 94.6806C227.394 94.2027 226.782 94.0396 226.304 94.3164L213.865 101.519C213.387 101.796 213.224 102.408 213.501 102.886L241.217 150.748C241.494 151.225 242.106 151.389 242.584 151.112L290.445 123.396C290.923 123.119 291.086 122.507 290.81 122.029L283.607 109.591C283.33 109.113 282.718 108.95 282.24 109.226L261.366 121.314C260.683 121.71 259.835 121.177 259.884 120.389C262.43 78.9623 290.198 61.8692 305.394 58.1796C305.912 58.0539 306.243 57.5573 306.158 57.0315L303.727 42.0558Z"/>
</mask>
<path d="M305.394 58.1796L305.158 57.2078L305.394 58.1796ZM306.158 57.0315L307.145 56.8712L306.158 57.0315ZM261.366 121.314L261.867 122.18L261.366 121.314ZM259.884 120.389L258.886 120.328L259.884 120.389ZM283.607 109.591L282.741 110.092L283.607 109.591ZM282.24 109.226L281.739 108.361L282.24 109.226ZM290.445 123.396L290.947 124.261L290.445 123.396ZM290.81 122.029L289.944 122.53L290.81 122.029ZM241.217 150.748L242.083 150.246L241.217 150.748ZM242.584 151.112L243.085 151.977L242.584 151.112ZM213.865 101.519L213.364 100.654L213.865 101.519ZM213.501 102.886L212.636 103.387L213.501 102.886ZM227.67 94.6806L228.536 94.1795L227.67 94.6806ZM226.304 94.3164L225.803 93.451L226.304 94.3164ZM302.501 41.2507L302.738 42.2223L302.501 41.2507ZM303.727 42.0558L302.74 42.216L303.727 42.0558ZM241.037 114.012L240.041 113.919L241.037 114.012ZM239.115 114.445L239.981 113.943L239.115 114.445ZM284.606 165.537L284.37 164.565L284.606 165.537ZM283.842 166.685L282.855 166.845L283.842 166.685ZM328.634 102.402L329.135 103.268L328.634 102.402ZM330.116 103.327L329.118 103.266L330.116 103.327ZM306.393 114.126L305.528 114.627L306.393 114.126ZM307.76 114.49L308.261 115.356L307.76 114.49ZM299.555 100.321L300.056 101.186L299.555 100.321ZM299.19 101.687L300.056 101.186L299.19 101.687ZM348.783 72.969L347.917 73.4702L348.783 72.969ZM347.416 72.6048L346.915 71.7394L347.416 72.6048ZM376.135 122.197L375.634 121.332L376.135 122.197ZM376.499 120.831L375.634 121.332L376.499 120.831ZM363.696 129.4L364.197 130.266L363.696 129.4ZM287.499 182.466L287.735 183.438L287.499 182.466ZM286.273 181.661L285.286 181.821L286.273 181.661ZM350.885 109.272L350.019 109.773L350.885 109.272ZM347.967 109.611C345.534 135.713 331.426 170.744 287.262 181.494L287.735 183.438C333.029 172.412 347.479 136.393 349.959 109.797L347.967 109.611ZM363.195 128.535L351.75 108.771L350.019 109.773L361.464 129.537L363.195 128.535ZM375.634 121.332L363.195 128.535L364.197 130.266L376.636 123.063L375.634 121.332ZM347.917 73.4702L375.634 121.332L377.364 120.33L349.648 72.4679L347.917 73.4702ZM300.056 101.186L347.917 73.4702L346.915 71.7394L299.053 99.4556L300.056 101.186ZM307.259 113.625L300.056 101.186L298.325 102.189L305.528 114.627L307.259 113.625ZM328.133 101.537L307.259 113.625L308.261 115.356L329.135 103.268L328.133 101.537ZM284.842 166.509C300.382 162.735 328.537 145.332 331.114 103.389L329.118 103.266C326.604 144.177 299.221 160.959 284.37 164.565L284.842 166.509ZM287.26 181.501L284.829 166.525L282.855 166.845L285.286 181.821L287.26 181.501ZM242.033 114.105C244.466 88.0032 258.574 52.9729 302.738 42.2223L302.265 40.279C256.971 51.3048 242.521 87.324 240.041 113.919L242.033 114.105ZM226.805 95.1817L238.25 114.946L239.981 113.943L228.536 94.1795L226.805 95.1817ZM214.367 102.385L226.805 95.1817L225.803 93.451L213.364 100.654L214.367 102.385ZM242.083 150.246L214.367 102.385L212.636 103.387L240.352 151.249L242.083 150.246ZM289.944 122.53L242.083 150.246L243.085 151.977L290.947 124.261L289.944 122.53ZM282.741 110.092L289.944 122.53L291.675 121.528L284.472 109.089L282.741 110.092ZM261.867 122.18L282.741 110.092L281.739 108.361L260.865 120.449L261.867 122.18ZM305.158 57.2078C289.618 60.9812 261.463 78.385 258.886 120.328L260.882 120.451C263.396 79.5397 290.779 62.7572 305.63 59.1514L305.158 57.2078ZM302.74 42.216L305.171 57.1917L307.145 56.8712L304.714 41.8956L302.74 42.216ZM305.63 59.1514C306.653 58.9031 307.315 57.9153 307.145 56.8712L305.171 57.1917C305.172 57.1967 305.171 57.1985 305.171 57.1987C305.171 57.1993 305.171 57.2003 305.17 57.2015C305.169 57.2027 305.168 57.2037 305.167 57.2045C305.166 57.205 305.164 57.2065 305.158 57.2078L305.63 59.1514ZM260.865 120.449C260.861 120.451 260.861 120.45 260.865 120.449C260.869 120.448 260.874 120.448 260.877 120.448C260.884 120.448 260.885 120.45 260.881 120.448C260.88 120.447 260.879 120.446 260.878 120.446C260.878 120.445 260.878 120.446 260.879 120.447C260.88 120.449 260.881 120.452 260.882 120.454C260.882 120.457 260.882 120.456 260.882 120.451L258.886 120.328C258.789 121.897 260.481 122.983 261.867 122.18L260.865 120.449ZM284.472 109.089C283.919 108.134 282.695 107.807 281.739 108.361L282.741 110.092L284.472 109.089ZM290.947 124.261C291.902 123.707 292.229 122.484 291.675 121.528L289.944 122.53L290.947 124.261ZM240.352 151.249C240.906 152.205 242.129 152.531 243.085 151.977L242.083 150.246L240.352 151.249ZM213.364 100.654C212.408 101.208 212.082 102.431 212.636 103.387L214.367 102.385L213.364 100.654ZM228.536 94.1795C227.982 93.2236 226.759 92.8974 225.803 93.451L226.805 95.1817L228.536 94.1795ZM302.738 42.2223C302.739 42.2221 302.739 42.2222 302.738 42.2222C302.738 42.2222 302.738 42.2221 302.738 42.2222C302.738 42.2223 302.74 42.2228 302.742 42.2243C302.745 42.2258 302.745 42.2264 302.743 42.2245C302.743 42.2234 302.742 42.2218 302.741 42.2199C302.74 42.2179 302.74 42.2164 302.74 42.216L304.714 41.8956C304.526 40.7376 303.382 40.007 302.265 40.279L302.738 42.2223ZM240.041 113.919C240.04 113.933 240.038 113.937 240.039 113.934C240.039 113.933 240.04 113.932 240.04 113.931C240.041 113.931 240.041 113.931 240.041 113.93C240.041 113.93 240.041 113.93 240.041 113.93C240.041 113.931 240.03 113.94 240.008 113.945C239.985 113.95 239.974 113.946 239.977 113.947C239.98 113.948 239.983 113.95 239.987 113.953C239.99 113.956 239.987 113.955 239.981 113.943L238.25 114.946C239.249 116.671 241.853 116.035 242.033 114.105L240.041 113.919ZM284.37 164.565C283.347 164.813 282.685 165.801 282.855 166.845L284.829 166.525C284.828 166.52 284.829 166.518 284.829 166.518C284.829 166.517 284.829 166.516 284.83 166.515C284.831 166.514 284.832 166.513 284.833 166.512C284.834 166.512 284.836 166.51 284.842 166.509L284.37 164.565ZM329.135 103.268C329.139 103.265 329.139 103.266 329.135 103.267C329.131 103.268 329.126 103.268 329.123 103.268C329.116 103.268 329.115 103.266 329.119 103.269C329.12 103.27 329.121 103.27 329.122 103.271C329.122 103.271 329.122 103.271 329.121 103.269C329.12 103.267 329.119 103.265 329.118 103.262C329.118 103.26 329.118 103.261 329.118 103.266L331.114 103.389C331.211 101.819 329.519 100.734 328.133 101.537L329.135 103.268ZM305.528 114.627C306.081 115.583 307.305 115.909 308.261 115.356L307.259 113.625L305.528 114.627ZM299.053 99.4556C298.098 100.009 297.771 101.233 298.325 102.189L300.056 101.186L299.053 99.4556ZM349.648 72.4679C349.094 71.512 347.871 71.1859 346.915 71.7394L347.917 73.4702L349.648 72.4679ZM376.636 123.063C377.592 122.509 377.918 121.285 377.364 120.33L375.634 121.332H375.634L376.636 123.063ZM361.464 129.537C362.018 130.493 363.241 130.819 364.197 130.266L363.195 128.535L361.464 129.537ZM287.262 181.494C287.261 181.494 287.261 181.494 287.262 181.494C287.262 181.494 287.262 181.494 287.262 181.494C287.262 181.494 287.26 181.494 287.258 181.492C287.255 181.491 287.255 181.49 287.257 181.492C287.257 181.493 287.258 181.495 287.259 181.497C287.26 181.499 287.26 181.5 287.26 181.501L285.286 181.821C285.474 182.979 286.618 183.71 287.735 183.438L287.262 181.494ZM349.959 109.797C349.96 109.784 349.962 109.78 349.961 109.782C349.961 109.783 349.96 109.784 349.96 109.785C349.959 109.786 349.959 109.786 349.959 109.786C349.959 109.786 349.959 109.787 349.959 109.787C349.959 109.786 349.97 109.776 349.992 109.771C350.015 109.766 350.026 109.771 350.023 109.77C350.02 109.769 350.017 109.767 350.013 109.764C350.01 109.761 350.013 109.762 350.019 109.773L351.75 108.771C350.751 107.046 348.147 107.681 347.967 109.611L349.959 109.797Z" fill="url(#paint0_linear_1181_8914)" mask="url(#path-9-inside-1_1181_8914)"/>
</g>
<mask id="path-11-inside-2_1181_8914" fill="white">
<path fill-rule="evenodd" clip-rule="evenodd" d="M286.273 181.661C286.366 182.232 286.936 182.603 287.499 182.466C332.227 171.578 346.506 136.053 348.963 109.704C349.055 108.717 350.387 108.413 350.885 109.272L362.33 129.036C362.606 129.514 363.218 129.677 363.696 129.4L376.135 122.197C376.613 121.92 376.776 121.309 376.499 120.831L348.783 72.969C348.506 72.4911 347.894 72.328 347.416 72.6048L299.555 100.321C299.077 100.598 298.914 101.21 299.19 101.687L306.393 114.126C306.67 114.604 307.282 114.767 307.76 114.49L328.634 102.402C329.317 102.007 330.165 102.539 330.116 103.327C327.57 144.754 299.802 161.847 284.606 165.537C284.088 165.663 283.757 166.159 283.842 166.685L286.273 181.661ZM303.727 42.0558C303.634 41.4845 303.064 41.1138 302.501 41.2507C257.773 52.1388 243.494 87.6636 241.037 114.012C240.945 115 239.613 115.303 239.115 114.445L227.67 94.6806C227.394 94.2027 226.782 94.0396 226.304 94.3164L213.865 101.519C213.387 101.796 213.224 102.408 213.501 102.886L241.217 150.748C241.494 151.225 242.106 151.389 242.584 151.112L290.445 123.396C290.923 123.119 291.086 122.507 290.81 122.029L283.607 109.591C283.33 109.113 282.718 108.95 282.24 109.226L261.366 121.314C260.683 121.71 259.835 121.177 259.884 120.389C262.43 78.9623 290.198 61.8692 305.394 58.1796C305.912 58.0539 306.243 57.5573 306.158 57.0315L303.727 42.0558Z"/>
</mask>
<path fill-rule="evenodd" clip-rule="evenodd" d="M286.273 181.661C286.366 182.232 286.936 182.603 287.499 182.466C332.227 171.578 346.506 136.053 348.963 109.704C349.055 108.717 350.387 108.413 350.885 109.272L362.33 129.036C362.606 129.514 363.218 129.677 363.696 129.4L376.135 122.197C376.613 121.92 376.776 121.309 376.499 120.831L348.783 72.969C348.506 72.4911 347.894 72.328 347.416 72.6048L299.555 100.321C299.077 100.598 298.914 101.21 299.19 101.687L306.393 114.126C306.67 114.604 307.282 114.767 307.76 114.49L328.634 102.402C329.317 102.007 330.165 102.539 330.116 103.327C327.57 144.754 299.802 161.847 284.606 165.537C284.088 165.663 283.757 166.159 283.842 166.685L286.273 181.661ZM303.727 42.0558C303.634 41.4845 303.064 41.1138 302.501 41.2507C257.773 52.1388 243.494 87.6636 241.037 114.012C240.945 115 239.613 115.303 239.115 114.445L227.67 94.6806C227.394 94.2027 226.782 94.0396 226.304 94.3164L213.865 101.519C213.387 101.796 213.224 102.408 213.501 102.886L241.217 150.748C241.494 151.225 242.106 151.389 242.584 151.112L290.445 123.396C290.923 123.119 291.086 122.507 290.81 122.029L283.607 109.591C283.33 109.113 282.718 108.95 282.24 109.226L261.366 121.314C260.683 121.71 259.835 121.177 259.884 120.389C262.43 78.9623 290.198 61.8692 305.394 58.1796C305.912 58.0539 306.243 57.5573 306.158 57.0315L303.727 42.0558Z" fill="url(#paint1_linear_1181_8914)" fill-opacity="0.07"/>
<path d="M305.394 58.1796L305.158 57.2078L305.394 58.1796ZM306.158 57.0315L307.145 56.8712L306.158 57.0315ZM261.366 121.314L261.867 122.18L261.366 121.314ZM259.884 120.389L258.886 120.328L259.884 120.389ZM283.607 109.591L282.741 110.092L283.607 109.591ZM282.24 109.226L281.739 108.361L282.24 109.226ZM290.445 123.396L290.947 124.261L290.445 123.396ZM290.81 122.029L289.944 122.53L290.81 122.029ZM241.217 150.748L242.083 150.246L241.217 150.748ZM242.584 151.112L243.085 151.977L242.584 151.112ZM213.865 101.519L213.364 100.654L213.865 101.519ZM213.501 102.886L212.636 103.387L213.501 102.886ZM227.67 94.6806L228.536 94.1795L227.67 94.6806ZM226.304 94.3164L225.803 93.451L226.304 94.3164ZM302.501 41.2507L302.738 42.2223L302.501 41.2507ZM303.727 42.0558L302.74 42.216L303.727 42.0558ZM241.037 114.012L240.041 113.919L241.037 114.012ZM239.115 114.445L239.981 113.943L239.115 114.445ZM284.606 165.537L284.37 164.565L284.606 165.537ZM283.842 166.685L282.855 166.845L283.842 166.685ZM328.634 102.402L329.135 103.268L328.634 102.402ZM330.116 103.327L329.118 103.266L330.116 103.327ZM306.393 114.126L305.528 114.627L306.393 114.126ZM307.76 114.49L308.261 115.356L307.76 114.49ZM299.555 100.321L300.056 101.186L299.555 100.321ZM299.19 101.687L300.056 101.186L299.19 101.687ZM348.783 72.969L347.917 73.4702L348.783 72.969ZM347.416 72.6048L346.915 71.7394L347.416 72.6048ZM376.135 122.197L375.634 121.332L376.135 122.197ZM376.499 120.831L375.634 121.332L376.499 120.831ZM363.696 129.4L364.197 130.266L363.696 129.4ZM287.499 182.466L287.735 183.438L287.499 182.466ZM286.273 181.661L285.286 181.821L286.273 181.661ZM350.885 109.272L350.019 109.773L350.885 109.272ZM347.967 109.611C345.534 135.713 331.426 170.744 287.262 181.494L287.735 183.438C333.029 172.412 347.479 136.393 349.959 109.797L347.967 109.611ZM363.195 128.535L351.75 108.771L350.019 109.773L361.464 129.537L363.195 128.535ZM375.634 121.332L363.195 128.535L364.197 130.266L376.636 123.063L375.634 121.332ZM347.917 73.4702L375.634 121.332L377.364 120.33L349.648 72.4679L347.917 73.4702ZM300.056 101.186L347.917 73.4702L346.915 71.7394L299.053 99.4556L300.056 101.186ZM307.259 113.625L300.056 101.186L298.325 102.189L305.528 114.627L307.259 113.625ZM328.133 101.537L307.259 113.625L308.261 115.356L329.135 103.268L328.133 101.537ZM284.842 166.509C300.382 162.735 328.537 145.332 331.114 103.389L329.118 103.266C326.604 144.177 299.221 160.959 284.37 164.565L284.842 166.509ZM287.26 181.501L284.829 166.525L282.855 166.845L285.286 181.821L287.26 181.501ZM242.033 114.105C244.466 88.0032 258.574 52.9729 302.738 42.2223L302.265 40.279C256.971 51.3048 242.521 87.324 240.041 113.919L242.033 114.105ZM226.805 95.1817L238.25 114.946L239.981 113.943L228.536 94.1795L226.805 95.1817ZM214.367 102.385L226.805 95.1817L225.803 93.451L213.364 100.654L214.367 102.385ZM242.083 150.246L214.367 102.385L212.636 103.387L240.352 151.249L242.083 150.246ZM289.944 122.53L242.083 150.246L243.085 151.977L290.947 124.261L289.944 122.53ZM282.741 110.092L289.944 122.53L291.675 121.528L284.472 109.089L282.741 110.092ZM261.867 122.18L282.741 110.092L281.739 108.361L260.865 120.449L261.867 122.18ZM305.158 57.2078C289.618 60.9812 261.463 78.385 258.886 120.328L260.882 120.451C263.396 79.5397 290.779 62.7572 305.63 59.1514L305.158 57.2078ZM302.74 42.216L305.171 57.1917L307.145 56.8712L304.714 41.8956L302.74 42.216ZM305.63 59.1514C306.653 58.9031 307.315 57.9153 307.145 56.8712L305.171 57.1917C305.172 57.1967 305.171 57.1985 305.171 57.1987C305.171 57.1993 305.171 57.2003 305.17 57.2015C305.169 57.2027 305.168 57.2037 305.167 57.2045C305.166 57.205 305.164 57.2065 305.158 57.2078L305.63 59.1514ZM260.865 120.449C260.861 120.451 260.861 120.45 260.865 120.449C260.869 120.448 260.874 120.448 260.877 120.448C260.884 120.448 260.885 120.45 260.881 120.448C260.88 120.447 260.879 120.446 260.878 120.446C260.878 120.445 260.878 120.446 260.879 120.447C260.88 120.449 260.881 120.452 260.882 120.454C260.882 120.457 260.882 120.456 260.882 120.451L258.886 120.328C258.789 121.897 260.481 122.983 261.867 122.18L260.865 120.449ZM284.472 109.089C283.919 108.134 282.695 107.807 281.739 108.361L282.741 110.092L284.472 109.089ZM290.947 124.261C291.902 123.707 292.229 122.484 291.675 121.528L289.944 122.53L290.947 124.261ZM240.352 151.249C240.906 152.205 242.129 152.531 243.085 151.977L242.083 150.246L240.352 151.249ZM213.364 100.654C212.408 101.208 212.082 102.431 212.636 103.387L214.367 102.385L213.364 100.654ZM228.536 94.1795C227.982 93.2236 226.759 92.8974 225.803 93.451L226.805 95.1817L228.536 94.1795ZM302.738 42.2223C302.739 42.2221 302.739 42.2222 302.738 42.2222C302.738 42.2222 302.738 42.2221 302.738 42.2222C302.738 42.2223 302.74 42.2228 302.742 42.2243C302.745 42.2258 302.745 42.2264 302.743 42.2245C302.743 42.2234 302.742 42.2218 302.741 42.2199C302.74 42.2179 302.74 42.2164 302.74 42.216L304.714 41.8956C304.526 40.7376 303.382 40.007 302.265 40.279L302.738 42.2223ZM240.041 113.919C240.04 113.933 240.038 113.937 240.039 113.934C240.039 113.933 240.04 113.932 240.04 113.931C240.041 113.931 240.041 113.931 240.041 113.93C240.041 113.93 240.041 113.93 240.041 113.93C240.041 113.931 240.03 113.94 240.008 113.945C239.985 113.95 239.974 113.946 239.977 113.947C239.98 113.948 239.983 113.95 239.987 113.953C239.99 113.956 239.987 113.955 239.981 113.943L238.25 114.946C239.249 116.671 241.853 116.035 242.033 114.105L240.041 113.919ZM284.37 164.565C283.347 164.813 282.685 165.801 282.855 166.845L284.829 166.525C284.828 166.52 284.829 166.518 284.829 166.518C284.829 166.517 284.829 166.516 284.83 166.515C284.831 166.514 284.832 166.513 284.833 166.512C284.834 166.512 284.836 166.51 284.842 166.509L284.37 164.565ZM329.135 103.268C329.139 103.265 329.139 103.266 329.135 103.267C329.131 103.268 329.126 103.268 329.123 103.268C329.116 103.268 329.115 103.266 329.119 103.269C329.12 103.27 329.121 103.27 329.122 103.271C329.122 103.271 329.122 103.271 329.121 103.269C329.12 103.267 329.119 103.265 329.118 103.262C329.118 103.26 329.118 103.261 329.118 103.266L331.114 103.389C331.211 101.819 329.519 100.734 328.133 101.537L329.135 103.268ZM305.528 114.627C306.081 115.583 307.305 115.909 308.261 115.356L307.259 113.625L305.528 114.627ZM299.053 99.4556C298.098 100.009 297.771 101.233 298.325 102.189L300.056 101.186L299.053 99.4556ZM349.648 72.4679C349.094 71.512 347.871 71.1859 346.915 71.7394L347.917 73.4702L349.648 72.4679ZM376.636 123.063C377.592 122.509 377.918 121.285 377.364 120.33L375.634 121.332H375.634L376.636 123.063ZM361.464 129.537C362.018 130.493 363.241 130.819 364.197 130.266L363.195 128.535L361.464 129.537ZM287.262 181.494C287.261 181.494 287.261 181.494 287.262 181.494C287.262 181.494 287.262 181.494 287.262 181.494C287.262 181.494 287.26 181.494 287.258 181.492C287.255 181.491 287.255 181.49 287.257 181.492C287.257 181.493 287.258 181.495 287.259 181.497C287.26 181.499 287.26 181.5 287.26 181.501L285.286 181.821C285.474 182.979 286.618 183.71 287.735 183.438L287.262 181.494ZM349.959 109.797C349.96 109.784 349.962 109.78 349.961 109.782C349.961 109.783 349.96 109.784 349.96 109.785C349.959 109.786 349.959 109.786 349.959 109.786C349.959 109.786 349.959 109.787 349.959 109.787C349.959 109.786 349.97 109.776 349.992 109.771C350.015 109.766 350.026 109.771 350.023 109.77C350.02 109.769 350.017 109.767 350.013 109.764C350.01 109.761 350.013 109.762 350.019 109.773L351.75 108.771C350.751 107.046 348.147 107.681 347.967 109.611L349.959 109.797Z" fill="url(#paint2_linear_1181_8914)" mask="url(#path-11-inside-2_1181_8914)"/>
<path fill-rule="evenodd" clip-rule="evenodd" d="M286.273 181.661C286.366 182.232 286.936 182.603 287.499 182.466C332.227 171.578 346.506 136.053 348.963 109.704C349.055 108.717 350.387 108.413 350.885 109.272L362.33 129.036C362.606 129.514 363.218 129.677 363.696 129.4L376.135 122.197C376.613 121.92 376.776 121.309 376.499 120.831L348.783 72.969C348.506 72.4911 347.894 72.328 347.416 72.6048L299.555 100.321C299.077 100.598 298.914 101.21 299.19 101.687L306.393 114.126C306.67 114.604 307.282 114.767 307.76 114.49L328.634 102.402C329.317 102.007 330.165 102.539 330.116 103.327C327.57 144.754 299.802 161.847 284.606 165.537C284.088 165.663 283.757 166.159 283.842 166.685L286.273 181.661ZM303.727 42.0558C303.634 41.4845 303.064 41.1138 302.501 41.2507C257.773 52.1388 243.494 87.6636 241.037 114.012C240.945 115 239.613 115.303 239.115 114.445L227.67 94.6806C227.394 94.2027 226.782 94.0396 226.304 94.3164L213.865 101.519C213.387 101.796 213.224 102.408 213.501 102.886L241.217 150.748C241.494 151.225 242.106 151.389 242.584 151.112L290.445 123.396C290.923 123.119 291.086 122.507 290.81 122.029L283.607 109.591C283.33 109.113 282.718 108.95 282.24 109.226L261.366 121.314C260.683 121.71 259.835 121.177 259.884 120.389C262.43 78.9623 290.198 61.8692 305.394 58.1796C305.912 58.0539 306.243 57.5573 306.158 57.0315L303.727 42.0558Z" fill="url(#paint3_linear_1181_8914)" fill-opacity="0.17"/>
<path d="M85 0.5H317" stroke="url(#paint4_linear_1181_8914)" stroke-linecap="round" stroke-linejoin="round"/>
<g filter="url(#filter1_f_1181_8914)">
<path d="M295.5 -4H85C87.6667 17.5 104.5 64 192.5 64C272.149 64 294.333 19.8333 295.5 -4Z" fill="#8055FF"/>
</g>
<g filter="url(#filter2_f_1181_8914)">
<path d="M240.553 -4H139.947C141.221 6.27574 149.267 28.5 191.325 28.5C229.393 28.5 239.996 7.39093 240.553 -4Z" fill="#8055FF"/>
</g>
<g opacity="0.3">
<circle cx="183.595" cy="60.1372" r="1.94165" transform="rotate(-179.979 183.595 60.1372)" fill="white"/>
<circle cx="221.665" cy="22.8717" r="1.94165" transform="rotate(-179.979 221.665 22.8717)" fill="white"/>
<circle cx="181.28" cy="18.9734" r="1.94165" transform="rotate(-179.979 181.28 18.9734)" fill="white"/>
<circle cx="202.631" cy="37.621" r="0.77666" transform="rotate(-179.979 202.631 37.621)" fill="white"/>
<circle cx="156.812" cy="28.6728" r="0.77666" transform="rotate(-179.979 156.812 28.6728)" fill="white"/>
<circle cx="211.165" cy="62.8658" r="0.77666" transform="rotate(-179.979 211.165 62.8658)" fill="white"/>
<circle opacity="0.5" cx="166.515" cy="42.2678" r="1.16499" transform="rotate(-179.979 166.515 42.2678)" fill="white"/>
<circle opacity="0.5" cx="223.208" cy="50.8319" r="1.16499" transform="rotate(-179.979 223.208 50.8319)" fill="white"/>
<circle opacity="0.5" cx="160.291" cy="72.5552" r="1.16499" transform="rotate(-179.979 160.291 72.5552)" fill="white"/>
</g>
</g>
<rect x="0.5" y="0.5" width="402" height="390" rx="29.5" stroke="white" stroke-opacity="0.12"/>
<defs>
<filter id="filter0_df_1181_8914" x="193.366" y="21.2222" width="203.267" height="181.272" filterUnits="userSpaceOnUse" color-interpolation-filters="sRGB">
<feFlood flood-opacity="0" result="BackgroundImageFix"/>
<feColorMatrix in="SourceAlpha" type="matrix" values="0 0 0 0 0 0 0 0 0 0 0 0 0 0 0 0 0 0 127 0" result="hardAlpha"/>
<feOffset dy="14"/>
<feColorMatrix type="matrix" values="0 0 0 0 0.301961 0 0 0 0 0.364706 0 0 0 0 1 0 0 0 1 0"/>
<feBlend mode="normal" in2="BackgroundImageFix" result="effect1_dropShadow_1181_8914"/>
<feBlend mode="normal" in="SourceGraphic" in2="effect1_dropShadow_1181_8914" result="shape"/>
<feGaussianBlur stdDeviation="10" result="effect2_foregroundBlur_1181_8914"/>
</filter>
<filter id="filter1_f_1181_8914" x="-109" y="-198" width="598.5" height="456" filterUnits="userSpaceOnUse" color-interpolation-filters="sRGB">
<feFlood flood-opacity="0" result="BackgroundImageFix"/>
<feBlend mode="normal" in="SourceGraphic" in2="BackgroundImageFix" result="shape"/>
<feGaussianBlur stdDeviation="97" result="effect1_foregroundBlur_1181_8914"/>
</filter>
<filter id="filter2_f_1181_8914" x="47.2261" y="-96.7206" width="286.048" height="217.941" filterUnits="userSpaceOnUse" color-interpolation-filters="sRGB">
<feFlood flood-opacity="0" result="BackgroundImageFix"/>
<feBlend mode="normal" in="SourceGraphic" in2="BackgroundImageFix" result="shape"/>
<feGaussianBlur stdDeviation="46.3603" result="effect1_foregroundBlur_1181_8914"/>
</filter>
<linearGradient id="paint0_linear_1181_8914" x1="249.137" y1="178.666" x2="343.595" y2="29.7743" gradientUnits="userSpaceOnUse">
<stop stop-color="#8055FF" stop-opacity="0"/>
<stop offset="0.361152" stop-color="#8055FF" stop-opacity="0.03"/>
<stop offset="1" stop-color="#8055FF"/>
</linearGradient>
<linearGradient id="paint1_linear_1181_8914" x1="239.968" y1="178.666" x2="326.603" y2="34.3979" gradientUnits="userSpaceOnUse">
<stop stop-color="#8055FF" stop-opacity="0"/>
<stop offset="0.313738" stop-color="#8055FF" stop-opacity="0.18258"/>
<stop offset="1" stop-color="#8055FF"/>
</linearGradient>
<linearGradient id="paint2_linear_1181_8914" x1="237.5" y1="195" x2="341.404" y2="28.5924" gradientUnits="userSpaceOnUse">
<stop stop-color="#8055FF" stop-opacity="0"/>
<stop offset="0.301003" stop-color="#8055FF" stop-opacity="0.03"/>
<stop offset="1" stop-color="#8055FF"/>
</linearGradient>
<linearGradient id="paint3_linear_1181_8914" x1="238" y1="191.5" x2="325.021" y2="34.3506" gradientUnits="userSpaceOnUse">
<stop stop-color="#8055FF" stop-opacity="0"/>
<stop offset="0.245189" stop-color="#8055FF" stop-opacity="0.18258"/>
<stop offset="1" stop-color="#8055FF"/>
</linearGradient>
<linearGradient id="paint4_linear_1181_8914" x1="85" y1="1" x2="317" y2="1" gradientUnits="userSpaceOnUse">
<stop stop-color="#42AEFC" stop-opacity="0"/>
<stop offset="0.530373" stop-color="#42AEFC"/>
<stop offset="1" stop-color="#42AEFC" stop-opacity="0"/>
</linearGradient>
<clipPath id="clip0_1181_8914">
<rect width="403" height="391" rx="30" fill="white"/>
</clipPath>
</defs>
</svg>
