<svg width="55" height="55" viewBox="0 0 55 55" fill="none" xmlns="http://www.w3.org/2000/svg">
<circle cx="27.8842" cy="27.4999" r="26.5385" stroke="white" stroke-width="1.15385"/>
<path d="M19.2305 26.1537C18.8056 26.1537 18.4612 26.4981 18.4612 26.923C18.4612 27.3478 18.8056 27.6922 19.2305 27.6922L19.2305 26.1537ZM38.2359 27.4669C38.5363 27.1665 38.5363 26.6795 38.2359 26.379L33.3406 21.4837C33.0402 21.1833 32.5531 21.1833 32.2527 21.4837C31.9523 21.7841 31.9523 22.2711 32.2527 22.5715L36.6042 26.923L32.2527 31.2744C31.9523 31.5748 31.9523 32.0619 32.2527 32.3623C32.5531 32.6627 33.0402 32.6627 33.3406 32.3623L38.2359 27.4669ZM19.2305 27.6922L37.692 27.6922L37.692 26.1537L19.2305 26.1537L19.2305 27.6922Z" fill="white"/>
</svg>
