<svg width="55" height="55" viewBox="0 0 55 55" fill="none" xmlns="http://www.w3.org/2000/svg">
<circle cx="27.1154" cy="27.1154" r="27.1154" transform="matrix(-1 0 0 1 54.2307 0.384521)" fill="white" fill-opacity="0.06"/>
<path d="M35.7688 26.1537C36.1936 26.1537 36.538 26.4981 36.538 26.923C36.538 27.3478 36.1936 27.6922 35.7688 27.6922L35.7688 26.1537ZM16.7633 27.4669C16.4629 27.1665 16.4629 26.6795 16.7633 26.379L21.6587 21.4837C21.9591 21.1833 22.4461 21.1833 22.7465 21.4837C23.0469 21.7841 23.0469 22.2711 22.7465 22.5715L18.3951 26.923L22.7465 31.2744C23.0469 31.5748 23.0469 32.0619 22.7465 32.3623C22.4461 32.6627 21.9591 32.6627 21.6587 32.3623L16.7633 27.4669ZM35.7688 27.6922L17.3073 27.6922L17.3073 26.1537L35.7688 26.1537L35.7688 27.6922Z" fill="white"/>
</svg>
