<svg width="423" height="176" viewBox="0 0 423 176" fill="none" xmlns="http://www.w3.org/2000/svg">
<rect x="119.683" width="183" height="46" rx="23" fill="white" fill-opacity="0.08"/>
<path d="M151.299 20H149.538C149.433 19.4934 149.251 19.0483 148.991 18.6648C148.735 18.2812 148.422 17.9593 148.053 17.6989C147.689 17.4337 147.284 17.2348 146.839 17.1023C146.394 16.9697 145.93 16.9034 145.447 16.9034C144.566 16.9034 143.768 17.1259 143.053 17.571C142.343 18.0161 141.777 18.6719 141.356 19.5384C140.939 20.4048 140.731 21.4678 140.731 22.7273C140.731 23.9867 140.939 25.0497 141.356 25.9162C141.777 26.7827 142.343 27.4384 143.053 27.8835C143.768 28.3286 144.566 28.5511 145.447 28.5511C145.93 28.5511 146.394 28.4848 146.839 28.3523C147.284 28.2197 147.689 28.0232 148.053 27.7628C148.422 27.4976 148.735 27.1733 148.991 26.7898C149.251 26.4015 149.433 25.9564 149.538 25.4545H151.299C151.166 26.1979 150.925 26.8632 150.574 27.4503C150.224 28.0374 149.789 28.5369 149.268 28.9489C148.747 29.3561 148.162 29.6662 147.513 29.8793C146.869 30.0923 146.181 30.1989 145.447 30.1989C144.206 30.1989 143.103 29.8958 142.137 29.2898C141.171 28.6837 140.411 27.822 139.857 26.7045C139.303 25.5871 139.026 24.2614 139.026 22.7273C139.026 21.1932 139.303 19.8674 139.857 18.75C140.411 17.6326 141.171 16.7708 142.137 16.1648C143.103 15.5587 144.206 15.2557 145.447 15.2557C146.181 15.2557 146.869 15.3622 147.513 15.5753C148.162 15.7884 148.747 16.1009 149.268 16.5128C149.789 16.92 150.224 17.4171 150.574 18.0043C150.925 18.5866 151.166 19.2519 151.299 20ZM166.418 22.7273C166.418 24.2614 166.141 25.5871 165.587 26.7045C165.033 27.822 164.273 28.6837 163.307 29.2898C162.341 29.8958 161.238 30.1989 159.997 30.1989C158.757 30.1989 157.654 29.8958 156.688 29.2898C155.722 28.6837 154.962 27.822 154.408 26.7045C153.854 25.5871 153.577 24.2614 153.577 22.7273C153.577 21.1932 153.854 19.8674 154.408 18.75C154.962 17.6326 155.722 16.7708 156.688 16.1648C157.654 15.5587 158.757 15.2557 159.997 15.2557C161.238 15.2557 162.341 15.5587 163.307 16.1648C164.273 16.7708 165.033 17.6326 165.587 18.75C166.141 19.8674 166.418 21.1932 166.418 22.7273ZM164.713 22.7273C164.713 21.4678 164.503 20.4048 164.081 19.5384C163.665 18.6719 163.099 18.0161 162.384 17.571C161.674 17.1259 160.878 16.9034 159.997 16.9034C159.117 16.9034 158.319 17.1259 157.604 17.571C156.894 18.0161 156.328 18.6719 155.907 19.5384C155.49 20.4048 155.282 21.4678 155.282 22.7273C155.282 23.9867 155.49 25.0497 155.907 25.9162C156.328 26.7827 156.894 27.4384 157.604 27.8835C158.319 28.3286 159.117 28.5511 159.997 28.5511C160.878 28.5511 161.674 28.3286 162.384 27.8835C163.099 27.4384 163.665 26.7827 164.081 25.9162C164.503 25.0497 164.713 23.9867 164.713 22.7273ZM169.38 15.4545H171.482L176.425 27.5284H176.595L181.539 15.4545H183.641V30H181.993V18.9489H181.851L177.306 30H175.715L171.169 18.9489H171.027V30H169.38V15.4545ZM188.934 15.4545V30H187.172V15.4545H188.934ZM204 15.4545V30H202.295L194.369 18.5795H194.227V30H192.465V15.4545H194.17L202.125 26.9034H202.267V15.4545H204ZM217.467 20C217.311 19.5218 217.105 19.0933 216.849 18.7145C216.598 18.331 216.298 18.0043 215.947 17.7344C215.602 17.4645 215.209 17.2585 214.768 17.1165C214.328 16.9744 213.845 16.9034 213.32 16.9034C212.458 16.9034 211.674 17.1259 210.969 17.571C210.263 18.0161 209.702 18.6719 209.285 19.5384C208.869 20.4048 208.66 21.4678 208.66 22.7273C208.66 23.9867 208.871 25.0497 209.293 25.9162C209.714 26.7827 210.284 27.4384 211.004 27.8835C211.724 28.3286 212.534 28.5511 213.433 28.5511C214.266 28.5511 215 28.3736 215.635 28.0185C216.274 27.6586 216.771 27.152 217.126 26.4986C217.486 25.8404 217.666 25.0663 217.666 24.1761L218.206 24.2898H213.831V22.7273H219.371V24.2898C219.371 25.4877 219.115 26.5294 218.604 27.4148C218.097 28.3002 217.396 28.9867 216.501 29.4744C215.611 29.9574 214.588 30.1989 213.433 30.1989C212.145 30.1989 211.014 29.8958 210.038 29.2898C209.068 28.6837 208.31 27.822 207.766 26.7045C207.226 25.5871 206.956 24.2614 206.956 22.7273C206.956 21.5767 207.11 20.5421 207.418 19.6236C207.73 18.7003 208.17 17.9143 208.739 17.2656C209.307 16.617 209.979 16.1198 210.756 15.7741C211.532 15.4285 212.387 15.2557 213.32 15.2557C214.087 15.2557 214.802 15.3717 215.464 15.6037C216.132 15.831 216.726 16.1553 217.247 16.5767C217.773 16.9934 218.211 17.4929 218.561 18.0753C218.911 18.6529 219.153 19.2945 219.285 20H217.467ZM235.967 19.0909C235.882 18.3712 235.536 17.8125 234.93 17.4148C234.324 17.017 233.581 16.8182 232.7 16.8182C232.056 16.8182 231.492 16.9223 231.009 17.1307C230.531 17.339 230.157 17.6255 229.887 17.9901C229.622 18.3546 229.49 18.7689 229.49 19.233C229.49 19.6212 229.582 19.955 229.767 20.2344C229.956 20.509 230.197 20.7386 230.491 20.9233C230.785 21.1032 231.092 21.2524 231.414 21.3707C231.736 21.4844 232.032 21.5767 232.302 21.6477L233.779 22.0455C234.158 22.1449 234.58 22.2822 235.044 22.4574C235.512 22.6326 235.96 22.8717 236.386 23.1747C236.817 23.473 237.172 23.8565 237.451 24.3253C237.731 24.794 237.87 25.3693 237.87 26.0511C237.87 26.8371 237.664 27.5473 237.252 28.1818C236.845 28.8163 236.249 29.3205 235.463 29.6946C234.681 30.0687 233.732 30.2557 232.615 30.2557C231.573 30.2557 230.671 30.0876 229.909 29.7514C229.151 29.4152 228.554 28.9465 228.119 28.3452C227.688 27.7438 227.444 27.0455 227.387 26.25H229.206C229.253 26.7992 229.438 27.2538 229.759 27.6136C230.086 27.9687 230.498 28.2339 230.995 28.4091C231.497 28.5795 232.037 28.6648 232.615 28.6648C233.287 28.6648 233.891 28.5559 234.426 28.3381C234.961 28.1155 235.384 27.8078 235.697 27.4148C236.009 27.017 236.166 26.553 236.166 26.0227C236.166 25.5398 236.031 25.1468 235.761 24.8438C235.491 24.5407 235.136 24.2945 234.696 24.1051C234.255 23.9157 233.779 23.75 233.268 23.608L231.478 23.0966C230.342 22.7699 229.442 22.3035 228.779 21.6974C228.117 21.0914 227.785 20.2983 227.785 19.3182C227.785 18.5038 228.005 17.7936 228.446 17.1875C228.891 16.5767 229.487 16.1032 230.235 15.767C230.988 15.4261 231.829 15.2557 232.757 15.2557C233.694 15.2557 234.527 15.4238 235.257 15.7599C235.986 16.0914 236.563 16.5459 236.99 17.1236C237.42 17.7012 237.648 18.357 237.671 19.0909H235.967ZM253.039 22.7273C253.039 24.2614 252.762 25.5871 252.208 26.7045C251.654 27.822 250.894 28.6837 249.928 29.2898C248.962 29.8958 247.859 30.1989 246.619 30.1989C245.378 30.1989 244.275 29.8958 243.309 29.2898C242.343 28.6837 241.583 27.822 241.029 26.7045C240.475 25.5871 240.198 24.2614 240.198 22.7273C240.198 21.1932 240.475 19.8674 241.029 18.75C241.583 17.6326 242.343 16.7708 243.309 16.1648C244.275 15.5587 245.378 15.2557 246.619 15.2557C247.859 15.2557 248.962 15.5587 249.928 16.1648C250.894 16.7708 251.654 17.6326 252.208 18.75C252.762 19.8674 253.039 21.1932 253.039 22.7273ZM251.334 22.7273C251.334 21.4678 251.124 20.4048 250.702 19.5384C250.286 18.6719 249.72 18.0161 249.005 17.571C248.295 17.1259 247.499 16.9034 246.619 16.9034C245.738 16.9034 244.94 17.1259 244.225 17.571C243.515 18.0161 242.949 18.6719 242.528 19.5384C242.111 20.4048 241.903 21.4678 241.903 22.7273C241.903 23.9867 242.111 25.0497 242.528 25.9162C242.949 26.7827 243.515 27.4384 244.225 27.8835C244.94 28.3286 245.738 28.5511 246.619 28.5511C247.499 28.5511 248.295 28.3286 249.005 27.8835C249.72 27.4384 250.286 26.7827 250.702 25.9162C251.124 25.0497 251.334 23.9867 251.334 22.7273ZM268.273 22.7273C268.273 24.2614 267.996 25.5871 267.442 26.7045C266.888 27.822 266.128 28.6837 265.163 29.2898C264.197 29.8958 263.093 30.1989 261.853 30.1989C260.612 30.1989 259.509 29.8958 258.543 29.2898C257.577 28.6837 256.817 27.822 256.263 26.7045C255.709 25.5871 255.432 24.2614 255.432 22.7273C255.432 21.1932 255.709 19.8674 256.263 18.75C256.817 17.6326 257.577 16.7708 258.543 16.1648C259.509 15.5587 260.612 15.2557 261.853 15.2557C263.093 15.2557 264.197 15.5587 265.163 16.1648C266.128 16.7708 266.888 17.6326 267.442 18.75C267.996 19.8674 268.273 21.1932 268.273 22.7273ZM266.569 22.7273C266.569 21.4678 266.358 20.4048 265.937 19.5384C265.52 18.6719 264.954 18.0161 264.239 17.571C263.529 17.1259 262.734 16.9034 261.853 16.9034C260.972 16.9034 260.174 17.1259 259.459 17.571C258.749 18.0161 258.183 18.6719 257.762 19.5384C257.345 20.4048 257.137 21.4678 257.137 22.7273C257.137 23.9867 257.345 25.0497 257.762 25.9162C258.183 26.7827 258.749 27.4384 259.459 27.8835C260.174 28.3286 260.972 28.5511 261.853 28.5511C262.734 28.5511 263.529 28.3286 264.239 27.8835C264.954 27.4384 265.52 26.7827 265.937 25.9162C266.358 25.0497 266.569 23.9867 266.569 22.7273ZM282.769 15.4545V30H281.065L273.138 18.5795H272.996V30H271.235V15.4545H272.94L280.894 26.9034H281.036V15.4545H282.769Z" fill="white"/>
<mask id="mask0_681_11909" style="mask-type:luminance" maskUnits="userSpaceOnUse" x="2" y="85" width="68" height="62">
<path d="M55.8777 106.423H16.2704C14.5877 106.423 13.2236 107.787 13.2236 109.469V139.937C13.2236 141.619 14.5877 142.983 16.2704 142.983H55.8777C57.5604 142.983 58.9244 141.619 58.9244 139.937V109.469C58.9244 107.787 57.5604 106.423 55.8777 106.423Z" fill="white" stroke="white" stroke-width="6.09344"/>
<path d="M25.41 121.656C27.0927 121.656 28.4567 120.292 28.4567 118.609C28.4567 116.927 27.0927 115.563 25.41 115.563C23.7273 115.563 22.3633 116.927 22.3633 118.609C22.3633 120.292 23.7273 121.656 25.41 121.656Z" fill="black"/>
<path d="M46.7372 121.656C48.4198 121.656 49.7839 120.292 49.7839 118.609C49.7839 116.927 48.4198 115.563 46.7372 115.563C45.0545 115.563 43.6904 116.927 43.6904 118.609C43.6904 120.292 45.0545 121.656 46.7372 121.656Z" fill="black"/>
<path d="M29.9803 127.749C29.1723 127.749 28.3973 128.07 27.826 128.642C27.2546 129.213 26.9336 129.988 26.9336 130.796C26.9336 131.604 27.2546 132.379 27.826 132.95C28.3973 133.522 29.1723 133.843 29.9803 133.843V127.749ZM42.1672 133.843C42.9752 133.843 43.7502 133.522 44.3216 132.95C44.8929 132.379 45.2139 131.604 45.2139 130.796C45.2139 129.988 44.8929 129.213 44.3216 128.642C43.7502 128.07 42.9752 127.749 42.1672 127.749V133.843ZM29.9803 133.843H42.1672V127.749H29.9803V133.843Z" fill="black"/>
<path d="M36.0737 94.2355V106.422M5.60645 118.609V130.796M66.5409 118.609V130.796" stroke="white" stroke-width="6.09344" stroke-linecap="round" stroke-linejoin="round"/>
<path d="M36.0731 94.2355C37.7557 94.2355 39.1198 92.8715 39.1198 91.1888C39.1198 89.5062 37.7557 88.1421 36.0731 88.1421C34.3904 88.1421 33.0264 89.5062 33.0264 91.1888C33.0264 92.8715 34.3904 94.2355 36.0731 94.2355Z" stroke="white" stroke-width="6.09344"/>
</mask>
<g mask="url(#mask0_681_11909)">
<path d="M-0.487305 79.002H72.634V152.123H-0.487305V79.002Z" fill="white"/>
</g>
<mask id="path-10-outside-1_681_11909" maskUnits="userSpaceOnUse" x="95.3662" y="87" width="325" height="86" fill="black">
<rect fill="white" x="95.3662" y="87" width="325" height="86"/>
<path d="M141.248 87.7803V97.6912H124.934V149H112.655V97.6912H96.3415V87.7803H141.248ZM168.275 149.789C163.597 149.789 159.387 148.766 155.645 146.72C151.903 144.615 148.95 141.662 146.786 137.861C144.681 134.061 143.629 129.675 143.629 124.705C143.629 119.735 144.711 115.35 146.874 111.549C149.096 107.748 152.107 104.825 155.908 102.778C159.708 100.673 163.948 99.6208 168.625 99.6208C173.303 99.6208 177.542 100.673 181.343 102.778C185.144 104.825 188.126 107.748 190.289 111.549C192.511 115.35 193.622 119.735 193.622 124.705C193.622 129.675 192.482 134.061 190.201 137.861C187.979 141.662 184.939 144.615 181.08 146.72C177.279 148.766 173.011 149.789 168.275 149.789ZM168.275 139.089C170.496 139.089 172.572 138.563 174.502 137.51C176.49 136.399 178.069 134.762 179.238 132.599C180.407 130.435 180.992 127.804 180.992 124.705C180.992 120.086 179.764 116.548 177.308 114.092C174.911 111.578 171.958 110.321 168.45 110.321C164.942 110.321 161.989 111.578 159.592 114.092C157.253 116.548 156.083 120.086 156.083 124.705C156.083 129.324 157.223 132.891 159.504 135.405C161.843 137.861 164.766 139.089 168.275 139.089ZM226.047 99.7085C231.836 99.7085 236.513 101.55 240.08 105.234C243.647 108.859 245.43 113.946 245.43 120.495V149H233.151V122.162C233.151 118.302 232.186 115.35 230.257 113.303C228.327 111.198 225.696 110.146 222.363 110.146C218.972 110.146 216.282 111.198 214.294 113.303C212.365 115.35 211.4 118.302 211.4 122.162V149H199.121V100.41H211.4V106.462C213.037 104.357 215.113 102.72 217.627 101.55C220.2 100.322 223.006 99.7085 226.047 99.7085ZM291.137 137.335H266.755L262.72 149H249.827L271.842 87.6926H286.138L308.153 149H295.172L291.137 137.335ZM287.805 127.512L278.946 101.901L270.088 127.512H287.805ZM325.152 107.427C326.731 105.205 328.894 103.363 331.642 101.901C334.449 100.381 337.636 99.6208 341.203 99.6208C345.354 99.6208 349.096 100.644 352.429 102.691C355.82 104.737 358.481 107.661 360.41 111.461C362.398 115.203 363.393 119.56 363.393 124.53C363.393 129.5 362.398 133.914 360.41 137.773C358.481 141.574 355.82 144.527 352.429 146.632C349.096 148.737 345.354 149.789 341.203 149.789C337.636 149.789 334.478 149.058 331.73 147.597C329.04 146.135 326.848 144.293 325.152 142.071V172.155H312.873V100.41H325.152V107.427ZM350.85 124.53C350.85 121.606 350.236 119.092 349.009 116.987C347.839 114.823 346.26 113.186 344.272 112.075C342.343 110.964 340.238 110.409 337.957 110.409C335.735 110.409 333.63 110.993 331.642 112.163C329.713 113.274 328.134 114.911 326.906 117.075C325.737 119.238 325.152 121.781 325.152 124.705C325.152 127.629 325.737 130.172 326.906 132.336C328.134 134.499 329.713 136.165 331.642 137.335C333.63 138.446 335.735 139.001 337.957 139.001C340.238 139.001 342.343 138.417 344.272 137.247C346.26 136.078 347.839 134.411 349.009 132.248C350.236 130.084 350.85 127.512 350.85 124.53ZM381.086 107.427C382.665 105.205 384.828 103.363 387.576 101.901C390.383 100.381 393.57 99.6208 397.137 99.6208C401.288 99.6208 405.03 100.644 408.363 102.691C411.754 104.737 414.415 107.661 416.344 111.461C418.332 115.203 419.326 119.56 419.326 124.53C419.326 129.5 418.332 133.914 416.344 137.773C414.415 141.574 411.754 144.527 408.363 146.632C405.03 148.737 401.288 149.789 397.137 149.789C393.57 149.789 390.412 149.058 387.664 147.597C384.974 146.135 382.782 144.293 381.086 142.071V172.155H368.807V100.41H381.086V107.427ZM406.784 124.53C406.784 121.606 406.17 119.092 404.942 116.987C403.773 114.823 402.194 113.186 400.206 112.075C398.277 110.964 396.172 110.409 393.891 110.409C391.669 110.409 389.564 110.993 387.576 112.163C385.647 113.274 384.068 114.911 382.84 117.075C381.671 119.238 381.086 121.781 381.086 124.705C381.086 127.629 381.671 130.172 382.84 132.336C384.068 134.499 385.647 136.165 387.576 137.335C389.564 138.446 391.669 139.001 393.891 139.001C396.172 139.001 398.277 138.417 400.206 137.247C402.194 136.078 403.773 134.411 404.942 132.248C406.17 130.084 406.784 127.512 406.784 124.53Z"/>
</mask>
<path d="M141.248 87.7803V97.6912H124.934V149H112.655V97.6912H96.3415V87.7803H141.248ZM168.275 149.789C163.597 149.789 159.387 148.766 155.645 146.72C151.903 144.615 148.95 141.662 146.786 137.861C144.681 134.061 143.629 129.675 143.629 124.705C143.629 119.735 144.711 115.35 146.874 111.549C149.096 107.748 152.107 104.825 155.908 102.778C159.708 100.673 163.948 99.6208 168.625 99.6208C173.303 99.6208 177.542 100.673 181.343 102.778C185.144 104.825 188.126 107.748 190.289 111.549C192.511 115.35 193.622 119.735 193.622 124.705C193.622 129.675 192.482 134.061 190.201 137.861C187.979 141.662 184.939 144.615 181.08 146.72C177.279 148.766 173.011 149.789 168.275 149.789ZM168.275 139.089C170.496 139.089 172.572 138.563 174.502 137.51C176.49 136.399 178.069 134.762 179.238 132.599C180.407 130.435 180.992 127.804 180.992 124.705C180.992 120.086 179.764 116.548 177.308 114.092C174.911 111.578 171.958 110.321 168.45 110.321C164.942 110.321 161.989 111.578 159.592 114.092C157.253 116.548 156.083 120.086 156.083 124.705C156.083 129.324 157.223 132.891 159.504 135.405C161.843 137.861 164.766 139.089 168.275 139.089ZM226.047 99.7085C231.836 99.7085 236.513 101.55 240.08 105.234C243.647 108.859 245.43 113.946 245.43 120.495V149H233.151V122.162C233.151 118.302 232.186 115.35 230.257 113.303C228.327 111.198 225.696 110.146 222.363 110.146C218.972 110.146 216.282 111.198 214.294 113.303C212.365 115.35 211.4 118.302 211.4 122.162V149H199.121V100.41H211.4V106.462C213.037 104.357 215.113 102.72 217.627 101.55C220.2 100.322 223.006 99.7085 226.047 99.7085ZM291.137 137.335H266.755L262.72 149H249.827L271.842 87.6926H286.138L308.153 149H295.172L291.137 137.335ZM287.805 127.512L278.946 101.901L270.088 127.512H287.805ZM325.152 107.427C326.731 105.205 328.894 103.363 331.642 101.901C334.449 100.381 337.636 99.6208 341.203 99.6208C345.354 99.6208 349.096 100.644 352.429 102.691C355.82 104.737 358.481 107.661 360.41 111.461C362.398 115.203 363.393 119.56 363.393 124.53C363.393 129.5 362.398 133.914 360.41 137.773C358.481 141.574 355.82 144.527 352.429 146.632C349.096 148.737 345.354 149.789 341.203 149.789C337.636 149.789 334.478 149.058 331.73 147.597C329.04 146.135 326.848 144.293 325.152 142.071V172.155H312.873V100.41H325.152V107.427ZM350.85 124.53C350.85 121.606 350.236 119.092 349.009 116.987C347.839 114.823 346.26 113.186 344.272 112.075C342.343 110.964 340.238 110.409 337.957 110.409C335.735 110.409 333.63 110.993 331.642 112.163C329.713 113.274 328.134 114.911 326.906 117.075C325.737 119.238 325.152 121.781 325.152 124.705C325.152 127.629 325.737 130.172 326.906 132.336C328.134 134.499 329.713 136.165 331.642 137.335C333.63 138.446 335.735 139.001 337.957 139.001C340.238 139.001 342.343 138.417 344.272 137.247C346.26 136.078 347.839 134.411 349.009 132.248C350.236 130.084 350.85 127.512 350.85 124.53ZM381.086 107.427C382.665 105.205 384.828 103.363 387.576 101.901C390.383 100.381 393.57 99.6208 397.137 99.6208C401.288 99.6208 405.03 100.644 408.363 102.691C411.754 104.737 414.415 107.661 416.344 111.461C418.332 115.203 419.326 119.56 419.326 124.53C419.326 129.5 418.332 133.914 416.344 137.773C414.415 141.574 411.754 144.527 408.363 146.632C405.03 148.737 401.288 149.789 397.137 149.789C393.57 149.789 390.412 149.058 387.664 147.597C384.974 146.135 382.782 144.293 381.086 142.071V172.155H368.807V100.41H381.086V107.427ZM406.784 124.53C406.784 121.606 406.17 119.092 404.942 116.987C403.773 114.823 402.194 113.186 400.206 112.075C398.277 110.964 396.172 110.409 393.891 110.409C391.669 110.409 389.564 110.993 387.576 112.163C385.647 113.274 384.068 114.911 382.84 117.075C381.671 119.238 381.086 121.781 381.086 124.705C381.086 127.629 381.671 130.172 382.84 132.336C384.068 134.499 385.647 136.165 387.576 137.335C389.564 138.446 391.669 139.001 393.891 139.001C396.172 139.001 398.277 138.417 400.206 137.247C402.194 136.078 403.773 134.411 404.942 132.248C406.17 130.084 406.784 127.512 406.784 124.53Z" fill="white"/>
<path d="M141.248 87.7803H141.569V87.459H141.248V87.7803ZM141.248 97.6912V98.0126H141.569V97.6912H141.248ZM124.934 97.6912V97.3699H124.613V97.6912H124.934ZM124.934 149V149.321H125.255V149H124.934ZM112.655 149H112.334V149.321H112.655V149ZM112.655 97.6912H112.976V97.3699H112.655V97.6912ZM96.3415 97.6912H96.0202V98.0126H96.3415V97.6912ZM96.3415 87.7803V87.459H96.0202V87.7803H96.3415ZM140.926 87.7803V97.6912H141.569V87.7803H140.926ZM141.248 97.3699H124.934V98.0126H141.248V97.3699ZM124.613 97.6912V149H125.255V97.6912H124.613ZM124.934 148.679H112.655V149.321H124.934V148.679ZM112.976 149V97.6912H112.334V149H112.976ZM112.655 97.3699H96.3415V98.0126H112.655V97.3699ZM96.6629 97.6912V87.7803H96.0202V97.6912H96.6629ZM96.3415 88.1016H141.248V87.459H96.3415V88.1016ZM155.645 146.72L155.487 147L155.491 147.002L155.645 146.72ZM146.786 137.861L146.505 138.017L146.507 138.02L146.786 137.861ZM146.874 111.549L146.597 111.387L146.595 111.39L146.874 111.549ZM155.908 102.778L156.06 103.061L156.064 103.059L155.908 102.778ZM181.343 102.778L181.187 103.059L181.191 103.061L181.343 102.778ZM190.289 111.549L190.01 111.708L190.012 111.711L190.289 111.549ZM190.201 137.861L189.926 137.696L189.924 137.699L190.201 137.861ZM181.08 146.72L181.232 147.003L181.234 147.002L181.08 146.72ZM174.502 137.51L174.656 137.792L174.659 137.791L174.502 137.51ZM179.238 132.599L179.521 132.752H179.521L179.238 132.599ZM177.308 114.092L177.076 114.314L177.081 114.32L177.308 114.092ZM159.592 114.092L159.359 113.871L159.359 113.871L159.592 114.092ZM159.504 135.405L159.266 135.621L159.271 135.627L159.504 135.405ZM168.275 149.468C163.645 149.468 159.489 148.456 155.799 146.438L155.491 147.002C159.284 149.076 163.548 150.111 168.275 150.111V149.468ZM155.802 146.44C152.112 144.364 149.201 141.453 147.066 137.702L146.507 138.02C148.699 141.87 151.693 144.866 155.487 147L155.802 146.44ZM147.067 137.705C144.992 133.959 143.95 129.629 143.95 124.705H143.307C143.307 129.722 144.37 134.162 146.505 138.017L147.067 137.705ZM143.95 124.705C143.95 119.783 145.021 115.454 147.153 111.708L146.595 111.39C144.4 115.245 143.307 119.687 143.307 124.705H143.95ZM147.151 111.711C149.344 107.96 152.313 105.079 156.06 103.061L155.755 102.495C151.902 104.57 148.848 107.536 146.597 111.387L147.151 111.711ZM156.064 103.059C159.813 100.983 163.998 99.9421 168.625 99.9421V99.2994C163.897 99.2994 159.604 100.364 155.752 102.497L156.064 103.059ZM168.625 99.9421C173.253 99.9421 177.438 100.983 181.187 103.059L181.499 102.497C177.647 100.364 173.353 99.2994 168.625 99.2994V99.9421ZM181.191 103.061C184.937 105.079 187.876 107.959 190.01 111.708L190.568 111.39C188.376 107.538 185.35 104.571 181.495 102.495L181.191 103.061ZM190.012 111.711C192.201 115.457 193.301 119.784 193.301 124.705H193.943C193.943 119.685 192.821 115.243 190.567 111.387L190.012 111.711ZM193.301 124.705C193.301 129.624 192.173 133.951 189.926 137.696L190.477 138.026C192.791 134.17 193.943 129.726 193.943 124.705H193.301ZM189.924 137.699C187.732 141.449 184.734 144.361 180.926 146.438L181.234 147.002C185.144 144.869 188.227 141.874 190.479 138.023L189.924 137.699ZM180.927 146.437C177.178 148.456 172.963 149.468 168.275 149.468V150.111C173.059 150.111 177.38 149.077 181.232 147.003L180.927 146.437ZM168.275 139.41C170.55 139.41 172.678 138.871 174.656 137.792L174.348 137.228C172.466 138.255 170.443 138.768 168.275 138.768V139.41ZM174.659 137.791C176.704 136.648 178.325 134.964 179.521 132.752L178.955 132.446C177.812 134.56 176.276 136.151 174.345 137.23L174.659 137.791ZM179.521 132.752C180.721 130.53 181.313 127.844 181.313 124.705H180.671C180.671 127.764 180.094 130.34 178.955 132.446L179.521 132.752ZM181.313 124.705C181.313 120.03 180.07 116.399 177.536 113.865L177.081 114.32C179.459 116.697 180.671 120.142 180.671 124.705H181.313ZM177.541 113.871C175.082 111.292 172.045 110 168.45 110V110.642C171.871 110.642 174.74 111.864 177.076 114.314L177.541 113.871ZM168.45 110C164.855 110 161.818 111.292 159.359 113.871L159.824 114.314C162.16 111.864 165.029 110.642 168.45 110.642V110ZM159.359 113.871C156.945 116.405 155.762 120.034 155.762 124.705H156.405C156.405 120.138 157.56 116.691 159.824 114.314L159.359 113.871ZM155.762 124.705C155.762 129.375 156.915 133.029 159.266 135.621L159.742 135.189C157.532 132.753 156.405 129.274 156.405 124.705H155.762ZM159.271 135.627C161.673 138.149 164.682 139.41 168.275 139.41V138.768C164.851 138.768 162.012 137.573 159.737 135.184L159.271 135.627ZM240.08 105.234L239.849 105.458L239.851 105.459L240.08 105.234ZM245.43 149V149.321H245.752V149H245.43ZM233.151 149H232.83V149.321H233.151V149ZM230.257 113.303L230.02 113.52L230.023 113.524L230.257 113.303ZM214.294 113.303L214.061 113.082L214.06 113.083L214.294 113.303ZM211.4 149V149.321H211.721V149H211.4ZM199.121 149H198.799V149.321H199.121V149ZM199.121 100.41V100.089H198.799V100.41H199.121ZM211.4 100.41H211.721V100.089H211.4V100.41ZM211.4 106.462H211.078V107.399L211.653 106.659L211.4 106.462ZM217.627 101.55L217.763 101.842L217.765 101.84L217.627 101.55ZM226.047 100.03C231.761 100.03 236.351 101.845 239.849 105.458L240.311 105.011C236.676 101.256 231.91 99.3871 226.047 99.3871V100.03ZM239.851 105.459C243.343 109.009 245.109 114.005 245.109 120.495H245.752C245.752 113.887 243.951 108.71 240.309 105.009L239.851 105.459ZM245.109 120.495V149H245.752V120.495H245.109ZM245.43 148.679H233.151V149.321H245.43V148.679ZM233.473 149V122.162H232.83V149H233.473ZM233.473 122.162C233.473 118.251 232.495 115.208 230.491 113.083L230.023 113.524C231.878 115.491 232.83 118.353 232.83 122.162H233.473ZM230.494 113.086C228.493 110.903 225.77 109.824 222.363 109.824V110.467C225.623 110.467 228.162 111.493 230.02 113.52L230.494 113.086ZM222.363 109.824C218.9 109.824 216.12 110.902 214.061 113.082L214.528 113.524C216.445 111.494 219.044 110.467 222.363 110.467V109.824ZM214.06 113.083C212.056 115.208 211.078 118.251 211.078 122.162H211.721C211.721 118.353 212.673 115.491 214.528 113.524L214.06 113.083ZM211.078 122.162V149H211.721V122.162H211.078ZM211.4 148.679H199.121V149.321H211.4V148.679ZM199.442 149V100.41H198.799V149H199.442ZM199.121 100.731H211.4V100.089H199.121V100.731ZM211.078 100.41V106.462H211.721V100.41H211.078ZM211.653 106.659C213.258 104.596 215.293 102.99 217.763 101.842L217.492 101.259C214.933 102.449 212.816 104.118 211.146 106.265L211.653 106.659ZM217.765 101.84C220.292 100.634 223.051 100.03 226.047 100.03V99.3871C222.962 99.3871 220.107 100.01 217.489 101.26L217.765 101.84ZM291.137 137.335L291.441 137.23L291.366 137.014H291.137V137.335ZM266.755 137.335V137.014H266.526L266.451 137.23L266.755 137.335ZM262.72 149V149.321H262.949L263.024 149.105L262.72 149ZM249.827 149L249.525 148.891L249.37 149.321H249.827V149ZM271.842 87.6926V87.3712H271.616L271.539 87.584L271.842 87.6926ZM286.138 87.6926L286.441 87.584L286.364 87.3712H286.138V87.6926ZM308.153 149V149.321H308.609L308.455 148.891L308.153 149ZM295.172 149L294.868 149.105L294.943 149.321H295.172V149ZM287.805 127.512V127.833H288.256L288.108 127.407L287.805 127.512ZM278.946 101.901L279.25 101.796L278.946 100.918L278.642 101.796L278.946 101.901ZM270.088 127.512L269.784 127.407L269.637 127.833H270.088V127.512ZM291.137 137.014H266.755V137.656H291.137V137.014ZM266.451 137.23L262.417 148.895L263.024 149.105L267.059 137.44L266.451 137.23ZM262.72 148.679H249.827V149.321H262.72V148.679ZM250.13 149.109L272.144 87.8012L271.539 87.584L249.525 148.891L250.13 149.109ZM271.842 88.0139H286.138V87.3712H271.842V88.0139ZM285.836 87.8012L307.85 149.109L308.455 148.891L286.441 87.584L285.836 87.8012ZM308.153 148.679H295.172V149.321H308.153V148.679ZM295.476 148.895L291.441 137.23L290.834 137.44L294.868 149.105L295.476 148.895ZM288.108 127.407L279.25 101.796L278.642 102.006L287.501 127.617L288.108 127.407ZM278.642 101.796L269.784 127.407L270.391 127.617L279.25 102.006L278.642 101.796ZM270.088 127.833H287.805V127.19H270.088V127.833ZM325.152 107.427H324.831V108.434L325.414 107.613L325.152 107.427ZM331.642 101.901L331.793 102.185L331.796 102.184L331.642 101.901ZM352.429 102.691L352.261 102.964L352.263 102.966L352.429 102.691ZM360.41 111.461L360.124 111.607L360.127 111.612L360.41 111.461ZM360.41 137.773L360.125 137.626L360.124 137.628L360.41 137.773ZM352.429 146.632L352.26 146.359L352.258 146.36L352.429 146.632ZM331.73 147.597L331.577 147.879L331.579 147.88L331.73 147.597ZM325.152 142.071L325.408 141.876L324.831 141.12V142.071H325.152ZM325.152 172.155V172.476H325.473V172.155H325.152ZM312.873 172.155H312.552V172.476H312.873V172.155ZM312.873 100.41V100.089H312.552V100.41H312.873ZM325.152 100.41H325.473V100.089H325.152V100.41ZM349.009 116.987L348.726 117.14L348.731 117.149L349.009 116.987ZM344.272 112.075L344.112 112.354L344.116 112.356L344.272 112.075ZM331.642 112.163L331.803 112.441L331.805 112.44L331.642 112.163ZM326.906 117.075L326.627 116.916L326.624 116.922L326.906 117.075ZM326.906 132.336L326.624 132.488L326.627 132.494L326.906 132.336ZM331.642 137.335L331.476 137.61L331.486 137.615L331.642 137.335ZM344.272 137.247L344.109 136.97L344.106 136.972L344.272 137.247ZM349.009 132.248L348.729 132.089L348.726 132.095L349.009 132.248ZM325.414 107.613C326.96 105.437 329.083 103.627 331.793 102.185L331.492 101.617C328.706 103.099 326.502 104.973 324.89 107.241L325.414 107.613ZM331.796 102.184C334.55 100.692 337.683 99.9421 341.203 99.9421V99.2994C337.589 99.2994 334.348 100.07 331.489 101.619L331.796 102.184ZM341.203 99.9421C345.298 99.9421 348.982 100.951 352.261 102.964L352.597 102.417C349.211 100.337 345.41 99.2994 341.203 99.2994V99.9421ZM352.263 102.966C355.599 104.979 358.219 107.855 360.124 111.607L360.697 111.316C358.742 107.466 356.042 104.495 352.595 102.415L352.263 102.966ZM360.127 111.612C362.086 115.3 363.071 119.603 363.071 124.53H363.714C363.714 119.516 362.711 115.107 360.694 111.311L360.127 111.612ZM363.071 124.53C363.071 129.456 362.086 133.819 360.125 137.626L360.696 137.921C362.711 134.01 363.714 129.543 363.714 124.53H363.071ZM360.124 137.628C358.219 141.38 355.598 144.287 352.26 146.359L352.599 146.905C356.043 144.767 358.743 141.768 360.697 137.919L360.124 137.628ZM352.258 146.36C348.979 148.431 345.297 149.468 341.203 149.468V150.111C345.411 150.111 349.214 149.043 352.601 146.904L352.258 146.36ZM341.203 149.468C337.681 149.468 334.576 148.747 331.881 147.313L331.579 147.88C334.38 149.37 337.591 150.111 341.203 150.111V149.468ZM331.884 147.314C329.23 145.872 327.073 144.059 325.408 141.876L324.897 142.266C326.622 144.527 328.851 146.398 331.577 147.879L331.884 147.314ZM324.831 142.071V172.155H325.473V142.071H324.831ZM325.152 171.833H312.873V172.476H325.152V171.833ZM313.194 172.155V100.41H312.552V172.155H313.194ZM312.873 100.731H325.152V100.089H312.873V100.731ZM324.831 100.41V107.427H325.473V100.41H324.831ZM351.172 124.53C351.172 121.561 350.548 118.988 349.286 116.825L348.731 117.149C349.925 119.196 350.529 121.652 350.529 124.53H351.172ZM349.291 116.834C348.095 114.621 346.475 112.938 344.429 111.795L344.116 112.356C346.046 113.435 347.583 115.025 348.726 117.14L349.291 116.834ZM344.433 111.797C342.453 110.657 340.293 110.087 337.957 110.087V110.73C340.183 110.73 342.232 111.272 344.112 112.354L344.433 111.797ZM337.957 110.087C335.676 110.087 333.515 110.689 331.48 111.886L331.805 112.44C333.746 111.298 335.795 110.73 337.957 110.73V110.087ZM331.482 111.884C329.497 113.027 327.88 114.709 326.627 116.916L327.186 117.233C328.389 115.114 329.929 113.521 331.803 112.441L331.482 111.884ZM326.624 116.922C325.424 119.14 324.831 121.738 324.831 124.705H325.473C325.473 121.825 326.049 119.336 327.189 117.227L326.624 116.922ZM324.831 124.705C324.831 127.672 325.424 130.27 326.624 132.488L327.189 132.183C326.049 130.074 325.473 127.585 325.473 124.705H324.831ZM326.627 132.494C327.879 134.7 329.495 136.409 331.476 137.61L331.809 137.06C329.931 135.922 328.389 134.298 327.186 132.177L326.627 132.494ZM331.486 137.615C333.52 138.752 335.679 139.323 337.957 139.323V138.68C335.792 138.68 333.741 138.139 331.799 137.054L331.486 137.615ZM337.957 139.323C340.296 139.323 342.459 138.722 344.439 137.522L344.106 136.972C342.227 138.111 340.18 138.68 337.957 138.68V139.323ZM344.435 137.524C346.477 136.323 348.096 134.612 349.291 132.401L348.726 132.095C347.582 134.211 346.044 135.832 344.109 136.97L344.435 137.524ZM349.288 132.407C350.548 130.186 351.172 127.556 351.172 124.53H350.529C350.529 127.467 349.925 129.983 348.729 132.089L349.288 132.407ZM381.086 107.427H380.765V108.434L381.348 107.613L381.086 107.427ZM387.576 101.901L387.727 102.185L387.729 102.184L387.576 101.901ZM408.363 102.691L408.195 102.964L408.197 102.966L408.363 102.691ZM416.344 111.461L416.058 111.607L416.061 111.612L416.344 111.461ZM416.344 137.773L416.059 137.626L416.058 137.628L416.344 137.773ZM408.363 146.632L408.194 146.359L408.191 146.36L408.363 146.632ZM387.664 147.597L387.511 147.879L387.513 147.88L387.664 147.597ZM381.086 142.071L381.342 141.876L380.765 141.12V142.071H381.086ZM381.086 172.155V172.476H381.407V172.155H381.086ZM368.807 172.155H368.486V172.476H368.807V172.155ZM368.807 100.41V100.089H368.486V100.41H368.807ZM381.086 100.41H381.407V100.089H381.086V100.41ZM404.942 116.987L404.66 117.14L404.665 117.149L404.942 116.987ZM400.206 112.075L400.046 112.354L400.05 112.356L400.206 112.075ZM387.576 112.163L387.737 112.441L387.739 112.44L387.576 112.163ZM382.84 117.075L382.561 116.916L382.558 116.922L382.84 117.075ZM382.84 132.336L382.557 132.488L382.561 132.494L382.84 132.336ZM387.576 137.335L387.41 137.61L387.42 137.615L387.576 137.335ZM400.206 137.247L400.043 136.97L400.04 136.972L400.206 137.247ZM404.942 132.248L404.663 132.089L404.66 132.095L404.942 132.248ZM381.348 107.613C382.894 105.437 385.017 103.627 387.727 102.185L387.426 101.617C384.64 103.099 382.436 104.973 380.824 107.241L381.348 107.613ZM387.729 102.184C390.484 100.692 393.617 99.9421 397.137 99.9421V99.2994C393.523 99.2994 390.282 100.07 387.423 101.619L387.729 102.184ZM397.137 99.9421C401.232 99.9421 404.916 100.951 408.195 102.964L408.531 102.417C405.145 100.337 401.344 99.2994 397.137 99.2994V99.9421ZM408.197 102.966C411.533 104.979 414.153 107.855 416.058 111.607L416.631 111.316C414.676 107.466 411.976 104.495 408.529 102.415L408.197 102.966ZM416.061 111.612C418.02 115.3 419.005 119.603 419.005 124.53H419.648C419.648 119.516 418.645 115.107 416.628 111.311L416.061 111.612ZM419.005 124.53C419.005 129.456 418.02 133.819 416.059 137.626L416.63 137.921C418.645 134.01 419.648 129.543 419.648 124.53H419.005ZM416.058 137.628C414.153 141.38 411.532 144.287 408.194 146.359L408.533 146.905C411.977 144.767 414.677 141.768 416.631 137.919L416.058 137.628ZM408.191 146.36C404.913 148.431 401.231 149.468 397.137 149.468V150.111C401.345 150.111 405.148 149.043 408.535 146.904L408.191 146.36ZM397.137 149.468C393.615 149.468 390.51 148.747 387.815 147.313L387.513 147.88C390.314 149.37 393.525 150.111 397.137 150.111V149.468ZM387.818 147.314C385.164 145.872 383.007 144.059 381.342 141.876L380.831 142.266C382.556 144.527 384.785 146.398 387.511 147.879L387.818 147.314ZM380.765 142.071V172.155H381.407V142.071H380.765ZM381.086 171.833H368.807V172.476H381.086V171.833ZM369.128 172.155V100.41H368.486V172.155H369.128ZM368.807 100.731H381.086V100.089H368.807V100.731ZM380.765 100.41V107.427H381.407V100.41H380.765ZM407.106 124.53C407.106 121.561 406.482 118.988 405.22 116.825L404.665 117.149C405.859 119.196 406.463 121.652 406.463 124.53H407.106ZM405.225 116.834C404.029 114.621 402.409 112.938 400.363 111.795L400.05 112.356C401.98 113.435 403.517 115.025 404.66 117.14L405.225 116.834ZM400.367 111.797C398.387 110.657 396.227 110.087 393.891 110.087V110.73C396.117 110.73 398.166 111.272 400.046 112.354L400.367 111.797ZM393.891 110.087C391.61 110.087 389.449 110.689 387.413 111.886L387.739 112.44C389.68 111.298 391.729 110.73 393.891 110.73V110.087ZM387.416 111.884C385.431 113.027 383.814 114.709 382.561 116.916L383.12 117.233C384.323 115.114 385.863 113.521 387.737 112.441L387.416 111.884ZM382.558 116.922C381.358 119.14 380.765 121.738 380.765 124.705H381.407C381.407 121.825 381.983 119.336 383.123 117.227L382.558 116.922ZM380.765 124.705C380.765 127.672 381.358 130.27 382.558 132.488L383.123 132.183C381.983 130.074 381.407 127.585 381.407 124.705H380.765ZM382.561 132.494C383.813 134.7 385.429 136.409 387.41 137.61L387.743 137.06C385.865 135.922 384.323 134.298 383.12 132.177L382.561 132.494ZM387.42 137.615C389.454 138.752 391.613 139.323 393.891 139.323V138.68C391.726 138.68 389.675 138.139 387.733 137.054L387.42 137.615ZM393.891 139.323C396.23 139.323 398.392 138.722 400.373 137.522L400.04 136.972C398.161 138.111 396.114 138.68 393.891 138.68V139.323ZM400.369 137.524C402.411 136.323 404.03 134.612 405.225 132.401L404.66 132.095C403.516 134.211 401.978 135.832 400.043 136.97L400.369 137.524ZM405.222 132.407C406.482 130.186 407.106 127.556 407.106 124.53H406.463C406.463 127.467 405.858 129.983 404.663 132.089L405.222 132.407Z" fill="url(#paint0_linear_681_11909)" fill-opacity="0.8" mask="url(#path-10-outside-1_681_11909)"/>
<defs>
<linearGradient id="paint0_linear_681_11909" x1="257.866" y1="60" x2="257.866" y2="176" gradientUnits="userSpaceOnUse">
<stop stop-color="white"/>
<stop offset="0.358832" stop-color="white"/>
<stop offset="0.542685" stop-color="#E4E4E4" stop-opacity="0.35"/>
<stop offset="1" stop-color="#989898"/>
</linearGradient>
</defs>
</svg>
