<svg width="572" height="126" viewBox="0 0 572 126" fill="none" xmlns="http://www.w3.org/2000/svg">
<path d="M9.73242 46.5454C9.73242 45.9774 10.0366 45.4529 10.5295 45.1708L39.7047 28.4721C40.7607 27.8677 42.0754 28.6301 42.0754 29.8467V36.6844C42.0754 37.6767 40.8136 38.3458 39.8213 38.3458C37.7662 38.3458 36.1002 40.0118 36.1002 42.0669C36.1002 43.24 36.643 44.2862 37.4911 44.9683C37.9904 45.3697 38.3985 45.924 38.3985 46.5647V49.9691C38.3985 50.8439 37.6893 51.553 36.8146 51.553H23.1107C21.0809 51.553 19.4353 53.1986 19.4353 55.2285V64.7668C19.4353 65.07 19.1627 65.2987 18.8595 65.2987C16.8951 65.2987 15.3026 66.8912 15.3026 68.8557C15.3026 70.8201 16.8951 72.4126 18.8595 72.4126C19.1627 72.4126 19.4353 72.6414 19.4353 72.9445V80.1308C19.4353 82.1606 21.0809 83.8062 23.1107 83.8062H23.4503C25.3038 83.8062 25.649 86.4435 23.8581 86.9206L11.7241 90.1531C10.7186 90.421 9.73242 89.6631 9.73242 88.6226V46.5454Z" fill="white"/>
<path d="M38.5384 83.8062C37.6636 83.8062 36.9545 84.5153 36.9545 85.3901V96.104C36.9545 97.3215 38.2708 98.0838 39.3267 97.4778L68.5019 80.7353C68.994 80.4529 69.2975 79.9289 69.2975 79.3615V37.7366C69.2975 36.6961 68.3113 35.9383 67.3058 36.2061L44.54 42.2709C43.9183 42.4365 43.4874 42.9776 43.2279 43.5663C42.9968 44.0907 42.6481 44.5516 42.2153 44.9157C41.7392 45.3162 41.3535 45.8587 41.3535 46.4808V49.9691C41.3535 50.8439 42.0626 51.553 42.9374 51.553H55.7395C57.7693 51.553 59.4149 53.1986 59.4149 55.2284V64.421C59.4149 64.9869 59.9803 65.3884 60.5461 65.3884C62.5105 65.3884 64.103 66.9809 64.103 68.9453C64.103 70.9097 62.5105 72.5022 60.5461 72.5022C59.9803 72.5022 59.4149 72.9038 59.4149 73.4696V80.1308C59.4149 82.1606 57.7693 83.8062 55.7395 83.8062H38.5384Z" fill="white"/>
<path d="M34.5679 62.3146C34.5679 64.3697 32.9019 66.0357 30.8468 66.0357C28.7917 66.0357 27.1257 64.3697 27.1257 62.3146C27.1257 60.2595 28.7917 58.5935 30.8468 58.5935C32.9019 58.5935 34.5679 60.2595 34.5679 62.3146Z" fill="white"/>
<path d="M47.2634 66.0357C49.3185 66.0357 50.9844 64.3697 50.9844 62.3146C50.9844 60.2595 49.3185 58.5935 47.2634 58.5935C45.2083 58.5935 43.5423 60.2595 43.5423 62.3146C43.5423 64.3697 45.2083 66.0357 47.2634 66.0357Z" fill="white"/>
<mask id="path-2-outside-1_232_1890" maskUnits="userSpaceOnUse" x="104.558" y="25" width="464" height="73" fill="black">
<rect fill="white" x="104.558" y="25" width="464" height="73"/>
<path d="M153.873 29.5027V40.268H136.153V96H122.816V40.268H105.096V29.5027H153.873ZM183.23 96.8574C178.149 96.8574 173.576 95.746 169.511 93.523C165.447 91.2366 162.239 88.0292 159.889 83.9009C157.603 79.7726 156.46 75.0092 156.46 69.6107C156.46 64.2121 157.635 59.4487 159.985 55.3204C162.398 51.1921 165.669 48.0165 169.797 45.7936C173.926 43.5072 178.53 42.364 183.611 42.364C188.692 42.364 193.297 43.5072 197.425 45.7936C201.553 48.0165 204.793 51.1921 207.142 55.3204C209.556 59.4487 210.763 64.2121 210.763 69.6107C210.763 75.0092 209.524 79.7726 207.047 83.9009C204.634 88.0292 201.331 91.2366 197.139 93.523C193.011 95.746 188.375 96.8574 183.23 96.8574ZM183.23 85.2347C185.644 85.2347 187.898 84.6631 189.994 83.5199C192.154 82.3131 193.868 80.5348 195.139 78.1848C196.409 75.8349 197.044 72.9768 197.044 69.6107C197.044 64.5932 195.71 60.7507 193.043 58.0832C190.439 55.3522 187.231 53.9867 183.421 53.9867C179.61 53.9867 176.403 55.3522 173.799 58.0832C171.258 60.7507 169.988 64.5932 169.988 69.6107C169.988 74.6281 171.226 78.5024 173.703 81.2334C176.244 83.9009 179.419 85.2347 183.23 85.2347ZM245.983 42.4592C252.271 42.4592 257.352 44.4599 261.226 48.4611C265.1 52.3989 267.037 57.9244 267.037 65.0378V96H253.7V66.8479C253.7 62.6561 252.652 59.4487 250.556 57.2258C248.46 54.9394 245.602 53.7961 241.982 53.7961C238.298 53.7961 235.376 54.9394 233.217 57.2258C231.121 59.4487 230.073 62.6561 230.073 66.8479V96H216.736V43.2214H230.073V49.7949C231.851 47.5084 234.106 45.7301 236.837 44.4599C239.632 43.1261 242.68 42.4592 245.983 42.4592ZM272.48 69.4201C272.48 64.0851 273.528 59.3535 275.624 55.2252C277.783 51.0969 280.705 47.9213 284.389 45.6983C288.072 43.4754 292.169 42.364 296.678 42.364C300.108 42.364 303.379 43.1261 306.491 44.6504C309.603 46.1112 312.08 48.08 313.922 50.557V25.5015H327.45V96H313.922V88.188C312.271 90.792 309.952 92.8879 306.967 94.4757C303.982 96.0635 300.521 96.8574 296.583 96.8574C292.137 96.8574 288.072 95.7142 284.389 93.4278C280.705 91.1413 277.783 87.934 275.624 83.8057C273.528 79.6139 272.48 74.8187 272.48 69.4201ZM314.017 69.6107C314.017 66.3716 313.382 63.6088 312.112 61.3223C310.841 58.9724 309.127 57.194 306.967 55.9873C304.808 54.7171 302.49 54.082 300.013 54.082C297.536 54.082 295.249 54.6853 293.153 55.892C291.057 57.0988 289.343 58.8771 288.009 61.2271C286.739 63.5135 286.103 66.2445 286.103 69.4201C286.103 72.5958 286.739 75.3903 288.009 77.8038C289.343 80.1537 291.057 81.9638 293.153 83.234C295.313 84.5043 297.599 85.1394 300.013 85.1394C302.49 85.1394 304.808 84.536 306.967 83.3293C309.127 82.0591 310.841 80.2807 312.112 77.9943C313.382 75.6443 314.017 72.8498 314.017 69.6107ZM385.729 68.4675C385.729 70.3728 385.602 72.0877 385.348 73.612H346.764C347.082 77.4227 348.415 80.4078 350.765 82.5672C353.115 84.7266 356.005 85.8063 359.435 85.8063C364.389 85.8063 367.914 83.6786 370.01 79.4233H384.395C382.871 84.5043 379.949 88.6961 375.63 91.9987C371.312 95.2379 366.008 96.8574 359.721 96.8574C354.64 96.8574 350.067 95.746 346.002 93.523C342.001 91.2366 338.857 88.0292 336.57 83.9009C334.347 79.7726 333.236 75.0092 333.236 69.6107C333.236 64.1486 334.347 59.3535 336.57 55.2252C338.793 51.0969 341.905 47.9213 345.907 45.6983C349.908 43.4754 354.513 42.364 359.721 42.364C364.738 42.364 369.216 43.4437 373.153 45.6031C377.155 47.7625 380.235 50.8428 382.394 54.8441C384.617 58.7819 385.729 63.323 385.729 68.4675ZM371.915 64.6567C371.851 61.2271 370.613 58.496 368.199 56.4637C365.786 54.3678 362.833 53.3198 359.339 53.3198C356.037 53.3198 353.242 54.336 350.956 56.3684C348.733 58.3373 347.367 61.1 346.859 64.6567H371.915ZM404.991 51.4144C406.706 48.6199 408.929 46.4287 411.66 44.8409C414.454 43.2531 417.63 42.4592 421.186 42.4592V56.4637H417.662C413.47 56.4637 410.294 57.4481 408.135 59.417C406.039 61.3859 404.991 64.8155 404.991 69.706V96H391.653V43.2214H404.991V51.4144ZM464.085 61.894C467.833 62.5926 470.913 64.4662 473.327 67.5148C475.74 70.5634 476.947 74.0565 476.947 77.9943C476.947 81.551 476.058 84.6948 474.279 87.4259C472.564 90.0934 470.056 92.1893 466.753 93.7136C463.45 95.2379 459.544 96 455.035 96H426.359V29.5027H453.797C458.306 29.5027 462.18 30.2331 465.419 31.6939C468.722 33.1547 471.199 35.1871 472.85 37.7911C474.565 40.3951 475.422 43.3484 475.422 46.651C475.422 50.5253 474.374 53.7644 472.279 56.3684C470.246 58.9724 467.515 60.8142 464.085 61.894ZM439.697 56.94H451.891C455.067 56.94 457.512 56.2414 459.227 54.8441C460.942 53.3833 461.799 51.3192 461.799 48.6517C461.799 45.9841 460.942 43.92 459.227 42.4592C457.512 40.9984 455.067 40.268 451.891 40.268H439.697V56.94ZM453.13 85.1394C456.369 85.1394 458.877 84.3773 460.656 82.853C462.498 81.3287 463.419 79.1693 463.419 76.3747C463.419 73.5167 462.466 71.2938 460.561 69.706C458.655 68.0546 456.083 67.229 452.844 67.229H439.697V85.1394H453.13ZM507.202 96.8574C502.121 96.8574 497.548 95.746 493.483 93.523C489.418 91.2366 486.211 88.0292 483.861 83.9009C481.575 79.7726 480.431 75.0092 480.431 69.6107C480.431 64.2121 481.606 59.4487 483.956 55.3204C486.37 51.1921 489.641 48.0165 493.769 45.7936C497.897 43.5072 502.502 42.364 507.583 42.364C512.664 42.364 517.269 43.5072 521.397 45.7936C525.525 48.0165 528.764 51.1921 531.114 55.3204C533.528 59.4487 534.734 64.2121 534.734 69.6107C534.734 75.0092 533.496 79.7726 531.019 83.9009C528.605 88.0292 525.303 91.2366 521.111 93.523C516.983 95.746 512.346 96.8574 507.202 96.8574ZM507.202 85.2347C509.615 85.2347 511.87 84.6631 513.966 83.5199C516.125 82.3131 517.84 80.5348 519.11 78.1848C520.381 75.8349 521.016 72.9768 521.016 69.6107C521.016 64.5932 519.682 60.7507 517.014 58.0832C514.41 55.3522 511.203 53.9867 507.392 53.9867C503.582 53.9867 500.374 55.3522 497.77 58.0832C495.23 60.7507 493.96 64.5932 493.96 69.6107C493.96 74.6281 495.198 78.5024 497.675 81.2334C500.215 83.9009 503.391 85.2347 507.202 85.2347ZM556.236 54.1772V79.7091C556.236 81.4875 556.649 82.7895 557.474 83.6151C558.364 84.3773 559.824 84.7583 561.857 84.7583H568.049V96H559.666C548.424 96 542.803 90.538 542.803 79.6139V54.1772H536.515V43.2214H542.803V30.1696H556.236V43.2214H568.049V54.1772H556.236Z"/>
</mask>
<path d="M153.873 29.5027V40.268H136.153V96H122.816V40.268H105.096V29.5027H153.873ZM183.23 96.8574C178.149 96.8574 173.576 95.746 169.511 93.523C165.447 91.2366 162.239 88.0292 159.889 83.9009C157.603 79.7726 156.46 75.0092 156.46 69.6107C156.46 64.2121 157.635 59.4487 159.985 55.3204C162.398 51.1921 165.669 48.0165 169.797 45.7936C173.926 43.5072 178.53 42.364 183.611 42.364C188.692 42.364 193.297 43.5072 197.425 45.7936C201.553 48.0165 204.793 51.1921 207.142 55.3204C209.556 59.4487 210.763 64.2121 210.763 69.6107C210.763 75.0092 209.524 79.7726 207.047 83.9009C204.634 88.0292 201.331 91.2366 197.139 93.523C193.011 95.746 188.375 96.8574 183.23 96.8574ZM183.23 85.2347C185.644 85.2347 187.898 84.6631 189.994 83.5199C192.154 82.3131 193.868 80.5348 195.139 78.1848C196.409 75.8349 197.044 72.9768 197.044 69.6107C197.044 64.5932 195.71 60.7507 193.043 58.0832C190.439 55.3522 187.231 53.9867 183.421 53.9867C179.61 53.9867 176.403 55.3522 173.799 58.0832C171.258 60.7507 169.988 64.5932 169.988 69.6107C169.988 74.6281 171.226 78.5024 173.703 81.2334C176.244 83.9009 179.419 85.2347 183.23 85.2347ZM245.983 42.4592C252.271 42.4592 257.352 44.4599 261.226 48.4611C265.1 52.3989 267.037 57.9244 267.037 65.0378V96H253.7V66.8479C253.7 62.6561 252.652 59.4487 250.556 57.2258C248.46 54.9394 245.602 53.7961 241.982 53.7961C238.298 53.7961 235.376 54.9394 233.217 57.2258C231.121 59.4487 230.073 62.6561 230.073 66.8479V96H216.736V43.2214H230.073V49.7949C231.851 47.5084 234.106 45.7301 236.837 44.4599C239.632 43.1261 242.68 42.4592 245.983 42.4592ZM272.48 69.4201C272.48 64.0851 273.528 59.3535 275.624 55.2252C277.783 51.0969 280.705 47.9213 284.389 45.6983C288.072 43.4754 292.169 42.364 296.678 42.364C300.108 42.364 303.379 43.1261 306.491 44.6504C309.603 46.1112 312.08 48.08 313.922 50.557V25.5015H327.45V96H313.922V88.188C312.271 90.792 309.952 92.8879 306.967 94.4757C303.982 96.0635 300.521 96.8574 296.583 96.8574C292.137 96.8574 288.072 95.7142 284.389 93.4278C280.705 91.1413 277.783 87.934 275.624 83.8057C273.528 79.6139 272.48 74.8187 272.48 69.4201ZM314.017 69.6107C314.017 66.3716 313.382 63.6088 312.112 61.3223C310.841 58.9724 309.127 57.194 306.967 55.9873C304.808 54.7171 302.49 54.082 300.013 54.082C297.536 54.082 295.249 54.6853 293.153 55.892C291.057 57.0988 289.343 58.8771 288.009 61.2271C286.739 63.5135 286.103 66.2445 286.103 69.4201C286.103 72.5958 286.739 75.3903 288.009 77.8038C289.343 80.1537 291.057 81.9638 293.153 83.234C295.313 84.5043 297.599 85.1394 300.013 85.1394C302.49 85.1394 304.808 84.536 306.967 83.3293C309.127 82.0591 310.841 80.2807 312.112 77.9943C313.382 75.6443 314.017 72.8498 314.017 69.6107ZM385.729 68.4675C385.729 70.3728 385.602 72.0877 385.348 73.612H346.764C347.082 77.4227 348.415 80.4078 350.765 82.5672C353.115 84.7266 356.005 85.8063 359.435 85.8063C364.389 85.8063 367.914 83.6786 370.01 79.4233H384.395C382.871 84.5043 379.949 88.6961 375.63 91.9987C371.312 95.2379 366.008 96.8574 359.721 96.8574C354.64 96.8574 350.067 95.746 346.002 93.523C342.001 91.2366 338.857 88.0292 336.57 83.9009C334.347 79.7726 333.236 75.0092 333.236 69.6107C333.236 64.1486 334.347 59.3535 336.57 55.2252C338.793 51.0969 341.905 47.9213 345.907 45.6983C349.908 43.4754 354.513 42.364 359.721 42.364C364.738 42.364 369.216 43.4437 373.153 45.6031C377.155 47.7625 380.235 50.8428 382.394 54.8441C384.617 58.7819 385.729 63.323 385.729 68.4675ZM371.915 64.6567C371.851 61.2271 370.613 58.496 368.199 56.4637C365.786 54.3678 362.833 53.3198 359.339 53.3198C356.037 53.3198 353.242 54.336 350.956 56.3684C348.733 58.3373 347.367 61.1 346.859 64.6567H371.915ZM404.991 51.4144C406.706 48.6199 408.929 46.4287 411.66 44.8409C414.454 43.2531 417.63 42.4592 421.186 42.4592V56.4637H417.662C413.47 56.4637 410.294 57.4481 408.135 59.417C406.039 61.3859 404.991 64.8155 404.991 69.706V96H391.653V43.2214H404.991V51.4144ZM464.085 61.894C467.833 62.5926 470.913 64.4662 473.327 67.5148C475.74 70.5634 476.947 74.0565 476.947 77.9943C476.947 81.551 476.058 84.6948 474.279 87.4259C472.564 90.0934 470.056 92.1893 466.753 93.7136C463.45 95.2379 459.544 96 455.035 96H426.359V29.5027H453.797C458.306 29.5027 462.18 30.2331 465.419 31.6939C468.722 33.1547 471.199 35.1871 472.85 37.7911C474.565 40.3951 475.422 43.3484 475.422 46.651C475.422 50.5253 474.374 53.7644 472.279 56.3684C470.246 58.9724 467.515 60.8142 464.085 61.894ZM439.697 56.94H451.891C455.067 56.94 457.512 56.2414 459.227 54.8441C460.942 53.3833 461.799 51.3192 461.799 48.6517C461.799 45.9841 460.942 43.92 459.227 42.4592C457.512 40.9984 455.067 40.268 451.891 40.268H439.697V56.94ZM453.13 85.1394C456.369 85.1394 458.877 84.3773 460.656 82.853C462.498 81.3287 463.419 79.1693 463.419 76.3747C463.419 73.5167 462.466 71.2938 460.561 69.706C458.655 68.0546 456.083 67.229 452.844 67.229H439.697V85.1394H453.13ZM507.202 96.8574C502.121 96.8574 497.548 95.746 493.483 93.523C489.418 91.2366 486.211 88.0292 483.861 83.9009C481.575 79.7726 480.431 75.0092 480.431 69.6107C480.431 64.2121 481.606 59.4487 483.956 55.3204C486.37 51.1921 489.641 48.0165 493.769 45.7936C497.897 43.5072 502.502 42.364 507.583 42.364C512.664 42.364 517.269 43.5072 521.397 45.7936C525.525 48.0165 528.764 51.1921 531.114 55.3204C533.528 59.4487 534.734 64.2121 534.734 69.6107C534.734 75.0092 533.496 79.7726 531.019 83.9009C528.605 88.0292 525.303 91.2366 521.111 93.523C516.983 95.746 512.346 96.8574 507.202 96.8574ZM507.202 85.2347C509.615 85.2347 511.87 84.6631 513.966 83.5199C516.125 82.3131 517.84 80.5348 519.11 78.1848C520.381 75.8349 521.016 72.9768 521.016 69.6107C521.016 64.5932 519.682 60.7507 517.014 58.0832C514.41 55.3522 511.203 53.9867 507.392 53.9867C503.582 53.9867 500.374 55.3522 497.77 58.0832C495.23 60.7507 493.96 64.5932 493.96 69.6107C493.96 74.6281 495.198 78.5024 497.675 81.2334C500.215 83.9009 503.391 85.2347 507.202 85.2347ZM556.236 54.1772V79.7091C556.236 81.4875 556.649 82.7895 557.474 83.6151C558.364 84.3773 559.824 84.7583 561.857 84.7583H568.049V96H559.666C548.424 96 542.803 90.538 542.803 79.6139V54.1772H536.515V43.2214H542.803V30.1696H556.236V43.2214H568.049V54.1772H556.236Z" fill="white"/>
<path d="M153.873 29.5027H154.222V29.1537H153.873V29.5027ZM153.873 40.268V40.6171H154.222V40.268H153.873ZM136.153 40.268V39.919H135.804V40.268H136.153ZM136.153 96V96.349H136.502V96H136.153ZM122.816 96H122.467V96.349H122.816V96ZM122.816 40.268H123.165V39.919H122.816V40.268ZM105.096 40.268H104.747V40.6171H105.096V40.268ZM105.096 29.5027V29.1537H104.747V29.5027H105.096ZM153.524 29.5027V40.268H154.222V29.5027H153.524ZM153.873 39.919H136.153V40.6171H153.873V39.919ZM135.804 40.268V96H136.502V40.268H135.804ZM136.153 95.651H122.816V96.349H136.153V95.651ZM123.165 96V40.268H122.467V96H123.165ZM122.816 39.919H105.096V40.6171H122.816V39.919ZM105.445 40.268V29.5027H104.747V40.268H105.445ZM105.096 29.8518H153.873V29.1537H105.096V29.8518ZM169.511 93.523L169.34 93.8273L169.344 93.8293L169.511 93.523ZM159.889 83.9009L159.584 84.07L159.586 84.0736L159.889 83.9009ZM159.985 55.3204L159.683 55.1443L159.681 55.1478L159.985 55.3204ZM169.797 45.7936L169.963 46.101L169.966 46.0989L169.797 45.7936ZM197.425 45.7936L197.256 46.099L197.26 46.1009L197.425 45.7936ZM207.142 55.3204L206.839 55.4931L206.841 55.4966L207.142 55.3204ZM207.047 83.9009L206.748 83.7213L206.746 83.7248L207.047 83.9009ZM197.139 93.523L197.305 93.8304L197.306 93.8294L197.139 93.523ZM189.994 83.5199L190.161 83.8263L190.164 83.8245L189.994 83.5199ZM195.139 78.1848L195.446 78.3508L195.139 78.1848ZM193.043 58.0832L192.79 58.3242L192.796 58.33L193.043 58.0832ZM173.799 58.0832L173.546 57.8424L173.546 57.8425L173.799 58.0832ZM173.703 81.2334L173.445 81.468L173.451 81.4741L173.703 81.2334ZM183.23 96.5084C178.202 96.5084 173.688 95.409 169.679 93.2168L169.344 93.8293C173.465 96.0829 178.096 97.2065 183.23 97.2065V96.5084ZM169.683 93.2188C165.674 90.964 162.512 87.8026 160.193 83.7283L159.586 84.0736C161.967 88.2558 165.219 91.5092 169.34 93.8272L169.683 93.2188ZM160.195 83.7318C157.941 79.6623 156.809 74.9587 156.809 69.6107H156.111C156.111 75.0598 157.265 79.8829 159.584 84.07L160.195 83.7318ZM156.809 69.6107C156.809 64.2643 157.972 59.5619 160.288 55.4931L159.681 55.1478C157.298 59.3355 156.111 64.16 156.111 69.6107H156.809ZM160.286 55.4966C162.668 51.4225 165.892 48.2928 169.963 46.1009L169.632 45.4863C165.446 47.7403 162.128 50.9618 159.683 55.1443L160.286 55.4966ZM169.966 46.0989C174.039 43.8434 178.585 42.713 183.611 42.713V42.0149C178.476 42.0149 173.812 43.171 169.628 45.4883L169.966 46.0989ZM183.611 42.713C188.638 42.713 193.183 43.8434 197.256 46.0989L197.594 45.4883C193.41 43.171 188.747 42.0149 183.611 42.0149V42.713ZM197.26 46.1009C201.329 48.2924 204.521 51.421 206.839 55.4931L207.446 55.1478C205.064 50.9633 201.777 47.7407 197.591 45.4863L197.26 46.1009ZM206.841 55.4966C209.219 59.5648 210.414 64.2659 210.414 69.6107H211.112C211.112 64.1584 209.892 59.3326 207.444 55.1443L206.841 55.4966ZM210.414 69.6107C210.414 74.9538 209.188 79.6537 206.748 83.7213L207.346 84.0805C209.86 79.8916 211.112 75.0646 211.112 69.6107H210.414ZM206.746 83.7248C204.364 87.7983 201.108 90.9606 196.972 93.2166L197.306 93.8294C201.554 91.5126 204.903 88.2601 207.349 84.0771L206.746 83.7248ZM196.974 93.2157C192.901 95.4086 188.323 96.5084 183.23 96.5084V97.2065C188.427 97.2065 193.121 96.0833 197.305 93.8303L196.974 93.2157ZM183.23 85.5837C185.701 85.5837 188.014 84.9978 190.161 83.8263L189.827 83.2134C187.783 84.3284 185.586 84.8856 183.23 84.8856V85.5837ZM190.164 83.8245C192.386 82.5829 194.147 80.7542 195.446 78.3508L194.832 78.0189C193.59 80.3154 191.921 82.0433 189.824 83.2152L190.164 83.8245ZM195.446 78.3508C196.75 75.9383 197.393 73.02 197.393 69.6107H196.695C196.695 72.9337 196.068 75.7315 194.832 78.0189L195.446 78.3508ZM197.393 69.6107C197.393 64.5322 196.042 60.5888 193.29 57.8364L192.796 58.33C195.379 60.9127 196.695 64.6542 196.695 69.6107H197.393ZM193.295 57.8424C190.625 55.0415 187.326 53.6376 183.421 53.6376V54.3357C187.137 54.3357 190.253 55.6629 192.79 58.3241L193.295 57.8424ZM183.421 53.6376C179.516 53.6376 176.217 55.0415 173.546 57.8424L174.051 58.3241C176.589 55.6629 179.704 54.3357 183.421 54.3357V53.6376ZM173.546 57.8425C170.924 60.5954 169.639 64.5366 169.639 69.6107H170.337C170.337 64.6498 171.592 60.906 174.051 58.3239L173.546 57.8425ZM169.639 69.6107C169.639 74.6832 170.891 78.6526 173.445 81.4679L173.962 80.9989C171.561 78.3522 170.337 74.5731 170.337 69.6107H169.639ZM173.451 81.4741C176.059 84.2135 179.328 85.5837 183.23 85.5837V84.8856C179.511 84.8856 176.428 83.5884 173.956 80.9927L173.451 81.4741ZM261.226 48.4611L260.975 48.7039L260.977 48.7059L261.226 48.4611ZM267.037 96V96.349H267.386V96H267.037ZM253.7 96H253.351V96.349H253.7V96ZM250.556 57.2258L250.298 57.4617L250.302 57.4653L250.556 57.2258ZM233.217 57.2258L232.963 56.9861L232.963 56.9864L233.217 57.2258ZM230.073 96V96.349H230.422V96H230.073ZM216.736 96H216.386V96.349H216.736V96ZM216.736 43.2214V42.8723H216.386V43.2214H216.736ZM230.073 43.2214H230.422V42.8723H230.073V43.2214ZM230.073 49.7949H229.724V50.8122L230.349 50.0092L230.073 49.7949ZM236.837 44.4599L236.984 44.7764L236.987 44.7749L236.837 44.4599ZM245.983 42.8083C252.189 42.8083 257.175 44.7796 260.975 48.7039L261.477 48.2183C257.528 44.1401 252.352 42.1102 245.983 42.1102V42.8083ZM260.977 48.7059C264.77 52.5611 266.688 57.9885 266.688 65.0378H267.386C267.386 57.8603 265.43 52.2366 261.475 48.2163L260.977 48.7059ZM266.688 65.0378V96H267.386V65.0378H266.688ZM267.037 95.651H253.7V96.349H267.037V95.651ZM254.049 96V66.8479H253.351V96H254.049ZM254.049 66.8479C254.049 62.6006 252.986 59.2949 250.81 56.9864L250.302 57.4653C252.317 59.6025 253.351 62.7116 253.351 66.8479H254.049ZM250.813 56.99C248.64 54.6192 245.682 53.4471 241.982 53.4471V54.1452C245.522 54.1452 248.28 55.2596 250.298 57.4617L250.813 56.99ZM241.982 53.4471C238.22 53.4471 235.2 54.6179 232.963 56.9861L233.471 57.4655C235.553 55.2609 238.376 54.1452 241.982 54.1452V53.4471ZM232.963 56.9864C230.786 59.2949 229.724 62.6006 229.724 66.8479H230.422C230.422 62.7116 231.456 59.6025 233.471 57.4653L232.963 56.9864ZM229.724 66.8479V96H230.422V66.8479H229.724ZM230.073 95.651H216.736V96.349H230.073V95.651ZM217.085 96V43.2214H216.386V96H217.085ZM216.736 43.5704H230.073V42.8723H216.736V43.5704ZM229.724 43.2214V49.7949H230.422V43.2214H229.724ZM230.349 50.0092C232.092 47.7683 234.302 46.0242 236.984 44.7763L236.69 44.1434C233.911 45.436 231.611 47.2486 229.798 49.5806L230.349 50.0092ZM236.987 44.7749C239.732 43.465 242.729 42.8083 245.983 42.8083V42.1102C242.632 42.1102 239.531 42.7872 236.687 44.1449L236.987 44.7749ZM275.624 55.2252L275.315 55.0634L275.313 55.0672L275.624 55.2252ZM284.389 45.6983L284.569 45.9972L284.389 45.6983ZM306.491 44.6504L306.337 44.9639L306.343 44.9664L306.491 44.6504ZM313.922 50.557L313.642 50.7653L314.271 51.6114V50.557H313.922ZM313.922 25.5015V25.1524H313.573V25.5015H313.922ZM327.45 25.5015H327.799V25.1524H327.45V25.5015ZM327.45 96V96.349H327.799V96H327.45ZM313.922 96H313.573V96.349H313.922V96ZM313.922 88.188H314.271V86.9858L313.627 88.0011L313.922 88.188ZM306.967 94.4757L306.803 94.1675L306.967 94.4757ZM284.389 93.4278L284.573 93.1312L284.389 93.4278ZM275.624 83.8057L275.312 83.9618L275.315 83.9674L275.624 83.8057ZM312.112 61.3223L311.805 61.4883L311.807 61.4919L312.112 61.3223ZM306.967 55.9873L306.79 56.2882L306.797 56.292L306.967 55.9873ZM293.153 55.892L292.979 55.5896L293.153 55.892ZM288.009 61.2271L287.705 61.0548L287.704 61.0576L288.009 61.2271ZM288.009 77.8038L287.7 77.9664L287.705 77.976L288.009 77.8038ZM293.153 83.234L292.972 83.5326L292.976 83.5349L293.153 83.234ZM306.967 83.3293L307.138 83.6341L307.144 83.6302L306.967 83.3293ZM312.112 77.9943L312.417 78.1638L312.419 78.1603L312.112 77.9943ZM272.829 69.4201C272.829 64.1316 273.868 59.4555 275.935 55.3832L275.313 55.0672C273.188 59.2514 272.131 64.0386 272.131 69.4201H272.829ZM275.933 55.387C278.066 51.3104 280.945 48.1844 284.569 45.9972L284.208 45.3995C280.465 47.6582 277.501 50.8833 275.315 55.0634L275.933 55.387ZM284.569 45.9972C288.196 43.8087 292.229 42.713 296.678 42.713V42.0149C292.109 42.0149 287.949 43.1421 284.208 45.3995L284.569 45.9972ZM296.678 42.713C300.054 42.713 303.273 43.4627 306.337 44.9639L306.644 44.3369C303.485 42.7895 300.162 42.0149 296.678 42.0149V42.713ZM306.343 44.9664C309.409 46.4055 311.838 48.3396 313.642 50.7653L314.202 50.3488C312.322 47.8205 309.797 45.8168 306.639 44.3344L306.343 44.9664ZM314.271 50.557V25.5015H313.573V50.557H314.271ZM313.922 25.8505H327.45V25.1524H313.922V25.8505ZM327.101 25.5015V96H327.799V25.5015H327.101ZM327.45 95.651H313.922V96.349H327.45V95.651ZM314.271 96V88.188H313.573V96H314.271ZM313.627 88.0011C312.011 90.5492 309.74 92.6053 306.803 94.1675L307.131 94.7839C310.164 93.1705 312.53 91.0348 314.217 88.3749L313.627 88.0011ZM306.803 94.1675C303.876 95.7244 300.473 96.5084 296.583 96.5084V97.2065C300.568 97.2065 304.088 96.4026 307.131 94.7839L306.803 94.1675ZM296.583 96.5084C292.2 96.5084 288.2 95.3824 284.573 93.1312L284.205 93.7243C287.945 96.046 292.074 97.2065 296.583 97.2065V96.5084ZM284.573 93.1312C280.946 90.8801 278.066 87.7211 275.933 83.6439L275.315 83.9674C277.501 88.1468 280.464 91.4025 284.205 93.7243L284.573 93.1312ZM275.936 83.6496C273.868 79.5131 272.829 74.7727 272.829 69.4201H272.131C272.131 74.8646 273.188 79.7146 275.312 83.9618L275.936 83.6496ZM314.366 69.6107C314.366 66.3262 313.722 63.5021 312.417 61.1528L311.807 61.4919C313.042 63.7155 313.668 66.4169 313.668 69.6107H314.366ZM312.419 61.1564C311.12 58.753 309.359 56.9243 307.138 55.6826L306.797 56.292C308.894 57.4638 310.563 59.1918 311.805 61.4883L312.419 61.1564ZM307.144 55.6865C304.932 54.385 302.553 53.7329 300.013 53.7329V54.431C302.427 54.431 304.684 55.0491 306.79 56.2882L307.144 55.6865ZM300.013 53.7329C297.476 53.7329 295.129 54.3516 292.979 55.5896L293.327 56.1945C295.369 55.0191 297.595 54.431 300.013 54.431V53.7329ZM292.979 55.5896C290.823 56.8309 289.066 58.6572 287.705 61.0548L288.312 61.3994C289.619 59.0971 291.292 57.3667 293.327 56.1945L292.979 55.5896ZM287.704 61.0576C286.399 63.4059 285.754 66.1978 285.754 69.4201H286.453C286.453 66.2912 287.078 63.6212 288.314 61.3966L287.704 61.0576ZM285.754 69.4201C285.754 72.6431 286.399 75.4951 287.7 77.9663L288.318 77.6412C287.078 75.2855 286.453 72.5484 286.453 69.4201H285.754ZM287.705 77.976C289.065 80.3724 290.82 82.2283 292.972 83.5325L293.334 82.9355C291.294 81.6993 289.62 79.935 288.312 77.6315L287.705 77.976ZM292.976 83.5349C295.187 84.8354 297.535 85.4885 300.013 85.4885V84.7904C297.664 84.7904 295.438 84.1731 293.33 82.9332L292.976 83.5349ZM300.013 85.4885C302.549 85.4885 304.926 84.8699 307.138 83.634L306.797 83.0246C304.69 84.2022 302.43 84.7904 300.013 84.7904V85.4885ZM307.144 83.6302C309.36 82.3269 311.118 80.5022 312.417 78.1638L311.807 77.8248C310.565 80.0593 308.894 81.7912 306.79 83.0285L307.144 83.6302ZM312.419 78.1603C313.722 75.7496 314.366 72.8955 314.366 69.6107H313.668C313.668 72.8041 313.042 75.5391 311.805 77.8283L312.419 78.1603ZM385.348 73.612V73.961H385.643L385.692 73.6693L385.348 73.612ZM346.764 73.612V73.2629H346.385L346.416 73.6409L346.764 73.612ZM350.765 82.5672L350.529 82.8242L350.765 82.5672ZM370.01 79.4233V79.0743H369.792L369.696 79.2691L370.01 79.4233ZM384.395 79.4233L384.729 79.5236L384.864 79.0743H384.395V79.4233ZM375.63 91.9987L375.84 92.278L375.842 92.276L375.63 91.9987ZM346.002 93.523L345.829 93.8261L345.834 93.8293L346.002 93.523ZM336.57 83.9009L336.263 84.0664L336.265 84.07L336.57 83.9009ZM336.57 55.2252L336.263 55.0597L336.57 55.2252ZM345.907 45.6983L346.076 46.0035L345.907 45.6983ZM373.153 45.6031L372.986 45.9091L372.988 45.9102L373.153 45.6031ZM382.394 54.8441L382.087 55.0099L382.09 55.0157L382.394 54.8441ZM371.915 64.6567V65.0058H372.27L372.264 64.6503L371.915 64.6567ZM368.199 56.4637L367.971 56.7272L367.975 56.7306L368.199 56.4637ZM350.956 56.3684L351.187 56.6297L351.188 56.6293L350.956 56.3684ZM346.859 64.6567L346.514 64.6074L346.457 65.0058H346.859V64.6567ZM385.38 68.4675C385.38 70.3578 385.254 72.053 385.003 73.5546L385.692 73.6693C385.95 72.1223 386.078 70.3878 386.078 68.4675H385.38ZM385.348 73.2629H346.764V73.961H385.348V73.2629ZM346.416 73.6409C346.74 77.5207 348.102 80.5941 350.529 82.8242L351.002 82.3102C348.728 80.2214 347.424 77.3247 347.112 73.583L346.416 73.6409ZM350.529 82.8242C352.949 85.0474 355.925 86.1553 359.435 86.1553V85.4573C356.085 85.4573 353.282 84.4057 351.002 82.3102L350.529 82.8242ZM359.435 86.1553C361.962 86.1553 364.147 85.6122 365.974 84.5094C367.802 83.406 369.25 81.7558 370.323 79.5775L369.696 79.2691C368.673 81.3462 367.311 82.8874 365.614 83.9117C363.916 84.9366 361.861 85.4573 359.435 85.4573V86.1553ZM370.01 79.7724H384.395V79.0743H370.01V79.7724ZM384.061 79.323C382.558 84.3317 379.68 88.4623 375.418 91.7215L375.842 92.276C380.218 88.9299 383.183 84.6768 384.729 79.5236L384.061 79.323ZM375.421 91.7195C371.172 94.9061 365.946 96.5084 359.721 96.5084V97.2065C366.071 97.2065 371.451 95.5696 375.84 92.278L375.421 91.7195ZM359.721 96.5084C354.692 96.5084 350.178 95.409 346.169 93.2168L345.834 93.8293C349.955 96.0829 354.587 97.2065 359.721 97.2065V96.5084ZM346.175 93.22C342.231 90.966 339.132 87.8056 336.876 83.7318L336.265 84.07C338.582 88.2528 341.771 91.5071 345.829 93.8261L346.175 93.22ZM336.878 83.7354C334.686 79.6652 333.585 74.9603 333.585 69.6107H332.887C332.887 75.0582 334.009 79.88 336.263 84.0664L336.878 83.7354ZM333.585 69.6107C333.585 64.1968 334.686 59.4603 336.878 55.3907L336.263 55.0597C334.009 59.2466 332.887 64.1004 332.887 69.6107H333.585ZM336.878 55.3907C339.07 51.3196 342.135 48.1931 346.076 46.0035L345.737 45.3932C341.676 47.6494 338.517 50.8741 336.263 55.0597L336.878 55.3907ZM346.076 46.0035C350.019 43.8131 354.564 42.713 359.721 42.713V42.0149C354.462 42.0149 349.797 43.1377 345.737 45.3932L346.076 46.0035ZM359.721 42.713C364.686 42.713 369.105 43.7811 372.986 45.9091L373.321 45.297C369.326 43.1062 364.79 42.0149 359.721 42.0149V42.713ZM372.988 45.9102C376.929 48.0373 379.96 51.0685 382.087 55.0099L382.702 54.6783C380.51 50.6171 377.38 47.4877 373.319 45.2959L372.988 45.9102ZM382.09 55.0157C384.28 58.8942 385.38 63.3747 385.38 68.4675H386.078C386.078 63.2713 384.955 58.6695 382.698 54.6725L382.09 55.0157ZM372.264 64.6503C372.199 61.1298 370.922 58.3 368.424 56.1967L367.975 56.7306C370.304 58.6921 371.504 61.3243 371.566 64.6632L372.264 64.6503ZM368.428 56.2001C365.945 54.0438 362.908 52.9708 359.34 52.9708V53.6688C362.757 53.6688 365.627 54.6917 367.971 56.7272L368.428 56.2001ZM359.34 52.9708C355.959 52.9708 353.08 54.0136 350.724 56.1075L351.188 56.6293C353.405 54.6584 356.115 53.6688 359.34 53.6688V52.9708ZM350.724 56.1071C348.427 58.1418 347.031 60.9867 346.514 64.6074L347.205 64.7061C347.704 61.2134 349.039 58.5328 351.187 56.6297L350.724 56.1071ZM346.859 65.0058H371.915V64.3077H346.859V65.0058ZM404.991 51.4144H404.642V52.6506L405.288 51.597L404.991 51.4144ZM411.66 44.8409L411.487 44.5374L411.484 44.5392L411.66 44.8409ZM421.186 42.4592H421.536V42.1102H421.186V42.4592ZM421.186 56.4637V56.8127H421.536V56.4637H421.186ZM408.135 59.417L407.9 59.159L407.896 59.1626L408.135 59.417ZM404.991 96V96.349H405.34V96H404.991ZM391.653 96H391.304V96.349H391.653V96ZM391.653 43.2214V42.8723H391.304V43.2214H391.653ZM404.991 43.2214H405.34V42.8723H404.991V43.2214ZM405.288 51.597C406.974 48.8497 409.156 46.7003 411.835 45.1427L411.484 44.5392C408.701 46.1571 406.437 48.3901 404.693 51.2319L405.288 51.597ZM411.832 45.1444C414.569 43.5896 417.684 42.8083 421.186 42.8083V42.1102C417.576 42.1102 414.34 42.9167 411.487 44.5375L411.832 45.1444ZM420.837 42.4592V56.4637H421.536V42.4592H420.837ZM421.186 56.1146H417.662V56.8127H421.186V56.1146ZM417.662 56.1146C413.42 56.1146 410.146 57.1104 407.9 59.159L408.37 59.6749C410.442 57.7858 413.519 56.8127 417.662 56.8127V56.1146ZM407.896 59.1626C405.694 61.2311 404.642 64.783 404.642 69.7059H405.34C405.34 64.848 406.384 61.5406 408.374 59.6714L407.896 59.1626ZM404.642 69.7059V96H405.34V69.7059H404.642ZM404.991 95.651H391.653V96.349H404.991V95.651ZM392.002 96V43.2214H391.304V96H392.002ZM391.653 43.5704H404.991V42.8723H391.653V43.5704ZM404.642 43.2214V51.4144H405.34V43.2214H404.642ZM464.085 61.894L463.981 61.561L464.022 62.2371L464.085 61.894ZM473.327 67.5148L473.6 67.2981L473.327 67.5148ZM474.279 87.4259L473.987 87.2354L473.986 87.2371L474.279 87.4259ZM466.753 93.7136L466.899 94.0305L466.753 93.7136ZM426.359 96H426.01V96.349H426.359V96ZM426.359 29.5027V29.1537H426.01V29.5027H426.359ZM465.419 31.6939L465.276 32.0121L465.278 32.0131L465.419 31.6939ZM472.85 37.7911L472.555 37.978L472.559 37.983L472.85 37.7911ZM472.279 56.3684L472.007 56.1495L472.003 56.1536L472.279 56.3684ZM439.697 56.94H439.348V57.289H439.697V56.94ZM459.227 54.8441L459.447 55.1148L459.453 55.1098L459.227 54.8441ZM459.227 42.4592L459.453 42.1935L459.227 42.4592ZM439.697 40.268V39.919H439.348V40.268H439.697ZM460.656 82.853L460.433 82.584L460.429 82.588L460.656 82.853ZM460.561 69.7059L460.332 69.9698L460.337 69.9741L460.561 69.7059ZM439.697 67.229V66.8799H439.348V67.229H439.697ZM439.697 85.1394H439.348V85.4885H439.697V85.1394ZM464.022 62.2371C467.684 62.9199 470.691 64.7475 473.053 67.7314L473.6 67.2981C471.136 64.1849 467.981 62.2652 464.149 61.5508L464.022 62.2371ZM473.053 67.7314C475.417 70.7175 476.598 74.1341 476.598 77.9943H477.296C477.296 73.979 476.063 70.4092 473.6 67.2981L473.053 67.7314ZM476.598 77.9943C476.598 81.4898 475.725 84.5662 473.987 87.2354L474.572 87.6163C476.39 84.8235 477.296 81.6122 477.296 77.9943H476.598ZM473.986 87.2371C472.312 89.8409 469.858 91.896 466.607 93.3966L466.899 94.0305C470.253 92.4825 472.817 90.3458 474.573 87.6146L473.986 87.2371ZM466.607 93.3966C463.36 94.8953 459.506 95.651 455.035 95.651V96.349C459.583 96.349 463.541 95.5804 466.899 94.0305L466.607 93.3966ZM455.035 95.651H426.359V96.349H455.035V95.651ZM426.708 96V29.5027H426.01V96H426.708ZM426.359 29.8518H453.797V29.1537H426.359V29.8518ZM453.797 29.8518C458.269 29.8518 462.092 30.5763 465.276 32.0121L465.563 31.3757C462.268 29.8899 458.342 29.1537 453.797 29.1537V29.8518ZM465.278 32.0131C468.529 33.4509 470.947 35.4418 472.555 37.978L473.145 37.6041C471.451 34.9324 468.915 32.8585 465.56 31.3747L465.278 32.0131ZM472.559 37.983C474.234 40.5266 475.073 43.4124 475.073 46.651H475.771C475.771 43.2844 474.896 40.2635 473.142 37.5991L472.559 37.983ZM475.073 46.651C475.073 50.4589 474.045 53.6172 472.007 56.1495L472.55 56.5872C474.704 53.9116 475.771 50.5916 475.771 46.651H475.073ZM472.003 56.1536C470.018 58.6969 467.349 60.5006 463.981 61.561L464.19 62.2269C467.681 61.1279 470.474 59.2478 472.554 56.5831L472.003 56.1536ZM439.697 57.289H451.891V56.591H439.697V57.289ZM451.891 57.289C455.113 57.289 457.648 56.5807 459.447 55.1147L459.006 54.5735C457.376 55.902 455.021 56.591 451.891 56.591V57.289ZM459.453 55.1098C461.26 53.5703 462.148 51.4007 462.148 48.6517H461.45C461.45 51.2377 460.623 53.1963 459 54.5784L459.453 55.1098ZM462.148 48.6517C462.148 45.9027 461.26 43.733 459.453 42.1935L459 42.7249C460.623 44.107 461.45 46.0656 461.45 48.6517H462.148ZM459.453 42.1935C457.654 40.6606 455.116 39.919 451.891 39.919V40.6171C455.017 40.6171 457.37 41.3363 459 42.7249L459.453 42.1935ZM451.891 39.919H439.697V40.6171H451.891V39.919ZM439.348 40.268V56.94H440.046V40.268H439.348ZM453.13 85.4885C456.42 85.4885 459.021 84.7141 460.883 83.118L460.429 82.588C458.734 84.0404 456.317 84.7904 453.13 84.7904V85.4885ZM460.878 83.1219C462.814 81.5197 463.768 79.2537 463.768 76.3747H463.07C463.07 79.0848 462.181 81.1376 460.433 82.5841L460.878 83.1219ZM463.768 76.3747C463.768 73.4307 462.782 71.1024 460.784 69.4378L460.337 69.9741C462.15 71.4851 463.07 73.6026 463.07 76.3747H463.768ZM460.789 69.4422C458.804 67.7217 456.142 66.8799 452.844 66.8799V67.578C456.023 67.578 458.506 68.3876 460.332 69.9697L460.789 69.4422ZM452.844 66.8799H439.697V67.578H452.844V66.8799ZM439.348 67.229V85.1394H440.046V67.229H439.348ZM439.697 85.4885H453.13V84.7904H439.697V85.4885ZM493.483 93.523L493.312 93.8273L493.316 93.8293L493.483 93.523ZM483.861 83.9009L483.556 84.07L483.558 84.0736L483.861 83.9009ZM483.956 55.3204L483.655 55.1443L483.653 55.1478L483.956 55.3204ZM493.769 45.7936L493.935 46.101L493.938 46.0989L493.769 45.7936ZM521.397 45.7936L521.228 46.099L521.231 46.1009L521.397 45.7936ZM531.114 55.3204L530.811 55.4931L530.813 55.4966L531.114 55.3204ZM531.019 83.9009L530.72 83.7213L530.718 83.7248L531.019 83.9009ZM521.111 93.523L521.276 93.8304L521.278 93.8294L521.111 93.523ZM513.966 83.5199L514.133 83.8263L514.136 83.8245L513.966 83.5199ZM519.11 78.1848L519.417 78.3508L519.11 78.1848ZM517.014 58.0832L516.762 58.3242L516.768 58.33L517.014 58.0832ZM497.77 58.0832L497.518 57.8424L497.518 57.8425L497.77 58.0832ZM497.675 81.2334L497.416 81.468L497.422 81.4741L497.675 81.2334ZM507.202 96.5084C502.174 96.5084 497.659 95.409 493.651 93.2168L493.316 93.8293C497.437 96.0829 502.068 97.2065 507.202 97.2065V96.5084ZM493.654 93.2188C489.646 90.964 486.484 87.8026 484.164 83.7283L483.558 84.0736C485.938 88.2558 489.191 91.5092 493.312 93.8272L493.654 93.2188ZM484.166 83.7318C481.913 79.6623 480.78 74.9587 480.78 69.6107H480.082C480.082 75.0598 481.237 79.8829 483.556 84.07L484.166 83.7318ZM480.78 69.6107C480.78 64.2643 481.944 59.5619 484.26 55.4931L483.653 55.1478C481.269 59.3355 480.082 64.16 480.082 69.6107H480.78ZM484.258 55.4966C486.639 51.4225 489.864 48.2928 493.934 46.1009L493.604 45.4863C489.418 47.7403 486.1 50.9618 483.655 55.1443L484.258 55.4966ZM493.938 46.0989C498.011 43.8434 502.556 42.713 507.583 42.713V42.0149C502.447 42.0149 497.784 43.171 493.6 45.4883L493.938 46.0989ZM507.583 42.713C512.609 42.713 517.155 43.8434 521.228 46.0989L521.566 45.4883C517.382 43.171 512.718 42.0149 507.583 42.0149V42.713ZM521.231 46.1009C525.301 48.2924 528.493 51.421 530.811 55.4931L531.418 55.1478C529.036 50.9633 525.749 47.7407 521.562 45.4863L521.231 46.1009ZM530.813 55.4966C533.191 59.5648 534.385 64.2659 534.385 69.6107H535.083C535.083 64.1584 533.864 59.3326 531.415 55.1443L530.813 55.4966ZM534.385 69.6107C534.385 74.9538 533.16 79.6537 530.72 83.7213L531.318 84.0805C533.832 79.8916 535.083 75.0646 535.083 69.6107H534.385ZM530.718 83.7248C528.336 87.7983 525.08 90.9606 520.944 93.2166L521.278 93.8294C525.526 91.5126 528.875 88.2601 531.32 84.0771L530.718 83.7248ZM520.946 93.2157C516.873 95.4086 512.294 96.5084 507.202 96.5084V97.2065C512.398 97.2065 517.092 96.0833 521.276 93.8303L520.946 93.2157ZM507.202 85.5837C509.673 85.5837 511.985 84.9978 514.133 83.8263L513.799 83.2134C511.755 84.3284 509.558 84.8856 507.202 84.8856V85.5837ZM514.136 83.8245C516.358 82.5829 518.118 80.7542 519.417 78.3508L518.803 78.0189C517.562 80.3154 515.893 82.0433 513.796 83.2152L514.136 83.8245ZM519.417 78.3508C520.721 75.9383 521.365 73.02 521.365 69.6107H520.667C520.667 72.9337 520.04 75.7315 518.803 78.0189L519.417 78.3508ZM521.365 69.6107C521.365 64.5322 520.014 60.5888 517.261 57.8364L516.768 58.33C519.35 60.9127 520.667 64.6542 520.667 69.6107H521.365ZM517.267 57.8424C514.596 55.0415 511.297 53.6376 507.392 53.6376V54.3357C511.109 54.3357 514.224 55.6629 516.762 58.3241L517.267 57.8424ZM507.392 53.6376C503.487 53.6376 500.188 55.0415 497.518 57.8424L498.023 58.3241C500.56 55.6629 503.676 54.3357 507.392 54.3357V53.6376ZM497.518 57.8425C494.896 60.5954 493.611 64.5366 493.611 69.6107H494.309C494.309 64.6498 495.564 60.906 498.023 58.3239L497.518 57.8425ZM493.611 69.6107C493.611 74.6832 494.863 78.6526 497.416 81.4679L497.934 80.9989C495.533 78.3522 494.309 74.5731 494.309 69.6107H493.611ZM497.422 81.4741C500.031 84.2135 503.299 85.5837 507.202 85.5837V84.8856C503.483 84.8856 500.4 83.5884 497.928 80.9927L497.422 81.4741ZM556.236 54.1772V53.8282H555.887V54.1772H556.236ZM557.474 83.6151L557.228 83.8619L557.237 83.8714L557.247 83.8801L557.474 83.6151ZM568.049 84.7583H568.398V84.4093H568.049V84.7583ZM568.049 96V96.349H568.398V96H568.049ZM542.803 54.1772H543.152V53.8282H542.803V54.1772ZM536.515 54.1772H536.166V54.5263H536.515V54.1772ZM536.515 43.2214V42.8723H536.166V43.2214H536.515ZM542.803 43.2214V43.5704H543.152V43.2214H542.803ZM542.803 30.1696V29.8206H542.454V30.1696H542.803ZM556.236 30.1696H556.585V29.8206H556.236V30.1696ZM556.236 43.2214H555.887V43.5704H556.236V43.2214ZM568.049 43.2214H568.398V42.8723H568.049V43.2214ZM568.049 54.1772V54.5263H568.398V54.1772H568.049ZM555.887 54.1772V79.7091H556.585V54.1772H555.887ZM555.887 79.7091C555.887 81.5325 556.309 82.9435 557.228 83.8619L557.721 83.3683C556.988 82.6354 556.585 81.4424 556.585 79.7091H555.887ZM557.247 83.8801C558.232 84.7242 559.797 85.1074 561.857 85.1074V84.4093C559.852 84.4093 558.495 84.0304 557.702 83.3501L557.247 83.8801ZM561.857 85.1074H568.049V84.4093H561.857V85.1074ZM567.7 84.7583V96H568.398V84.7583H567.7ZM568.049 95.651H559.666V96.349H568.049V95.651ZM559.666 95.651C554.096 95.651 549.984 94.2978 547.262 91.6531C544.542 89.0103 543.152 85.0195 543.152 79.6139H542.454C542.454 85.1323 543.874 89.3346 546.776 92.1538C549.675 94.9711 553.993 96.349 559.666 96.349V95.651ZM543.152 79.6139V54.1772H542.454V79.6139H543.152ZM542.803 53.8282H536.515V54.5263H542.803V53.8282ZM536.864 54.1772V43.2214H536.166V54.1772H536.864ZM536.515 43.5704H542.803V42.8723H536.515V43.5704ZM543.152 43.2214V30.1696H542.454V43.2214H543.152ZM542.803 30.5187H556.236V29.8206H542.803V30.5187ZM555.887 30.1696V43.2214H556.585V30.1696H555.887ZM556.236 43.5704H568.049V42.8723H556.236V43.5704ZM567.7 43.2214V54.1772H568.398V43.2214H567.7ZM568.049 53.8282H556.236V54.5263H568.049V53.8282Z" fill="url(#paint0_linear_232_1890)" fill-opacity="0.8" mask="url(#path-2-outside-1_232_1890)"/>
<defs>
<linearGradient id="paint0_linear_232_1890" x1="336.558" y1="0" x2="336.558" y2="126" gradientUnits="userSpaceOnUse">
<stop stop-color="white"/>
<stop offset="0.358832" stop-color="white"/>
<stop offset="0.542685" stop-color="#E4E4E4" stop-opacity="0.35"/>
<stop offset="1" stop-color="#989898"/>
</linearGradient>
</defs>
</svg>
