<svg width="590" height="126" viewBox="0 0 590 126" fill="none" xmlns="http://www.w3.org/2000/svg">
<mask id="mask0_681_11895" style="mask-type:luminance" maskUnits="userSpaceOnUse" x="3" y="27" width="73" height="67">
<path d="M60.9864 50.4244H17.9646C16.1369 50.4244 14.6553 51.9061 14.6553 53.7338V86.8275C14.6553 88.6552 16.1369 90.1369 17.9646 90.1369H60.9864C62.8142 90.1369 64.2958 88.6552 64.2958 86.8275V53.7338C64.2958 51.9061 62.8142 50.4244 60.9864 50.4244Z" fill="white" stroke="white" stroke-width="6.61874"/>
<path d="M27.8924 66.9712C29.7201 66.9712 31.2017 65.4895 31.2017 63.6618C31.2017 61.8341 29.7201 60.3524 27.8924 60.3524C26.0647 60.3524 24.583 61.8341 24.583 63.6618C24.583 65.4895 26.0647 66.9712 27.8924 66.9712Z" fill="black"/>
<path d="M51.0584 66.9712C52.8861 66.9712 54.3678 65.4895 54.3678 63.6618C54.3678 61.8341 52.8861 60.3524 51.0584 60.3524C49.2307 60.3524 47.749 61.8341 47.749 63.6618C47.749 65.4895 49.2307 66.9712 51.0584 66.9712Z" fill="black"/>
<path d="M32.8572 73.59C31.9795 73.59 31.1378 73.9386 30.5171 74.5593C29.8965 75.1799 29.5479 76.0216 29.5479 76.8993C29.5479 77.777 29.8965 78.6188 30.5171 79.2394C31.1378 79.86 31.9795 80.2087 32.8572 80.2087V73.59ZM46.0947 80.2087C46.9724 80.2087 47.8141 79.86 48.4348 79.2394C49.0554 78.6188 49.4041 77.777 49.4041 76.8993C49.4041 76.0216 49.0554 75.1799 48.4348 74.5593C47.8141 73.9386 46.9724 73.59 46.0947 73.59V80.2087ZM32.8572 80.2087H46.0947V73.59H32.8572V80.2087Z" fill="black"/>
<path d="M39.4755 37.187V50.4245M6.38184 63.662V76.8994M72.5692 63.662V76.8994" stroke="white" stroke-width="6.61874" stroke-linecap="round" stroke-linejoin="round"/>
<path d="M39.4754 37.1869C41.3031 37.1869 42.7848 35.7052 42.7848 33.8775C42.7848 32.0498 41.3031 30.5681 39.4754 30.5681C37.6477 30.5681 36.166 32.0498 36.166 33.8775C36.166 35.7052 37.6477 37.1869 39.4754 37.1869Z" stroke="white" stroke-width="6.61874"/>
</mask>
<g mask="url(#mask0_681_11895)">
<path d="M-0.237305 20.64H79.1875V100.065H-0.237305V20.64Z" fill="white"/>
</g>
<mask id="path-8-outside-1_681_11895" maskUnits="userSpaceOnUse" x="103.708" y="25" width="484" height="73" fill="black">
<rect fill="white" x="103.708" y="25" width="484" height="73"/>
<path d="M153.578 29.5027V40.268H135.858V96H122.521V40.268H104.801V29.5027H153.578ZM182.935 96.8574C177.854 96.8574 173.281 95.746 169.216 93.523C165.152 91.2366 161.944 88.0292 159.594 83.9009C157.308 79.7726 156.165 75.0092 156.165 69.6107C156.165 64.2121 157.34 59.4487 159.69 55.3204C162.103 51.1921 165.374 48.0165 169.502 45.7936C173.631 43.5072 178.235 42.364 183.316 42.364C188.397 42.364 193.002 43.5072 197.13 45.7936C201.258 48.0165 204.497 51.1921 206.847 55.3204C209.261 59.4487 210.468 64.2121 210.468 69.6107C210.468 75.0092 209.229 79.7726 206.752 83.9009C204.339 88.0292 201.036 91.2366 196.844 93.523C192.716 95.746 188.08 96.8574 182.935 96.8574ZM182.935 85.2347C185.349 85.2347 187.603 84.6631 189.699 83.5199C191.859 82.3131 193.573 80.5348 194.844 78.1848C196.114 75.8349 196.749 72.9768 196.749 69.6107C196.749 64.5932 195.415 60.7507 192.748 58.0832C190.144 55.3522 186.936 53.9867 183.126 53.9867C179.315 53.9867 176.107 55.3522 173.503 58.0832C170.963 60.7507 169.693 64.5932 169.693 69.6107C169.693 74.6281 170.931 78.5024 173.408 81.2334C175.949 83.9009 179.124 85.2347 182.935 85.2347ZM245.688 42.4592C251.976 42.4592 257.057 44.4599 260.931 48.4611C264.805 52.3989 266.742 57.9244 266.742 65.0378V96H253.405V66.8479C253.405 62.6561 252.357 59.4487 250.261 57.2258C248.165 54.9394 245.307 53.7961 241.687 53.7961C238.003 53.7961 235.081 54.9394 232.922 57.2258C230.826 59.4487 229.778 62.6561 229.778 66.8479V96H216.44V43.2214H229.778V49.7949C231.556 47.5084 233.811 45.7301 236.542 44.4599C239.337 43.1261 242.385 42.4592 245.688 42.4592ZM272.185 69.4201C272.185 64.0851 273.233 59.3535 275.329 55.2252C277.488 51.0969 280.41 47.9213 284.094 45.6983C287.777 43.4754 291.874 42.364 296.383 42.364C299.813 42.364 303.084 43.1261 306.196 44.6504C309.308 46.1112 311.785 48.08 313.627 50.557V25.5015H327.155V96H313.627V88.188C311.975 90.792 309.657 92.8879 306.672 94.4757C303.687 96.0635 300.226 96.8574 296.288 96.8574C291.842 96.8574 287.777 95.7142 284.094 93.4278C280.41 91.1413 277.488 87.934 275.329 83.8057C273.233 79.6139 272.185 74.8187 272.185 69.4201ZM313.722 69.6107C313.722 66.3716 313.087 63.6088 311.817 61.3223C310.546 58.9724 308.832 57.194 306.672 55.9873C304.513 54.7171 302.195 54.082 299.718 54.082C297.241 54.082 294.954 54.6853 292.858 55.892C290.762 57.0988 289.048 58.8771 287.714 61.2271C286.444 63.5135 285.808 66.2445 285.808 69.4201C285.808 72.5958 286.444 75.3903 287.714 77.8038C289.048 80.1537 290.762 81.9638 292.858 83.234C295.018 84.5043 297.304 85.1394 299.718 85.1394C302.195 85.1394 304.513 84.536 306.672 83.3293C308.832 82.0591 310.546 80.2807 311.817 77.9943C313.087 75.6443 313.722 72.8498 313.722 69.6107ZM385.434 68.4675C385.434 70.3728 385.307 72.0877 385.053 73.612H346.469C346.787 77.4227 348.12 80.4078 350.47 82.5672C352.82 84.7266 355.71 85.8063 359.14 85.8063C364.094 85.8063 367.619 83.6786 369.714 79.4233H384.1C382.576 84.5043 379.654 88.6961 375.335 91.9987C371.016 95.2379 365.713 96.8574 359.426 96.8574C354.345 96.8574 349.772 95.746 345.707 93.523C341.706 91.2366 338.562 88.0292 336.275 83.9009C334.052 79.7726 332.941 75.0092 332.941 69.6107C332.941 64.1486 334.052 59.3535 336.275 55.2252C338.498 51.0969 341.61 47.9213 345.612 45.6983C349.613 43.4754 354.218 42.364 359.426 42.364C364.443 42.364 368.921 43.4437 372.858 45.6031C376.86 47.7625 379.94 50.8428 382.099 54.8441C384.322 58.7819 385.434 63.323 385.434 68.4675ZM371.62 64.6567C371.556 61.2271 370.318 58.496 367.904 56.4637C365.491 54.3678 362.538 53.3198 359.044 53.3198C355.742 53.3198 352.947 54.336 350.661 56.3684C348.438 58.3373 347.072 61.1 346.564 64.6567H371.62ZM404.696 51.4144C406.411 48.6199 408.634 46.4287 411.365 44.8409C414.159 43.2531 417.335 42.4592 420.891 42.4592V56.4637H417.366C413.175 56.4637 409.999 57.4481 407.84 59.417C405.744 61.3859 404.696 64.8155 404.696 69.706V96H391.358V43.2214H404.696V51.4144ZM482.68 61.894C486.428 62.5926 489.508 64.4662 491.921 67.5148C494.335 70.5634 495.542 74.0565 495.542 77.9943C495.542 81.551 494.652 84.6948 492.874 87.4259C491.159 90.0934 488.651 92.1893 485.348 93.7136C482.045 95.2379 478.139 96 473.63 96H444.954V29.5027H472.391C476.901 29.5027 480.775 30.2331 484.014 31.6939C487.317 33.1547 489.794 35.1871 491.445 37.7911C493.16 40.3951 494.017 43.3484 494.017 46.651C494.017 50.5253 492.969 53.7644 490.873 56.3684C488.841 58.9724 486.11 60.8142 482.68 61.894ZM458.292 56.94H470.486C473.662 56.94 476.107 56.2414 477.822 54.8441C479.537 53.3833 480.394 51.3192 480.394 48.6517C480.394 45.9841 479.537 43.92 477.822 42.4592C476.107 40.9984 473.662 40.268 470.486 40.268H458.292V56.94ZM471.725 85.1394C474.964 85.1394 477.472 84.3773 479.251 82.853C481.093 81.3287 482.013 79.1693 482.013 76.3747C482.013 73.5167 481.061 71.2938 479.155 69.706C477.25 68.0546 474.678 67.229 471.439 67.229H458.292V85.1394H471.725ZM525.797 96.8574C520.716 96.8574 516.143 95.746 512.078 93.523C508.013 91.2366 504.806 88.0292 502.456 83.9009C500.17 79.7726 499.026 75.0092 499.026 69.6107C499.026 64.2121 500.201 59.4487 502.551 55.3204C504.965 51.1921 508.236 48.0165 512.364 45.7936C516.492 43.5072 521.097 42.364 526.178 42.364C531.259 42.364 535.863 43.5072 539.992 45.7936C544.12 48.0165 547.359 51.1921 549.709 55.3204C552.122 59.4487 553.329 64.2121 553.329 69.6107C553.329 75.0092 552.091 79.7726 549.614 83.9009C547.2 88.0292 543.898 91.2366 539.706 93.523C535.578 95.746 530.941 96.8574 525.797 96.8574ZM525.797 85.2347C528.21 85.2347 530.465 84.6631 532.561 83.5199C534.72 82.3131 536.435 80.5348 537.705 78.1848C538.975 75.8349 539.611 72.9768 539.611 69.6107C539.611 64.5932 538.277 60.7507 535.609 58.0832C533.005 55.3522 529.798 53.9867 525.987 53.9867C522.176 53.9867 518.969 55.3522 516.365 58.0832C513.825 60.7507 512.554 64.5932 512.554 69.6107C512.554 74.6281 513.793 78.5024 516.27 81.2334C518.81 83.9009 521.986 85.2347 525.797 85.2347ZM574.831 54.1772V79.7091C574.831 81.4875 575.244 82.7895 576.069 83.6151C576.958 84.3773 578.419 84.7583 580.452 84.7583H586.644V96H578.26C567.019 96 561.398 90.538 561.398 79.6139V54.1772H555.11V43.2214H561.398V30.1696H574.831V43.2214H586.644V54.1772H574.831Z"/>
</mask>
<path d="M153.578 29.5027V40.268H135.858V96H122.521V40.268H104.801V29.5027H153.578ZM182.935 96.8574C177.854 96.8574 173.281 95.746 169.216 93.523C165.152 91.2366 161.944 88.0292 159.594 83.9009C157.308 79.7726 156.165 75.0092 156.165 69.6107C156.165 64.2121 157.34 59.4487 159.69 55.3204C162.103 51.1921 165.374 48.0165 169.502 45.7936C173.631 43.5072 178.235 42.364 183.316 42.364C188.397 42.364 193.002 43.5072 197.13 45.7936C201.258 48.0165 204.497 51.1921 206.847 55.3204C209.261 59.4487 210.468 64.2121 210.468 69.6107C210.468 75.0092 209.229 79.7726 206.752 83.9009C204.339 88.0292 201.036 91.2366 196.844 93.523C192.716 95.746 188.08 96.8574 182.935 96.8574ZM182.935 85.2347C185.349 85.2347 187.603 84.6631 189.699 83.5199C191.859 82.3131 193.573 80.5348 194.844 78.1848C196.114 75.8349 196.749 72.9768 196.749 69.6107C196.749 64.5932 195.415 60.7507 192.748 58.0832C190.144 55.3522 186.936 53.9867 183.126 53.9867C179.315 53.9867 176.107 55.3522 173.503 58.0832C170.963 60.7507 169.693 64.5932 169.693 69.6107C169.693 74.6281 170.931 78.5024 173.408 81.2334C175.949 83.9009 179.124 85.2347 182.935 85.2347ZM245.688 42.4592C251.976 42.4592 257.057 44.4599 260.931 48.4611C264.805 52.3989 266.742 57.9244 266.742 65.0378V96H253.405V66.8479C253.405 62.6561 252.357 59.4487 250.261 57.2258C248.165 54.9394 245.307 53.7961 241.687 53.7961C238.003 53.7961 235.081 54.9394 232.922 57.2258C230.826 59.4487 229.778 62.6561 229.778 66.8479V96H216.44V43.2214H229.778V49.7949C231.556 47.5084 233.811 45.7301 236.542 44.4599C239.337 43.1261 242.385 42.4592 245.688 42.4592ZM272.185 69.4201C272.185 64.0851 273.233 59.3535 275.329 55.2252C277.488 51.0969 280.41 47.9213 284.094 45.6983C287.777 43.4754 291.874 42.364 296.383 42.364C299.813 42.364 303.084 43.1261 306.196 44.6504C309.308 46.1112 311.785 48.08 313.627 50.557V25.5015H327.155V96H313.627V88.188C311.975 90.792 309.657 92.8879 306.672 94.4757C303.687 96.0635 300.226 96.8574 296.288 96.8574C291.842 96.8574 287.777 95.7142 284.094 93.4278C280.41 91.1413 277.488 87.934 275.329 83.8057C273.233 79.6139 272.185 74.8187 272.185 69.4201ZM313.722 69.6107C313.722 66.3716 313.087 63.6088 311.817 61.3223C310.546 58.9724 308.832 57.194 306.672 55.9873C304.513 54.7171 302.195 54.082 299.718 54.082C297.241 54.082 294.954 54.6853 292.858 55.892C290.762 57.0988 289.048 58.8771 287.714 61.2271C286.444 63.5135 285.808 66.2445 285.808 69.4201C285.808 72.5958 286.444 75.3903 287.714 77.8038C289.048 80.1537 290.762 81.9638 292.858 83.234C295.018 84.5043 297.304 85.1394 299.718 85.1394C302.195 85.1394 304.513 84.536 306.672 83.3293C308.832 82.0591 310.546 80.2807 311.817 77.9943C313.087 75.6443 313.722 72.8498 313.722 69.6107ZM385.434 68.4675C385.434 70.3728 385.307 72.0877 385.053 73.612H346.469C346.787 77.4227 348.12 80.4078 350.47 82.5672C352.82 84.7266 355.71 85.8063 359.14 85.8063C364.094 85.8063 367.619 83.6786 369.714 79.4233H384.1C382.576 84.5043 379.654 88.6961 375.335 91.9987C371.016 95.2379 365.713 96.8574 359.426 96.8574C354.345 96.8574 349.772 95.746 345.707 93.523C341.706 91.2366 338.562 88.0292 336.275 83.9009C334.052 79.7726 332.941 75.0092 332.941 69.6107C332.941 64.1486 334.052 59.3535 336.275 55.2252C338.498 51.0969 341.61 47.9213 345.612 45.6983C349.613 43.4754 354.218 42.364 359.426 42.364C364.443 42.364 368.921 43.4437 372.858 45.6031C376.86 47.7625 379.94 50.8428 382.099 54.8441C384.322 58.7819 385.434 63.323 385.434 68.4675ZM371.62 64.6567C371.556 61.2271 370.318 58.496 367.904 56.4637C365.491 54.3678 362.538 53.3198 359.044 53.3198C355.742 53.3198 352.947 54.336 350.661 56.3684C348.438 58.3373 347.072 61.1 346.564 64.6567H371.62ZM404.696 51.4144C406.411 48.6199 408.634 46.4287 411.365 44.8409C414.159 43.2531 417.335 42.4592 420.891 42.4592V56.4637H417.366C413.175 56.4637 409.999 57.4481 407.84 59.417C405.744 61.3859 404.696 64.8155 404.696 69.706V96H391.358V43.2214H404.696V51.4144ZM482.68 61.894C486.428 62.5926 489.508 64.4662 491.921 67.5148C494.335 70.5634 495.542 74.0565 495.542 77.9943C495.542 81.551 494.652 84.6948 492.874 87.4259C491.159 90.0934 488.651 92.1893 485.348 93.7136C482.045 95.2379 478.139 96 473.63 96H444.954V29.5027H472.391C476.901 29.5027 480.775 30.2331 484.014 31.6939C487.317 33.1547 489.794 35.1871 491.445 37.7911C493.16 40.3951 494.017 43.3484 494.017 46.651C494.017 50.5253 492.969 53.7644 490.873 56.3684C488.841 58.9724 486.11 60.8142 482.68 61.894ZM458.292 56.94H470.486C473.662 56.94 476.107 56.2414 477.822 54.8441C479.537 53.3833 480.394 51.3192 480.394 48.6517C480.394 45.9841 479.537 43.92 477.822 42.4592C476.107 40.9984 473.662 40.268 470.486 40.268H458.292V56.94ZM471.725 85.1394C474.964 85.1394 477.472 84.3773 479.251 82.853C481.093 81.3287 482.013 79.1693 482.013 76.3747C482.013 73.5167 481.061 71.2938 479.155 69.706C477.25 68.0546 474.678 67.229 471.439 67.229H458.292V85.1394H471.725ZM525.797 96.8574C520.716 96.8574 516.143 95.746 512.078 93.523C508.013 91.2366 504.806 88.0292 502.456 83.9009C500.17 79.7726 499.026 75.0092 499.026 69.6107C499.026 64.2121 500.201 59.4487 502.551 55.3204C504.965 51.1921 508.236 48.0165 512.364 45.7936C516.492 43.5072 521.097 42.364 526.178 42.364C531.259 42.364 535.863 43.5072 539.992 45.7936C544.12 48.0165 547.359 51.1921 549.709 55.3204C552.122 59.4487 553.329 64.2121 553.329 69.6107C553.329 75.0092 552.091 79.7726 549.614 83.9009C547.2 88.0292 543.898 91.2366 539.706 93.523C535.578 95.746 530.941 96.8574 525.797 96.8574ZM525.797 85.2347C528.21 85.2347 530.465 84.6631 532.561 83.5199C534.72 82.3131 536.435 80.5348 537.705 78.1848C538.975 75.8349 539.611 72.9768 539.611 69.6107C539.611 64.5932 538.277 60.7507 535.609 58.0832C533.005 55.3522 529.798 53.9867 525.987 53.9867C522.176 53.9867 518.969 55.3522 516.365 58.0832C513.825 60.7507 512.554 64.5932 512.554 69.6107C512.554 74.6281 513.793 78.5024 516.27 81.2334C518.81 83.9009 521.986 85.2347 525.797 85.2347ZM574.831 54.1772V79.7091C574.831 81.4875 575.244 82.7895 576.069 83.6151C576.958 84.3773 578.419 84.7583 580.452 84.7583H586.644V96H578.26C567.019 96 561.398 90.538 561.398 79.6139V54.1772H555.11V43.2214H561.398V30.1696H574.831V43.2214H586.644V54.1772H574.831Z" fill="white"/>
<path d="M153.578 29.5027H153.927V29.1537H153.578V29.5027ZM153.578 40.268V40.6171H153.927V40.268H153.578ZM135.858 40.268V39.919H135.509V40.268H135.858ZM135.858 96V96.349H136.207V96H135.858ZM122.521 96H122.172V96.349H122.521V96ZM122.521 40.268H122.87V39.919H122.521V40.268ZM104.801 40.268H104.452V40.6171H104.801V40.268ZM104.801 29.5027V29.1537H104.452V29.5027H104.801ZM153.229 29.5027V40.268H153.927V29.5027H153.229ZM153.578 39.919H135.858V40.6171H153.578V39.919ZM135.509 40.268V96H136.207V40.268H135.509ZM135.858 95.651H122.521V96.349H135.858V95.651ZM122.87 96V40.268H122.172V96H122.87ZM122.521 39.919H104.801V40.6171H122.521V39.919ZM105.15 40.268V29.5027H104.452V40.268H105.15ZM104.801 29.8518H153.578V29.1537H104.801V29.8518ZM169.216 93.523L169.045 93.8273L169.049 93.8293L169.216 93.523ZM159.594 83.9009L159.289 84.07L159.291 84.0736L159.594 83.9009ZM159.69 55.3204L159.388 55.1443L159.386 55.1478L159.69 55.3204ZM169.502 45.7936L169.668 46.101L169.671 46.0989L169.502 45.7936ZM197.13 45.7936L196.961 46.099L196.965 46.1009L197.13 45.7936ZM206.847 55.3204L206.544 55.4931L206.546 55.4966L206.847 55.3204ZM206.752 83.9009L206.453 83.7213L206.451 83.7248L206.752 83.9009ZM196.844 93.523L197.01 93.8304L197.011 93.8294L196.844 93.523ZM189.699 83.5199L189.866 83.8263L189.869 83.8245L189.699 83.5199ZM194.844 78.1848L195.151 78.3508L194.844 78.1848ZM192.748 58.0832L192.495 58.3242L192.501 58.33L192.748 58.0832ZM173.504 58.0832L173.251 57.8424L173.251 57.8425L173.504 58.0832ZM173.408 81.2334L173.15 81.468L173.155 81.4741L173.408 81.2334ZM182.935 96.5084C177.907 96.5084 173.392 95.409 169.384 93.2168L169.049 93.8293C173.17 96.0829 177.801 97.2065 182.935 97.2065V96.5084ZM169.388 93.2188C165.379 90.964 162.217 87.8026 159.898 83.7283L159.291 84.0736C161.672 88.2558 164.924 91.5092 169.045 93.8272L169.388 93.2188ZM159.9 83.7318C157.646 79.6623 156.514 74.9587 156.514 69.6107H155.816C155.816 75.0598 156.97 79.8829 159.289 84.07L159.9 83.7318ZM156.514 69.6107C156.514 64.2643 157.677 59.5619 159.993 55.4931L159.386 55.1478C157.002 59.3355 155.816 64.16 155.816 69.6107H156.514ZM159.991 55.4966C162.373 51.4225 165.597 48.2928 169.668 46.1009L169.337 45.4863C165.151 47.7403 161.833 50.9618 159.388 55.1443L159.991 55.4966ZM169.671 46.0989C173.744 43.8434 178.29 42.713 183.316 42.713V42.0149C178.181 42.0149 173.517 43.171 169.333 45.4883L169.671 46.0989ZM183.316 42.713C188.343 42.713 192.888 43.8434 196.961 46.0989L197.299 45.4883C193.115 43.171 188.452 42.0149 183.316 42.0149V42.713ZM196.965 46.1009C201.034 48.2924 204.226 51.421 206.544 55.4931L207.151 55.1478C204.769 50.9633 201.482 47.7407 197.296 45.4863L196.965 46.1009ZM206.546 55.4966C208.924 59.5648 210.119 64.2659 210.119 69.6107H210.817C210.817 64.1584 209.597 59.3326 207.149 55.1443L206.546 55.4966ZM210.119 69.6107C210.119 74.9538 208.893 79.6537 206.453 83.7213L207.051 84.0805C209.565 79.8916 210.817 75.0646 210.817 69.6107H210.119ZM206.451 83.7248C204.069 87.7983 200.813 90.9606 196.677 93.2166L197.011 93.8294C201.259 91.5126 204.608 88.2601 207.053 84.0771L206.451 83.7248ZM196.679 93.2157C192.606 95.4086 188.028 96.5084 182.935 96.5084V97.2065C188.132 97.2065 192.826 96.0833 197.01 93.8303L196.679 93.2157ZM182.935 85.5837C185.406 85.5837 187.718 84.9978 189.866 83.8263L189.532 83.2134C187.488 84.3284 185.291 84.8856 182.935 84.8856V85.5837ZM189.869 83.8245C192.091 82.5829 193.852 80.7542 195.151 78.3508L194.537 78.0189C193.295 80.3154 191.626 82.0433 189.529 83.2152L189.869 83.8245ZM195.151 78.3508C196.455 75.9383 197.098 73.02 197.098 69.6107H196.4C196.4 72.9337 195.773 75.7315 194.537 78.0189L195.151 78.3508ZM197.098 69.6107C197.098 64.5322 195.747 60.5888 192.995 57.8364L192.501 58.33C195.084 60.9127 196.4 64.6542 196.4 69.6107H197.098ZM193 57.8424C190.33 55.0415 187.031 53.6376 183.126 53.6376V54.3357C186.842 54.3357 189.958 55.6629 192.495 58.3241L193 57.8424ZM183.126 53.6376C179.22 53.6376 175.921 55.0415 173.251 57.8424L173.756 58.3241C176.294 55.6629 179.409 54.3357 183.126 54.3357V53.6376ZM173.251 57.8425C170.629 60.5954 169.344 64.5366 169.344 69.6107H170.042C170.042 64.6498 171.297 60.906 173.756 58.3239L173.251 57.8425ZM169.344 69.6107C169.344 74.6832 170.596 78.6526 173.15 81.4679L173.667 80.9989C171.266 78.3522 170.042 74.5731 170.042 69.6107H169.344ZM173.155 81.4741C175.764 84.2135 179.033 85.5837 182.935 85.5837V84.8856C179.216 84.8856 176.133 83.5884 173.661 80.9927L173.155 81.4741ZM260.931 48.4611L260.68 48.7039L260.682 48.7059L260.931 48.4611ZM266.742 96V96.349H267.091V96H266.742ZM253.405 96H253.056V96.349H253.405V96ZM250.261 57.2258L250.003 57.4617L250.007 57.4653L250.261 57.2258ZM232.922 57.2258L232.668 56.9861L232.668 56.9864L232.922 57.2258ZM229.778 96V96.349H230.127V96H229.778ZM216.44 96H216.091V96.349H216.44V96ZM216.44 43.2214V42.8723H216.091V43.2214H216.44ZM229.778 43.2214H230.127V42.8723H229.778V43.2214ZM229.778 49.7949H229.429V50.8122L230.054 50.0092L229.778 49.7949ZM236.542 44.4599L236.689 44.7764L236.692 44.7749L236.542 44.4599ZM245.688 42.8083C251.894 42.8083 256.88 44.7796 260.68 48.7039L261.182 48.2183C257.233 44.1401 252.057 42.1102 245.688 42.1102V42.8083ZM260.682 48.7059C264.475 52.5611 266.393 57.9885 266.393 65.0378H267.091C267.091 57.8603 265.135 52.2366 261.18 48.2163L260.682 48.7059ZM266.393 65.0378V96H267.091V65.0378H266.393ZM266.742 95.651H253.405V96.349H266.742V95.651ZM253.754 96V66.8479H253.056V96H253.754ZM253.754 66.8479C253.754 62.6006 252.691 59.2949 250.515 56.9864L250.007 57.4653C252.022 59.6025 253.056 62.7116 253.056 66.8479H253.754ZM250.518 56.99C248.345 54.6192 245.387 53.4471 241.687 53.4471V54.1452C245.227 54.1452 247.985 55.2596 250.003 57.4617L250.518 56.99ZM241.687 53.4471C237.925 53.4471 234.905 54.6179 232.668 56.9861L233.176 57.4655C235.258 55.2609 238.081 54.1452 241.687 54.1452V53.4471ZM232.668 56.9864C230.491 59.2949 229.429 62.6006 229.429 66.8479H230.127C230.127 62.7116 231.161 59.6025 233.176 57.4653L232.668 56.9864ZM229.429 66.8479V96H230.127V66.8479H229.429ZM229.778 95.651H216.44V96.349H229.778V95.651ZM216.79 96V43.2214H216.091V96H216.79ZM216.44 43.5704H229.778V42.8723H216.44V43.5704ZM229.429 43.2214V49.7949H230.127V43.2214H229.429ZM230.054 50.0092C231.796 47.7683 234.006 46.0242 236.689 44.7763L236.395 44.1434C233.616 45.436 231.316 47.2486 229.503 49.5806L230.054 50.0092ZM236.692 44.7749C239.437 43.465 242.434 42.8083 245.688 42.8083V42.1102C242.337 42.1102 239.236 42.7872 236.392 44.1449L236.692 44.7749ZM275.329 55.2252L275.02 55.0634L275.018 55.0672L275.329 55.2252ZM284.094 45.6983L284.274 45.9972L284.094 45.6983ZM306.196 44.6504L306.042 44.9639L306.048 44.9664L306.196 44.6504ZM313.627 50.557L313.347 50.7653L313.976 51.6114V50.557H313.627ZM313.627 25.5015V25.1524H313.278V25.5015H313.627ZM327.155 25.5015H327.504V25.1524H327.155V25.5015ZM327.155 96V96.349H327.504V96H327.155ZM313.627 96H313.278V96.349H313.627V96ZM313.627 88.188H313.976V86.9858L313.332 88.0011L313.627 88.188ZM306.672 94.4757L306.508 94.1675L306.672 94.4757ZM284.094 93.4278L284.278 93.1312L284.094 93.4278ZM275.329 83.8057L275.017 83.9618L275.02 83.9674L275.329 83.8057ZM311.817 61.3223L311.51 61.4883L311.512 61.4919L311.817 61.3223ZM306.672 55.9873L306.495 56.2882L306.502 56.292L306.672 55.9873ZM292.858 55.892L292.684 55.5896L292.858 55.892ZM287.714 61.2271L287.41 61.0548L287.409 61.0576L287.714 61.2271ZM287.714 77.8038L287.405 77.9664L287.41 77.976L287.714 77.8038ZM292.858 83.234L292.677 83.5326L292.681 83.5349L292.858 83.234ZM306.672 83.3293L306.842 83.6341L306.849 83.6302L306.672 83.3293ZM311.817 77.9943L312.122 78.1638L312.124 78.1603L311.817 77.9943ZM272.534 69.4201C272.534 64.1316 273.573 59.4555 275.64 55.3832L275.018 55.0672C272.893 59.2514 271.836 64.0386 271.836 69.4201H272.534ZM275.638 55.387C277.771 51.3104 280.649 48.1844 284.274 45.9972L283.913 45.3995C280.17 47.6582 277.206 50.8833 275.02 55.0634L275.638 55.387ZM284.274 45.9972C287.901 43.8087 291.934 42.713 296.383 42.713V42.0149C291.813 42.0149 287.654 43.1421 283.913 45.3995L284.274 45.9972ZM296.383 42.713C299.759 42.713 302.977 43.4627 306.042 44.9639L306.349 44.3369C303.19 42.7895 299.867 42.0149 296.383 42.0149V42.713ZM306.048 44.9664C309.114 46.4055 311.543 48.3396 313.347 50.7653L313.907 50.3488C312.027 47.8205 309.502 45.8168 306.344 44.3344L306.048 44.9664ZM313.976 50.557V25.5015H313.278V50.557H313.976ZM313.627 25.8505H327.155V25.1524H313.627V25.8505ZM326.806 25.5015V96H327.504V25.5015H326.806ZM327.155 95.651H313.627V96.349H327.155V95.651ZM313.976 96V88.188H313.278V96H313.976ZM313.332 88.0011C311.716 90.5492 309.445 92.6053 306.508 94.1675L306.836 94.7839C309.869 93.1705 312.235 91.0348 313.922 88.3749L313.332 88.0011ZM306.508 94.1675C303.581 95.7244 300.178 96.5084 296.288 96.5084V97.2065C300.273 97.2065 303.793 96.4026 306.836 94.7839L306.508 94.1675ZM296.288 96.5084C291.905 96.5084 287.905 95.3824 284.278 93.1312L283.91 93.7243C287.65 96.046 291.779 97.2065 296.288 97.2065V96.5084ZM284.278 93.1312C280.651 90.8801 277.771 87.7211 275.638 83.6439L275.02 83.9674C277.206 88.1468 280.169 91.4025 283.91 93.7243L284.278 93.1312ZM275.641 83.6496C273.573 79.5131 272.534 74.7727 272.534 69.4201H271.836C271.836 74.8646 272.893 79.7146 275.017 83.9618L275.641 83.6496ZM314.071 69.6107C314.071 66.3262 313.427 63.5021 312.122 61.1528L311.512 61.4919C312.747 63.7155 313.373 66.4169 313.373 69.6107H314.071ZM312.124 61.1564C310.825 58.753 309.064 56.9243 306.842 55.6826L306.502 56.292C308.599 57.4638 310.268 59.1918 311.51 61.4883L312.124 61.1564ZM306.849 55.6865C304.637 54.385 302.258 53.7329 299.718 53.7329V54.431C302.132 54.431 304.389 55.0491 306.495 56.2882L306.849 55.6865ZM299.718 53.7329C297.181 53.7329 294.834 54.3516 292.684 55.5896L293.032 56.1945C295.074 55.0191 297.3 54.431 299.718 54.431V53.7329ZM292.684 55.5896C290.528 56.8309 288.771 58.6572 287.41 61.0548L288.017 61.3994C289.324 59.0971 290.997 57.3667 293.032 56.1945L292.684 55.5896ZM287.409 61.0576C286.104 63.4059 285.459 66.1978 285.459 69.4201H286.157C286.157 66.2912 286.783 63.6212 288.019 61.3966L287.409 61.0576ZM285.459 69.4201C285.459 72.6431 286.104 75.4951 287.405 77.9663L288.023 77.6412C286.783 75.2855 286.157 72.5484 286.157 69.4201H285.459ZM287.41 77.976C288.77 80.3724 290.525 82.2283 292.677 83.5325L293.039 82.9355C290.999 81.6993 289.325 79.935 288.017 77.6315L287.41 77.976ZM292.681 83.5349C294.892 84.8354 297.239 85.4885 299.718 85.4885V84.7904C297.369 84.7904 295.143 84.1731 293.035 82.9332L292.681 83.5349ZM299.718 85.4885C302.254 85.4885 304.631 84.8699 306.842 83.634L306.502 83.0246C304.395 84.2022 302.135 84.7904 299.718 84.7904V85.4885ZM306.849 83.6302C309.065 82.3269 310.823 80.5022 312.122 78.1638L311.512 77.8248C310.27 80.0593 308.599 81.7912 306.495 83.0285L306.849 83.6302ZM312.124 78.1603C313.427 75.7496 314.071 72.8955 314.071 69.6107H313.373C313.373 72.8041 312.747 75.5391 311.51 77.8283L312.124 78.1603ZM385.053 73.612V73.961H385.348L385.397 73.6693L385.053 73.612ZM346.469 73.612V73.2629H346.09L346.121 73.6409L346.469 73.612ZM350.47 82.5672L350.234 82.8242L350.47 82.5672ZM369.714 79.4233V79.0743H369.497L369.401 79.2691L369.714 79.4233ZM384.1 79.4233L384.434 79.5236L384.569 79.0743H384.1V79.4233ZM375.335 91.9987L375.545 92.278L375.547 92.276L375.335 91.9987ZM345.707 93.523L345.534 93.8261L345.539 93.8293L345.707 93.523ZM336.275 83.9009L335.968 84.0664L335.97 84.07L336.275 83.9009ZM336.275 55.2252L335.968 55.0597L336.275 55.2252ZM345.612 45.6983L345.781 46.0035L345.612 45.6983ZM372.858 45.6031L372.691 45.9091L372.693 45.9102L372.858 45.6031ZM382.099 54.8441L381.792 55.0099L381.795 55.0157L382.099 54.8441ZM371.62 64.6567V65.0058H371.975L371.969 64.6503L371.62 64.6567ZM367.904 56.4637L367.676 56.7272L367.68 56.7306L367.904 56.4637ZM350.661 56.3684L350.892 56.6297L350.893 56.6293L350.661 56.3684ZM346.564 64.6567L346.219 64.6074L346.162 65.0058H346.564V64.6567ZM385.085 68.4675C385.085 70.3578 384.959 72.053 384.708 73.5546L385.397 73.6693C385.655 72.1223 385.783 70.3878 385.783 68.4675H385.085ZM385.053 73.2629H346.469V73.961H385.053V73.2629ZM346.121 73.6409C346.445 77.5207 347.807 80.5941 350.234 82.8242L350.706 82.3102C348.433 80.2214 347.129 77.3247 346.817 73.583L346.121 73.6409ZM350.234 82.8242C352.654 85.0474 355.63 86.1553 359.14 86.1553V85.4573C355.79 85.4573 352.987 84.4057 350.706 82.3102L350.234 82.8242ZM359.14 86.1553C361.667 86.1553 363.852 85.6122 365.679 84.5094C367.507 83.406 368.955 81.7558 370.028 79.5775L369.401 79.2691C368.378 81.3462 367.016 82.8874 365.318 83.9117C363.621 84.9366 361.566 85.4573 359.14 85.4573V86.1553ZM369.714 79.7724H384.1V79.0743H369.714V79.7724ZM383.766 79.323C382.263 84.3317 379.385 88.4623 375.123 91.7215L375.547 92.276C379.923 88.9299 382.888 84.6768 384.434 79.5236L383.766 79.323ZM375.126 91.7195C370.877 94.9061 365.651 96.5084 359.426 96.5084V97.2065C365.776 97.2065 371.156 95.5696 375.545 92.278L375.126 91.7195ZM359.426 96.5084C354.397 96.5084 349.883 95.409 345.874 93.2168L345.539 93.8293C349.66 96.0829 354.292 97.2065 359.426 97.2065V96.5084ZM345.88 93.22C341.936 90.966 338.837 87.8056 336.581 83.7318L335.97 84.07C338.287 88.2528 341.476 91.5071 345.534 93.8261L345.88 93.22ZM336.583 83.7354C334.391 79.6652 333.29 74.9603 333.29 69.6107H332.592C332.592 75.0582 333.714 79.88 335.968 84.0664L336.583 83.7354ZM333.29 69.6107C333.29 64.1968 334.391 59.4603 336.583 55.3907L335.968 55.0597C333.713 59.2466 332.592 64.1004 332.592 69.6107H333.29ZM336.583 55.3907C338.775 51.3196 341.84 48.1931 345.781 46.0035L345.442 45.3932C341.381 47.6494 338.222 50.8741 335.968 55.0597L336.583 55.3907ZM345.781 46.0035C349.724 43.8131 354.269 42.713 359.426 42.713V42.0149C354.166 42.0149 349.502 43.1377 345.442 45.3932L345.781 46.0035ZM359.426 42.713C364.391 42.713 368.81 43.7811 372.691 45.9091L373.026 45.297C369.031 43.1062 364.495 42.0149 359.426 42.0149V42.713ZM372.693 45.9102C376.634 48.0373 379.665 51.0685 381.792 55.0099L382.407 54.6783C380.215 50.6171 377.085 47.4877 373.024 45.2959L372.693 45.9102ZM381.795 55.0157C383.985 58.8942 385.085 63.3747 385.085 68.4675H385.783C385.783 63.2713 384.66 58.6695 382.403 54.6725L381.795 55.0157ZM371.969 64.6503C371.904 61.1298 370.627 58.3 368.129 56.1967L367.68 56.7306C370.009 58.6921 371.209 61.3243 371.271 64.6632L371.969 64.6503ZM368.133 56.2001C365.65 54.0438 362.613 52.9708 359.044 52.9708V53.6688C362.462 53.6688 365.332 54.6917 367.676 56.7272L368.133 56.2001ZM359.044 52.9708C355.664 52.9708 352.785 54.0136 350.429 56.1075L350.893 56.6293C353.11 54.6584 355.82 53.6688 359.044 53.6688V52.9708ZM350.429 56.1071C348.132 58.1418 346.736 60.9867 346.219 64.6074L346.91 64.7061C347.409 61.2134 348.744 58.5328 350.892 56.6297L350.429 56.1071ZM346.564 65.0058H371.62V64.3077H346.564V65.0058ZM404.696 51.4144H404.347V52.6506L404.993 51.597L404.696 51.4144ZM411.365 44.8409L411.192 44.5374L411.189 44.5392L411.365 44.8409ZM420.891 42.4592H421.24V42.1102H420.891V42.4592ZM420.891 56.4637V56.8127H421.24V56.4637H420.891ZM407.84 59.417L407.604 59.159L407.601 59.1626L407.84 59.417ZM404.696 96V96.349H405.045V96H404.696ZM391.358 96H391.009V96.349H391.358V96ZM391.358 43.2214V42.8723H391.009V43.2214H391.358ZM404.696 43.2214H405.045V42.8723H404.696V43.2214ZM404.993 51.597C406.679 48.8497 408.861 46.7003 411.54 45.1427L411.189 44.5392C408.406 46.1571 406.142 48.3901 404.398 51.2319L404.993 51.597ZM411.537 45.1444C414.274 43.5896 417.389 42.8083 420.891 42.8083V42.1102C417.281 42.1102 414.045 42.9167 411.192 44.5375L411.537 45.1444ZM420.542 42.4592V56.4637H421.24V42.4592H420.542ZM420.891 56.1146H417.366V56.8127H420.891V56.1146ZM417.366 56.1146C413.125 56.1146 409.851 57.1104 407.604 59.159L408.075 59.6749C410.147 57.7858 413.224 56.8127 417.366 56.8127V56.1146ZM407.601 59.1626C405.399 61.2311 404.347 64.783 404.347 69.7059H405.045C405.045 64.848 406.089 61.5406 408.079 59.6714L407.601 59.1626ZM404.347 69.7059V96H405.045V69.7059H404.347ZM404.696 95.651H391.358V96.349H404.696V95.651ZM391.707 96V43.2214H391.009V96H391.707ZM391.358 43.5704H404.696V42.8723H391.358V43.5704ZM404.347 43.2214V51.4144H405.045V43.2214H404.347ZM482.68 61.894L482.576 61.561L482.616 62.2371L482.68 61.894ZM491.921 67.5148L492.195 67.2981L491.921 67.5148ZM492.874 87.4259L492.582 87.2354L492.58 87.2371L492.874 87.4259ZM485.348 93.7136L485.494 94.0305L485.348 93.7136ZM444.954 96H444.605V96.349H444.954V96ZM444.954 29.5027V29.1537H444.605V29.5027H444.954ZM484.014 31.6939L483.871 32.0121L483.873 32.0131L484.014 31.6939ZM491.445 37.7911L491.15 37.978L491.154 37.983L491.445 37.7911ZM490.873 56.3684L490.602 56.1495L490.598 56.1536L490.873 56.3684ZM458.292 56.94H457.943V57.289H458.292V56.94ZM477.822 54.8441L478.042 55.1148L478.048 55.1098L477.822 54.8441ZM477.822 42.4592L478.048 42.1935L477.822 42.4592ZM458.292 40.268V39.919H457.943V40.268H458.292ZM479.251 82.853L479.028 82.584L479.024 82.588L479.251 82.853ZM479.155 69.7059L478.927 69.9698L478.932 69.9741L479.155 69.7059ZM458.292 67.229V66.8799H457.943V67.229H458.292ZM458.292 85.1394H457.943V85.4885H458.292V85.1394ZM482.616 62.2371C486.279 62.9199 489.285 64.7475 491.648 67.7314L492.195 67.2981C489.73 64.1849 486.576 62.2652 482.744 61.5508L482.616 62.2371ZM491.648 67.7314C494.012 70.7175 495.193 74.1341 495.193 77.9943H495.891C495.891 73.979 494.658 70.4092 492.195 67.2981L491.648 67.7314ZM495.193 77.9943C495.193 81.4898 494.32 84.5662 492.582 87.2354L493.167 87.6163C494.985 84.8235 495.891 81.6122 495.891 77.9943H495.193ZM492.58 87.2371C490.907 89.8409 488.453 91.896 485.202 93.3966L485.494 94.0305C488.848 92.4825 491.412 90.3458 493.168 87.6146L492.58 87.2371ZM485.202 93.3966C481.954 94.8953 478.101 95.651 473.63 95.651V96.349C478.178 96.349 482.136 95.5804 485.494 94.0305L485.202 93.3966ZM473.63 95.651H444.954V96.349H473.63V95.651ZM445.303 96V29.5027H444.605V96H445.303ZM444.954 29.8518H472.391V29.1537H444.954V29.8518ZM472.391 29.8518C476.864 29.8518 480.687 30.5763 483.871 32.0121L484.158 31.3757C480.863 29.8899 476.937 29.1537 472.391 29.1537V29.8518ZM483.873 32.0131C487.123 33.4509 489.542 35.4418 491.15 37.978L491.74 37.6041C490.046 34.9324 487.51 32.8585 484.155 31.3747L483.873 32.0131ZM491.154 37.983C492.829 40.5266 493.668 43.4124 493.668 46.651H494.366C494.366 43.2844 493.491 40.2635 491.737 37.5991L491.154 37.983ZM493.668 46.651C493.668 50.4589 492.64 53.6172 490.602 56.1495L491.145 56.5872C493.299 53.9116 494.366 50.5916 494.366 46.651H493.668ZM490.598 56.1536C488.613 58.6969 485.944 60.5006 482.576 61.561L482.785 62.2269C486.276 61.1279 489.069 59.2478 491.149 56.5831L490.598 56.1536ZM458.292 57.289H470.486V56.591H458.292V57.289ZM470.486 57.289C473.708 57.289 476.243 56.5807 478.042 55.1147L477.601 54.5735C475.971 55.902 473.615 56.591 470.486 56.591V57.289ZM478.048 55.1098C479.855 53.5703 480.743 51.4007 480.743 48.6517H480.045C480.045 51.2377 479.218 53.1963 477.595 54.5784L478.048 55.1098ZM480.743 48.6517C480.743 45.9027 479.855 43.733 478.048 42.1935L477.595 42.7249C479.218 44.107 480.045 46.0656 480.045 48.6517H480.743ZM478.048 42.1935C476.248 40.6606 473.711 39.919 470.486 39.919V40.6171C473.612 40.6171 475.965 41.3363 477.595 42.7249L478.048 42.1935ZM470.486 39.919H458.292V40.6171H470.486V39.919ZM457.943 40.268V56.94H458.641V40.268H457.943ZM471.725 85.4885C475.015 85.4885 477.616 84.7141 479.478 83.118L479.024 82.588C477.329 84.0404 474.912 84.7904 471.725 84.7904V85.4885ZM479.473 83.1219C481.409 81.5197 482.363 79.2537 482.363 76.3747H481.664C481.664 79.0848 480.776 81.1376 479.028 82.5841L479.473 83.1219ZM482.363 76.3747C482.363 73.4307 481.376 71.1024 479.379 69.4378L478.932 69.9741C480.745 71.4851 481.664 73.6026 481.664 76.3747H482.363ZM479.384 69.4422C477.399 67.7217 474.737 66.8799 471.439 66.8799V67.578C474.618 67.578 477.101 68.3876 478.927 69.9697L479.384 69.4422ZM471.439 66.8799H458.292V67.578H471.439V66.8799ZM457.943 67.229V85.1394H458.641V67.229H457.943ZM458.292 85.4885H471.725V84.7904H458.292V85.4885ZM512.078 93.523L511.907 93.8273L511.911 93.8293L512.078 93.523ZM502.456 83.9009L502.151 84.07L502.153 84.0736L502.456 83.9009ZM502.551 55.3204L502.25 55.1443L502.248 55.1478L502.551 55.3204ZM512.364 45.7936L512.529 46.101L512.533 46.0989L512.364 45.7936ZM539.992 45.7936L539.823 46.099L539.826 46.1009L539.992 45.7936ZM549.709 55.3204L549.406 55.4931L549.408 55.4966L549.709 55.3204ZM549.614 83.9009L549.314 83.7213L549.312 83.7248L549.614 83.9009ZM539.706 93.523L539.871 93.8304L539.873 93.8294L539.706 93.523ZM532.561 83.5199L532.728 83.8263L532.731 83.8245L532.561 83.5199ZM537.705 78.1848L538.012 78.3508L537.705 78.1848ZM535.609 58.0832L535.357 58.3242L535.363 58.33L535.609 58.0832ZM516.365 58.0832L516.113 57.8424L516.112 57.8425L516.365 58.0832ZM516.27 81.2334L516.011 81.468L516.017 81.4741L516.27 81.2334ZM525.797 96.5084C520.768 96.5084 516.254 95.409 512.246 93.2168L511.911 93.8293C516.032 96.0829 520.663 97.2065 525.797 97.2065V96.5084ZM512.249 93.2188C508.241 90.964 505.079 87.8026 502.759 83.7283L502.153 84.0736C504.533 88.2558 507.786 91.5092 511.907 93.8272L512.249 93.2188ZM502.761 83.7318C500.507 79.6623 499.375 74.9587 499.375 69.6107H498.677C498.677 75.0598 499.832 79.8829 502.151 84.07L502.761 83.7318ZM499.375 69.6107C499.375 64.2643 500.538 59.5619 502.855 55.4931L502.248 55.1478C499.864 59.3355 498.677 64.16 498.677 69.6107H499.375ZM502.853 55.4966C505.234 51.4225 508.459 48.2928 512.529 46.1009L512.198 45.4863C508.012 47.7403 504.695 50.9618 502.25 55.1443L502.853 55.4966ZM512.533 46.0989C516.606 43.8434 521.151 42.713 526.178 42.713V42.0149C521.042 42.0149 516.379 43.171 512.195 45.4883L512.533 46.0989ZM526.178 42.713C531.204 42.713 535.75 43.8434 539.823 46.0989L540.161 45.4883C535.977 43.171 531.313 42.0149 526.178 42.0149V42.713ZM539.826 46.1009C543.896 48.2924 547.088 51.421 549.406 55.4931L550.012 55.1478C547.63 50.9633 544.344 47.7407 540.157 45.4863L539.826 46.1009ZM549.408 55.4966C551.786 59.5648 552.98 64.2659 552.98 69.6107H553.678C553.678 64.1584 552.459 59.3326 550.01 55.1443L549.408 55.4966ZM552.98 69.6107C552.98 74.9538 551.755 79.6537 549.314 83.7213L549.913 84.0805C552.426 79.8916 553.678 75.0646 553.678 69.6107H552.98ZM549.312 83.7248C546.931 87.7983 543.675 90.9606 539.539 93.2166L539.873 93.8294C544.121 91.5126 547.47 88.2601 549.915 84.0771L549.312 83.7248ZM539.54 93.2157C535.468 95.4086 530.889 96.5084 525.797 96.5084V97.2065C530.993 97.2065 535.687 96.0833 539.871 93.8303L539.54 93.2157ZM525.797 85.5837C528.268 85.5837 530.58 84.9978 532.728 83.8263L532.394 83.2134C530.35 84.3284 528.152 84.8856 525.797 84.8856V85.5837ZM532.731 83.8245C534.953 82.5829 536.713 80.7542 538.012 78.3508L537.398 78.0189C536.157 80.3154 534.487 82.0433 532.39 83.2152L532.731 83.8245ZM538.012 78.3508C539.316 75.9383 539.96 73.02 539.96 69.6107H539.262C539.262 72.9337 538.635 75.7315 537.398 78.0189L538.012 78.3508ZM539.96 69.6107C539.96 64.5322 538.608 60.5888 535.856 57.8364L535.363 58.33C537.945 60.9127 539.262 64.6542 539.262 69.6107H539.96ZM535.862 57.8424C533.191 55.0415 529.892 53.6376 525.987 53.6376V54.3357C529.704 54.3357 532.819 55.6629 535.357 58.3241L535.862 57.8424ZM525.987 53.6376C522.082 53.6376 518.783 55.0415 516.113 57.8424L516.618 58.3241C519.155 55.6629 522.271 54.3357 525.987 54.3357V53.6376ZM516.112 57.8425C513.491 60.5954 512.205 64.5366 512.205 69.6107H512.903C512.903 64.6498 514.159 60.906 516.618 58.3239L516.112 57.8425ZM512.205 69.6107C512.205 74.6832 513.458 78.6526 516.011 81.4679L516.528 80.9989C514.128 78.3522 512.903 74.5731 512.903 69.6107H512.205ZM516.017 81.4741C518.626 84.2135 521.894 85.5837 525.797 85.5837V84.8856C522.078 84.8856 518.995 83.5884 516.523 80.9927L516.017 81.4741ZM574.831 54.1772V53.8282H574.482V54.1772H574.831ZM576.069 83.6151L575.823 83.8619L575.832 83.8714L575.842 83.8801L576.069 83.6151ZM586.644 84.7583H586.993V84.4093H586.644V84.7583ZM586.644 96V96.349H586.993V96H586.644ZM561.398 54.1772H561.747V53.8282H561.398V54.1772ZM555.11 54.1772H554.761V54.5263H555.11V54.1772ZM555.11 43.2214V42.8723H554.761V43.2214H555.11ZM561.398 43.2214V43.5704H561.747V43.2214H561.398ZM561.398 30.1696V29.8206H561.049V30.1696H561.398ZM574.831 30.1696H575.18V29.8206H574.831V30.1696ZM574.831 43.2214H574.482V43.5704H574.831V43.2214ZM586.644 43.2214H586.993V42.8723H586.644V43.2214ZM586.644 54.1772V54.5263H586.993V54.1772H586.644ZM574.482 54.1772V79.7091H575.18V54.1772H574.482ZM574.482 79.7091C574.482 81.5325 574.904 82.9435 575.823 83.8619L576.316 83.3683C575.583 82.6354 575.18 81.4424 575.18 79.7091H574.482ZM575.842 83.8801C576.827 84.7242 578.392 85.1074 580.452 85.1074V84.4093C578.447 84.4093 577.09 84.0304 576.296 83.3501L575.842 83.8801ZM580.452 85.1074H586.644V84.4093H580.452V85.1074ZM586.295 84.7583V96H586.993V84.7583H586.295ZM586.644 95.651H578.26V96.349H586.644V95.651ZM578.26 95.651C572.691 95.651 568.578 94.2978 565.857 91.6531C563.137 89.0103 561.747 85.0195 561.747 79.6139H561.049C561.049 85.1323 562.469 89.3346 565.37 92.1538C568.27 94.9711 572.588 96.349 578.26 96.349V95.651ZM561.747 79.6139V54.1772H561.049V79.6139H561.747ZM561.398 53.8282H555.11V54.5263H561.398V53.8282ZM555.459 54.1772V43.2214H554.761V54.1772H555.459ZM555.11 43.5704H561.398V42.8723H555.11V43.5704ZM561.747 43.2214V30.1696H561.049V43.2214H561.747ZM561.398 30.5187H574.831V29.8206H561.398V30.5187ZM574.482 30.1696V43.2214H575.18V30.1696H574.482ZM574.831 43.5704H586.644V42.8723H574.831V43.5704ZM586.295 43.2214V54.1772H586.993V43.2214H586.295ZM586.644 53.8282H574.831V54.5263H586.644V53.8282Z" fill="url(#paint0_linear_681_11895)" fill-opacity="0.8" mask="url(#path-8-outside-1_681_11895)"/>
<defs>
<linearGradient id="paint0_linear_681_11895" x1="345.708" y1="0" x2="345.708" y2="126" gradientUnits="userSpaceOnUse">
<stop stop-color="white"/>
<stop offset="0.358832" stop-color="white"/>
<stop offset="0.542685" stop-color="#E4E4E4" stop-opacity="0.35"/>
<stop offset="1" stop-color="#989898"/>
</linearGradient>
</defs>
</svg>
