<svg xmlns="http://www.w3.org/2000/svg" width="32" height="27" viewBox="0 0 32 27" fill="none">
  <path d="M14.8029 21.6999C14.9524 21.8504 15.071 22.0292 15.1519 22.2262C15.2328 22.4231 15.2744 22.6342 15.2744 22.8474C15.2744 23.0606 15.2328 23.2717 15.1519 23.4686C15.071 23.6655 14.9524 23.8444 14.8029 23.9949L14.1189 24.6861C13.3928 25.4225 12.5294 26.0062 11.5787 26.4034C10.628 26.8005 9.60878 27.0033 8.58002 27C7.03074 27.0005 5.51613 26.5366 4.2278 25.6671C2.93947 24.7976 1.93532 23.5614 1.34237 22.1151C0.749421 20.6687 0.594329 19.0772 0.896713 17.5418C1.1991 16.0063 1.94537 14.596 3.04112 13.4893L7.68359 8.79806C8.67104 7.80039 9.90444 7.08754 11.2561 6.73333C12.6078 6.37911 14.0285 6.3964 15.3714 6.7834C16.7142 7.17041 17.9302 7.91306 18.8936 8.93448C19.857 9.95589 20.5327 11.2189 20.8508 12.5929C20.9035 12.8018 20.9144 13.0192 20.8829 13.2324C20.8513 13.4456 20.778 13.6503 20.6671 13.8345C20.5563 14.0187 20.4102 14.1787 20.2374 14.3051C20.0646 14.4316 19.8686 14.5218 19.6608 14.5707C19.453 14.6196 19.2376 14.6261 19.0274 14.5898C18.8171 14.5535 18.6161 14.4751 18.4361 14.3593C18.2562 14.2435 18.1009 14.0926 17.9794 13.9154C17.858 13.7381 17.7727 13.5382 17.7287 13.3273C17.5399 12.5162 17.1402 11.7709 16.5709 11.1682C16.0016 10.5656 15.2834 10.1275 14.4904 9.89929C13.6974 9.6711 12.8585 9.66106 12.0604 9.87021C11.2623 10.0794 10.534 10.5001 9.95071 11.089L5.30825 15.7802C4.66112 16.4336 4.22027 17.2662 4.04147 18.1728C3.86266 19.0794 3.95392 20.0192 4.3037 20.8734C4.65349 21.7275 5.24609 22.4577 6.00656 22.9715C6.76702 23.4853 7.6612 23.7597 8.57601 23.76C9.18384 23.7617 9.78597 23.6416 10.3476 23.4067C10.9092 23.1717 11.4191 22.8265 11.8478 22.3911L12.5305 21.6999C12.6794 21.5487 12.8565 21.4287 13.0515 21.3468C13.2465 21.2649 13.4555 21.2228 13.6667 21.2228C13.8778 21.2228 14.0869 21.2649 14.2819 21.3468C14.4769 21.4287 14.654 21.5487 14.8029 21.6999ZM29.4517 2.31812C27.9824 0.833825 25.9898 0 23.9122 0C21.8345 0 19.842 0.833825 18.3726 2.31812L17.6899 3.00796C17.3888 3.31229 17.2196 3.72506 17.2196 4.15545C17.2196 4.58584 17.3888 4.99861 17.6899 5.30294C17.9911 5.60727 18.3996 5.77825 18.8255 5.77825C19.2514 5.77825 19.6599 5.60727 19.9611 5.30294L20.6451 4.61175C21.5132 3.73455 22.6905 3.24175 23.9182 3.24175C25.1458 3.24175 26.3232 3.73455 27.1913 4.61175C28.0594 5.48894 28.5471 6.67868 28.5471 7.91922C28.5471 9.15976 28.0594 10.3495 27.1913 11.2267L22.5408 15.9112C22.1122 16.3467 21.6023 16.6919 21.0407 16.9269C20.4791 17.1619 19.8769 17.2819 19.269 17.28C18.2263 17.2793 17.2144 16.9226 16.3975 16.2679C15.5805 15.6131 15.0064 14.6987 14.7682 13.6729C14.6718 13.2543 14.4148 12.8916 14.0538 12.6645C13.6928 12.4374 13.2573 12.3645 12.8431 12.4619C12.4289 12.5593 12.0699 12.819 11.8452 13.1838C11.6204 13.5486 11.5483 13.9887 11.6447 14.4073C12.047 16.1445 13.0182 17.6935 14.4009 18.8031C15.7836 19.9126 17.4967 20.5176 19.2624 20.52H19.269C20.2983 20.5229 21.3179 20.3195 22.2688 19.9216C23.2198 19.5237 24.0833 18.9393 24.8093 18.2021L29.4517 13.5109C30.1791 12.776 30.7561 11.9035 31.1498 10.9433C31.5435 9.98306 31.7461 8.95387 31.7461 7.91449C31.7461 6.87512 31.5435 5.84593 31.1498 4.88569C30.7561 3.92545 30.1791 3.05299 29.4517 2.31812Z" fill="white"/>
</svg>