<svg width="27" height="8" viewBox="0 0 27 8" fill="none" xmlns="http://www.w3.org/2000/svg">
<path d="M5.22811 3.97492C5.67034 4.05737 6.03387 4.27849 6.3187 4.63827C6.60353 4.99805 6.74595 5.41031 6.74595 5.87503C6.74595 6.29477 6.64101 6.6658 6.43114 6.98811C6.22876 7.30292 5.93268 7.55027 5.54292 7.73016C5.15315 7.91005 4.69218 8 4.16 8H0.775784V0.152216H4.01384C4.54602 0.152216 5.00324 0.238414 5.38551 0.410811C5.77528 0.583207 6.0676 0.823063 6.26249 1.13038C6.46487 1.43769 6.56605 1.78623 6.56605 2.176C6.56605 2.63323 6.44238 3.0155 6.19503 3.32281C5.95517 3.63013 5.63287 3.8475 5.22811 3.97492ZM2.34984 3.39027H3.78897C4.16375 3.39027 4.45232 3.30782 4.6547 3.14292C4.85708 2.97052 4.95827 2.72692 4.95827 2.41211C4.95827 2.0973 4.85708 1.85369 4.6547 1.6813C4.45232 1.5089 4.16375 1.4227 3.78897 1.4227H2.34984V3.39027ZM3.93514 6.71827C4.31741 6.71827 4.61348 6.62832 4.82335 6.44843C5.04072 6.26854 5.14941 6.01369 5.14941 5.68389C5.14941 5.34659 5.03697 5.08425 4.81211 4.89686C4.58724 4.70198 4.28368 4.60454 3.90141 4.60454H2.34984V6.71827H3.93514ZM9.2372 1.4227V3.39027H11.8794V4.63827H9.2372V6.71827H12.2167V8H7.66315V0.140972H12.2167V1.4227H9.2372ZM18.6503 0.152216V1.4227H16.5591V8H14.985V1.4227H12.8938V0.152216H18.6503ZM24.2736 6.50465H21.148L20.6308 8H18.9781L21.8001 0.140972H23.6328L26.4548 8H24.7908L24.2736 6.50465ZM23.8464 5.24541L22.7108 1.96238L21.5753 5.24541H23.8464Z" fill="url(#paint0_linear_856_234)"/>
<defs>
<linearGradient id="paint0_linear_856_234" x1="-1.70664" y1="3.02632" x2="27.172" y2="6.3937" gradientUnits="userSpaceOnUse">
<stop stop-color="#3DB3FC"/>
<stop offset="0.452482" stop-color="#5C80FA"/>
<stop offset="1" stop-color="#936BF9"/>
</linearGradient>
</defs>
</svg>
