<svg width="98" height="98" viewBox="0 0 98 98" fill="none" xmlns="http://www.w3.org/2000/svg">
<rect opacity="0.1" width="98" height="98" rx="17" fill="#6672EF"/>
<path d="M66.5 47.25V43.75C66.5 35 63 31.5 54.25 31.5H43.75C35 31.5 31.5 35 31.5 43.75V54.25C31.5 63 35 66.5 43.75 66.5H45.5" stroke="#6672EF" stroke-width="2.625" stroke-linecap="round" stroke-linejoin="round"/>
<path d="M31.5527 42.875H66.5002" stroke="#6672EF" stroke-width="2.625" stroke-linecap="round" stroke-linejoin="round"/>
<path d="M31.5527 55.125H49.0002" stroke="#6672EF" stroke-width="2.625" stroke-linecap="round" stroke-linejoin="round"/>
<path d="M42.8916 66.4825V31.5176" stroke="#6672EF" stroke-width="2.625" stroke-linecap="round" stroke-linejoin="round"/>
<path d="M55.1416 48.9825V31.5176" stroke="#6672EF" stroke-width="2.625" stroke-linecap="round" stroke-linejoin="round"/>
<path d="M60.8992 62.4749L57.5742 65.8C56.6642 66.71 55.1592 66.71 54.2317 65.8L51.4667 63.0175C50.5567 62.1075 50.5567 60.6025 51.4667 59.675L54.7917 56.3674L60.8992 62.4749Z" stroke="#6672EF" stroke-width="2.625" stroke-linecap="round" stroke-linejoin="round"/>
<path d="M65.8169 57.575L60.8994 62.4924L54.7744 56.3674L59.6919 51.4325C60.6019 50.5225 62.1244 50.5225 63.0344 51.4325L65.7994 54.2149C66.7269 55.1424 66.7269 56.665 65.8169 57.575Z" stroke="#6672EF" stroke-width="2.625" stroke-linecap="round" stroke-linejoin="round"/>
</svg>
