<svg width="75" height="67" viewBox="0 0 75 67" fill="none" xmlns="http://www.w3.org/2000/svg">
<g opacity="0.2">
<circle cx="4.23387" cy="4.23387" r="4.23387" fill="white"/>
<circle cx="17.5405" cy="4.23387" r="4.23387" fill="white"/>
<circle cx="30.8472" cy="4.23387" r="4.23387" fill="white"/>
<circle cx="44.1538" cy="4.23387" r="4.23387" fill="white"/>
<circle cx="57.4585" cy="4.23387" r="4.23387" fill="white"/>
<circle cx="70.7651" cy="4.23387" r="4.23387" fill="white"/>
<circle cx="4.23387" cy="18.75" r="4.23387" fill="white"/>
<circle cx="4.23387" cy="33.2663" r="4.23387" fill="white"/>
<circle cx="4.23387" cy="47.7822" r="4.23387" fill="white"/>
<circle cx="4.23387" cy="62.2983" r="4.23387" fill="white"/>
<circle cx="17.5405" cy="18.75" r="4.23387" fill="white"/>
<circle cx="17.5405" cy="33.2663" r="4.23387" fill="white"/>
<circle cx="17.5405" cy="47.7822" r="4.23387" fill="white"/>
<circle cx="17.5405" cy="62.2983" r="4.23387" fill="white"/>
<circle cx="30.8472" cy="18.75" r="4.23387" fill="white"/>
<circle cx="30.8472" cy="33.2663" r="4.23387" fill="white"/>
<circle cx="30.8472" cy="47.7822" r="4.23387" fill="white"/>
<circle cx="30.8472" cy="62.2983" r="4.23387" fill="white"/>
<circle cx="44.1538" cy="18.75" r="4.23387" fill="white"/>
<circle cx="44.1538" cy="33.2663" r="4.23387" fill="white"/>
<circle cx="44.1538" cy="47.7822" r="4.23387" fill="white"/>
<circle cx="44.1538" cy="62.2983" r="4.23387" fill="white"/>
<circle cx="57.4585" cy="18.75" r="4.23387" fill="white"/>
<circle cx="57.4585" cy="33.2663" r="4.23387" fill="white"/>
<circle cx="57.4585" cy="47.7822" r="4.23387" fill="white"/>
<circle cx="57.4585" cy="62.2983" r="4.23387" fill="white"/>
<circle cx="70.7651" cy="18.75" r="4.23387" fill="white"/>
<circle cx="70.7651" cy="33.2663" r="4.23387" fill="white"/>
<circle cx="70.7651" cy="47.7822" r="4.23387" fill="white"/>
<circle cx="70.7651" cy="62.2983" r="4.23387" fill="white"/>
</g>
</svg>
