<svg width="98" height="98" viewBox="0 0 98 98" fill="none" xmlns="http://www.w3.org/2000/svg">
<rect opacity="0.1" width="98" height="98" rx="17" fill="#DC66EF"/>
<path d="M59.1499 31.6749L41.7724 36.0324C39.2349 36.6624 36.6624 39.2349 36.0324 41.7724L31.6749 59.1499C30.3624 64.3999 33.5824 67.6374 38.8499 66.3249L56.2274 61.9849C58.7474 61.3549 61.3374 58.7649 61.9674 56.2449L66.3249 38.8499C67.6374 33.5999 64.3999 30.3624 59.1499 31.6749Z" stroke="#DC66EF" stroke-width="2.625" stroke-linecap="round" stroke-linejoin="round"/>
<path d="M49 55.125C52.3827 55.125 55.125 52.3827 55.125 49C55.125 45.6173 52.3827 42.875 49 42.875C45.6173 42.875 42.875 45.6173 42.875 49C42.875 52.3827 45.6173 55.125 49 55.125Z" stroke="#DC66EF" stroke-width="2.625" stroke-linecap="round" stroke-linejoin="round"/>
</svg>
