<svg width="73" height="67" viewBox="0 0 73 67" fill="none" xmlns="http://www.w3.org/2000/svg">
<mask id="mask0_232_1880" style="mask-type:luminance" maskUnits="userSpaceOnUse" x="0" y="0" width="73" height="67">
<path d="M57.9864 23.4244H14.9646C13.1369 23.4244 11.6553 24.9061 11.6553 26.7338V59.8275C11.6553 61.6552 13.1369 63.1369 14.9646 63.1369H57.9864C59.8142 63.1369 61.2958 61.6552 61.2958 59.8275V26.7338C61.2958 24.9061 59.8142 23.4244 57.9864 23.4244Z" fill="white" stroke="white" stroke-width="6.61874"/>
<path d="M24.8924 39.9712C26.7201 39.9712 28.2017 38.4895 28.2017 36.6618C28.2017 34.8341 26.7201 33.3524 24.8924 33.3524C23.0647 33.3524 21.583 34.8341 21.583 36.6618C21.583 38.4895 23.0647 39.9712 24.8924 39.9712Z" fill="black"/>
<path d="M48.0584 39.9712C49.8861 39.9712 51.3678 38.4895 51.3678 36.6618C51.3678 34.8341 49.8861 33.3524 48.0584 33.3524C46.2307 33.3524 44.749 34.8341 44.749 36.6618C44.749 38.4895 46.2307 39.9712 48.0584 39.9712Z" fill="black"/>
<path d="M29.8572 46.59C28.9795 46.59 28.1378 46.9386 27.5171 47.5593C26.8965 48.1799 26.5479 49.0216 26.5479 49.8993C26.5479 50.777 26.8965 51.6188 27.5171 52.2394C28.1378 52.86 28.9795 53.2087 29.8572 53.2087V46.59ZM43.0947 53.2087C43.9724 53.2087 44.8141 52.86 45.4348 52.2394C46.0554 51.6188 46.4041 50.777 46.4041 49.8993C46.4041 49.0216 46.0554 48.1799 45.4348 47.5593C44.8141 46.9386 43.9724 46.59 43.0947 46.59V53.2087ZM29.8572 53.2087H43.0947V46.59H29.8572V53.2087Z" fill="black"/>
<path d="M36.4755 10.187V23.4245M3.38184 36.662V49.8994M69.5692 36.662V49.8994" stroke="white" stroke-width="6.61874" stroke-linecap="round" stroke-linejoin="round"/>
<path d="M36.4754 10.1869C38.3031 10.1869 39.7848 8.7052 39.7848 6.87748C39.7848 5.04977 38.3031 3.56812 36.4754 3.56812C34.6477 3.56812 33.166 5.04977 33.166 6.87748C33.166 8.7052 34.6477 10.1869 36.4754 10.1869Z" stroke="white" stroke-width="6.61874"/>
</mask>
<g mask="url(#mask0_232_1880)">
<path d="M-3.2373 -6.35999H76.1875V73.0649H-3.2373V-6.35999Z" fill="white"/>
</g>
</svg>
