<svg width="30" height="31" viewBox="0 0 30 31" fill="none" xmlns="http://www.w3.org/2000/svg">
<path fill-rule="evenodd" clip-rule="evenodd" d="M18.2143 0.5H27.8571C28.4255 0.5 28.9705 0.725765 29.3724 1.12763C29.7742 1.52949 30 2.07454 30 2.64286V12.2857C30 12.854 29.7742 13.3991 29.3724 13.8009C28.9705 14.2028 28.4255 14.4286 27.8571 14.4286H18.2143C17.646 14.4286 17.1009 14.2028 16.6991 13.8009C16.2972 13.3991 16.0714 12.854 16.0714 12.2857V2.64286C16.0714 2.07454 16.2972 1.52949 16.6991 1.12763C17.1009 0.725765 17.646 0.5 18.2143 0.5ZM25.5574 9.98595C25.6578 9.88548 25.7143 9.74922 25.7143 9.60714V5.32143C25.7143 5.17935 25.6578 5.04309 25.5574 4.94262C25.4569 4.84216 25.3207 4.78571 25.1786 4.78571H20.8929C20.7508 4.78571 20.6145 4.84216 20.514 4.94262C20.4136 5.04309 20.3571 5.17935 20.3571 5.32143V9.60714C20.3571 9.74922 20.4136 9.88548 20.514 9.98595C20.6145 10.0864 20.7508 10.1429 20.8929 10.1429H25.1786C25.3207 10.1429 25.4569 10.0864 25.5574 9.98595Z" fill="url(#paint0_linear_188_3086)"/>
<path fill-rule="evenodd" clip-rule="evenodd" d="M2.14286 0.5H11.7857C12.354 0.5 12.8991 0.725765 13.3009 1.12763C13.7028 1.52949 13.9286 2.07454 13.9286 2.64286V12.2857C13.9286 12.854 13.7028 13.3991 13.3009 13.8009C12.8991 14.2028 12.354 14.4286 11.7857 14.4286H2.14286C1.57454 14.4286 1.02949 14.2028 0.627628 13.8009C0.225765 13.3991 0 12.854 0 12.2857V2.64286C0 2.07454 0.225765 1.52949 0.627628 1.12763C1.02949 0.725765 1.57454 0.5 2.14286 0.5ZM9.48595 9.98595C9.58642 9.88548 9.64286 9.74922 9.64286 9.60714V5.32143C9.64286 5.17935 9.58642 5.04309 9.48595 4.94262C9.38548 4.84216 9.24922 4.78571 9.10714 4.78571H4.82143C4.67935 4.78571 4.54309 4.84216 4.44262 4.94262C4.34216 5.04309 4.28571 5.17935 4.28571 5.32143V9.60714C4.28571 9.74922 4.34216 9.88548 4.44262 9.98595C4.54309 10.0864 4.67935 10.1429 4.82143 10.1429H9.10714C9.24922 10.1429 9.38548 10.0864 9.48595 9.98595Z" fill="url(#paint1_linear_188_3086)"/>
<path fill-rule="evenodd" clip-rule="evenodd" d="M2.14286 16.5714H11.7857C12.354 16.5714 12.8991 16.7972 13.3009 17.1991C13.7028 17.6009 13.9286 18.146 13.9286 18.7143V28.3571C13.9286 28.9255 13.7028 29.4705 13.3009 29.8724C12.8991 30.2742 12.354 30.5 11.7857 30.5H2.14286C1.57454 30.5 1.02949 30.2742 0.627628 29.8724C0.225765 29.4705 0 28.9255 0 28.3571V18.7143C0 18.146 0.225765 17.6009 0.627628 17.1991C1.02949 16.7972 1.57454 16.5714 2.14286 16.5714ZM9.48595 26.0574C9.58642 25.9569 9.64286 25.8207 9.64286 25.6786V21.3929C9.64286 21.2508 9.58642 21.1145 9.48595 21.014C9.38548 20.9136 9.24922 20.8571 9.10714 20.8571H4.82143C4.67935 20.8571 4.54309 20.9136 4.44262 21.014C4.34216 21.1145 4.28571 21.2508 4.28571 21.3929V25.6786C4.28571 25.8207 4.34216 25.9569 4.44262 26.0574C4.54309 26.1578 4.67935 26.2143 4.82143 26.2143H9.10714C9.24922 26.2143 9.38548 26.1578 9.48595 26.0574Z" fill="url(#paint2_linear_188_3086)"/>
<path d="M16.0714 17.1071C16.0714 16.8113 16.3113 16.5714 16.6071 16.5714H19.8214C20.1173 16.5714 20.3571 16.8113 20.3571 17.1071V20.3214C20.3571 20.6173 20.1173 20.8571 19.8214 20.8571H16.6071C16.3113 20.8571 16.0714 20.6173 16.0714 20.3214V17.1071Z" fill="url(#paint3_linear_188_3086)"/>
<path d="M20.8929 20.8571H25.1786C25.4744 20.8571 25.7143 21.097 25.7143 21.3929V25.6786C25.7143 25.9744 25.4744 26.2143 25.1786 26.2143H20.8929C20.597 26.2143 20.3571 25.9744 20.3571 25.6786V21.3929C20.3571 21.097 20.597 20.8571 20.8929 20.8571Z" fill="url(#paint4_linear_188_3086)"/>
<path d="M30 26.75C30 26.4541 29.7602 26.2143 29.4643 26.2143H26.25C25.9541 26.2143 25.7143 26.4541 25.7143 26.75V29.9643C25.7143 30.2602 25.9541 30.5 26.25 30.5H29.4643C29.7602 30.5 30 30.2602 30 29.9643V26.75Z" fill="url(#paint5_linear_188_3086)"/>
<path d="M27.3214 16.5714H29.4643C29.7602 16.5714 30 16.8113 30 17.1071V19.25C30 19.5459 29.7602 19.7857 29.4643 19.7857H27.3214C27.0256 19.7857 26.7857 19.5459 26.7857 19.25V17.1071C26.7857 16.8113 27.0256 16.5714 27.3214 16.5714Z" fill="url(#paint6_linear_188_3086)"/>
<path d="M18.75 27.2857H16.6071C16.3113 27.2857 16.0714 27.5256 16.0714 27.8214V29.9643C16.0714 30.2602 16.3113 30.5 16.6071 30.5H18.75C19.0459 30.5 19.2857 30.2602 19.2857 29.9643V27.8214C19.2857 27.5256 19.0459 27.2857 18.75 27.2857Z" fill="url(#paint7_linear_188_3086)"/>
<defs>
<linearGradient id="paint0_linear_188_3086" x1="-1.89627" y1="12.5789" x2="30.5668" y2="13.9809" gradientUnits="userSpaceOnUse">
<stop stop-color="#3DB3FC"/>
<stop offset="0.452482" stop-color="#5C80FA"/>
<stop offset="1" stop-color="#936BF9"/>
</linearGradient>
<linearGradient id="paint1_linear_188_3086" x1="-1.89627" y1="12.5789" x2="30.5668" y2="13.9809" gradientUnits="userSpaceOnUse">
<stop stop-color="#3DB3FC"/>
<stop offset="0.452482" stop-color="#5C80FA"/>
<stop offset="1" stop-color="#936BF9"/>
</linearGradient>
<linearGradient id="paint2_linear_188_3086" x1="-1.89627" y1="12.5789" x2="30.5668" y2="13.9809" gradientUnits="userSpaceOnUse">
<stop stop-color="#3DB3FC"/>
<stop offset="0.452482" stop-color="#5C80FA"/>
<stop offset="1" stop-color="#936BF9"/>
</linearGradient>
<linearGradient id="paint3_linear_188_3086" x1="-1.89627" y1="12.5789" x2="30.5668" y2="13.9809" gradientUnits="userSpaceOnUse">
<stop stop-color="#3DB3FC"/>
<stop offset="0.452482" stop-color="#5C80FA"/>
<stop offset="1" stop-color="#936BF9"/>
</linearGradient>
<linearGradient id="paint4_linear_188_3086" x1="-1.89627" y1="12.5789" x2="30.5668" y2="13.9809" gradientUnits="userSpaceOnUse">
<stop stop-color="#3DB3FC"/>
<stop offset="0.452482" stop-color="#5C80FA"/>
<stop offset="1" stop-color="#936BF9"/>
</linearGradient>
<linearGradient id="paint5_linear_188_3086" x1="-1.89627" y1="12.5789" x2="30.5668" y2="13.9809" gradientUnits="userSpaceOnUse">
<stop stop-color="#3DB3FC"/>
<stop offset="0.452482" stop-color="#5C80FA"/>
<stop offset="1" stop-color="#936BF9"/>
</linearGradient>
<linearGradient id="paint6_linear_188_3086" x1="-1.89627" y1="12.5789" x2="30.5668" y2="13.9809" gradientUnits="userSpaceOnUse">
<stop stop-color="#3DB3FC"/>
<stop offset="0.452482" stop-color="#5C80FA"/>
<stop offset="1" stop-color="#936BF9"/>
</linearGradient>
<linearGradient id="paint7_linear_188_3086" x1="-1.89627" y1="12.5789" x2="30.5668" y2="13.9809" gradientUnits="userSpaceOnUse">
<stop stop-color="#3DB3FC"/>
<stop offset="0.452482" stop-color="#5C80FA"/>
<stop offset="1" stop-color="#936BF9"/>
</linearGradient>
</defs>
</svg>
