<svg width="18" height="17" viewBox="0 0 18 17" fill="none" xmlns="http://www.w3.org/2000/svg">
<path fill-rule="evenodd" clip-rule="evenodd" d="M1.28211 13.7543C0.696327 14.3401 0.696327 15.2899 1.28211 15.8757C1.8679 16.4614 2.81765 16.4614 3.40343 15.8757L9.00023 10.2789L14.5971 15.8757C15.1829 16.4615 16.1326 16.4615 16.7184 15.8757C17.3042 15.2899 17.3042 14.3402 16.7184 13.7544L11.1215 8.15754L16.7184 2.56066C17.3042 1.97487 17.3042 1.02513 16.7184 0.439339C16.1326 -0.146446 15.1829 -0.146446 14.5971 0.439339L9.00023 6.03622L3.40343 0.439419C2.81765 -0.146367 1.8679 -0.146367 1.28211 0.439419C0.696327 1.02521 0.696327 1.97495 1.28211 2.56074L6.87891 8.15754L1.28211 13.7543Z" fill="white"/>
</svg>
