<svg width="77" height="19" viewBox="0 0 77 19" fill="none" xmlns="http://www.w3.org/2000/svg">
<rect y="0.870361" width="76.8023" height="17.2591" rx="8.62954" fill="white" fill-opacity="0.07"/>
<path d="M5.76633 9.53787C5.76633 8.96072 5.89647 8.44298 6.15675 7.98466C6.41704 7.52067 6.77068 7.15854 7.21769 6.89826C7.67036 6.63798 8.17112 6.50783 8.71997 6.50783C9.36502 6.50783 9.92803 6.66344 10.409 6.97465C10.8899 7.28585 11.2408 7.7272 11.4614 8.29869H10.5363C10.3722 7.94222 10.1346 7.66779 9.82335 7.47541C9.5178 7.28302 9.15001 7.18683 8.71997 7.18683C8.30692 7.18683 7.9363 7.28302 7.60811 7.47541C7.27993 7.66779 7.02248 7.94222 6.83575 8.29869C6.64903 8.64951 6.55567 9.06257 6.55567 9.53787C6.55567 10.0075 6.64903 10.4206 6.83575 10.777C7.02248 11.1279 7.27993 11.3995 7.60811 11.5918C7.9363 11.7842 8.30692 11.8804 8.71997 11.8804C9.15001 11.8804 9.5178 11.7871 9.82335 11.6003C10.1346 11.4079 10.3722 11.1335 10.5363 10.777H11.4614C11.2408 11.3429 10.8899 11.7814 10.409 12.0926C9.92803 12.3982 9.36502 12.5509 8.71997 12.5509C8.17112 12.5509 7.67036 12.4236 7.21769 12.169C6.77068 11.9087 6.41704 11.5494 6.15675 11.0911C5.89647 10.6328 5.76633 10.115 5.76633 9.53787ZM15.6327 12.5594C15.0838 12.5594 14.5831 12.4321 14.1304 12.1775C13.6777 11.9172 13.3184 11.5579 13.0525 11.0996C12.7922 10.6356 12.6621 10.115 12.6621 9.53787C12.6621 8.96072 12.7922 8.44298 13.0525 7.98466C13.3184 7.52067 13.6777 7.16137 14.1304 6.90675C14.5831 6.64646 15.0838 6.51632 15.6327 6.51632C16.1872 6.51632 16.6908 6.64646 17.1435 6.90675C17.5961 7.16137 17.9526 7.51784 18.2129 7.97617C18.4732 8.43449 18.6033 8.95506 18.6033 9.53787C18.6033 10.1207 18.4732 10.6412 18.2129 11.0996C17.9526 11.5579 17.5961 11.9172 17.1435 12.1775C16.6908 12.4321 16.1872 12.5594 15.6327 12.5594ZM15.6327 11.8889C16.0458 11.8889 16.4164 11.7927 16.7446 11.6003C17.0784 11.4079 17.3387 11.1335 17.5254 10.777C17.7178 10.4206 17.814 10.0075 17.814 9.53787C17.814 9.06257 17.7178 8.64951 17.5254 8.29869C17.3387 7.94222 17.0812 7.66779 16.753 7.47541C16.4249 7.28302 16.0514 7.18683 15.6327 7.18683C15.214 7.18683 14.8405 7.28302 14.5124 7.47541C14.1842 7.66779 13.9239 7.94222 13.7315 8.29869C13.5448 8.64951 13.4514 9.06257 13.4514 9.53787C13.4514 10.0075 13.5448 10.4206 13.7315 10.777C13.9239 11.1335 14.1842 11.4079 14.5124 11.6003C14.8462 11.7927 15.2196 11.8889 15.6327 11.8889ZM25.9631 6.62666V12.5H25.1907V8.12046L23.2386 12.5H22.6954L20.7348 8.11197V12.5H19.9624V6.62666H20.7942L22.967 11.4815L25.1398 6.62666H25.9631ZM28.3848 6.58422V12.5H27.6125V6.58422H28.3848ZM34.6918 12.5H33.9195L30.813 7.78944V12.5H30.0407V6.57573H30.813L33.9195 11.2778V6.57573H34.6918V12.5ZM40.8293 8.29869C40.6652 7.95354 40.4276 7.68759 40.1164 7.50087C39.8052 7.30849 39.443 7.2123 39.03 7.2123C38.6169 7.2123 38.2435 7.30849 37.9096 7.50087C37.5815 7.68759 37.3212 7.95919 37.1288 8.31567C36.9421 8.66648 36.8487 9.07388 36.8487 9.53787C36.8487 10.0018 36.9421 10.4092 37.1288 10.7601C37.3212 11.1109 37.5815 11.3825 37.9096 11.5749C38.2435 11.7616 38.6169 11.855 39.03 11.855C39.6071 11.855 40.0824 11.6824 40.4559 11.3372C40.8293 10.9921 41.0472 10.5252 41.1094 9.93678H38.7499V9.3087H41.9327V9.90283C41.8874 10.3894 41.7347 10.8365 41.4744 11.2439C41.2141 11.6456 40.8718 11.9653 40.4474 12.2029C40.023 12.4349 39.5505 12.5509 39.03 12.5509C38.4811 12.5509 37.9804 12.4236 37.5277 12.169C37.075 11.9087 36.7157 11.5494 36.4498 11.0911C36.1895 10.6328 36.0594 10.115 36.0594 9.53787C36.0594 8.96072 36.1895 8.44298 36.4498 7.98466C36.7157 7.52067 37.075 7.16137 37.5277 6.90675C37.9804 6.64646 38.4811 6.51632 39.03 6.51632C39.6581 6.51632 40.2126 6.67193 40.6935 6.98313C41.1801 7.29434 41.5338 7.73286 41.7545 8.29869H40.8293ZM47.7714 12.5594C47.381 12.5594 47.0302 12.4915 46.719 12.3557C46.4134 12.2143 46.173 12.0219 45.9975 11.7786C45.8221 11.5296 45.7316 11.2439 45.7259 10.9213H46.5492C46.5775 11.1986 46.6907 11.4334 46.8887 11.6258C47.0924 11.8125 47.3867 11.9059 47.7714 11.9059C48.1392 11.9059 48.4278 11.8153 48.6372 11.6343C48.8522 11.4476 48.9597 11.2099 48.9597 10.9213C48.9597 10.695 48.8974 10.5111 48.773 10.3696C48.6485 10.2282 48.4929 10.1207 48.3061 10.0471C48.1194 9.97356 47.8676 9.89434 47.5508 9.80947C47.1603 9.70762 46.8463 9.60577 46.6086 9.50392C46.3767 9.40207 46.1758 9.24363 46.006 9.02862C45.8419 8.80794 45.7599 8.51371 45.7599 8.14592C45.7599 7.82339 45.8419 7.53765 46.006 7.28868C46.1701 7.03972 46.3993 6.84733 46.6935 6.71153C46.9934 6.57573 47.3357 6.50783 47.7205 6.50783C48.275 6.50783 48.7277 6.64646 49.0785 6.92372C49.435 7.20098 49.6359 7.56877 49.6811 8.02709H48.8324C48.8041 7.80076 48.6853 7.60272 48.4759 7.43297C48.2665 7.25756 47.9893 7.16986 47.6441 7.16986C47.3216 7.16986 47.0585 7.25473 46.8548 7.42448C46.6511 7.58857 46.5492 7.82057 46.5492 8.12046C46.5492 8.33547 46.6086 8.51088 46.7275 8.64668C46.852 8.78248 47.0019 8.88716 47.1773 8.96072C47.3584 9.02862 47.6102 9.10783 47.9327 9.19837C48.3231 9.30588 48.6372 9.41338 48.8748 9.52089C49.1125 9.62274 49.3162 9.784 49.4859 10.0047C49.6557 10.2197 49.7405 10.5139 49.7405 10.8874C49.7405 11.176 49.6641 11.4476 49.5114 11.7022C49.3586 11.9568 49.1323 12.1633 48.8324 12.3218C48.5325 12.4802 48.1788 12.5594 47.7714 12.5594ZM53.8987 12.5594C53.3498 12.5594 52.8491 12.4321 52.3964 12.1775C51.9437 11.9172 51.5844 11.5579 51.3185 11.0996C51.0582 10.6356 50.928 10.115 50.928 9.53787C50.928 8.96072 51.0582 8.44298 51.3185 7.98466C51.5844 7.52067 51.9437 7.16137 52.3964 6.90675C52.8491 6.64646 53.3498 6.51632 53.8987 6.51632C54.4532 6.51632 54.9568 6.64646 55.4094 6.90675C55.8621 7.16137 56.2186 7.51784 56.4789 7.97617C56.7391 8.43449 56.8693 8.95506 56.8693 9.53787C56.8693 10.1207 56.7391 10.6412 56.4789 11.0996C56.2186 11.5579 55.8621 11.9172 55.4094 12.1775C54.9568 12.4321 54.4532 12.5594 53.8987 12.5594ZM53.8987 11.8889C54.3117 11.8889 54.6823 11.7927 55.0105 11.6003C55.3444 11.4079 55.6047 11.1335 55.7914 10.777C55.9838 10.4206 56.08 10.0075 56.08 9.53787C56.08 9.06257 55.9838 8.64951 55.7914 8.29869C55.6047 7.94222 55.3472 7.66779 55.019 7.47541C54.6908 7.28302 54.3174 7.18683 53.8987 7.18683C53.48 7.18683 53.1065 7.28302 52.7783 7.47541C52.4501 7.66779 52.1899 7.94222 51.9975 8.29869C51.8107 8.64951 51.7174 9.06257 51.7174 9.53787C51.7174 10.0075 51.8107 10.4206 51.9975 10.777C52.1899 11.1335 52.4501 11.4079 52.7783 11.6003C53.1122 11.7927 53.4856 11.8889 53.8987 11.8889ZM60.9105 12.5594C60.3616 12.5594 59.8608 12.4321 59.4082 12.1775C58.9555 11.9172 58.5962 11.5579 58.3303 11.0996C58.07 10.6356 57.9398 10.115 57.9398 9.53787C57.9398 8.96072 58.07 8.44298 58.3303 7.98466C58.5962 7.52067 58.9555 7.16137 59.4082 6.90675C59.8608 6.64646 60.3616 6.51632 60.9105 6.51632C61.465 6.51632 61.9686 6.64646 62.4212 6.90675C62.8739 7.16137 63.2304 7.51784 63.4907 7.97617C63.7509 8.43449 63.8811 8.95506 63.8811 9.53787C63.8811 10.1207 63.7509 10.6412 63.4907 11.0996C63.2304 11.5579 62.8739 11.9172 62.4212 12.1775C61.9686 12.4321 61.465 12.5594 60.9105 12.5594ZM60.9105 11.8889C61.3235 11.8889 61.6941 11.7927 62.0223 11.6003C62.3562 11.4079 62.6164 11.1335 62.8032 10.777C62.9956 10.4206 63.0917 10.0075 63.0917 9.53787C63.0917 9.06257 62.9956 8.64951 62.8032 8.29869C62.6164 7.94222 62.359 7.66779 62.0308 7.47541C61.7026 7.28302 61.3292 7.18683 60.9105 7.18683C60.4917 7.18683 60.1183 7.28302 59.7901 7.47541C59.4619 7.66779 59.2016 7.94222 59.0093 8.29869C58.8225 8.64951 58.7292 9.06257 58.7292 9.53787C58.7292 10.0075 58.8225 10.4206 59.0093 10.777C59.2016 11.1335 59.4619 11.4079 59.7901 11.6003C60.124 11.7927 60.4974 11.8889 60.9105 11.8889ZM69.8913 12.5H69.119L66.0126 7.78944V12.5H65.2402V6.57573H66.0126L69.119 11.2778V6.57573H69.8913V12.5Z" fill="white" fill-opacity="0.8"/>
</svg>
