<svg width="45" height="45" viewBox="0 0 45 45" fill="none" xmlns="http://www.w3.org/2000/svg">
<rect width="45" height="45" rx="11" fill="url(#paint0_linear_718_621)"/>
<path d="M13.7371 17.6522C13.7371 17.4849 13.8267 17.3303 13.9719 17.2472L22.5675 12.3275C22.8786 12.1494 23.2659 12.374 23.2659 12.7325V14.747C23.2659 15.0393 22.8942 15.2365 22.6018 15.2365C21.9963 15.2365 21.5055 15.7273 21.5055 16.3328C21.5055 16.6784 21.6654 16.9866 21.9153 17.1876C22.0624 17.3058 22.1826 17.4692 22.1826 17.6579V18.6609C22.1826 18.9186 21.9737 19.1276 21.716 19.1276H17.6786C17.0805 19.1276 16.5957 19.6124 16.5957 20.2104V23.0206C16.5957 23.1099 16.5154 23.1773 16.4261 23.1773C15.8473 23.1773 15.3781 23.6465 15.3781 24.2252C15.3781 24.804 15.8473 25.2732 16.4261 25.2732C16.5154 25.2732 16.5957 25.3406 16.5957 25.4299V27.5471C16.5957 28.1452 17.0805 28.63 17.6786 28.63H17.7786C18.3247 28.63 18.4264 29.407 17.8987 29.5475L14.3238 30.4999C14.0276 30.5788 13.7371 30.3555 13.7371 30.049V17.6522Z" fill="white"/>
<path d="M22.2238 28.63C21.9661 28.63 21.7572 28.8389 21.7572 29.0966V32.2531C21.7572 32.6118 22.145 32.8364 22.4561 32.6579L31.0517 27.7252C31.1967 27.642 31.2861 27.4876 31.2861 27.3205V15.057C31.2861 14.7504 30.9955 14.5272 30.6993 14.6061L23.992 16.3929C23.8089 16.4417 23.6819 16.6011 23.6055 16.7745C23.5374 16.929 23.4347 17.0648 23.3071 17.1721C23.1669 17.2901 23.0532 17.4499 23.0532 17.6332V18.6609C23.0532 18.9186 23.2621 19.1276 23.5199 19.1276H27.2916C27.8897 19.1276 28.3745 19.6124 28.3745 20.2104V22.9187C28.3745 23.0854 28.541 23.2037 28.7077 23.2037C29.2865 23.2037 29.7557 23.6729 29.7557 24.2517C29.7557 24.8304 29.2865 25.2996 28.7077 25.2996C28.541 25.2996 28.3745 25.4179 28.3745 25.5846V27.5471C28.3745 28.1451 27.8897 28.63 27.2916 28.63H22.2238Z" fill="white"/>
<path d="M21.0541 22.2981C21.0541 22.9036 20.5632 23.3944 19.9578 23.3944C19.3523 23.3944 18.8615 22.9036 18.8615 22.2981C18.8615 21.6927 19.3523 21.2018 19.9578 21.2018C20.5632 21.2018 21.0541 21.6927 21.0541 22.2981Z" fill="white"/>
<path d="M24.7944 23.3944C25.3999 23.3944 25.8907 22.9036 25.8907 22.2981C25.8907 21.6927 25.3999 21.2018 24.7944 21.2018C24.1889 21.2018 23.6981 21.6927 23.6981 22.2981C23.6981 22.9036 24.1889 23.3944 24.7944 23.3944Z" fill="white"/>
<defs>
<linearGradient id="paint0_linear_718_621" x1="-2.84441" y1="18.1184" x2="45.8502" y2="20.2214" gradientUnits="userSpaceOnUse">
<stop stop-color="#3DB3FC"/>
<stop offset="0.452482" stop-color="#5C80FA"/>
<stop offset="1" stop-color="#936BF9"/>
</linearGradient>
</defs>
</svg>
