<svg width="45" height="45" viewBox="0 0 45 45" fill="none" xmlns="http://www.w3.org/2000/svg">
<rect x="0.5" y="0.5" width="44" height="44" rx="10.5" stroke="white" stroke-opacity="0.12"/>
<path fill-rule="evenodd" clip-rule="evenodd" d="M11.4048 16.9962C11.4048 16.7285 11.5481 16.4813 11.7805 16.3483L21.2355 10.9366C21.7331 10.6518 22.3528 11.0111 22.3528 11.5845V16.6506C22.3528 16.8191 22.2958 16.9827 22.191 17.1147L16.7222 24.0045C16.2746 24.5685 16.806 25.3767 17.5012 25.1894L21.3903 24.1411C21.8647 24.0133 22.3311 24.3706 22.3311 24.8619V28.3305C22.3311 28.6687 22.1036 28.9647 21.7768 29.0518L12.3434 31.5648C11.8696 31.6911 11.4048 31.3339 11.4048 30.8435V16.9962ZM22.5027 28.8238C22.4053 28.9532 22.3526 29.1108 22.3526 29.2727V34.1881C22.3526 34.7619 22.973 35.1211 23.4706 34.8356L32.9257 29.4097C33.1576 29.2766 33.3006 29.0296 33.3006 28.7622V15.0678C33.3006 14.5775 32.8358 14.2203 32.362 14.3465L22.9464 16.8548C22.6234 16.9409 22.3969 17.2313 22.3922 17.5655L22.3449 20.8928C22.338 21.385 22.8009 21.7491 23.2775 21.6263L26.9711 20.675C27.6549 20.4989 28.1783 21.2826 27.7537 21.8468L22.5027 28.8238Z" fill="white"/>
</svg>
