<svg width="24" height="23" viewBox="0 0 24 23" fill="none" xmlns="http://www.w3.org/2000/svg">
<path d="M15.5 4C15.5 3.73478 15.3946 3.48043 15.2071 3.29289C15.0196 3.10536 14.7652 3 14.5 3C14.2348 3 13.9804 3.10536 13.7929 3.29289C13.6054 3.48043 13.5 3.73478 13.5 4V7H15.5V4ZM17 8H6C5.86739 8 5.74021 8.05268 5.64645 8.14645C5.55268 8.24021 5.5 8.36739 5.5 8.5V9.5C5.5 9.63261 5.55268 9.75979 5.64645 9.85355C5.74021 9.94732 5.86739 10 6 10H6.5V11C6.50018 12.1525 6.89835 13.2697 7.62719 14.1625C8.35603 15.0553 9.37082 15.6691 10.5 15.9V19H12.5V15.9C13.6292 15.6691 14.644 15.0553 15.3728 14.1625C16.1017 13.2697 16.4998 12.1525 16.5 11V10H17C17.1326 10 17.2598 9.94732 17.3536 9.85355C17.4473 9.75979 17.5 9.63261 17.5 9.5V8.5C17.5 8.36739 17.4473 8.24021 17.3536 8.14645C17.2598 8.05268 17.1326 8 17 8ZM9.5 4C9.5 3.73478 9.39464 3.48043 9.20711 3.29289C9.01957 3.10536 8.76522 3 8.5 3C8.23478 3 7.98043 3.10536 7.79289 3.29289C7.60536 3.48043 7.5 3.73478 7.5 4V7H9.5V4Z" fill="url(#paint0_linear_1185_14882)"/>
<defs>
<linearGradient id="paint0_linear_1185_14882" x1="14.1527" y1="21.5143" x2="6.77025" y2="20.6894" gradientUnits="userSpaceOnUse">
<stop stop-color="#C3C3C3"/>
<stop offset="0.526794" stop-color="white"/>
<stop offset="1" stop-color="white"/>
</linearGradient>
</defs>
</svg>
