<svg width="304" height="273" viewBox="0 0 304 273" fill="none" xmlns="http://www.w3.org/2000/svg">
<path d="M34.5039 -0.00012207V272.266" stroke="white" stroke-opacity="0.15" stroke-width="0.498027"/>
<path d="M72.7705 -0.00012207V272.266" stroke="white" stroke-opacity="0.15" stroke-width="0.498027"/>
<path d="M111.666 -0.00012207V272.266" stroke="white" stroke-opacity="0.15" stroke-width="0.498027"/>
<path d="M149.935 -0.00012207V272.266" stroke="white" stroke-opacity="0.15" stroke-width="0.498027"/>
<path d="M188.829 -0.00012207V272.266" stroke="white" stroke-opacity="0.15" stroke-width="0.498027"/>
<path d="M227.097 -0.00012207V272.266" stroke="white" stroke-opacity="0.15" stroke-width="0.498027"/>
<path d="M265.992 -0.00012207V272.266" stroke="white" stroke-opacity="0.15" stroke-width="0.498027"/>
<path d="M0 251.878L300.496 251.878" stroke="white" stroke-opacity="0.15" stroke-width="0.498027"/>
<path d="M0 213.61L300.496 213.61" stroke="white" stroke-opacity="0.15" stroke-width="0.498027"/>
<path d="M0 174.714L300.496 174.714" stroke="white" stroke-opacity="0.15" stroke-width="0.498027"/>
<path d="M0 136.446L300.496 136.446" stroke="white" stroke-opacity="0.15" stroke-width="0.498027"/>
<path d="M0 97.5515L300.496 97.5515" stroke="white" stroke-opacity="0.15" stroke-width="0.498027"/>
<path d="M0 59.2834L300.496 59.2834" stroke="white" stroke-opacity="0.15" stroke-width="0.498027"/>
<path d="M0 20.3884L300.496 20.3884" stroke="white" stroke-opacity="0.15" stroke-width="0.498027"/>
<rect x="111.666" y="97.2377" width="38.2678" height="38.8951" fill="white" fill-opacity="0.1"/>
<rect x="111.915" y="97.4867" width="37.7698" height="38.3971" stroke="white" stroke-opacity="0.15" stroke-width="0.498027"/>
<rect x="265.732" y="174.714" width="38.2678" height="38.8951" fill="white" fill-opacity="0.1"/>
<rect x="265.981" y="174.963" width="37.7698" height="38.3971" stroke="white" stroke-opacity="0.15" stroke-width="0.498027"/>
<rect x="150.651" y="213.423" width="38.2678" height="38.8951" fill="white" fill-opacity="0.1"/>
<rect x="150.9" y="213.672" width="37.7698" height="38.3971" stroke="white" stroke-opacity="0.15" stroke-width="0.498027"/>
<rect x="227.619" y="20.0747" width="38.2678" height="38.8951" fill="white" fill-opacity="0.1"/>
<rect x="227.868" y="20.3237" width="37.7698" height="38.3971" stroke="white" stroke-opacity="0.15" stroke-width="0.498027"/>
<rect x="34.5029" y="136.133" width="38.2678" height="38.8951" fill="white" fill-opacity="0.1"/>
<rect x="34.7519" y="136.382" width="37.7698" height="38.3971" stroke="white" stroke-opacity="0.15" stroke-width="0.498027"/>
</svg>
