<svg width="118" height="118" viewBox="0 0 118 118" fill="none" xmlns="http://www.w3.org/2000/svg">
<circle opacity="0.15" cx="59" cy="59" r="59" fill="url(#paint0_linear_681_11773)"/>
<path fill-rule="evenodd" clip-rule="evenodd" d="M79.2018 39H38.7432C36.9548 39 35.2397 39.7104 33.9751 40.975C32.7105 42.2396 32.0001 43.9547 32.0001 45.7431V47.2407C32.0001 48.1426 32.7313 48.8738 33.6332 48.8738H84.3118C85.2138 48.8738 85.9449 48.1426 85.9449 47.2407V45.7431C85.9449 43.9547 85.2345 42.2396 83.9699 40.975C82.7054 39.7104 80.9902 39 79.2018 39ZM33.975 77.4312C32.7104 76.1667 32 74.4515 32 72.6631V55.7527C32 54.8508 32.7312 54.1196 33.6331 54.1196H84.3117C85.2137 54.1196 85.9448 54.8508 85.9448 55.7527V72.6631C85.9448 74.4515 85.2344 76.1667 83.9698 77.4312C82.7053 78.6958 80.9901 79.4062 79.2017 79.4062H38.7431C36.9547 79.4062 35.2396 78.6958 33.975 77.4312ZM41.0053 60.9574C40.3278 61.6349 39.9472 62.5537 39.9472 63.5118V65.92C39.9472 66.8781 40.3278 67.7969 41.0053 68.4744C41.6827 69.1518 42.6015 69.5324 43.5596 69.5324H49.3394C50.2975 69.5324 51.2163 69.1518 51.8938 68.4744C52.5712 67.7969 52.9518 66.8781 52.9518 65.92V63.5118C52.9518 62.5537 52.5712 61.6349 51.8938 60.9574C51.2163 60.28 50.2975 59.8994 49.3394 59.8994H43.5596C42.6015 59.8994 41.6827 60.28 41.0053 60.9574Z" fill="url(#paint1_linear_681_11773)"/>
<defs>
<linearGradient id="paint0_linear_681_11773" x1="-7.45867" y1="47.5105" x2="120.229" y2="53.025" gradientUnits="userSpaceOnUse">
<stop stop-color="#3DB3FC"/>
<stop offset="0.452482" stop-color="#5C80FA"/>
<stop offset="1" stop-color="#936BF9"/>
</linearGradient>
<linearGradient id="paint1_linear_681_11773" x1="28.5902" y1="55.2688" x2="86.8792" y2="58.6296" gradientUnits="userSpaceOnUse">
<stop stop-color="#3DB3FC"/>
<stop offset="0.452482" stop-color="#5C80FA"/>
<stop offset="1" stop-color="#936BF9"/>
</linearGradient>
</defs>
</svg>
