<svg width="37" height="34" viewBox="0 0 37 34" fill="none" xmlns="http://www.w3.org/2000/svg">
<path d="M12.8008 16.401C14.18 16.401 15.5028 15.8531 16.4781 14.8778C17.4534 13.9026 18.0013 12.5798 18.0013 11.2005C18.0013 9.82126 17.4534 8.49848 16.4781 7.5232C15.5028 6.54791 14.18 6 12.8008 6C11.4215 6 10.0987 6.54791 9.12346 7.5232C8.14817 8.49848 7.60026 9.82126 7.60026 11.2005C7.60026 12.5798 8.14817 13.9026 9.12346 14.8778C10.0987 15.8531 11.4215 16.401 12.8008 16.401ZM24.5019 16.401C25.5364 16.401 26.5285 15.9901 27.2599 15.2586C27.9914 14.5272 28.4023 13.5351 28.4023 12.5006C28.4023 11.4662 27.9914 10.4741 27.2599 9.74266C26.5285 9.01119 25.5364 8.60026 24.5019 8.60026C23.4675 8.60026 22.4754 9.01119 21.744 9.74266C21.0125 10.4741 20.6016 11.4662 20.6016 12.5006C20.6016 13.5351 21.0125 14.5272 21.744 15.2586C22.4754 15.9901 23.4675 16.401 24.5019 16.401ZM8.25032 19.0013C6.45615 19.0013 5 20.4574 5 22.2516C5 22.2516 5 28.1022 12.8008 28.1022C18.9842 28.1022 20.2661 24.4254 20.5314 22.9017C20.6016 22.5039 20.6016 22.2516 20.6016 22.2516C20.6016 20.4574 19.1454 19.0013 17.3512 19.0013H8.25032ZM23.1914 23.1617C23.1862 23.2657 23.1758 23.3888 23.1602 23.531C23.0167 24.6031 22.6443 25.6318 22.0681 26.5473C22.7572 26.7059 23.5607 26.8021 24.4993 26.8021C31 26.8021 31 22.2516 31 22.2516C31 20.4574 29.5439 19.0013 27.7497 19.0013H22.2137C22.8378 19.9322 23.1992 21.0477 23.1992 22.2516V22.9017L23.1914 23.1617Z" fill="url(#paint0_linear_1185_14598)"/>
<defs>
<linearGradient id="paint0_linear_1185_14598" x1="23.7476" y1="31.5754" x2="8.03509" y2="28.8218" gradientUnits="userSpaceOnUse">
<stop stop-color="#C3C3C3"/>
<stop offset="0.526794" stop-color="white"/>
<stop offset="1" stop-color="white"/>
</linearGradient>
</defs>
</svg>
