<svg width="74" height="74" viewBox="0 0 74 74" fill="none" xmlns="http://www.w3.org/2000/svg">
<circle cx="37" cy="37" r="37" fill="#4D5DFF"/>
<mask id="mask0_1181_8788" style="mask-type:alpha" maskUnits="userSpaceOnUse" x="0" y="0" width="74" height="74">
<circle cx="37" cy="37" r="37" fill="#D9D9D9"/>
</mask>
<g mask="url(#mask0_1181_8788)">
<path d="M60.9633 1.06988C66.5041 -0.118689 80.735 -6.82375 81.5457 -17.9997C81.5857 -18.5506 82.0296 -19 82.5819 -19L90.7012 -19C91.3573 -19 91.8361 -18.3792 91.6504 -17.7499C88.3232 -6.47054 80.0725 5.37474 62.3314 9.496C55.0087 11.0668 40.9856 19.2552 39.3439 39.5794C39.2804 40.3663 40.1265 40.884 40.8097 40.4884L49.9442 35.1987C50.4221 34.922 51.0339 35.085 51.3107 35.563L54.3826 40.8677C54.6594 41.3456 54.4963 41.9574 54.0183 42.2342L31.125 55.4915C30.6471 55.7683 30.0352 55.6052 29.7585 55.1273L16.5011 32.2339C16.2244 31.7559 16.3874 31.1441 16.8654 30.8674L22.1701 27.7955C22.648 27.5187 23.2598 27.6818 23.5366 28.1597L28.1262 36.0853C28.6233 36.9438 29.9796 36.6392 30.1061 35.6553C31.7753 22.678 39.2827 6.10629 60.9633 1.06988Z" fill="white"/>
</g>
</svg>
