<svg width="32" height="32" viewBox="0 0 32 32" fill="none" xmlns="http://www.w3.org/2000/svg">
<g clip-path="url(#clip0_290_4565)">
<path d="M10.9761 26.6694H21.7094C23.8018 26.6694 24.8428 25.6081 24.8428 23.5059V14.3288H17.5252C16.2315 14.3288 15.6252 13.7122 15.6252 12.4185V5H10.9761C8.89412 5 7.84277 6.07118 7.84277 8.17386V23.5059C7.84277 25.618 8.89412 26.6694 10.9761 26.6694ZM17.5558 12.9441H24.7315C24.6608 12.5297 24.3676 12.1252 23.8928 11.6302L18.3135 5.96035C17.8486 5.47522 17.4243 5.18198 16.9995 5.11083V12.3986C16.9995 12.7622 17.1919 12.9441 17.5558 12.9441ZM12.4518 18.7054C12.0374 18.7054 11.7441 18.4122 11.7441 18.018C11.7441 17.6234 12.0374 17.3306 12.4513 17.3306H20.2437C20.6482 17.3306 20.9617 17.6239 20.9617 18.0176C20.9617 18.4122 20.6482 18.705 20.2441 18.705L12.4518 18.7054ZM12.4518 22.5559C12.0374 22.5559 11.7441 22.2626 11.7441 21.8685C11.7441 21.4743 12.0374 21.1811 12.4513 21.1811H20.2437C20.6482 21.1811 20.9617 21.4743 20.9617 21.8685C20.9617 22.2626 20.6482 22.5559 20.2441 22.5559H12.4518Z" fill="white"/>
</g>
<defs>
<clipPath id="clip0_290_4565">
<rect width="30.3423" height="30.3423" fill="white" transform="translate(0.842773 0.939941)"/>
</clipPath>
</defs>
</svg>
