<svg width="611" height="547" viewBox="0 0 611 547" fill="none" xmlns="http://www.w3.org/2000/svg">
<path d="M69.3198 0V547" stroke="white" stroke-opacity="0.1" stroke-width="1.00057"/>
<path d="M146.201 0V547" stroke="white" stroke-opacity="0.1" stroke-width="1.00057"/>
<path d="M224.345 0V547" stroke="white" stroke-opacity="0.1" stroke-width="1.00057"/>
<path d="M301.227 0V547" stroke="white" stroke-opacity="0.1" stroke-width="1.00057"/>
<path d="M379.369 0V547" stroke="white" stroke-opacity="0.1" stroke-width="1.00057"/>
<path d="M456.252 0V547" stroke="white" stroke-opacity="0.1" stroke-width="1.00057"/>
<path d="M534.395 0V547" stroke="white" stroke-opacity="0.1" stroke-width="1.00057"/>
<path d="M0 506.038L603.716 506.038" stroke="white" stroke-opacity="0.1" stroke-width="1.00057"/>
<path d="M0 429.155L603.716 429.155" stroke="white" stroke-opacity="0.1" stroke-width="1.00057"/>
<path d="M0 351.012L603.716 351.012" stroke="white" stroke-opacity="0.1" stroke-width="1.00057"/>
<path d="M0 274.13L603.716 274.13" stroke="white" stroke-opacity="0.1" stroke-width="1.00057"/>
<path d="M0 195.987L603.716 195.987" stroke="white" stroke-opacity="0.1" stroke-width="1.00057"/>
<path d="M0 119.104L603.716 119.104" stroke="white" stroke-opacity="0.1" stroke-width="1.00057"/>
<path d="M0 40.9614L603.716 40.9614" stroke="white" stroke-opacity="0.1" stroke-width="1.00057"/>
<rect x="224.345" y="195.357" width="76.8825" height="78.1429" fill="white" fill-opacity="0.1"/>
<rect x="224.845" y="195.857" width="75.8819" height="77.1423" stroke="white" stroke-opacity="0.1" stroke-width="1.00057"/>
<rect x="533.873" y="351.011" width="76.8825" height="78.1429" fill="white" fill-opacity="0.1"/>
<rect x="534.373" y="351.512" width="75.8819" height="77.1423" stroke="white" stroke-opacity="0.1" stroke-width="1.00057"/>
<rect x="302.668" y="428.781" width="76.8825" height="78.1429" fill="white" fill-opacity="0.1"/>
<rect x="303.168" y="429.281" width="75.8819" height="77.1423" stroke="white" stroke-opacity="0.1" stroke-width="1.00057"/>
<rect x="457.302" y="40.3315" width="76.8825" height="78.1429" fill="white" fill-opacity="0.1"/>
<rect x="457.803" y="40.8318" width="75.8819" height="77.1423" stroke="white" stroke-opacity="0.1" stroke-width="1.00057"/>
<rect x="69.3188" y="273.5" width="76.8825" height="78.1429" fill="white" fill-opacity="0.1"/>
<rect x="69.8191" y="274" width="75.8819" height="77.1423" stroke="white" stroke-opacity="0.1" stroke-width="1.00057"/>
</svg>
