<svg width="879" height="1033" viewBox="0 0 879 1033" fill="none" xmlns="http://www.w3.org/2000/svg">
<g opacity="0.3">
<g filter="url(#filter0_f_1203_21901)">
<circle cx="548.312" cy="518.438" r="4.0625" fill="white"/>
<circle cx="468.688" cy="596.438" r="4.0625" fill="white"/>
<circle cx="553.188" cy="604.562" r="4.0625" fill="white"/>
<circle cx="508.5" cy="565.562" r="1.625" fill="white"/>
<circle cx="604.375" cy="584.25" r="1.625" fill="white"/>
<circle cx="490.625" cy="512.75" r="1.625" fill="white"/>
<circle opacity="0.5" cx="584.062" cy="555.812" r="2.4375" fill="white"/>
<circle opacity="0.5" cx="465.438" cy="537.938" r="2.4375" fill="white"/>
<circle opacity="0.5" cx="597.062" cy="492.438" r="2.4375" fill="white"/>
</g>
<circle cx="548.312" cy="518.438" r="4.0625" fill="white"/>
<circle cx="468.688" cy="596.438" r="4.0625" fill="white"/>
<circle cx="553.188" cy="604.562" r="4.0625" fill="white"/>
<circle cx="508.5" cy="565.562" r="1.625" fill="white"/>
<circle cx="604.375" cy="584.25" r="1.625" fill="white"/>
<circle cx="490.625" cy="512.75" r="1.625" fill="white"/>
<circle opacity="0.5" cx="584.062" cy="555.812" r="2.4375" fill="white"/>
<circle opacity="0.5" cx="465.438" cy="537.938" r="2.4375" fill="white"/>
<circle opacity="0.5" cx="597.062" cy="492.438" r="2.4375" fill="white"/>
</g>
<g opacity="0.3">
<g filter="url(#filter1_f_1203_21901)">
<circle cx="248.312" cy="625.438" r="4.0625" fill="white"/>
<circle cx="168.688" cy="703.438" r="4.0625" fill="white"/>
<circle cx="253.188" cy="711.562" r="4.0625" fill="white"/>
<circle cx="208.5" cy="672.562" r="1.625" fill="white"/>
<circle cx="304.375" cy="691.25" r="1.625" fill="white"/>
<circle cx="190.625" cy="619.75" r="1.625" fill="white"/>
<circle opacity="0.5" cx="284.062" cy="662.812" r="2.4375" fill="white"/>
<circle opacity="0.5" cx="165.438" cy="644.938" r="2.4375" fill="white"/>
<circle opacity="0.5" cx="297.062" cy="599.438" r="2.4375" fill="white"/>
</g>
<circle cx="248.312" cy="625.438" r="4.0625" fill="white"/>
<circle cx="168.688" cy="703.438" r="4.0625" fill="white"/>
<circle cx="253.188" cy="711.562" r="4.0625" fill="white"/>
<circle cx="208.5" cy="672.562" r="1.625" fill="white"/>
<circle cx="304.375" cy="691.25" r="1.625" fill="white"/>
<circle cx="190.625" cy="619.75" r="1.625" fill="white"/>
<circle opacity="0.5" cx="284.062" cy="662.812" r="2.4375" fill="white"/>
<circle opacity="0.5" cx="165.438" cy="644.938" r="2.4375" fill="white"/>
<circle opacity="0.5" cx="297.062" cy="599.438" r="2.4375" fill="white"/>
</g>
<g opacity="0.55">
<g opacity="0.3" filter="url(#filter2_f_1203_21901)">
<path d="M455.874 152H415.972L152 881.376H727.519L455.874 152Z" fill="url(#paint0_linear_1203_21901)"/>
</g>
<g opacity="0.7" filter="url(#filter3_f_1203_21901)">
<path d="M455.874 152H415.972L152 881.376H727.519L455.874 152Z" fill="url(#paint1_linear_1203_21901)"/>
</g>
<g opacity="0.7" filter="url(#filter4_f_1203_21901)">
<path d="M455.874 152H415.972L152 881.376H727.519L455.874 152Z" fill="url(#paint2_linear_1203_21901)"/>
</g>
<g opacity="0.7" filter="url(#filter5_f_1203_21901)">
<path d="M455.874 152H415.972L152 881.376H727.519L455.874 152Z" fill="url(#paint3_linear_1203_21901)"/>
</g>
<g filter="url(#filter6_f_1203_21901)">
<ellipse cx="440.527" cy="328.866" rx="15.3472" ry="176.866" fill="white"/>
</g>
<g filter="url(#filter7_f_1203_21901)">
<ellipse cx="440.527" cy="256.085" rx="15.3472" ry="104.085" fill="white"/>
</g>
</g>
<path d="M76.2354 155V511.949" stroke="white" stroke-opacity="0.05" stroke-width="0.652928"/>
<path d="M126.404 155V511.949" stroke="white" stroke-opacity="0.05" stroke-width="0.652928"/>
<path d="M177.398 155V511.949" stroke="white" stroke-opacity="0.05" stroke-width="0.652928"/>
<path d="M227.568 155V511.949" stroke="white" stroke-opacity="0.05" stroke-width="0.652928"/>
<path d="M278.561 155V511.949" stroke="white" stroke-opacity="0.05" stroke-width="0.652928"/>
<path d="M328.731 155V511.949" stroke="white" stroke-opacity="0.05" stroke-width="0.652928"/>
<path d="M379.724 155V511.949" stroke="white" stroke-opacity="0.05" stroke-width="0.652928"/>
<path d="M31 485.219H424.96" stroke="white" stroke-opacity="0.05" stroke-width="0.652928"/>
<path d="M31 435.049H424.96" stroke="white" stroke-opacity="0.05" stroke-width="0.652928"/>
<path d="M31 384.056H424.96" stroke="white" stroke-opacity="0.05" stroke-width="0.652928"/>
<path d="M31 333.885H424.96" stroke="white" stroke-opacity="0.05" stroke-width="0.652928"/>
<path d="M31 282.893H424.96" stroke="white" stroke-opacity="0.05" stroke-width="0.652928"/>
<path d="M31 232.722L424.96 232.722" stroke="white" stroke-opacity="0.05" stroke-width="0.652928"/>
<path d="M31 181.73L424.96 181.73" stroke="white" stroke-opacity="0.05" stroke-width="0.652928"/>
<rect x="278.561" y="333.474" width="50.1703" height="50.9927" fill="white" fill-opacity="0.05"/>
<rect x="228.509" y="434.804" width="50.1703" height="50.9927" fill="white" fill-opacity="0.05"/>
<rect x="76.2344" y="232.312" width="50.1703" height="50.9927" fill="white" fill-opacity="0.05"/>
<rect x="329.416" y="181.319" width="50.1703" height="50.9927" fill="white" fill-opacity="0.05"/>
<path d="M76.2354 511.613V868.562" stroke="white" stroke-opacity="0.05" stroke-width="0.652928"/>
<path d="M126.404 511.613V868.562" stroke="white" stroke-opacity="0.05" stroke-width="0.652928"/>
<path d="M177.398 511.613V868.562" stroke="white" stroke-opacity="0.05" stroke-width="0.652928"/>
<path d="M227.568 511.613V868.562" stroke="white" stroke-opacity="0.05" stroke-width="0.652928"/>
<path d="M278.561 511.613V868.562" stroke="white" stroke-opacity="0.05" stroke-width="0.652928"/>
<path d="M328.731 511.613V868.562" stroke="white" stroke-opacity="0.05" stroke-width="0.652928"/>
<path d="M379.724 511.613V868.562" stroke="white" stroke-opacity="0.05" stroke-width="0.652928"/>
<path d="M31 841.832H424.96" stroke="white" stroke-opacity="0.05" stroke-width="0.652928"/>
<path d="M31 791.662H424.96" stroke="white" stroke-opacity="0.05" stroke-width="0.652928"/>
<path d="M31 740.669H424.96" stroke="white" stroke-opacity="0.05" stroke-width="0.652928"/>
<path d="M31 690.499H424.96" stroke="white" stroke-opacity="0.05" stroke-width="0.652928"/>
<path d="M31 639.506H424.96" stroke="white" stroke-opacity="0.05" stroke-width="0.652928"/>
<path d="M31 589.336H424.96" stroke="white" stroke-opacity="0.05" stroke-width="0.652928"/>
<path d="M31 538.343H424.96" stroke="white" stroke-opacity="0.05" stroke-width="0.652928"/>
<rect x="177.398" y="639.095" width="50.1703" height="50.9927" fill="white" fill-opacity="0.05"/>
<rect x="379.383" y="740.668" width="50.1703" height="50.9927" fill="white" fill-opacity="0.05"/>
<rect x="228.509" y="791.417" width="50.1703" height="50.9927" fill="white" fill-opacity="0.05"/>
<rect x="329.416" y="537.932" width="50.1703" height="50.9927" fill="white" fill-opacity="0.05"/>
<rect x="76.2344" y="690.087" width="50.1703" height="50.9927" fill="white" fill-opacity="0.05"/>
<path d="M474.682 155V511.949" stroke="white" stroke-opacity="0.05" stroke-width="0.652928"/>
<path d="M524.851 155V511.949" stroke="white" stroke-opacity="0.05" stroke-width="0.652928"/>
<path d="M575.845 155V511.949" stroke="white" stroke-opacity="0.05" stroke-width="0.652928"/>
<path d="M626.015 155V511.949" stroke="white" stroke-opacity="0.05" stroke-width="0.652928"/>
<path d="M677.007 155V511.949" stroke="white" stroke-opacity="0.05" stroke-width="0.652928"/>
<path d="M727.178 155V511.949" stroke="white" stroke-opacity="0.05" stroke-width="0.652928"/>
<path d="M778.17 155V511.949" stroke="white" stroke-opacity="0.05" stroke-width="0.652928"/>
<path d="M429.446 485.219H823.406" stroke="white" stroke-opacity="0.05" stroke-width="0.652928"/>
<path d="M429.446 435.049H823.406" stroke="white" stroke-opacity="0.05" stroke-width="0.652928"/>
<path d="M429.446 384.056H823.406" stroke="white" stroke-opacity="0.05" stroke-width="0.652928"/>
<path d="M429.446 333.885H823.406" stroke="white" stroke-opacity="0.05" stroke-width="0.652928"/>
<path d="M429.446 282.893H823.406" stroke="white" stroke-opacity="0.05" stroke-width="0.652928"/>
<path d="M429.446 232.722L823.406 232.722" stroke="white" stroke-opacity="0.05" stroke-width="0.652928"/>
<path d="M429.446 181.73L823.406 181.73" stroke="white" stroke-opacity="0.05" stroke-width="0.652928"/>
<rect x="575.845" y="282.482" width="50.1703" height="50.9927" fill="white" fill-opacity="0.05"/>
<rect x="677.007" y="333.474" width="50.1703" height="50.9927" fill="white" fill-opacity="0.05"/>
<rect x="777.829" y="384.055" width="50.1703" height="50.9927" fill="white" fill-opacity="0.05"/>
<rect x="626.955" y="434.804" width="50.1703" height="50.9927" fill="white" fill-opacity="0.05"/>
<rect x="727.862" y="181.319" width="50.1703" height="50.9927" fill="white" fill-opacity="0.05"/>
<rect x="474.681" y="333.474" width="50.1703" height="50.9927" fill="white" fill-opacity="0.05"/>
<path d="M474.682 511.613V868.562" stroke="white" stroke-opacity="0.05" stroke-width="0.652928"/>
<path d="M524.851 511.613V868.562" stroke="white" stroke-opacity="0.05" stroke-width="0.652928"/>
<path d="M575.845 511.613V868.562" stroke="white" stroke-opacity="0.05" stroke-width="0.652928"/>
<path d="M626.015 511.613V868.562" stroke="white" stroke-opacity="0.05" stroke-width="0.652928"/>
<path d="M677.007 511.613V868.562" stroke="white" stroke-opacity="0.05" stroke-width="0.652928"/>
<path d="M727.178 511.613V868.562" stroke="white" stroke-opacity="0.05" stroke-width="0.652928"/>
<path d="M778.17 511.613V868.562" stroke="white" stroke-opacity="0.05" stroke-width="0.652928"/>
<path d="M429.446 841.832H823.406" stroke="white" stroke-opacity="0.05" stroke-width="0.652928"/>
<path d="M429.446 791.662H823.406" stroke="white" stroke-opacity="0.05" stroke-width="0.652928"/>
<path d="M429.446 740.669H823.406" stroke="white" stroke-opacity="0.05" stroke-width="0.652928"/>
<path d="M429.446 690.499H823.406" stroke="white" stroke-opacity="0.05" stroke-width="0.652928"/>
<path d="M429.446 639.506H823.406" stroke="white" stroke-opacity="0.05" stroke-width="0.652928"/>
<path d="M429.446 589.336H823.406" stroke="white" stroke-opacity="0.05" stroke-width="0.652928"/>
<path d="M429.446 538.343H823.406" stroke="white" stroke-opacity="0.05" stroke-width="0.652928"/>
<rect x="575.845" y="639.095" width="50.1703" height="50.9927" fill="white" fill-opacity="0.05"/>
<rect x="777.829" y="740.668" width="50.1703" height="50.9927" fill="white" fill-opacity="0.05"/>
<rect x="626.955" y="791.417" width="50.1703" height="50.9927" fill="white" fill-opacity="0.05"/>
<rect x="727.862" y="537.932" width="50.1703" height="50.9927" fill="white" fill-opacity="0.05"/>
<rect x="474.681" y="690.087" width="50.1703" height="50.9927" fill="white" fill-opacity="0.05"/>
<defs>
<filter id="filter0_f_1203_21901" x="438" y="465" width="193" height="168.625" filterUnits="userSpaceOnUse" color-interpolation-filters="sRGB">
<feFlood flood-opacity="0" result="BackgroundImageFix"/>
<feBlend mode="normal" in="SourceGraphic" in2="BackgroundImageFix" result="shape"/>
<feGaussianBlur stdDeviation="12.5" result="effect1_foregroundBlur_1203_21901"/>
</filter>
<filter id="filter1_f_1203_21901" x="138" y="572" width="193" height="168.625" filterUnits="userSpaceOnUse" color-interpolation-filters="sRGB">
<feFlood flood-opacity="0" result="BackgroundImageFix"/>
<feBlend mode="normal" in="SourceGraphic" in2="BackgroundImageFix" result="shape"/>
<feGaussianBlur stdDeviation="12.5" result="effect1_foregroundBlur_1203_21901"/>
</filter>
<filter id="filter2_f_1203_21901" x="142.351" y="142.351" width="594.817" height="748.673" filterUnits="userSpaceOnUse" color-interpolation-filters="sRGB">
<feFlood flood-opacity="0" result="BackgroundImageFix"/>
<feBlend mode="normal" in="SourceGraphic" in2="BackgroundImageFix" result="shape"/>
<feGaussianBlur stdDeviation="4.82431" result="effect1_foregroundBlur_1203_21901"/>
</filter>
<filter id="filter3_f_1203_21901" x="0.838318" y="0.838318" width="877.843" height="1031.7" filterUnits="userSpaceOnUse" color-interpolation-filters="sRGB">
<feFlood flood-opacity="0" result="BackgroundImageFix"/>
<feBlend mode="normal" in="SourceGraphic" in2="BackgroundImageFix" result="shape"/>
<feGaussianBlur stdDeviation="75.5808" result="effect1_foregroundBlur_1203_21901"/>
</filter>
<filter id="filter4_f_1203_21901" x="65.1624" y="65.1624" width="749.195" height="903.051" filterUnits="userSpaceOnUse" color-interpolation-filters="sRGB">
<feFlood flood-opacity="0" result="BackgroundImageFix"/>
<feBlend mode="normal" in="SourceGraphic" in2="BackgroundImageFix" result="shape"/>
<feGaussianBlur stdDeviation="43.4188" result="effect1_foregroundBlur_1203_21901"/>
</filter>
<filter id="filter5_f_1203_21901" x="65.1624" y="65.1624" width="749.195" height="903.051" filterUnits="userSpaceOnUse" color-interpolation-filters="sRGB">
<feFlood flood-opacity="0" result="BackgroundImageFix"/>
<feBlend mode="normal" in="SourceGraphic" in2="BackgroundImageFix" result="shape"/>
<feGaussianBlur stdDeviation="43.4188" result="effect1_foregroundBlur_1203_21901"/>
</filter>
<filter id="filter6_f_1203_21901" x="386.585" y="113.406" width="107.883" height="430.921" filterUnits="userSpaceOnUse" color-interpolation-filters="sRGB">
<feFlood flood-opacity="0" result="BackgroundImageFix"/>
<feBlend mode="normal" in="SourceGraphic" in2="BackgroundImageFix" result="shape"/>
<feGaussianBlur stdDeviation="19.2972" result="effect1_foregroundBlur_1203_21901"/>
</filter>
<filter id="filter7_f_1203_21901" x="386.585" y="113.406" width="107.883" height="285.358" filterUnits="userSpaceOnUse" color-interpolation-filters="sRGB">
<feFlood flood-opacity="0" result="BackgroundImageFix"/>
<feBlend mode="normal" in="SourceGraphic" in2="BackgroundImageFix" result="shape"/>
<feGaussianBlur stdDeviation="19.2972" result="effect1_foregroundBlur_1203_21901"/>
</filter>
<linearGradient id="paint0_linear_1203_21901" x1="439.76" y1="152" x2="439.76" y2="881.376" gradientUnits="userSpaceOnUse">
<stop stop-color="white"/>
<stop offset="1" stop-color="#999999" stop-opacity="0"/>
</linearGradient>
<linearGradient id="paint1_linear_1203_21901" x1="439.76" y1="152" x2="439.76" y2="881.376" gradientUnits="userSpaceOnUse">
<stop stop-color="white"/>
<stop offset="1" stop-color="#999999" stop-opacity="0"/>
</linearGradient>
<linearGradient id="paint2_linear_1203_21901" x1="439.76" y1="152" x2="439.76" y2="881.376" gradientUnits="userSpaceOnUse">
<stop stop-color="white"/>
<stop offset="1" stop-color="#999999" stop-opacity="0"/>
</linearGradient>
<linearGradient id="paint3_linear_1203_21901" x1="439.76" y1="152" x2="439.76" y2="881.376" gradientUnits="userSpaceOnUse">
<stop stop-color="white"/>
<stop offset="1" stop-color="#999999" stop-opacity="0"/>
</linearGradient>
</defs>
</svg>
