<svg width="37" height="34" viewBox="0 0 37 34" fill="none" xmlns="http://www.w3.org/2000/svg">
<path fill-rule="evenodd" clip-rule="evenodd" d="M19.4047 4.16845C19.5958 4.23062 19.7623 4.35167 19.8805 4.51427C19.9986 4.67687 20.0622 4.87268 20.0623 5.07366V13.0085H26.7275C26.9032 13.0084 27.0755 13.0569 27.2253 13.1486C27.3751 13.2404 27.4966 13.3718 27.5763 13.5283C27.6561 13.6848 27.691 13.8603 27.6772 14.0354C27.6634 14.2106 27.6015 14.3784 27.4982 14.5205L17.3416 28.4858C17.2235 28.6486 17.0569 28.7697 16.8657 28.832C16.6745 28.8942 16.4686 28.8943 16.2773 28.8323C16.086 28.7703 15.9193 28.6493 15.801 28.4867C15.6827 28.3241 15.6189 28.1283 15.6188 27.9272V19.9924H8.95355C8.77768 19.9926 8.60517 19.9442 8.45516 19.8524C8.30514 19.7606 8.18349 19.629 8.10368 19.4723C8.02387 19.3156 7.98903 19.1398 8.00302 18.9645C8.017 18.7892 8.07928 18.6211 8.18292 18.4791L18.3395 4.51378C18.4578 4.35108 18.6246 4.23003 18.816 4.16799C19.0073 4.10595 19.2134 4.10612 19.4047 4.16845Z" fill="url(#paint0_linear_1185_15054)"/>
<defs>
<linearGradient id="paint0_linear_1185_15054" x1="22.1906" y1="32.7691" x2="10.1016" y2="31.3375" gradientUnits="userSpaceOnUse">
<stop stop-color="#C3C3C3"/>
<stop offset="0.526794" stop-color="white"/>
<stop offset="1" stop-color="white"/>
</linearGradient>
</defs>
</svg>
