<svg width="451" height="187" viewBox="0 0 451 187" fill="none" xmlns="http://www.w3.org/2000/svg">
<g opacity="0.77" filter="url(#filter0_f_1185_15045)">
<rect x="54.5" y="54" width="342.084" height="78.2224" rx="39.1112" fill="url(#paint0_linear_1185_15045)"/>
</g>
<rect x="54.5" y="35" width="342.084" height="78.2224" rx="39.1112" fill="url(#paint1_linear_1185_15045)"/>
<g clip-path="url(#clip0_1185_15045)">
<path fill-rule="evenodd" clip-rule="evenodd" d="M117.374 64.5406C117.687 64.4091 118.029 64.3638 118.365 64.4093C118.7 64.4548 119.018 64.5895 119.284 64.7994C119.55 65.0093 119.755 65.2867 119.878 65.6027C120.001 65.9187 120.036 66.2618 119.981 66.5963L117.114 83.9888C116.836 85.6665 114.995 86.6286 113.456 85.7929C112.169 85.0937 110.258 84.0166 108.538 82.8927C107.679 82.3301 105.045 80.5285 105.369 79.2465C105.647 78.1504 110.072 74.0314 112.6 71.5825C113.593 70.6204 113.14 70.0654 111.968 70.9504C109.058 73.1477 104.385 76.4892 102.84 77.4298C101.477 78.2591 100.767 78.4007 99.9173 78.2591C98.3673 78.0012 96.9299 77.6017 95.7566 77.115C94.1713 76.4576 94.2484 74.278 95.7554 73.6433L117.374 64.5406Z" fill="white"/>
</g>
<path d="M148.266 82.7819C146.69 82.7819 145.236 82.4164 143.904 81.6852C142.588 80.9379 141.54 79.9061 140.76 78.5901C139.996 77.2578 139.615 75.7631 139.615 74.1058C139.615 72.4486 139.996 70.962 140.76 69.6459C141.54 68.3299 142.588 67.3063 143.904 66.5752C145.236 65.8278 146.69 65.4541 148.266 65.4541C149.859 65.4541 151.313 65.8278 152.629 66.5752C153.961 67.3063 155.009 68.3299 155.773 69.6459C156.536 70.962 156.918 72.4486 156.918 74.1058C156.918 75.7631 156.536 77.2578 155.773 78.5901C155.009 79.9061 153.961 80.9379 152.629 81.6852C151.313 82.4164 149.859 82.7819 148.266 82.7819ZM148.266 80.3692C149.387 80.3692 150.387 80.1174 151.264 79.6137C152.141 79.0938 152.824 78.3626 153.311 77.4203C153.815 76.4617 154.067 75.3569 154.067 74.1058C154.067 72.8548 153.815 71.7581 153.311 70.8158C152.824 69.8734 152.141 69.1504 151.264 68.6467C150.387 68.1431 149.387 67.8912 148.266 67.8912C147.145 67.8912 146.146 68.1431 145.269 68.6467C144.391 69.1504 143.701 69.8734 143.197 70.8158C142.71 71.7581 142.466 72.8548 142.466 74.1058C142.466 75.3569 142.71 76.4617 143.197 77.4203C143.701 78.3626 144.391 79.0938 145.269 79.6137C146.146 80.1174 147.145 80.3692 148.266 80.3692ZM162.43 71.1569C162.901 70.5395 163.543 70.0196 164.356 69.5972C165.168 69.1748 166.086 68.9636 167.11 68.9636C168.279 68.9636 169.344 69.256 170.302 69.8409C171.277 70.4096 172.041 71.2138 172.593 72.2536C173.145 73.2935 173.422 74.4877 173.422 75.8362C173.422 77.1847 173.145 78.3951 172.593 79.4675C172.041 80.5235 171.277 81.3522 170.302 81.9533C169.344 82.5382 168.279 82.8307 167.11 82.8307C166.086 82.8307 165.176 82.6276 164.38 82.2214C163.584 81.799 162.934 81.279 162.43 80.6616V88.9965H159.652V69.1829H162.43V71.1569ZM170.595 75.8362C170.595 74.9101 170.4 74.114 170.01 73.4478C169.636 72.7654 169.132 72.2536 168.499 71.9124C167.881 71.555 167.215 71.3763 166.5 71.3763C165.802 71.3763 165.135 71.555 164.502 71.9124C163.884 72.2699 163.381 72.7898 162.991 73.4722C162.617 74.1546 162.43 74.9588 162.43 75.8849C162.43 76.811 162.617 77.6234 162.991 78.322C163.381 79.0044 163.884 79.5243 164.502 79.8818C165.135 80.2392 165.802 80.4179 166.5 80.4179C167.215 80.4179 167.881 80.2392 168.499 79.8818C169.132 79.5081 169.636 78.9719 170.01 78.2733C170.4 77.5746 170.595 76.7623 170.595 75.8362ZM188.476 75.5681C188.476 76.0718 188.444 76.5267 188.379 76.9329H178.119C178.2 78.0052 178.598 78.8663 179.313 79.5162C180.028 80.1661 180.905 80.491 181.945 80.491C183.44 80.491 184.496 79.8655 185.113 78.6145H188.111C187.705 79.8493 186.965 80.8647 185.893 81.6609C184.837 82.4407 183.521 82.8307 181.945 82.8307C180.661 82.8307 179.508 82.5463 178.484 81.9777C177.477 81.3928 176.681 80.5804 176.096 79.5406C175.527 78.4845 175.243 77.2659 175.243 75.8849C175.243 74.5039 175.519 73.2935 176.072 72.2536C176.64 71.1976 177.428 70.3852 178.436 69.8165C179.459 69.2479 180.629 68.9636 181.945 68.9636C183.212 68.9636 184.341 69.2398 185.333 69.7922C186.324 70.3446 187.095 71.1245 187.648 72.1318C188.2 73.1229 188.476 74.2683 188.476 75.5681ZM185.576 74.6907C185.56 73.6672 185.194 72.8467 184.48 72.2293C183.765 71.6119 182.879 71.3032 181.823 71.3032C180.865 71.3032 180.044 71.6119 179.362 72.2293C178.679 72.8304 178.273 73.6509 178.143 74.6907H185.576ZM197.986 68.9636C199.042 68.9636 199.984 69.1829 200.813 69.6216C201.658 70.0602 202.316 70.7101 202.787 71.5713C203.258 72.4324 203.494 73.4722 203.494 74.6907V82.6113H200.74V75.1051C200.74 73.9027 200.439 72.9848 199.838 72.3511C199.237 71.7012 198.416 71.3763 197.376 71.3763C196.337 71.3763 195.508 71.7012 194.891 72.3511C194.289 72.9848 193.989 73.9027 193.989 75.1051V82.6113H191.211V69.1829H193.989V70.7183C194.444 70.1659 195.021 69.7353 195.719 69.4266C196.434 69.1179 197.19 68.9636 197.986 68.9636ZM216.146 65.6735V82.6113H213.368V65.6735H216.146ZM226.569 68.9636C227.625 68.9636 228.568 69.1829 229.396 69.6216C230.241 70.0602 230.899 70.7101 231.37 71.5713C231.842 72.4324 232.077 73.4722 232.077 74.6907V82.6113H229.323V75.1051C229.323 73.9027 229.023 72.9848 228.421 72.3511C227.82 71.7012 227 71.3763 225.96 71.3763C224.92 71.3763 224.092 71.7012 223.474 72.3511C222.873 72.9848 222.572 73.9027 222.572 75.1051V82.6113H219.794V69.1829H222.572V70.7183C223.027 70.1659 223.604 69.7353 224.303 69.4266C225.018 69.1179 225.773 68.9636 226.569 68.9636ZM252.894 65.6735V67.94H248.386V82.6113H245.607V67.94H241.074V65.6735H252.894ZM268.015 75.5681C268.015 76.0718 267.983 76.5267 267.918 76.9329H257.658C257.739 78.0052 258.137 78.8663 258.852 79.5162C259.567 80.1661 260.444 80.491 261.484 80.491C262.979 80.491 264.035 79.8655 264.652 78.6145H267.65C267.244 79.8493 266.504 80.8647 265.432 81.6609C264.376 82.4407 263.06 82.8307 261.484 82.8307C260.2 82.8307 259.047 82.5463 258.023 81.9777C257.016 81.3928 256.22 80.5804 255.635 79.5406C255.066 78.4845 254.782 77.2659 254.782 75.8849C254.782 74.5039 255.058 73.2935 255.611 72.2536C256.179 71.1976 256.967 70.3852 257.975 69.8165C258.998 69.2479 260.168 68.9636 261.484 68.9636C262.751 68.9636 263.881 69.2398 264.872 69.7922C265.863 70.3446 266.634 71.1245 267.187 72.1318C267.739 73.1229 268.015 74.2683 268.015 75.5681ZM265.115 74.6907C265.099 73.6672 264.733 72.8467 264.019 72.2293C263.304 71.6119 262.418 71.3032 261.362 71.3032C260.404 71.3032 259.583 71.6119 258.901 72.2293C258.218 72.8304 257.812 73.6509 257.682 74.6907H265.115ZM273.528 64.5768V82.6113H270.75V64.5768H273.528ZM289.483 75.5681C289.483 76.0718 289.45 76.5267 289.385 76.9329H279.125C279.206 78.0052 279.605 78.8663 280.319 79.5162C281.034 80.1661 281.912 80.491 282.951 80.491C284.446 80.491 285.502 79.8655 286.12 78.6145H289.117C288.711 79.8493 287.972 80.8647 286.9 81.6609C285.844 82.4407 284.527 82.8307 282.951 82.8307C281.668 82.8307 280.514 82.5463 279.491 81.9777C278.483 81.3928 277.687 80.5804 277.102 79.5406C276.534 78.4845 276.249 77.2659 276.249 75.8849C276.249 74.5039 276.526 73.2935 277.078 72.2536C277.647 71.1976 278.435 70.3852 279.442 69.8165C280.466 69.2479 281.635 68.9636 282.951 68.9636C284.219 68.9636 285.348 69.2398 286.339 69.7922C287.33 70.3446 288.102 71.1245 288.654 72.1318C289.207 73.1229 289.483 74.2683 289.483 75.5681ZM286.583 74.6907C286.567 73.6672 286.201 72.8467 285.486 72.2293C284.771 71.6119 283.886 71.3032 282.83 71.3032C281.871 71.3032 281.051 71.6119 280.368 72.2293C279.686 72.8304 279.28 73.6509 279.15 74.6907H286.583ZM297.627 68.9636C298.667 68.9636 299.585 69.1748 300.381 69.5972C301.194 70.0034 301.827 70.5152 302.282 71.1326V69.1829H305.085V82.8307C305.085 84.0655 304.825 85.1622 304.305 86.1208C303.785 87.0956 303.03 87.8592 302.039 88.4116C301.064 88.964 299.894 89.2402 298.529 89.2402C296.709 89.2402 295.198 88.8097 293.996 87.9486C292.794 87.1037 292.111 85.9502 291.949 84.4879H294.703C294.914 85.1865 295.361 85.7471 296.043 86.1695C296.742 86.6082 297.571 86.8275 298.529 86.8275C299.65 86.8275 300.552 86.4863 301.234 85.8039C301.933 85.1215 302.282 84.1305 302.282 82.8307V80.5885C301.811 81.2222 301.169 81.7583 300.357 82.197C299.561 82.6195 298.651 82.8307 297.627 82.8307C296.458 82.8307 295.385 82.5382 294.41 81.9533C293.452 81.3522 292.688 80.5235 292.12 79.4675C291.567 78.3951 291.291 77.1847 291.291 75.8362C291.291 74.4877 291.567 73.2935 292.12 72.2536C292.688 71.2138 293.452 70.4096 294.41 69.8409C295.385 69.256 296.458 68.9636 297.627 68.9636ZM302.282 75.8849C302.282 74.9588 302.087 74.1546 301.697 73.4722C301.324 72.7898 300.828 72.2699 300.211 71.9124C299.593 71.555 298.927 71.3763 298.212 71.3763C297.497 71.3763 296.831 71.555 296.214 71.9124C295.596 72.2536 295.093 72.7654 294.703 73.4478C294.329 74.114 294.142 74.9101 294.142 75.8362C294.142 76.7623 294.329 77.5746 294.703 78.2733C295.093 78.9719 295.596 79.5081 296.214 79.8818C296.848 80.2392 297.514 80.4179 298.212 80.4179C298.927 80.4179 299.593 80.2392 300.211 79.8818C300.828 79.5243 301.324 79.0044 301.697 78.322C302.087 77.6234 302.282 76.811 302.282 75.8849ZM311.512 71.1326C311.919 70.4502 312.455 69.9221 313.121 69.5485C313.803 69.1585 314.608 68.9636 315.534 68.9636V71.8393H314.827C313.738 71.8393 312.91 72.1155 312.341 72.6679C311.789 73.2204 311.512 74.179 311.512 75.5437V82.6113H308.734V69.1829H311.512V71.1326ZM317.161 75.8362C317.161 74.4877 317.438 73.2935 317.99 72.2536C318.559 71.2138 319.322 70.4096 320.281 69.8409C321.256 69.256 322.328 68.9636 323.498 68.9636C324.554 68.9636 325.472 69.1748 326.252 69.5972C327.048 70.0034 327.682 70.5152 328.153 71.1326V69.1829H330.955V82.6113H328.153V80.6129C327.682 81.2466 327.04 81.7746 326.227 82.197C325.415 82.6195 324.489 82.8307 323.449 82.8307C322.296 82.8307 321.239 82.5382 320.281 81.9533C319.322 81.3522 318.559 80.5235 317.99 79.4675C317.438 78.3951 317.161 77.1847 317.161 75.8362ZM328.153 75.8849C328.153 74.9588 327.958 74.1546 327.568 73.4722C327.194 72.7898 326.699 72.2699 326.081 71.9124C325.464 71.555 324.798 71.3763 324.083 71.3763C323.368 71.3763 322.702 71.555 322.084 71.9124C321.467 72.2536 320.963 72.7654 320.573 73.4478C320.2 74.114 320.013 74.9101 320.013 75.8362C320.013 76.7623 320.2 77.5746 320.573 78.2733C320.963 78.9719 321.467 79.5081 322.084 79.8818C322.718 80.2392 323.384 80.4179 324.083 80.4179C324.798 80.4179 325.464 80.2392 326.081 79.8818C326.699 79.5243 327.194 79.0044 327.568 78.322C327.958 77.6234 328.153 76.811 328.153 75.8849ZM350.86 68.9636C351.916 68.9636 352.858 69.1829 353.687 69.6216C354.532 70.0602 355.19 70.7101 355.661 71.5713C356.149 72.4324 356.392 73.4722 356.392 74.6907V82.6113H353.638V75.1051C353.638 73.9027 353.338 72.9848 352.737 72.3511C352.135 71.7012 351.315 71.3763 350.275 71.3763C349.235 71.3763 348.407 71.7012 347.789 72.3511C347.188 72.9848 346.888 73.9027 346.888 75.1051V82.6113H344.134V75.1051C344.134 73.9027 343.833 72.9848 343.232 72.3511C342.631 71.7012 341.81 71.3763 340.77 71.3763C339.731 71.3763 338.902 71.7012 338.285 72.3511C337.683 72.9848 337.383 73.9027 337.383 75.1051V82.6113H334.605V69.1829H337.383V70.7183C337.838 70.1659 338.415 69.7353 339.113 69.4266C339.812 69.1179 340.559 68.9636 341.355 68.9636C342.428 68.9636 343.386 69.191 344.231 69.6459C345.076 70.1009 345.726 70.7589 346.181 71.62C346.587 70.8076 347.221 70.1659 348.082 69.6947C348.943 69.2073 349.869 68.9636 350.86 68.9636Z" fill="white"/>
<defs>
<filter id="filter0_f_1185_15045" x="0.5" y="0" width="450.083" height="186.222" filterUnits="userSpaceOnUse" color-interpolation-filters="sRGB">
<feFlood flood-opacity="0" result="BackgroundImageFix"/>
<feBlend mode="normal" in="SourceGraphic" in2="BackgroundImageFix" result="shape"/>
<feGaussianBlur stdDeviation="27" result="effect1_foregroundBlur_1185_15045"/>
</filter>
<linearGradient id="paint0_linear_1185_15045" x1="32.8772" y1="85.4948" x2="390.964" y2="153.125" gradientUnits="userSpaceOnUse">
<stop stop-color="#3DB3FC"/>
<stop offset="0.452482" stop-color="#5C80FA"/>
<stop offset="1" stop-color="#936BF9"/>
</linearGradient>
<linearGradient id="paint1_linear_1185_15045" x1="32.8772" y1="66.4948" x2="390.964" y2="134.125" gradientUnits="userSpaceOnUse">
<stop stop-color="#3DB3FC"/>
<stop offset="0.452482" stop-color="#5C80FA"/>
<stop offset="1" stop-color="#936BF9"/>
</linearGradient>
<clipPath id="clip0_1185_15045">
<rect width="30.3423" height="30.3423" fill="white" transform="translate(92.3706 58.9399)"/>
</clipPath>
</defs>
</svg>
