<svg width="18" height="18" viewBox="0 0 18 18" fill="none" xmlns="http://www.w3.org/2000/svg">
<path fill-rule="evenodd" clip-rule="evenodd" d="M14.8497 3.695C15.0231 3.62199 15.213 3.59682 15.3995 3.62208C15.586 3.64735 15.7623 3.72214 15.91 3.83867C16.0578 3.95519 16.1717 4.1092 16.2397 4.28465C16.3078 4.46011 16.3276 4.65059 16.297 4.83629L14.7051 14.4923C14.5507 15.4238 13.5287 15.9579 12.6745 15.494C11.96 15.1058 10.8987 14.5078 9.9441 13.8838C9.46681 13.5715 8.00475 12.5712 8.18444 11.8595C8.33886 11.251 10.7955 8.96417 12.1993 7.60459C12.7503 7.07044 12.499 6.76231 11.8484 7.25364C10.2326 8.47354 7.63836 10.3287 6.78063 10.8509C6.02398 11.3113 5.62952 11.3899 5.15784 11.3113C4.29731 11.1681 3.49924 10.9463 2.84788 10.6761C1.9677 10.3111 2.01051 9.10104 2.84718 8.74869L14.8497 3.695Z" fill="white"/>
</svg>
