<svg width="8" height="8" viewBox="0 0 8 8" fill="none" xmlns="http://www.w3.org/2000/svg">
<path fill-rule="evenodd" clip-rule="evenodd" d="M0.708182 0.0609903C0.633034 0.0300682 0.550413 0.0220852 0.470734 0.0380474C0.391056 0.0540096 0.317886 0.0932026 0.260447 0.150686C0.203008 0.20817 0.163872 0.281371 0.147971 0.361063C0.13207 0.440755 0.140116 0.523371 0.171095 0.598497L3.05202 7.59514C3.08288 7.6701 3.13518 7.73428 3.20237 7.77963C3.26956 7.82498 3.34864 7.84947 3.4297 7.85005C3.51076 7.85062 3.59019 7.82724 3.65801 7.78284C3.72583 7.73845 3.77903 7.67501 3.81094 7.60049L4.91598 5.02202C4.95761 4.92494 5.03497 4.84758 5.13205 4.80595L7.71048 3.70089C7.785 3.66898 7.84843 3.61578 7.89283 3.54796C7.93722 3.48013 7.9606 3.40071 7.96003 3.31965C7.95946 3.23859 7.93496 3.1595 7.88962 3.09231C7.84427 3.02512 7.78009 2.97282 7.70513 2.94196L0.708182 0.0609903Z" fill="white"/>
</svg>
