<svg width="1544" height="1224" viewBox="0 0 1544 1224" fill="none" xmlns="http://www.w3.org/2000/svg">
<g filter="url(#filter0_f_1185_14978)">
<g filter="url(#filter1_f_1185_14978)">
<path d="M1319.09 1001C1319.09 750.088 1074.17 546.685 772.047 546.685C469.921 546.685 225 750.088 225 1001" stroke="url(#paint0_linear_1185_14978)" stroke-width="2.87541"/>
</g>
<g filter="url(#filter2_f_1185_14978)">
<path d="M1319.09 1001C1319.09 750.088 1074.17 546.685 772.047 546.685C469.921 546.685 225 750.088 225 1001" stroke="url(#paint1_linear_1185_14978)" stroke-width="2.87541"/>
</g>
</g>
<g filter="url(#filter3_f_1185_14978)">
<g filter="url(#filter4_f_1185_14978)">
<path d="M1319.09 1001C1319.09 750.088 1074.17 546.685 772.047 546.685C469.921 546.685 225 750.088 225 1001" stroke="url(#paint2_linear_1185_14978)" stroke-width="2.87541"/>
</g>
<g filter="url(#filter5_f_1185_14978)">
<path d="M1319.09 1001C1319.09 750.088 1074.17 546.685 772.047 546.685C469.921 546.685 225 750.088 225 1001" stroke="url(#paint3_linear_1185_14978)" stroke-width="2.87541"/>
</g>
</g>
<g filter="url(#filter6_f_1185_14978)">
<g filter="url(#filter7_f_1185_14978)">
<path d="M1319.09 1001C1319.09 750.088 1074.17 546.685 772.047 546.685C469.921 546.685 225 750.088 225 1001" stroke="url(#paint4_linear_1185_14978)" stroke-width="2.87541"/>
</g>
<g filter="url(#filter8_f_1185_14978)">
<path d="M1319.09 1001C1319.09 750.088 1074.17 546.685 772.047 546.685C469.921 546.685 225 750.088 225 1001" stroke="url(#paint5_linear_1185_14978)" stroke-width="2.87541"/>
</g>
</g>
<g filter="url(#filter9_f_1185_14978)">
<path d="M1319.09 1001C1319.09 750.088 1074.17 546.685 772.047 546.685C469.921 546.685 225 750.088 225 1001" stroke="url(#paint6_linear_1185_14978)" stroke-width="2.87541"/>
</g>
<g filter="url(#filter10_f_1185_14978)">
<path d="M1319.09 1001C1319.09 750.088 1074.17 546.685 772.047 546.685C469.921 546.685 225 750.088 225 1001" stroke="url(#paint7_linear_1185_14978)" stroke-width="2.87541"/>
</g>
<path d="M1319.09 1001C1319.09 750.088 1074.17 546.685 772.047 546.685C469.921 546.685 225 750.088 225 1001" stroke="url(#paint8_linear_1185_14978)" stroke-width="2.87541"/>
<g filter="url(#filter11_f_1185_14978)">
<path d="M1319.09 1001C1319.09 750.088 1074.17 546.685 772.047 546.685C469.921 546.685 225 750.088 225 1001" stroke="url(#paint9_linear_1185_14978)" stroke-width="1.43771"/>
</g>
<g filter="url(#filter12_f_1185_14978)">
<path d="M1319.09 1001C1319.09 750.088 1074.17 546.685 772.047 546.685C469.921 546.685 225 750.088 225 1001" stroke="url(#paint10_linear_1185_14978)" stroke-width="1.43771"/>
</g>
<g filter="url(#filter13_f_1185_14978)">
<path fill-rule="evenodd" clip-rule="evenodd" d="M866.612 561.075C823.837 559.587 789.337 525.087 787.849 482.312C785.112 403.658 779.066 349 772.047 349C765.029 349 758.983 403.658 756.246 482.312C754.758 525.087 720.258 559.587 677.483 561.075C598.829 563.812 544.171 569.858 544.171 576.877C544.171 583.895 598.829 589.941 677.483 592.678C720.258 594.166 754.758 628.666 756.246 671.441C758.983 750.095 765.029 804.753 772.047 804.753C779.066 804.753 785.112 750.095 787.849 671.441C789.337 628.666 823.837 594.166 866.612 592.678C945.266 589.941 999.924 583.895 999.924 576.877C999.924 569.858 945.266 563.812 866.612 561.075Z" fill="#4D5DFF"/>
</g>
<g filter="url(#filter14_f_1185_14978)">
<path fill-rule="evenodd" clip-rule="evenodd" d="M866.612 561.075C823.837 559.587 789.337 525.087 787.849 482.312C785.112 403.658 779.066 349 772.047 349C765.029 349 758.983 403.658 756.246 482.312C754.758 525.087 720.258 559.587 677.483 561.075C598.829 563.812 544.171 569.858 544.171 576.877C544.171 583.895 598.829 589.941 677.483 592.678C720.258 594.166 754.758 628.666 756.246 671.441C758.983 750.095 765.029 804.753 772.047 804.753C779.066 804.753 785.112 750.095 787.849 671.441C789.337 628.666 823.837 594.166 866.612 592.678C945.266 589.941 999.924 583.895 999.924 576.877C999.924 569.858 945.266 563.812 866.612 561.075Z" fill="#4D5DFF"/>
</g>
<g opacity="0.5" filter="url(#filter15_f_1185_14978)">
<path d="M999.924 553.346C999.924 566.95 897.9 577.979 772.047 577.979C646.195 577.979 544.171 566.95 544.171 553.346C544.171 539.742 646.195 528.713 772.047 528.713C897.9 528.713 999.924 539.742 999.924 553.346Z" fill="#4D5DFF"/>
</g>
<g filter="url(#filter16_f_1185_14978)">
<path d="M926.601 553.191C926.601 561.946 852.577 569.043 761.264 569.043C669.952 569.043 595.928 561.946 595.928 553.191C595.928 544.437 669.952 537.339 761.264 537.339C852.577 537.339 926.601 544.437 926.601 553.191Z" fill="url(#paint11_linear_1185_14978)"/>
</g>
<g filter="url(#filter17_f_1185_14978)">
<path d="M926.601 553.191C926.601 561.946 852.577 569.043 761.264 569.043C669.952 569.043 595.928 561.946 595.928 553.191C595.928 544.437 669.952 537.339 761.264 537.339C852.577 537.339 926.601 544.437 926.601 553.191Z" fill="url(#paint12_linear_1185_14978)"/>
</g>
<g filter="url(#filter18_f_1185_14978)">
<path d="M857.591 553.191C857.591 561.946 814.464 569.043 761.264 569.043C708.065 569.043 664.938 561.946 664.938 553.191C664.938 544.437 708.065 537.339 761.264 537.339C814.464 537.339 857.591 544.437 857.591 553.191Z" fill="url(#paint13_linear_1185_14978)"/>
</g>
<g filter="url(#filter19_f_1185_14978)">
<ellipse cx="772.547" cy="550" rx="123" ry="3" fill="url(#paint14_linear_1185_14978)"/>
</g>
<g filter="url(#filter20_f_1185_14978)">
<ellipse cx="772.766" cy="550.279" rx="79.0739" ry="5.75083" fill="url(#paint15_linear_1185_14978)"/>
</g>
<g filter="url(#filter21_f_1185_14978)">
<ellipse cx="772.766" cy="550.279" rx="67.9951" ry="2.87541" fill="url(#paint16_linear_1185_14978)"/>
</g>
<defs>
<filter id="filter0_f_1185_14978" x="0.717957" y="322.403" width="1542.66" height="901.442" filterUnits="userSpaceOnUse" color-interpolation-filters="sRGB">
<feFlood flood-opacity="0" result="BackgroundImageFix"/>
<feBlend mode="normal" in="SourceGraphic" in2="BackgroundImageFix" result="shape"/>
<feGaussianBlur stdDeviation="111.422" result="effect1_foregroundBlur_1185_14978"/>
</filter>
<filter id="filter1_f_1185_14978" x="189.058" y="510.742" width="1165.98" height="524.763" filterUnits="userSpaceOnUse" color-interpolation-filters="sRGB">
<feFlood flood-opacity="0" result="BackgroundImageFix"/>
<feBlend mode="normal" in="SourceGraphic" in2="BackgroundImageFix" result="shape"/>
<feGaussianBlur stdDeviation="17.2525" result="effect1_foregroundBlur_1185_14978"/>
</filter>
<filter id="filter2_f_1185_14978" x="203.435" y="525.119" width="1137.23" height="496.009" filterUnits="userSpaceOnUse" color-interpolation-filters="sRGB">
<feFlood flood-opacity="0" result="BackgroundImageFix"/>
<feBlend mode="normal" in="SourceGraphic" in2="BackgroundImageFix" result="shape"/>
<feGaussianBlur stdDeviation="10.0639" result="effect1_foregroundBlur_1185_14978"/>
</filter>
<filter id="filter3_f_1185_14978" x="7.90649" y="329.591" width="1528.28" height="887.065" filterUnits="userSpaceOnUse" color-interpolation-filters="sRGB">
<feFlood flood-opacity="0" result="BackgroundImageFix"/>
<feBlend mode="normal" in="SourceGraphic" in2="BackgroundImageFix" result="shape"/>
<feGaussianBlur stdDeviation="107.828" result="effect1_foregroundBlur_1185_14978"/>
</filter>
<filter id="filter4_f_1185_14978" x="189.058" y="510.742" width="1165.98" height="524.763" filterUnits="userSpaceOnUse" color-interpolation-filters="sRGB">
<feFlood flood-opacity="0" result="BackgroundImageFix"/>
<feBlend mode="normal" in="SourceGraphic" in2="BackgroundImageFix" result="shape"/>
<feGaussianBlur stdDeviation="17.2525" result="effect1_foregroundBlur_1185_14978"/>
</filter>
<filter id="filter5_f_1185_14978" x="203.435" y="525.119" width="1137.23" height="496.009" filterUnits="userSpaceOnUse" color-interpolation-filters="sRGB">
<feFlood flood-opacity="0" result="BackgroundImageFix"/>
<feBlend mode="normal" in="SourceGraphic" in2="BackgroundImageFix" result="shape"/>
<feGaussianBlur stdDeviation="10.0639" result="effect1_foregroundBlur_1185_14978"/>
</filter>
<filter id="filter6_f_1185_14978" x="74.041" y="395.726" width="1396.01" height="754.796" filterUnits="userSpaceOnUse" color-interpolation-filters="sRGB">
<feFlood flood-opacity="0" result="BackgroundImageFix"/>
<feBlend mode="normal" in="SourceGraphic" in2="BackgroundImageFix" result="shape"/>
<feGaussianBlur stdDeviation="74.7607" result="effect1_foregroundBlur_1185_14978"/>
</filter>
<filter id="filter7_f_1185_14978" x="189.058" y="510.742" width="1165.98" height="524.763" filterUnits="userSpaceOnUse" color-interpolation-filters="sRGB">
<feFlood flood-opacity="0" result="BackgroundImageFix"/>
<feBlend mode="normal" in="SourceGraphic" in2="BackgroundImageFix" result="shape"/>
<feGaussianBlur stdDeviation="17.2525" result="effect1_foregroundBlur_1185_14978"/>
</filter>
<filter id="filter8_f_1185_14978" x="203.435" y="525.119" width="1137.23" height="496.009" filterUnits="userSpaceOnUse" color-interpolation-filters="sRGB">
<feFlood flood-opacity="0" result="BackgroundImageFix"/>
<feBlend mode="normal" in="SourceGraphic" in2="BackgroundImageFix" result="shape"/>
<feGaussianBlur stdDeviation="10.0639" result="effect1_foregroundBlur_1185_14978"/>
</filter>
<filter id="filter9_f_1185_14978" x="189.058" y="510.742" width="1165.98" height="524.763" filterUnits="userSpaceOnUse" color-interpolation-filters="sRGB">
<feFlood flood-opacity="0" result="BackgroundImageFix"/>
<feBlend mode="normal" in="SourceGraphic" in2="BackgroundImageFix" result="shape"/>
<feGaussianBlur stdDeviation="17.2525" result="effect1_foregroundBlur_1185_14978"/>
</filter>
<filter id="filter10_f_1185_14978" x="203.435" y="525.119" width="1137.23" height="496.009" filterUnits="userSpaceOnUse" color-interpolation-filters="sRGB">
<feFlood flood-opacity="0" result="BackgroundImageFix"/>
<feBlend mode="normal" in="SourceGraphic" in2="BackgroundImageFix" result="shape"/>
<feGaussianBlur stdDeviation="10.0639" result="effect1_foregroundBlur_1185_14978"/>
</filter>
<filter id="filter11_f_1185_14978" x="209.904" y="531.589" width="1124.29" height="483.788" filterUnits="userSpaceOnUse" color-interpolation-filters="sRGB">
<feFlood flood-opacity="0" result="BackgroundImageFix"/>
<feBlend mode="normal" in="SourceGraphic" in2="BackgroundImageFix" result="shape"/>
<feGaussianBlur stdDeviation="7.18853" result="effect1_foregroundBlur_1185_14978"/>
</filter>
<filter id="filter12_f_1185_14978" x="218.53" y="540.215" width="1107.03" height="466.536" filterUnits="userSpaceOnUse" color-interpolation-filters="sRGB">
<feFlood flood-opacity="0" result="BackgroundImageFix"/>
<feBlend mode="normal" in="SourceGraphic" in2="BackgroundImageFix" result="shape"/>
<feGaussianBlur stdDeviation="2.87541" result="effect1_foregroundBlur_1185_14978"/>
</filter>
<filter id="filter13_f_1185_14978" x="195.858" y="0.686798" width="1152.38" height="1152.38" filterUnits="userSpaceOnUse" color-interpolation-filters="sRGB">
<feFlood flood-opacity="0" result="BackgroundImageFix"/>
<feBlend mode="normal" in="SourceGraphic" in2="BackgroundImageFix" result="shape"/>
<feGaussianBlur stdDeviation="174.157" result="effect1_foregroundBlur_1185_14978"/>
</filter>
<filter id="filter14_f_1185_14978" x="368.383" y="173.212" width="807.33" height="807.33" filterUnits="userSpaceOnUse" color-interpolation-filters="sRGB">
<feFlood flood-opacity="0" result="BackgroundImageFix"/>
<feBlend mode="normal" in="SourceGraphic" in2="BackgroundImageFix" result="shape"/>
<feGaussianBlur stdDeviation="87.8942" result="effect1_foregroundBlur_1185_14978"/>
</filter>
<filter id="filter15_f_1185_14978" x="443.531" y="428.074" width="657.032" height="250.545" filterUnits="userSpaceOnUse" color-interpolation-filters="sRGB">
<feFlood flood-opacity="0" result="BackgroundImageFix"/>
<feBlend mode="normal" in="SourceGraphic" in2="BackgroundImageFix" result="shape"/>
<feGaussianBlur stdDeviation="50.3197" result="effect1_foregroundBlur_1185_14978"/>
</filter>
<filter id="filter16_f_1185_14978" x="524.043" y="465.454" width="474.443" height="175.475" filterUnits="userSpaceOnUse" color-interpolation-filters="sRGB">
<feFlood flood-opacity="0" result="BackgroundImageFix"/>
<feBlend mode="normal" in="SourceGraphic" in2="BackgroundImageFix" result="shape"/>
<feGaussianBlur stdDeviation="35.9427" result="effect1_foregroundBlur_1185_14978"/>
</filter>
<filter id="filter17_f_1185_14978" x="567.174" y="508.585" width="388.181" height="89.2124" filterUnits="userSpaceOnUse" color-interpolation-filters="sRGB">
<feFlood flood-opacity="0" result="BackgroundImageFix"/>
<feBlend mode="normal" in="SourceGraphic" in2="BackgroundImageFix" result="shape"/>
<feGaussianBlur stdDeviation="14.3771" result="effect1_foregroundBlur_1185_14978"/>
</filter>
<filter id="filter18_f_1185_14978" x="649.123" y="521.525" width="224.282" height="63.3336" filterUnits="userSpaceOnUse" color-interpolation-filters="sRGB">
<feFlood flood-opacity="0" result="BackgroundImageFix"/>
<feBlend mode="normal" in="SourceGraphic" in2="BackgroundImageFix" result="shape"/>
<feGaussianBlur stdDeviation="7.90739" result="effect1_foregroundBlur_1185_14978"/>
</filter>
<filter id="filter19_f_1185_14978" x="641.103" y="538.556" width="262.888" height="22.8883" filterUnits="userSpaceOnUse" color-interpolation-filters="sRGB">
<feFlood flood-opacity="0" result="BackgroundImageFix"/>
<feBlend mode="normal" in="SourceGraphic" in2="BackgroundImageFix" result="shape"/>
<feGaussianBlur stdDeviation="4.22207" result="effect1_foregroundBlur_1185_14978"/>
</filter>
<filter id="filter20_f_1185_14978" x="684.108" y="534.944" width="177.317" height="30.6709" filterUnits="userSpaceOnUse" color-interpolation-filters="sRGB">
<feFlood flood-opacity="0" result="BackgroundImageFix"/>
<feBlend mode="normal" in="SourceGraphic" in2="BackgroundImageFix" result="shape"/>
<feGaussianBlur stdDeviation="4.79236" result="effect1_foregroundBlur_1185_14978"/>
</filter>
<filter id="filter21_f_1185_14978" x="695.186" y="537.819" width="155.16" height="24.9204" filterUnits="userSpaceOnUse" color-interpolation-filters="sRGB">
<feFlood flood-opacity="0" result="BackgroundImageFix"/>
<feBlend mode="normal" in="SourceGraphic" in2="BackgroundImageFix" result="shape"/>
<feGaussianBlur stdDeviation="4.79236" result="effect1_foregroundBlur_1185_14978"/>
</filter>
<linearGradient id="paint0_linear_1185_14978" x1="306.23" y1="622.164" x2="1206.95" y2="631.509" gradientUnits="userSpaceOnUse">
<stop stop-color="#7FE6FE" stop-opacity="0"/>
<stop offset="0.547018" stop-color="#4D5DFF"/>
<stop offset="1" stop-color="#7FE6FE" stop-opacity="0"/>
</linearGradient>
<linearGradient id="paint1_linear_1185_14978" x1="306.23" y1="622.164" x2="1206.95" y2="631.509" gradientUnits="userSpaceOnUse">
<stop stop-color="#7FE6FE" stop-opacity="0"/>
<stop offset="0.547018" stop-color="#4D5DFF"/>
<stop offset="1" stop-color="#7FE6FE" stop-opacity="0"/>
</linearGradient>
<linearGradient id="paint2_linear_1185_14978" x1="306.23" y1="622.164" x2="1206.95" y2="631.509" gradientUnits="userSpaceOnUse">
<stop stop-color="#7FE6FE" stop-opacity="0"/>
<stop offset="0.547018" stop-color="#4D5DFF"/>
<stop offset="1" stop-color="#7FE6FE" stop-opacity="0"/>
</linearGradient>
<linearGradient id="paint3_linear_1185_14978" x1="306.23" y1="622.164" x2="1206.95" y2="631.509" gradientUnits="userSpaceOnUse">
<stop stop-color="#7FE6FE" stop-opacity="0"/>
<stop offset="0.547018" stop-color="#4D5DFF"/>
<stop offset="1" stop-color="#7FE6FE" stop-opacity="0"/>
</linearGradient>
<linearGradient id="paint4_linear_1185_14978" x1="306.23" y1="622.164" x2="1206.95" y2="631.509" gradientUnits="userSpaceOnUse">
<stop stop-color="#7FE6FE" stop-opacity="0"/>
<stop offset="0.547018" stop-color="#4D5DFF"/>
<stop offset="1" stop-color="#7FE6FE" stop-opacity="0"/>
</linearGradient>
<linearGradient id="paint5_linear_1185_14978" x1="306.23" y1="622.164" x2="1206.95" y2="631.509" gradientUnits="userSpaceOnUse">
<stop stop-color="#7FE6FE" stop-opacity="0"/>
<stop offset="0.547018" stop-color="#4D5DFF"/>
<stop offset="1" stop-color="#7FE6FE" stop-opacity="0"/>
</linearGradient>
<linearGradient id="paint6_linear_1185_14978" x1="306.23" y1="622.164" x2="1206.95" y2="631.509" gradientUnits="userSpaceOnUse">
<stop stop-color="#7FE6FE" stop-opacity="0"/>
<stop offset="0.547018" stop-color="#4D5DFF"/>
<stop offset="1" stop-color="#7FE6FE" stop-opacity="0"/>
</linearGradient>
<linearGradient id="paint7_linear_1185_14978" x1="306.23" y1="622.164" x2="1206.95" y2="631.509" gradientUnits="userSpaceOnUse">
<stop stop-color="#7FE6FE" stop-opacity="0"/>
<stop offset="0.547018" stop-color="#4D5DFF"/>
<stop offset="1" stop-color="#7FE6FE" stop-opacity="0"/>
</linearGradient>
<linearGradient id="paint8_linear_1185_14978" x1="306.23" y1="622.164" x2="1206.95" y2="631.509" gradientUnits="userSpaceOnUse">
<stop stop-color="#7FE6FE" stop-opacity="0"/>
<stop offset="0.547018" stop-color="#4D5DFF"/>
<stop offset="1" stop-color="#7FE6FE" stop-opacity="0"/>
</linearGradient>
<linearGradient id="paint9_linear_1185_14978" x1="306.23" y1="622.164" x2="1206.95" y2="631.509" gradientUnits="userSpaceOnUse">
<stop stop-color="white" stop-opacity="0"/>
<stop offset="0.547018" stop-color="white"/>
<stop offset="1" stop-color="white" stop-opacity="0"/>
</linearGradient>
<linearGradient id="paint10_linear_1185_14978" x1="306.23" y1="622.164" x2="1206.95" y2="631.509" gradientUnits="userSpaceOnUse">
<stop stop-color="white" stop-opacity="0"/>
<stop offset="0.547018" stop-color="white"/>
<stop offset="1" stop-color="white" stop-opacity="0"/>
</linearGradient>
<linearGradient id="paint11_linear_1185_14978" x1="595.928" y1="553.191" x2="926.601" y2="553.191" gradientUnits="userSpaceOnUse">
<stop stop-color="#2AB3F9" stop-opacity="0"/>
<stop offset="0.505803" stop-color="#4D5DFF"/>
<stop offset="1" stop-color="#2AB3F9" stop-opacity="0"/>
</linearGradient>
<linearGradient id="paint12_linear_1185_14978" x1="595.928" y1="553.191" x2="926.601" y2="553.191" gradientUnits="userSpaceOnUse">
<stop stop-color="#2AB3F9" stop-opacity="0"/>
<stop offset="0.505803" stop-color="#4D5DFF"/>
<stop offset="1" stop-color="#2AB3F9" stop-opacity="0"/>
</linearGradient>
<linearGradient id="paint13_linear_1185_14978" x1="664.938" y1="553.191" x2="857.591" y2="553.191" gradientUnits="userSpaceOnUse">
<stop stop-color="#2AB3F9" stop-opacity="0"/>
<stop offset="0.505803" stop-color="#4D5DFF"/>
<stop offset="1" stop-color="#2AB3F9" stop-opacity="0"/>
</linearGradient>
<linearGradient id="paint14_linear_1185_14978" x1="649.547" y1="550" x2="895.547" y2="550" gradientUnits="userSpaceOnUse">
<stop stop-color="white" stop-opacity="0"/>
<stop offset="0.495844" stop-color="white"/>
<stop offset="1" stop-color="white" stop-opacity="0"/>
</linearGradient>
<linearGradient id="paint15_linear_1185_14978" x1="693.692" y1="550.279" x2="851.84" y2="550.279" gradientUnits="userSpaceOnUse">
<stop stop-color="white" stop-opacity="0"/>
<stop offset="0.495844" stop-color="white"/>
<stop offset="1" stop-color="white" stop-opacity="0"/>
</linearGradient>
<linearGradient id="paint16_linear_1185_14978" x1="704.771" y1="550.279" x2="840.761" y2="550.279" gradientUnits="userSpaceOnUse">
<stop stop-color="white" stop-opacity="0"/>
<stop offset="0.495844" stop-color="white"/>
<stop offset="1" stop-color="white" stop-opacity="0"/>
</linearGradient>
</defs>
</svg>
