<svg width="518" height="719" viewBox="0 0 518 719" fill="none" xmlns="http://www.w3.org/2000/svg">
<path d="M466.978 247.793L348.913 388.081" stroke="white" stroke-width="1.38899"/>
<path d="M367.24 52.2532C247.231 21.1387 189.449 97.627 175.559 139.76C333.348 127.537 435.764 208.746 467.247 250.879C483.915 197.634 487.249 83.3677 367.24 52.2532Z" fill="#8055FF"/>
<mask id="mask0_1185_19039" style="mask-type:alpha" maskUnits="userSpaceOnUse" x="175" y="44" width="301" height="207">
<path d="M367.24 52.2532C247.231 21.1387 189.449 97.627 175.559 139.76C333.348 127.537 435.764 208.746 467.247 250.879C483.915 197.634 487.249 83.3677 367.24 52.2532Z" fill="#335FFE"/>
</mask>
<g mask="url(#mask0_1185_19039)">
<path d="M378.082 53.3336C376.042 52.9256 373.93 52.5922 371.753 52.3313L369.748 53.3337C303.076 82.5026 271.129 138.525 286.408 157.508L210.014 146.396C213.225 88.595 314.648 45.4868 371.753 52.3313L378.082 49.1667V53.3336Z" fill="white"/>
<path d="M376.693 51.9447C377.524 52.4609 378.358 53.0019 379.195 53.5669C405.349 124.685 388.489 168.039 365.251 174.173L433.346 210.543C465.576 161.294 418.971 80.4019 379.195 53.5669C378.832 52.5803 378.461 51.5884 378.082 50.5911L370.637 40.8687L376.693 51.9447Z" fill="white"/>
</g>
<path opacity="0.1" d="M367.24 52.2532C247.231 21.1387 189.449 97.627 175.559 139.76C333.348 127.537 435.764 208.746 467.247 250.879C483.915 197.634 487.249 83.3677 367.24 52.2532Z" fill="url(#paint0_linear_1185_19039)"/>
<g filter="url(#filter0_i_1185_19039)">
<ellipse cx="320.116" cy="197.783" rx="156.208" ry="46.9899" transform="rotate(19.8428 320.116 197.783)" fill="#8055FF"/>
</g>
<ellipse opacity="0.3" cx="320.116" cy="197.783" rx="156.208" ry="46.9899" transform="rotate(19.8428 320.116 197.783)" fill="black"/>
<path d="M178.067 139.451L273.907 364.468" stroke="white" stroke-width="1.38899" stroke-linecap="round"/>
<path d="M282.241 138.062L298.909 363.079" stroke="white" stroke-width="1.38899" stroke-linecap="round"/>
<path d="M436.42 203.345L328.078 371.413" stroke="white" stroke-width="1.38899" stroke-linecap="round"/>
<path d="M296.084 357.69L332.53 366.801L332.513 366.83C333.198 367.024 333.88 367.236 334.559 367.467C368.186 378.877 380.934 430.892 363.034 483.645C345.133 536.398 303.361 569.913 269.734 558.502C268.829 558.195 267.94 557.859 267.065 557.493L238.681 550.855L228.658 523.52L239.951 527.681C230.81 505.185 230.549 473.886 241.259 442.323C251.741 411.434 270.407 387.141 290.83 374.601L269.66 366.801L296.084 357.69Z" fill="url(#paint1_linear_1185_19039)"/>
<mask id="mask1_1185_19039" style="mask-type:alpha" maskUnits="userSpaceOnUse" x="219" y="350" width="153" height="211">
<path d="M276.038 350.4L332.53 366.801L332.513 366.83C333.198 367.024 333.88 367.236 334.559 367.466C368.186 378.877 380.935 430.892 363.034 483.645C345.133 536.398 303.362 569.913 269.735 558.502C268.83 558.195 267.94 557.858 267.066 557.493L219.547 543.565L228.658 523.52L239.952 527.681C230.811 505.185 230.549 473.886 241.259 442.323C251.741 411.434 270.407 387.14 290.831 374.601L269.66 366.801L276.038 350.4Z" fill="#648CFF"/>
</mask>
<g mask="url(#mask1_1185_19039)">
<path opacity="0.3" fill-rule="evenodd" clip-rule="evenodd" d="M379.21 409.007L316.129 392.313L313.185 419.357L380.821 436.96L379.21 409.007ZM377.893 445.956L314.812 429.263L313.395 436.96L381.031 454.564L377.893 445.956Z" fill="white"/>
</g>
<ellipse cx="272.755" cy="455.645" rx="64.2973" ry="100.867" transform="rotate(18.7437 272.755 455.645)" fill="#BBD6FF"/>
<ellipse cx="273.291" cy="455.925" rx="58.1941" ry="94.6608" transform="rotate(18.7437 273.291 455.925)" fill="white"/>
<mask id="mask2_1185_19039" style="mask-type:alpha" maskUnits="userSpaceOnUse" x="210" y="364" width="127" height="184">
<ellipse cx="273.291" cy="455.925" rx="58.1941" ry="94.6608" transform="rotate(18.7437 273.291 455.925)" fill="white"/>
</mask>
<g mask="url(#mask2_1185_19039)">
<path d="M241 452.499C241 451.657 241.388 450.654 242.017 449.873L279.242 403.603C280.59 401.929 282.267 402.091 282.267 403.897L282.267 414.042C282.267 415.515 280.657 417.437 279.391 418.168C276.769 419.682 274.643 423.381 274.643 426.43C274.643 428.171 275.336 429.324 276.418 429.711C277.055 429.939 277.576 430.461 277.576 431.411L277.576 436.463C277.576 437.761 276.671 439.335 275.555 439.98L258.07 450.075C255.48 451.57 253.38 455.224 253.38 458.236L253.38 472.389C253.38 472.838 253.032 473.379 252.646 473.602C250.139 475.049 248.107 478.585 248.107 481.5C248.107 484.415 250.139 485.605 252.646 484.157C253.032 483.934 253.38 484.073 253.38 484.523L253.38 495.185C253.38 498.197 255.48 499.427 258.07 497.932L258.503 497.681C260.868 496.316 261.308 499.975 259.023 502.002L243.541 515.737C242.258 516.875 241 516.477 241 514.933L241 452.499Z" fill="url(#paint2_linear_1185_19039)"/>
<path d="M277.754 486.567C276.638 487.211 275.733 488.786 275.733 490.084L275.733 505.981C275.733 507.787 277.413 507.949 278.76 506.272L315.985 459.938C316.613 459.156 317 458.155 317 457.313L317 395.55C317 394.007 315.742 393.608 314.459 394.747L285.412 420.516C284.618 421.22 284.069 422.34 283.738 423.405C283.443 424.353 282.998 425.294 282.446 426.153C281.838 427.098 281.346 428.187 281.346 429.11L281.346 434.286C281.346 435.584 282.251 436.114 283.367 435.469L299.701 426.039C302.291 424.543 304.391 425.773 304.391 428.785L304.391 442.424C304.391 443.264 305.112 443.443 305.834 443.027C308.341 441.579 310.372 442.769 310.372 445.684C310.372 448.599 308.341 452.135 305.834 453.582C305.112 453.999 304.391 455.011 304.391 455.851L304.391 465.734C304.391 468.746 302.291 472.4 299.701 473.896L277.754 486.567Z" fill="url(#paint3_linear_1185_19039)"/>
<path d="M272.688 457.603C272.688 460.652 270.562 464.351 267.94 465.865C265.318 467.379 263.193 466.134 263.193 463.085C263.193 460.035 265.318 456.336 267.94 454.822C270.562 453.308 272.688 454.553 272.688 457.603Z" fill="url(#paint4_linear_1185_19039)"/>
<path d="M288.886 453.772C291.509 452.258 293.634 448.559 293.634 445.509C293.634 442.46 291.509 441.215 288.886 442.729C286.264 444.243 284.139 447.942 284.139 450.992C284.139 454.041 286.264 455.286 288.886 453.772Z" fill="url(#paint5_linear_1185_19039)"/>
<path d="M230.481 524.431C203.146 474.317 263.282 348.578 317.952 375.001L293.351 348.578L218.636 391.402L191.301 499.83L222.28 557.233L260.549 563.611L300.64 524.431C259.091 555.775 240.503 539.921 230.481 524.431Z" fill="url(#paint6_linear_1185_19039)"/>
<path opacity="0.1" d="M230.481 524.431C203.146 474.317 263.282 348.578 317.952 375.001L293.351 348.578L218.636 391.402L191.301 499.83L222.28 557.233L260.549 563.611L300.64 524.431C259.091 555.775 240.503 539.921 230.481 524.431Z" fill="black"/>
</g>
<path d="M76.3341 368.949L56.2623 373.967L56.2715 373.983C55.8943 374.09 55.5187 374.206 55.145 374.333C36.6257 380.617 29.6047 409.263 39.4631 438.316C49.3214 467.368 72.3261 485.825 90.8454 479.541C91.3437 479.372 91.8337 479.187 92.3152 478.986L107.947 475.33L113.467 460.276L107.248 462.567C112.282 450.178 112.426 432.941 106.527 415.559C100.755 398.547 90.4748 385.168 79.2272 378.262L90.8862 373.967L76.3341 368.949Z" fill="url(#paint7_linear_1185_19039)"/>
<mask id="mask3_1185_19039" style="mask-type:alpha" maskUnits="userSpaceOnUse" x="35" y="364" width="84" height="117">
<path d="M87.3731 364.934L56.2618 373.967L56.271 373.983C55.8938 374.09 55.5182 374.206 55.1445 374.333C36.6252 380.617 29.6042 409.263 39.4625 438.316C49.3209 467.368 72.3256 485.825 90.8449 479.541C91.3432 479.372 91.8332 479.187 92.3147 478.986L118.484 471.315L113.467 460.276L107.247 462.567C112.281 450.178 112.425 432.941 106.527 415.559C100.754 398.547 90.4743 385.168 79.2267 378.262L90.8857 373.967L87.3731 364.934Z" fill="#648CFF"/>
</mask>
<g mask="url(#mask3_1185_19039)">
<path opacity="0.3" fill-rule="evenodd" clip-rule="evenodd" d="M30.5546 397.21L65.295 388.017L66.9165 402.91L29.6676 412.605L30.5546 397.21ZM31.2796 417.559L66.0201 408.365L66.8003 412.605L29.5514 422.299L31.2796 417.559Z" fill="white"/>
</g>
<ellipse cx="35.4101" cy="55.55" rx="35.4101" ry="55.55" transform="matrix(-0.946965 0.321336 0.321336 0.946965 104.863 358.913)" fill="#BBD6FF"/>
<ellipse cx="32.0489" cy="52.132" rx="32.0489" ry="52.132" transform="matrix(-0.946965 0.321336 0.321336 0.946965 102.484 363.384)" fill="white"/>
<mask id="mask4_1185_19039" style="mask-type:alpha" maskUnits="userSpaceOnUse" x="54" y="372" width="70" height="102">
<ellipse cx="32.0489" cy="52.132" rx="32.0489" ry="52.132" transform="matrix(-0.946965 0.321336 0.321336 0.946965 102.484 363.384)" fill="white"/>
</mask>
<g mask="url(#mask4_1185_19039)">
<path d="M64 397.636C64 397.182 64.2093 396.883 64.5487 396.853L84.6306 395.08C85.3574 395.016 86.2624 396.149 86.2624 397.123L86.2624 402.596C86.2624 403.391 85.3939 403.425 84.7109 403.03C83.2963 402.214 82.1496 402.885 82.1496 404.53C82.1496 405.469 82.5232 406.522 83.1069 407.405C83.4506 407.925 83.7315 408.531 83.7315 409.044L83.7315 411.769C83.7315 412.469 83.2434 412.755 82.6413 412.407L73.2086 406.961C71.8114 406.155 70.6787 406.818 70.6787 408.443L70.6787 416.078C70.6787 416.321 70.491 416.395 70.2824 416.275C68.9302 415.494 67.8341 416.136 67.8341 417.709C67.8341 419.281 68.9302 421.189 70.2824 421.969C70.491 422.09 70.6787 422.381 70.6787 422.624L70.6787 428.376C70.6787 430.001 71.8114 431.972 73.2086 432.779L73.4424 432.914C74.7181 433.651 74.9558 435.899 73.723 435.569L65.3709 433.334C64.6788 433.149 64 432.151 64 431.318L64 397.636Z" fill="url(#paint8_linear_1185_19039)"/>
<path d="M83.8278 438.91C83.2257 438.562 82.7376 438.848 82.7376 439.548L82.7376 448.125C82.7376 449.099 83.6436 450.232 84.3704 450.167L104.452 448.36C104.791 448.329 105 448.03 105 447.576L105 414.257C105 413.424 104.321 412.425 103.629 412.24L87.9589 408.048C87.5309 407.933 87.2344 408.195 87.0557 408.563C86.8966 408.891 86.6566 409.121 86.3587 409.241C86.031 409.372 85.7655 409.653 85.7655 410.151L85.7655 412.943C85.7655 413.644 86.2536 414.493 86.8557 414.841L95.6677 419.928C97.0649 420.735 98.1976 422.706 98.1976 424.331L98.1976 431.689C98.1976 432.142 98.5867 432.688 98.9762 432.913C100.328 433.694 101.425 435.601 101.425 437.174C101.425 438.746 100.328 439.388 98.9762 438.608C98.5867 438.383 98.1976 438.479 98.1976 438.932L98.1976 444.264C98.1976 445.889 97.0649 446.553 95.6677 445.746L83.8278 438.91Z" fill="url(#paint9_linear_1185_19039)"/>
<path d="M81.0948 420.129C81.0948 421.774 79.9481 422.445 78.5335 421.629C77.119 420.812 75.9722 418.816 75.9722 417.171C75.9722 415.526 77.119 414.855 78.5335 415.672C79.9481 416.488 81.0948 418.484 81.0948 420.129Z" fill="url(#paint10_linear_1185_19039)"/>
<path d="M89.8334 428.153C91.248 428.969 92.3947 428.298 92.3947 426.653C92.3947 425.008 91.248 423.012 89.8334 422.196C88.4188 421.379 87.2721 422.05 87.2721 423.695C87.2721 425.34 88.4188 427.336 89.8334 428.153Z" fill="url(#paint11_linear_1185_19039)"/>
<path d="M112.464 460.777C127.518 433.178 94.399 363.93 64.2912 378.483L77.8397 363.93L118.987 387.515L134.041 447.229L116.98 478.842L95.9044 482.354L73.8253 460.777C96.7073 478.039 106.944 469.308 112.464 460.777Z" fill="url(#paint12_linear_1185_19039)"/>
<path opacity="0.1" d="M112.464 460.777C127.518 433.178 94.399 363.93 64.2912 378.483L77.8397 363.93L118.987 387.515L134.041 447.229L116.98 478.842L95.9044 482.354L73.8253 460.777C96.7073 478.039 106.944 469.308 112.464 460.777Z" fill="black"/>
</g>
<path d="M167.088 567.958L175.806 586.721L175.788 586.724C175.942 587.085 176.087 587.45 176.223 587.821C182.981 606.173 165.119 629.643 136.329 640.243C107.539 650.844 78.7228 644.56 71.9658 626.208C71.7839 625.714 71.62 625.216 71.4735 624.715L64.4881 610.261L72.7238 596.504L74.8524 602.781C81.3212 591.077 94.6343 580.127 111.86 573.785C128.718 567.578 145.585 567.16 158.027 571.564L154.037 559.797L167.088 567.958Z" fill="url(#paint13_linear_1185_19039)"/>
<mask id="mask5_1185_19039" style="mask-type:alpha" maskUnits="userSpaceOnUse" x="60" y="556" width="118" height="90">
<path d="M163.269 556.85L175.806 586.722L175.788 586.725C175.942 587.085 176.087 587.451 176.224 587.821C182.981 606.173 165.12 629.644 136.33 640.244C107.54 650.844 78.7231 644.56 71.966 626.208C71.7842 625.714 71.6202 625.217 71.4738 624.716L60.9845 599.543L72.724 596.504L74.8526 602.781C81.3214 591.077 94.6346 580.127 111.86 573.785C128.718 567.578 145.585 567.16 158.027 571.565L154.037 559.798L163.269 556.85Z" fill="#648CFF"/>
</mask>
<g mask="url(#mask5_1185_19039)">
<path opacity="0.3" fill-rule="evenodd" clip-rule="evenodd" d="M173.895 621.327L159.201 588.532L146.6 596.635L162.481 631.695L173.895 621.327ZM157.615 633.557L142.922 600.762L139.135 602.82L155.016 637.881L157.615 633.557Z" fill="white"/>
</g>
<ellipse cx="117.061" cy="591.886" rx="35.4101" ry="55.55" transform="rotate(69.7867 117.061 591.886)" fill="#BBD6FF"/>
<ellipse cx="117.126" cy="592.212" rx="32.0489" ry="52.132" transform="rotate(69.7867 117.126 592.212)" fill="white"/>
<mask id="mask6_1185_19039" style="mask-type:alpha" maskUnits="userSpaceOnUse" x="66" y="557" width="102" height="71">
<ellipse cx="117.126" cy="592.212" rx="32.0489" ry="52.132" transform="rotate(69.7867 117.126 592.212)" fill="white"/>
</mask>
<g mask="url(#mask6_1185_19039)">
<path d="M147.244 597.181L101.171 610.805C100.611 610.97 100.013 611.053 99.435 611.047C98.8567 611.041 98.3165 610.947 97.8651 610.771C97.4136 610.596 97.0656 610.347 96.8537 610.046C96.6418 609.746 96.5729 609.404 96.6536 609.053L103.511 580.344C103.704 579.539 104.265 578.742 105.133 578.044C106.434 577.022 108.281 576.282 110.269 575.986C112.257 575.691 114.224 575.864 115.738 576.467L149.462 589.442C152.68 590.68 153.185 593.396 150.568 595.513C149.701 596.213 148.549 596.793 147.242 597.18M109.145 581.475L105.033 602.037L125.462 585.519L112.527 580.543C111.032 579.968 109.537 580.377 109.147 581.476M110.378 604.093L143.38 594.646C145.092 594.056 145.236 593.127 143.741 592.552L130.806 587.576L110.378 604.093Z" fill="url(#paint14_linear_1185_19039)"/>
<path d="M72.9641 597.599C84.9605 568.54 159.632 550.755 167.246 583.317L170.043 563.632L125.833 546.464L69.9333 572.302L56.0772 605.445L66.5967 624.042L97.2575 627.645C69.4477 620.705 69.8011 607.255 72.9641 597.599Z" fill="url(#paint15_linear_1185_19039)"/>
<path opacity="0.1" d="M72.9641 597.599C84.9605 568.54 159.632 550.755 167.246 583.317L170.043 563.632L125.833 546.464L69.9333 572.302L56.0772 605.445L66.5967 624.042L97.2575 627.645C69.4477 620.705 69.8011 607.255 72.9641 597.599Z" fill="black"/>
</g>
<path d="M20.9668 578.441L21.3898 578.365L21.3435 578.313L21.4015 578.305L21.3643 578.172L20.9668 578.441Z" fill="white"/>
<path d="M182.31 534.414L180.814 534.71L71.9245 549.081L22.1745 577.297L21.2846 577.414L44.1751 676.736L147.706 663.072L202.706 632.136L182.31 534.414Z" fill="white"/>
<path opacity="0.2" d="M124.796 564.047L182.369 534.858L202.811 632.929L147.859 664.232L124.796 564.047Z" fill="black"/>
<path opacity="0.2" d="M20.891 577.86L71.9248 549.081L181.549 534.613L124.709 563.39L20.891 577.86Z" fill="white"/>
<path opacity="0.06" d="M20.8915 577.86L71.9252 549.082L181.55 534.613L124.71 563.39L20.8915 577.86Z" fill="black"/>
<path d="M183.842 643.994L163.454 542.905L56.5767 557.011L47.1709 563.587L145.154 553.37L170.716 650.863L183.842 643.994Z" fill="url(#paint16_linear_1185_19039)"/>
<path d="M125.122 542.061L77.7454 569.471L97.0436 669.759L81.5682 671.801L57.6295 572.441L110.943 543.932L125.122 542.061Z" fill="url(#paint17_linear_1185_19039)"/>
<g opacity="0.2">
<path d="M183.842 643.994L163.454 542.905L56.577 557.011L47.1712 563.587L145.154 553.37L170.716 650.863L183.842 643.994Z" fill="white"/>
<path d="M125.121 542.061L77.7447 569.471L97.0429 669.759L81.5674 671.801L57.6287 572.441L110.942 543.932L125.121 542.061Z" fill="white"/>
</g>
<path opacity="0.2" d="M163.572 543.795L145.185 553.602L170.759 651.192L183.901 644.439L163.572 543.795Z" fill="black"/>
<path opacity="0.1" d="M57.6878 572.886L77.7757 569.703L97.0433 669.759L81.5678 671.801L57.6878 572.886Z" fill="black"/>
<path d="M94.1504 554.197C94.1504 554.197 62.2387 536.091 50.3513 543.249C40.9608 548.897 44.1249 561.686 69.7671 561.667C60.4201 563.766 49.4188 566.754 43.0627 570.19L62.3743 569.925C73.3751 565.308 84.7321 561.591 96.3337 558.81C97.1028 560.892 97.3968 563.119 97.1941 565.329L110.065 562.489C110.065 562.489 105.713 559.343 102.263 557.063C116.981 553.605 148.288 544.612 149.646 530.144C151.418 511.213 107.014 529.532 94.1504 554.197ZM50.8389 546.944C53.257 541.704 92.544 556.043 92.544 556.043C75.608 560.738 48.4015 552.186 50.8389 546.944ZM97.563 554.554C97.563 554.554 133.206 521.154 143.553 526.185C153.901 531.216 109.61 554.125 97.5824 554.551L97.563 554.554Z" fill="url(#paint18_linear_1185_19039)"/>
<path opacity="0.1" d="M94.1504 554.197C94.1504 554.197 62.2387 536.091 50.3513 543.249C40.9608 548.897 44.1249 561.686 69.7671 561.667C60.4201 563.766 49.4188 566.754 43.0627 570.19L62.3743 569.925C73.3751 565.308 84.7321 561.591 96.3337 558.81C97.1028 560.892 97.3968 563.119 97.1941 565.329L110.065 562.489C110.065 562.489 105.713 559.343 102.263 557.063C116.981 553.605 148.288 544.612 149.646 530.144C151.418 511.213 107.014 529.532 94.1504 554.197ZM50.8389 546.944C53.257 541.704 92.544 556.043 92.544 556.043C75.608 560.738 48.4015 552.186 50.8389 546.944ZM97.563 554.554C97.563 554.554 133.206 521.154 143.553 526.185C153.901 531.216 109.61 554.125 97.5824 554.551L97.563 554.554Z" fill="white"/>
<defs>
<filter id="filter0_i_1185_19039" x="172.307" y="128.751" width="295.62" height="162.063" filterUnits="userSpaceOnUse" color-interpolation-filters="sRGB">
<feFlood flood-opacity="0" result="BackgroundImageFix"/>
<feBlend mode="normal" in="SourceGraphic" in2="BackgroundImageFix" result="shape"/>
<feColorMatrix in="SourceAlpha" type="matrix" values="0 0 0 0 0 0 0 0 0 0 0 0 0 0 0 0 0 0 127 0" result="hardAlpha"/>
<feOffset dy="24"/>
<feGaussianBlur stdDeviation="17"/>
<feComposite in2="hardAlpha" operator="arithmetic" k2="-1" k3="1"/>
<feColorMatrix type="matrix" values="0 0 0 0 0 0 0 0 0 0 0 0 0 0 0 0 0 0 0.18 0"/>
<feBlend mode="normal" in2="shape" result="effect1_innerShadow_1185_19039"/>
</filter>
<linearGradient id="paint0_linear_1185_19039" x1="417.652" y1="50.5557" x2="316.255" y2="243.626" gradientUnits="userSpaceOnUse">
<stop stop-opacity="0.27"/>
<stop offset="1"/>
</linearGradient>
<linearGradient id="paint1_linear_1185_19039" x1="219.652" y1="439.441" x2="373.975" y2="444.117" gradientUnits="userSpaceOnUse">
<stop stop-color="#3DB3FC"/>
<stop offset="0.452482" stop-color="#5C80FA"/>
<stop offset="1" stop-color="#936BF9"/>
</linearGradient>
<linearGradient id="paint2_linear_1185_19039" x1="236.196" y1="469.621" x2="317.022" y2="472.149" gradientUnits="userSpaceOnUse">
<stop stop-color="#3DB3FC"/>
<stop offset="0.452482" stop-color="#5C80FA"/>
<stop offset="1" stop-color="#936BF9"/>
</linearGradient>
<linearGradient id="paint3_linear_1185_19039" x1="236.196" y1="469.621" x2="317.022" y2="472.149" gradientUnits="userSpaceOnUse">
<stop stop-color="#3DB3FC"/>
<stop offset="0.452482" stop-color="#5C80FA"/>
<stop offset="1" stop-color="#936BF9"/>
</linearGradient>
<linearGradient id="paint4_linear_1185_19039" x1="236.196" y1="469.621" x2="317.022" y2="472.149" gradientUnits="userSpaceOnUse">
<stop stop-color="#3DB3FC"/>
<stop offset="0.452482" stop-color="#5C80FA"/>
<stop offset="1" stop-color="#936BF9"/>
</linearGradient>
<linearGradient id="paint5_linear_1185_19039" x1="236.196" y1="469.621" x2="317.022" y2="472.149" gradientUnits="userSpaceOnUse">
<stop stop-color="#3DB3FC"/>
<stop offset="0.452482" stop-color="#5C80FA"/>
<stop offset="1" stop-color="#936BF9"/>
</linearGradient>
<linearGradient id="paint6_linear_1185_19039" x1="183.296" y1="435.157" x2="320.511" y2="438.647" gradientUnits="userSpaceOnUse">
<stop stop-color="#3DB3FC"/>
<stop offset="0.452482" stop-color="#5C80FA"/>
<stop offset="1" stop-color="#936BF9"/>
</linearGradient>
<linearGradient id="paint7_linear_1185_19039" x1="118.427" y1="413.971" x2="33.4376" y2="416.547" gradientUnits="userSpaceOnUse">
<stop stop-color="#3DB3FC"/>
<stop offset="0.452482" stop-color="#5C80FA"/>
<stop offset="1" stop-color="#936BF9"/>
</linearGradient>
<linearGradient id="paint8_linear_1185_19039" x1="61.4084" y1="403.881" x2="106.643" y2="405.349" gradientUnits="userSpaceOnUse">
<stop stop-color="#3DB3FC"/>
<stop offset="0.452482" stop-color="#5C80FA"/>
<stop offset="1" stop-color="#936BF9"/>
</linearGradient>
<linearGradient id="paint9_linear_1185_19039" x1="61.4084" y1="403.881" x2="106.643" y2="405.349" gradientUnits="userSpaceOnUse">
<stop stop-color="#3DB3FC"/>
<stop offset="0.452482" stop-color="#5C80FA"/>
<stop offset="1" stop-color="#936BF9"/>
</linearGradient>
<linearGradient id="paint10_linear_1185_19039" x1="61.4084" y1="403.881" x2="106.643" y2="405.349" gradientUnits="userSpaceOnUse">
<stop stop-color="#3DB3FC"/>
<stop offset="0.452482" stop-color="#5C80FA"/>
<stop offset="1" stop-color="#936BF9"/>
</linearGradient>
<linearGradient id="paint11_linear_1185_19039" x1="61.4084" y1="403.881" x2="106.643" y2="405.349" gradientUnits="userSpaceOnUse">
<stop stop-color="#3DB3FC"/>
<stop offset="0.452482" stop-color="#5C80FA"/>
<stop offset="1" stop-color="#936BF9"/>
</linearGradient>
<linearGradient id="paint12_linear_1185_19039" x1="138.45" y1="411.612" x2="62.8815" y2="413.534" gradientUnits="userSpaceOnUse">
<stop stop-color="#3DB3FC"/>
<stop offset="0.452482" stop-color="#5C80FA"/>
<stop offset="1" stop-color="#936BF9"/>
</linearGradient>
<linearGradient id="paint13_linear_1185_19039" x1="105.613" y1="563.533" x2="157.046" y2="631.242" gradientUnits="userSpaceOnUse">
<stop stop-color="#3DB3FC"/>
<stop offset="0.452482" stop-color="#5C80FA"/>
<stop offset="1" stop-color="#936BF9"/>
</linearGradient>
<linearGradient id="paint14_linear_1185_19039" x1="93.1071" y1="584.341" x2="119.74" y2="620.12" gradientUnits="userSpaceOnUse">
<stop stop-color="#3DB3FC"/>
<stop offset="0.452482" stop-color="#5C80FA"/>
<stop offset="1" stop-color="#936BF9"/>
</linearGradient>
<linearGradient id="paint15_linear_1185_19039" x1="94.8577" y1="546.48" x2="140.875" y2="606.451" gradientUnits="userSpaceOnUse">
<stop stop-color="#3DB3FC"/>
<stop offset="0.452482" stop-color="#5C80FA"/>
<stop offset="1" stop-color="#936BF9"/>
</linearGradient>
<linearGradient id="paint16_linear_1185_19039" x1="44.3362" y1="602.48" x2="179.208" y2="591.493" gradientUnits="userSpaceOnUse">
<stop stop-color="#3DB3FC"/>
<stop offset="0.452482" stop-color="#5C80FA"/>
<stop offset="1" stop-color="#936BF9"/>
</linearGradient>
<linearGradient id="paint17_linear_1185_19039" x1="56.878" y1="600.991" x2="133.271" y2="592.837" gradientUnits="userSpaceOnUse">
<stop stop-color="#3DB3FC"/>
<stop offset="0.452482" stop-color="#5C80FA"/>
<stop offset="1" stop-color="#936BF9"/>
</linearGradient>
<linearGradient id="paint18_linear_1185_19039" x1="33.4982" y1="551.43" x2="153.027" y2="551.161" gradientUnits="userSpaceOnUse">
<stop stop-color="#3DB3FC"/>
<stop offset="0.452482" stop-color="#5C80FA"/>
<stop offset="1" stop-color="#936BF9"/>
</linearGradient>
</defs>
</svg>
