<svg width="74" height="74" viewBox="0 0 74 74" fill="none" xmlns="http://www.w3.org/2000/svg">
<mask id="mask0_1261_4710" style="mask-type:alpha" maskUnits="userSpaceOnUse" x="0" y="0" width="74" height="74">
<circle cx="37" cy="37" r="37" fill="#D9D9D9"/>
</mask>
<g mask="url(#mask0_1261_4710)">
<path d="M12.0367 69.9228C6.49593 71.1114 -7.73504 77.8164 -8.54572 88.9924C-8.58568 89.5432 -9.02958 89.9927 -9.58186 89.9927L-17.7012 89.9927C-18.3573 89.9927 -18.8361 89.3719 -18.6504 88.7425C-15.3232 77.4632 -7.07249 65.6179 10.6686 61.4967C17.9913 59.9258 32.0144 51.7375 33.6561 31.4133C33.7196 30.6264 32.8735 30.1086 32.1903 30.5043L23.0558 35.7939C22.5779 36.0707 21.9661 35.9076 21.6893 35.4297L18.6174 30.125C18.3406 29.6471 18.5037 29.0352 18.9817 28.7585L41.875 15.5012C42.3529 15.2244 42.9648 15.3875 43.2415 15.8654L56.4989 38.7588C56.7756 39.2367 56.6126 39.8485 56.1346 40.1253L50.8299 43.1972C50.352 43.474 49.7402 43.3109 49.4634 42.833L44.8738 34.9074C44.3767 34.0489 43.0204 34.3535 42.8939 35.3374C41.2247 48.3147 33.7173 64.8864 12.0367 69.9228Z" fill="white" fill-opacity="0.3"/>
</g>
</svg>
