<svg width="18" height="18" viewBox="0 0 18 18" fill="none" xmlns="http://www.w3.org/2000/svg">
<path fill-rule="evenodd" clip-rule="evenodd" d="M14.5353 3.89959C14.7069 3.82734 14.8948 3.80242 15.0793 3.82743C15.2639 3.85243 15.4384 3.92645 15.5846 4.04176C15.7309 4.15708 15.8435 4.30949 15.9109 4.48312C15.9782 4.65675 15.9978 4.84526 15.9676 5.02903L14.3922 14.5848C14.2394 15.5066 13.228 16.0352 12.3827 15.576C11.6755 15.1919 10.6253 14.6001 9.68062 13.9826C9.20828 13.6735 7.7614 12.6837 7.93923 11.9793C8.09204 11.3771 10.5232 9.11404 11.9124 7.76858C12.4577 7.23998 12.209 6.93504 11.5651 7.42127C9.96611 8.62851 7.39882 10.4644 6.55 10.9812C5.80121 11.4368 5.41083 11.5146 4.94405 11.4368C4.09246 11.2951 3.30269 11.0756 2.65808 10.8082C1.78704 10.447 1.82941 9.24949 2.65739 8.9008L14.5353 3.89959Z" fill="url(#paint0_linear_263_4083)"/>
<defs>
<linearGradient id="paint0_linear_263_4083" x1="1.13805" y1="8.61997" x2="16.2347" y2="9.38316" gradientUnits="userSpaceOnUse">
<stop stop-color="#3DB3FC"/>
<stop offset="0.452482" stop-color="#5C80FA"/>
<stop offset="1" stop-color="#936BF9"/>
</linearGradient>
</defs>
</svg>
