<svg width="135" height="135" viewBox="0 0 135 135" fill="none" xmlns="http://www.w3.org/2000/svg">
<path d="M16.0649 39.0452C16.0649 38.0629 16.5909 37.1559 17.4434 36.668L67.8956 7.79119C69.7216 6.74606 71.9953 8.06443 71.9953 10.1684V21.9926C71.9953 23.7086 69.8131 24.8657 68.0972 24.8657C64.5433 24.8657 61.6624 27.7467 61.6624 31.3006C61.6624 33.3291 62.601 35.1384 64.0677 36.3178C64.931 37.0121 65.6368 37.9706 65.6368 39.0785V44.9657C65.6368 46.4784 64.4105 47.7047 62.8977 47.7047H39.1999C35.6896 47.7047 32.844 50.5504 32.844 54.0606V70.5552C32.844 71.0794 32.3725 71.475 31.8483 71.475C28.4513 71.475 25.6974 74.2289 25.6974 77.6259C25.6974 81.023 28.4513 83.7769 31.8483 83.7769C32.3725 83.7769 32.844 84.1725 32.844 84.6967V97.1238C32.844 100.634 35.6896 103.48 39.1999 103.48H39.7872C42.9922 103.48 43.5893 108.04 40.4922 108.865L19.5091 114.455C17.7704 114.919 16.0649 113.608 16.0649 111.809V39.0452Z" fill="white"/>
<path d="M65.8787 103.48C64.3659 103.48 63.1396 104.706 63.1396 106.219V124.746C63.1396 126.851 65.4159 128.17 67.2419 127.122L117.694 98.1692C118.545 97.6809 119.07 96.7747 119.07 95.7936V23.8123C119.07 22.0129 117.365 20.7023 115.626 21.1655L76.2572 31.6533C75.182 31.9397 74.437 32.8753 73.9882 33.8934C73.5885 34.8003 72.9856 35.5973 72.2371 36.227C71.4138 36.9195 70.7468 37.8576 70.7468 38.9334V44.9657C70.7468 46.4784 71.9731 47.7047 73.4858 47.7047H95.6243C99.1345 47.7047 101.98 50.5504 101.98 54.0606V69.9571C101.98 70.9357 102.958 71.6301 103.936 71.6301C107.333 71.6301 110.087 74.3839 110.087 77.781C110.087 81.178 107.333 83.9319 103.936 83.9319C102.958 83.9319 101.98 84.6263 101.98 85.6048V97.1238C101.98 100.634 99.1345 103.48 95.6243 103.48H65.8787Z" fill="white"/>
<path d="M59.0126 66.3146C59.0126 69.8684 56.1316 72.7494 52.5778 72.7494C49.0239 72.7494 46.143 69.8684 46.143 66.3146C46.143 62.7607 49.0239 59.8798 52.5778 59.8798C56.1316 59.8798 59.0126 62.7607 59.0126 66.3146Z" fill="white"/>
<path d="M80.9667 72.7494C84.5205 72.7494 87.4015 69.8684 87.4015 66.3146C87.4015 62.7607 84.5205 59.8798 80.9667 59.8798C77.4128 59.8798 74.5319 62.7607 74.5319 66.3146C74.5319 69.8684 77.4128 72.7494 80.9667 72.7494Z" fill="white"/>
</svg>
