<svg width="310" height="388" viewBox="0 0 310 388" fill="none" xmlns="http://www.w3.org/2000/svg">
<g opacity="0.1">
<path d="M308.581 197.763C308.212 196.502 308.096 195.18 308.24 193.874C308.132 192.571 308.284 191.259 308.689 190.016C309.08 191.267 309.201 192.587 309.045 193.889C309.162 195.199 309.003 196.518 308.581 197.763Z" fill="white"/>
<path d="M307.729 213.232C307.374 210.639 307.563 208 308.286 205.484C308.643 208.078 308.453 210.717 307.729 213.232Z" fill="white"/>
<path d="M305.884 228.615C305.658 227.325 305.695 226.002 305.992 224.726C306.038 223.414 306.344 222.123 306.891 220.93C307.135 222.224 307.098 223.556 306.783 224.834C306.741 226.142 306.435 227.428 305.884 228.615Z" fill="white"/>
<path d="M303.176 243.928C303.028 242.622 303.144 241.3 303.516 240.039C303.636 238.735 304.021 237.47 304.648 236.32C304.795 237.621 304.679 238.939 304.307 240.194C304.189 241.503 303.804 242.774 303.176 243.928Z" fill="white"/>
<path d="M299.578 258.937C299.68 256.331 300.33 253.776 301.484 251.438C301.382 254.043 300.732 256.599 299.578 258.937Z" fill="white"/>
<path d="M295.086 273.766C295.083 272.455 295.352 271.157 295.876 269.954C296.146 268.674 296.673 267.461 297.426 266.391C297.427 267.702 297.158 269 296.635 270.202C296.376 271.486 295.848 272.701 295.086 273.766Z" fill="white"/>
<path d="M289.723 288.299C289.807 286.993 290.155 285.717 290.745 284.549C291.082 283.28 291.684 282.097 292.512 281.078C292.426 282.389 292.078 283.669 291.489 284.843C291.143 286.104 290.541 287.28 289.723 288.299Z" fill="white"/>
<path d="M283.512 302.496C283.672 301.195 284.093 299.941 284.751 298.808C285.181 297.569 285.849 296.426 286.719 295.445C286.567 296.752 286.145 298.013 285.48 299.149C285.057 300.386 284.388 301.525 283.512 302.496Z" fill="white"/>
<path d="M276.461 316.3C276.707 315.013 277.201 313.787 277.917 312.689C278.925 310.799 279.885 309.343 280.087 309.451C279.855 310.742 279.359 311.971 278.63 313.061C277.639 314.952 276.74 316.408 276.461 316.3Z" fill="white"/>
<path d="M268.617 329.655C268.931 328.381 269.5 327.185 270.291 326.138C271.391 324.31 272.444 322.915 272.646 323.039C272.329 324.312 271.76 325.508 270.972 326.556C269.857 328.385 268.803 329.779 268.617 329.655Z" fill="white"/>
<path d="M260.004 342.537C260.403 341.285 261.039 340.123 261.879 339.112C263.087 337.361 264.219 336.013 264.404 336.168C264.021 337.419 263.389 338.578 262.545 339.577C261.321 341.344 260.19 342.661 260.004 342.537Z" fill="white"/>
<path d="M250.66 354.881C251.113 353.651 251.814 352.528 252.721 351.581C254.038 349.892 255.247 348.637 255.417 348.776C255.588 348.916 254.673 350.326 253.356 352.077C252.039 353.828 250.831 355.021 250.66 354.881Z" fill="white"/>
<path d="M240.605 366.658C240.434 366.503 241.441 365.108 242.852 363.559C244.262 362.009 245.548 360.77 245.718 360.909C245.889 361.049 244.881 362.459 243.456 364.086C242.03 365.713 240.76 366.797 240.605 366.658Z" fill="white"/>
<path d="M229.866 377.82C229.711 377.665 230.796 376.27 232.299 374.721C233.802 373.171 235.15 372.102 235.321 372.257C235.491 372.412 234.391 373.807 232.872 375.356C231.354 376.906 230.021 377.975 229.866 377.82Z" fill="white"/>
<path d="M218.51 388.342C218.355 388.172 219.532 386.886 221.113 385.46C222.693 384.035 224.119 382.996 224.212 383.167C224.305 383.337 223.205 384.623 221.609 386.049C220.013 387.474 218.649 388.513 218.51 388.342Z" fill="white"/>
<path d="M232.75 5.07081C232.595 5.22576 231.201 4.14109 229.651 2.65356C228.639 1.8208 227.797 0.800059 227.172 -0.352454C227.327 -0.507404 228.721 0.577236 230.271 2.08025C231.82 3.58327 232.905 4.91586 232.75 5.07081Z" fill="white"/>
<path d="M243.303 16.3971C243.133 16.552 241.847 15.3899 240.406 13.8094C238.965 12.2289 237.942 10.8189 238.112 10.7104C238.283 10.6019 239.569 11.7176 241.01 13.3136C242.451 14.9095 243.474 16.2576 243.303 16.3971Z" fill="white"/>
<path d="M253.186 28.3297C253 28.4692 251.776 27.2296 250.443 25.5716C249.523 24.6356 248.801 23.5236 248.32 22.3021C248.506 22.1472 249.73 23.3868 251.063 25.0603C251.983 25.9963 252.705 27.1083 253.186 28.3297Z" fill="white"/>
<path d="M262.345 40.8167C262.159 40.9407 260.997 39.6236 259.773 37.8881C258.909 36.9046 258.256 35.7552 257.852 34.5102C258.038 34.3708 259.184 35.6723 260.424 37.4233C261.279 38.4182 261.932 39.571 262.345 40.8167Z" fill="white"/>
<path d="M270.743 53.8196C270.557 53.928 269.488 52.549 268.357 50.7205C267.555 49.68 266.97 48.4892 266.637 47.2187C266.823 47.0947 267.907 48.4738 269.038 50.3177C269.847 51.3515 270.428 52.545 270.743 53.8196Z" fill="white"/>
<path d="M278.382 67.2848C278.181 67.3933 277.189 65.9522 276.167 64.0773C275.415 63.0006 274.888 61.7832 274.617 60.498C274.819 60.3895 275.81 61.8151 276.833 63.69C277.589 64.7701 278.116 65.9934 278.382 67.2848Z" fill="white"/>
<path d="M285.199 81.2303C284.309 80.2674 283.624 79.1341 283.185 77.8989C282.506 76.7772 282.068 75.5266 281.898 74.2266C282.788 75.1895 283.473 76.3228 283.913 77.558C284.596 78.6777 285.034 79.9292 285.199 81.2303Z" fill="white"/>
<path d="M291.195 95.4476C290.36 94.438 289.743 93.267 289.382 92.0077C288.764 90.8532 288.399 89.5801 288.312 88.2734C289.141 89.2874 289.757 90.4571 290.125 91.7133C290.741 92.8689 291.105 94.1415 291.195 95.4476Z" fill="white"/>
<path d="M296.324 110.063C295.58 108.999 295.053 107.799 294.774 106.531C294.24 105.33 293.955 104.033 293.938 102.719C294.68 103.789 295.206 104.995 295.487 106.267C296.03 107.459 296.315 108.753 296.324 110.063Z" fill="white"/>
<path d="M300.585 124.953C299.403 122.63 298.717 120.087 298.57 117.484C299.752 119.807 300.438 122.351 300.585 124.953Z" fill="white"/>
<path d="M303.964 140.108C302.937 137.709 302.41 135.125 302.414 132.516C303.065 133.659 303.471 134.926 303.607 136.234C303.988 137.488 304.109 138.806 303.964 140.108Z" fill="white"/>
<path d="M306.441 155.373C305.857 154.195 305.53 152.906 305.481 151.592C305.165 150.32 305.107 148.998 305.31 147.703C306.22 150.179 306.605 152.818 306.441 155.451V155.373Z" fill="white"/>
<path d="M308.009 170.771C307.496 169.567 307.242 168.268 307.265 166.959C307.005 165.671 307.005 164.343 307.265 163.055C307.778 164.264 308.031 165.568 308.009 166.882C308.27 168.165 308.27 169.488 308.009 170.771Z" fill="white"/>
<path d="M308.673 186.255C308.229 185.021 308.055 183.705 308.161 182.397C307.996 181.1 308.09 179.783 308.44 178.523C308.886 179.758 309.066 181.073 308.967 182.382C309.132 183.68 309.032 184.997 308.673 186.255Z" fill="white"/>
<path d="M287.785 200.772C287.925 197.998 288.002 195.256 288.018 192.498C288.033 189.739 288.018 186.702 288.018 183.82C288.018 186.702 288.095 189.6 288.018 192.498C287.94 195.395 287.925 197.998 287.785 200.772Z" fill="black"/>
<path d="M261.119 231.315C259.57 225.643 259.849 219.693 259.105 213.883C258.702 210.784 257.757 207.359 255.138 205.624C253.403 204.477 251.187 204.276 249.297 203.393C242.494 200.294 241.999 190.036 235.723 185.992C233.671 184.869 231.462 184.065 229.169 183.605C220.321 181.235 211.458 176.788 206.825 168.901C205.275 166.344 204.284 163.446 202.269 161.262C200.255 159.077 196.769 157.744 194.243 159.325C195.606 163.4 196.908 167.46 198.225 171.488C199.449 175.161 200.673 178.941 203.168 181.855C205.663 184.768 209.738 186.766 213.426 185.666C214.592 185.088 215.893 184.836 217.191 184.938C218.086 185.267 218.83 185.911 219.283 186.751C223.404 192.949 220.507 201.657 214.913 206.523C209.319 211.388 201.882 213.201 194.77 214.921C192.243 215.752 189.538 215.881 186.945 215.293C182.374 213.743 180.607 208.258 179.894 203.455C178.345 192.841 178.345 181.576 173.356 172.077C171.729 169.087 169.575 166.251 168.816 162.92C168.025 159.325 168.908 155.374 167.266 152.073C165.624 148.773 161.347 146.138 161.595 142.296C161.781 139.615 164.322 137.647 166.925 136.795C169.528 135.943 172.302 136.02 174.967 135.354C176.005 135.075 177.214 134.517 177.415 133.464C177.632 131.914 175.525 130.907 175.168 129.342C174.812 127.777 176.718 126.243 177.694 124.693C179.801 121.191 176.47 116.868 172.922 114.808C169.373 112.747 165.066 110.996 163.842 107.06C163.456 105.217 163.31 103.331 163.408 101.451C163.206 96.7248 160.464 91.7974 155.939 90.3564C151.415 88.9153 145.619 92.3242 145.712 97.0657C145.712 99.6689 147.401 101.931 148.099 104.426C148.796 106.921 148.006 110.391 145.464 110.794C141.296 111.43 138.523 103.589 134.819 105.603C135.501 110.484 136.167 115.35 136.849 120.246C131.225 122.152 125.646 116.419 124.205 110.624C122.764 104.829 123.57 98.6307 121.664 93.006C119.758 87.3813 113.157 82.3919 108.06 85.4599C106.866 92.1848 115.389 96.2135 118.55 102.241C120.827 106.611 119.479 112.964 114.908 114.869C110.337 116.775 104.341 111.445 106.603 107.122C107.409 105.573 108.927 104.472 109.33 102.783C109.795 100.676 108.245 98.7082 106.82 97.1122C104.589 94.571 102.342 92.0763 100.111 89.5816C98.762 87.8638 97.0809 86.4355 95.1676 85.3825C90.1472 83.1047 84.3211 86.5911 80.8502 90.8677C77.3793 95.1443 75.0396 100.459 70.639 103.822C64.3015 108.718 53.8114 107.556 49.5038 100.831C45.1961 94.1062 49.5038 83.3371 57.3907 82.237C60.3968 81.8496 64.0226 82.4539 65.913 80.1296C69.2289 75.9925 62.4576 69.1282 65.7425 64.9445C68.2682 61.7371 73.3506 64.1078 77.3948 63.488C81.439 62.8682 84.1197 59.3043 86.8933 56.2983C89.6669 53.2923 93.6181 50.4876 97.4454 51.9287C97.2484 49.5577 97.7379 47.1802 98.8554 45.0799C100.188 43.0965 103.287 42.1513 104.976 43.7938C102.59 46.7069 104.263 51.5413 107.409 53.5557C110.554 55.57 114.567 55.8334 118.348 55.9574C122.129 56.0814 126.994 55.3531 127.847 51.6653C128.126 50.4722 127.847 49.1086 128.482 48.0394C130.76 43.8403 138.073 51.1384 141.746 48.0394C143.838 46.4899 142.304 42.8486 139.855 41.8414C137.407 40.8342 134.68 41.3921 132.108 41.0977C129.536 40.8033 126.561 39.0213 126.824 36.4492C127.087 33.877 130.186 32.4824 130.853 30.0187C131.968 25.8351 124.903 23.6812 121.866 26.7803C118.829 29.8793 119.045 34.7447 119.185 39.0678C119.324 43.3909 119.045 48.3648 115.497 50.937C113.87 52.7654 110.57 51.2004 109.748 48.9072C108.927 46.6139 109.516 44.0727 109.671 41.64C109.826 39.2073 109.16 36.2942 106.897 35.318C105.348 34.6207 103.473 35.1631 101.768 35.1476C95.0436 34.9926 91.6812 25.8505 94.6873 19.7765C97.6933 13.7024 104.232 10.4795 110.523 8.15522C115.172 6.41978 120.703 5.05622 124.577 7.96929C126.39 9.36384 127.49 11.4557 129.226 12.8812C132.325 15.3449 136.524 15.221 140.351 15.8408C146.397 16.9277 151.881 20.0696 155.877 24.7349C157.427 26.5323 158.573 29.3834 156.977 31.0259C155.381 32.6684 151.043 32.5754 151.43 35.0236C152.503 35.4955 153.663 35.7355 154.834 35.7279C156.006 35.7204 157.163 35.4654 158.229 34.9798C159.296 34.4941 160.248 33.7887 161.022 32.9098C161.797 32.0308 162.378 30.9981 162.726 29.8793C163.752 30.5433 164.586 31.4654 165.143 32.5533C165.701 33.6411 165.963 34.8564 165.902 36.0773C167.319 35.0934 168.926 34.4161 170.62 34.0888C172.314 33.7614 174.057 33.7912 175.739 34.1763C177.421 34.5613 179.003 35.2931 180.386 36.3248C181.768 37.3566 182.92 38.6655 183.768 40.168C184.386 41.905 185.304 43.5203 186.48 44.9404C187.859 46.149 190.586 46.0406 191.035 44.2741C191.166 43.7083 191.166 43.12 191.035 42.5542C190.493 39.8426 189.92 37.1619 189.377 34.4813C193.174 33.1022 196.923 36.6661 198.86 40.199C206.035 53.3697 213.41 47.1562 225.651 50.906C233.941 53.4162 236.885 59.3973 240.712 66.649C252.458 88.9773 269.425 108.346 279.698 131.387C280.731 133.794 281.712 136.222 282.642 138.67C282.503 138.066 282.394 137.477 282.239 136.872C279.022 122.409 274.446 108.282 268.573 94.6795C267.323 91.7974 266.031 88.936 264.699 86.0952C263.862 84.3443 262.994 82.5624 262.127 80.8424C261.011 78.5801 259.818 76.3953 258.625 74.2105C257.68 72.4441 256.719 70.7087 255.727 69.0197C255.045 67.8266 254.333 66.649 253.604 65.4559C252.876 64.2627 252.055 62.7907 251.156 61.4581L248.506 57.3055C248.24 56.8615 247.951 56.4322 247.639 56.0194C246.724 54.5783 245.733 53.1528 244.741 51.7273C244.678 51.5616 244.577 51.413 244.447 51.2934C244.199 50.906 243.904 50.5186 243.61 50.1313C242.82 48.9226 241.937 47.745 241.1 46.5829C239.705 44.677 238.28 42.7711 236.792 40.9272C235.599 39.3777 234.344 37.8282 233.058 36.2787C231.772 34.7292 230.811 33.5516 229.649 32.219C228.487 30.8864 227.387 29.6004 226.225 28.3143C224.815 26.7648 223.389 25.2152 221.901 23.5728C217.826 19.2187 213.596 15.035 209.196 11.0683C208.111 10.0611 207.042 9.08494 205.942 8.12425C204.841 7.16355 203.71 6.17186 202.595 5.22666C201.479 4.28146 200.363 3.32078 199.201 2.40658C198.039 1.49237 196.923 0.531664 195.777 -0.367047C194.63 -1.26576 193.933 -1.83907 192.988 -2.52086C192.526 -2.91181 192.045 -3.27898 191.547 -3.62099C189.563 -5.17049 187.533 -6.72001 185.488 -8.06808C184.465 -8.79635 183.443 -9.52461 182.389 -10.2219C181.088 -11.1516 179.739 -12.0348 178.391 -12.887C178.205 -13.0424 178.002 -13.1774 177.787 -13.2899C176.579 -14.0801 175.385 -14.8394 174.13 -15.6451C172.395 -16.6988 170.644 -17.768 168.893 -18.7442C166.894 -19.9218 164.895 -21.0994 162.834 -22.215C160.774 -23.3307 158.31 -24.6942 156.001 -25.8409C153.692 -26.9875 151.353 -28.1806 148.982 -29.2963C146.611 -30.4119 144.24 -31.4501 141.839 -32.5037C137.097 -34.5491 132.247 -36.455 127.351 -38.2059L127.087 -38.3144C125.213 -38.9806 123.322 -39.6315 121.432 -40.2203C121.315 -40.2845 121.19 -40.3314 121.06 -40.3597C120.254 -40.6231 119.402 -40.902 118.55 -41.15C115.017 -42.2811 111.453 -43.2883 107.827 -44.249C107.394 -44.3846 106.954 -44.4984 106.51 -44.5899C105.472 -44.8998 104.418 -45.1322 103.333 -45.3956C100.947 -45.9844 98.5301 -46.5267 96.0973 -47.0226C93.6646 -47.5184 90.9995 -48.0762 88.4428 -48.5721C85.8861 -49.0679 83.066 -49.5018 80.3698 -49.8892C73.2318 -50.9222 66.1196 -51.6298 59.0332 -52.012C57.3442 -52.1359 55.7018 -52.2134 54.0283 -52.2599C52.3548 -52.3064 50.5574 -52.3839 48.822 -52.3994C47.0865 -52.4149 45.3356 -52.3994 43.6311 -52.3994C41.9267 -52.3994 40.1603 -52.3993 38.4093 -52.3064C36.9373 -52.3064 35.4188 -52.3064 33.9313 -52.136C30.2538 -51.9603 26.6124 -51.7124 23.0072 -51.3922C21.3183 -51.2527 19.6293 -51.0668 17.9249 -50.8499C16.2204 -50.6329 14.5315 -50.447 12.8735 -50.2146C10.0689 -49.8427 7.32628 -49.3933 4.58366 -48.9285L-2.11021 -47.6889H-2.26515C-4.54292 -47.2395 -6.7432 -46.7437 -8.98998 -46.2168H-9.34639C-11.4072 -45.7365 -13.4526 -45.2252 -15.4669 -44.6673C-18.0081 -44.032 -20.5183 -43.3038 -22.982 -42.5755C-25.0893 -41.9557 -27.1657 -41.3204 -29.18 -40.6386C-31.1944 -39.9568 -33.5806 -39.1821 -35.7499 -38.4074L-35.9824 -38.3299C-38.0742 -37.5861 -40.166 -36.7804 -42.1804 -35.9746C-44.1947 -35.1689 -46.4105 -34.3012 -48.5333 -33.3715C-50.5167 -32.5347 -52.4536 -31.698 -54.4059 -30.8148C-55.1497 -30.4894 -55.8625 -30.133 -56.6217 -29.7766C-58.6826 -28.8314 -60.6969 -27.8397 -62.8197 -26.8171C-65.3299 -25.5929 -67.7626 -24.2759 -70.1954 -22.9588C-72.3492 -21.7967 -74.4565 -20.588 -76.5328 -19.3794C-88.5682 -12.3832 -99.9785 -4.36327 -110.637 4.59136C-114.387 7.69036 -117.951 10.9133 -121.484 14.1983C-124.443 17.0339 -127.341 19.9005 -130.146 22.9065C-129.526 22.9065 -128.906 22.9065 -128.302 22.9065C-124.846 23.1389 -121.252 23.7742 -117.951 22.736C-114.852 21.7444 -112.528 19.4821 -109.677 18.0875C-102.394 14.3377 -91.4391 14.9885 -88.5105 7.38047C-87.5188 4.80829 -87.8132 1.81775 -86.4651 -0.583977C-83.924 -5.06204 -77.478 -4.8296 -72.3957 -4.00837C-70.2264 -3.69846 -67.7472 -3.03218 -67.0189 -0.909359C-66.8469 -0.161036 -66.8353 0.61521 -66.9848 1.36834C-67.1344 2.12147 -67.4417 2.83441 -67.8866 3.46023C-72.3487 11.9232 -79.5873 18.5928 -88.3865 22.3487C-95.5762 25.4477 -104.641 27.2916 -107.554 34.5433C-107.012 37.2239 -102.348 37.6423 -102.363 40.4159C-102.363 42.5852 -105.292 43.2825 -106.562 45.0644C-108.406 47.6211 -105.586 51.4793 -102.41 51.7892C-99.2331 52.0991 -96.289 50.2397 -93.6548 48.3958C-85.8144 42.9726 -77.571 37.1154 -73.7437 28.3608C-72.1942 24.7504 -71.1096 20.3963 -67.7162 18.3355C-66.6828 17.8108 -65.542 17.5327 -64.3831 17.5231C-63.2242 17.5134 -62.0789 17.7725 -61.037 18.28C-59.9951 18.7874 -59.085 19.5294 -58.378 20.4477C-57.6711 21.3661 -57.1866 22.4357 -56.9626 23.5728C-53.7087 22.3332 -48.8587 21.7599 -47.7586 25.1223C-47.5801 26.3326 -47.5334 27.5587 -47.6191 28.7791C-47.3402 33.784 -41.0182 36.945 -41.0337 41.9499C-41.0337 47.714 -48.7812 49.5889 -54.5299 49.6974C-59.7672 49.6974 -65.0045 49.8059 -70.2574 49.8988C-72.542 49.7351 -74.8325 50.123 -76.9357 51.03C-77.9755 51.5206 -78.8162 52.3523 -79.3179 53.3868C-79.8197 54.4213 -79.9523 55.5963 -79.6938 56.7166C-79.0741 57.8413 -78.3139 58.8827 -77.4316 59.8157C-73.7902 64.6811 -78.5627 72.9399 -84.5903 72.2117C-86.6511 71.9793 -88.557 70.9411 -90.5868 70.5692C-96.6299 69.4226 -102.224 74.0711 -105.896 79.014C-109.568 83.9569 -112.605 89.7521 -117.982 92.6961C-126.659 97.4531 -139.954 94.1372 -145.052 102.628C-147.097 106.053 -146.896 110.267 -146.849 114.265C-146.803 118.263 -147.175 122.602 -149.948 125.499C-152.722 128.397 -158.595 128.195 -159.757 124.383C-160.091 122.676 -159.913 120.908 -159.245 119.301C-157.531 113.816 -155.831 108.325 -154.147 102.83C-152.892 98.7392 -151.653 94.1527 -153.621 90.4338C-156.394 85.15 -164.204 84.4838 -169.24 87.6757C-174.275 90.8677 -176.987 96.6009 -179.048 102.148C-180.597 106.27 -182.519 112.127 -185.571 116.636C-187.121 121.284 -188.391 125.933 -189.585 130.674C-190.778 135.416 -191.831 140.405 -192.684 145.379C-191.92 144.907 -191.185 144.39 -190.483 143.83C-187.741 141.707 -181.403 131.961 -177.808 137.709C-177.376 138.46 -177.202 139.333 -177.314 140.192C-177.426 141.052 -177.817 141.851 -178.428 142.466C-179.978 144.016 -182.72 144.016 -184.006 145.689C-185.556 147.719 -184.239 150.709 -182.457 152.445C-180.675 154.18 -178.242 155.544 -177.096 157.791C-174.911 162.176 -178.428 167.831 -176.321 172.294C-174.508 176.121 -169.611 177.067 -165.474 178.12L-164.064 178.57C-161.678 170.373 -156.782 164.144 -145.021 163.214C-128.782 161.912 -110.002 177.934 -102.859 191.105C-94.9099 205.794 -92.9421 225.194 -78.7951 234.057C-68.6614 240.379 -53.0269 240.891 -49.3545 252.248C-46.0231 262.429 -55.7695 271.912 -58.5431 282.247C-60.3405 289.096 -59.0699 296.332 -59.5348 303.351C-59.9996 310.37 -63.2846 318.257 -70.0559 320.256C-73.8057 321.341 -78.2218 320.504 -81.4603 322.751C-87.2089 326.811 -84.5593 337.285 -90.2304 341.345C-92.2603 342.755 -94.8789 343.003 -97.1412 343.793C-109.336 347.884 -111.443 364.634 -107.848 376.983C-107.709 377.433 -107.569 377.836 -107.445 378.285C-73.4558 405.913 -32.6151 423.814 10.7352 430.085C49.9968 435.822 90.0671 431.787 127.397 418.34C135.251 415.503 142.952 412.26 150.469 408.624C162.058 403.064 173.178 396.577 183.722 389.224C191.019 384.165 198.023 378.697 204.702 372.846C209.351 368.787 213.891 364.51 218.26 360.109C220.476 357.832 222.676 355.554 224.768 353.168C240.373 336.107 253.421 316.874 263.506 296.068C269.674 283.427 274.704 270.261 278.536 256.727C280.085 251.427 281.402 246.05 282.58 240.596C281.142 241.73 279.494 242.57 277.732 243.067C275.969 243.564 274.126 243.709 272.307 243.494C266.713 242.471 262.669 236.955 261.119 231.315Z" fill="white"/>
<path d="M133.331 323.429C126.002 331.626 123.274 342.813 120.051 353.319C116.829 363.824 112.304 374.857 103.007 380.745C93.7099 386.633 78.6023 384.014 75.4878 373.462C73.7833 367.745 75.9681 361.593 75.4878 355.643C74.8215 347.895 69.6926 341.248 67.8952 333.686C66.3457 327.225 67.3374 320.485 68.0812 313.884C72.2028 277.873 68.8714 239.167 48.2475 209.354C45.7218 205.682 42.7623 202.041 38.6716 200.305C36.2094 199.3 33.5086 199.03 30.8962 199.528C28.2837 200.026 25.8715 201.27 23.9513 203.11C21.6271 205.419 20.124 208.58 17.4124 210.423C11.5088 214.437 2.89356 209.711 0.290395 203.063C-2.31277 196.416 -0.732261 188.947 0.863727 181.99C2.86775 173.354 4.85627 164.723 6.8293 156.098C7.86747 151.589 9.09158 146.801 12.5935 143.702C17.5674 139.379 25.2374 140.262 31.017 137.101C38.5941 132.979 40.9184 123.341 46.2951 116.586C51.6719 109.83 65.6329 108.668 66.4387 117.252C85.1257 88.772 110.104 138.728 129.364 138.031C134.958 137.814 140.644 135.97 146.021 137.535C155.504 140.293 158.96 151.682 160.927 161.366C164.181 177.44 167.44 193.508 170.705 209.571C171.944 215.692 173.695 222.556 179.15 225.624C183.318 227.979 188.632 227.406 192.847 229.668C204.004 235.665 197.496 253.624 186.835 260.457C176.175 267.29 162.074 270.56 155.876 281.592C151.227 289.913 152.421 300.62 147.509 308.801C144.022 314.643 137.886 318.3 133.331 323.429Z" fill="black"/>
<path d="M176.581 339.858C172.629 339.858 168.337 337.27 165.037 339.424C163.1 340.679 162.356 343.081 161.364 345.157C160.067 348.111 157.736 350.491 154.81 351.851C153.341 352.496 151.716 352.702 150.132 352.444C148.548 352.185 147.073 351.473 145.885 350.394C144.764 349.253 144.137 347.717 144.137 346.118C144.137 344.518 144.764 342.982 145.885 341.841C147.089 341.027 148.336 340.277 149.619 339.594C155.445 335.488 153.23 325.974 157.971 320.768C160.776 317.669 164.897 314.771 167.919 311.703C170.243 309.332 171.266 307.334 174.938 307.148C191.006 306.326 193.377 339.997 176.581 339.858Z" fill="black"/>
<path d="M186.863 260.488C197.523 253.655 204.031 235.696 192.875 229.7C188.66 227.437 183.345 228.011 179.177 225.655C173.723 222.556 171.972 215.723 170.732 209.602C167.478 193.529 164.219 177.461 160.955 161.397C158.987 151.713 155.532 140.324 146.049 137.566C140.672 136.017 134.985 137.845 129.392 138.062C110.131 138.759 85.1534 88.8032 66.4664 117.283C65.6761 108.699 51.7306 109.861 46.3228 116.617C40.9151 123.373 38.5753 133.011 31.0447 137.132C25.2651 140.231 17.595 139.41 12.6211 143.733C9.11927 146.832 7.97263 151.589 6.85699 156.129C4.87363 164.755 2.88509 173.385 0.891393 182.021C-0.65811 188.979 -2.20761 196.432 0.318084 203.095C2.84377 209.757 11.5365 214.468 17.4401 210.455C20.1517 208.611 21.6547 205.45 23.979 203.141C25.8991 201.301 28.3114 200.057 30.9238 199.559C33.5363 199.061 36.2371 199.331 38.6993 200.336C42.79 202.072 45.7495 205.713 48.2752 209.386C68.8991 239.198 72.2305 277.905 68.1088 313.915C67.3651 320.516 66.3889 327.256 67.9229 333.718C69.7203 341.279 74.8492 347.927 75.5155 355.674C76.0268 361.624 73.842 367.776 75.5155 373.493C78.6145 384.046 93.7531 386.664 103.035 380.776C112.316 374.888 116.841 363.871 120.079 353.35C123.318 342.829 126.029 331.657 133.358 323.46C137.914 318.378 144.05 314.674 147.567 308.833C152.479 300.651 151.255 289.944 155.935 281.623C162.071 270.56 176.125 267.306 186.863 260.488Z" fill="white"/>
<g opacity="0.6">
<path d="M282.582 138.711C283.284 141.924 283.915 145.136 284.472 148.349C283.915 145.126 283.284 141.913 282.582 138.711Z" fill="black"/>
</g>
<path d="M285.925 221.393C286.405 217.938 286.808 214.498 287.102 211.058C287.397 207.618 287.644 204.193 287.784 200.769C287.923 197.995 288.001 195.253 288.016 192.495C288.032 189.737 288.016 186.7 288.016 183.818C287.824 175.209 287.162 166.617 286.033 158.08C285.599 154.826 285.103 151.572 284.484 148.349C283.864 145.126 283.29 141.919 282.593 138.712C281.705 136.263 280.723 133.836 279.649 131.429C269.376 108.388 252.409 89.0189 240.664 66.6906C236.836 59.4389 233.892 53.4578 225.602 50.9477C213.361 47.1979 205.986 53.4114 198.811 40.2406C196.875 36.7077 193.125 33.1439 189.329 34.5229C189.871 37.2036 190.444 39.8842 190.986 42.5958C191.118 43.1617 191.118 43.7499 190.986 44.3158C190.537 46.0822 187.81 46.1907 186.431 44.9821C185.267 43.5444 184.365 41.9133 183.766 40.1631C182.918 38.6652 181.767 37.3603 180.387 36.3315C179.007 35.3028 177.428 34.5727 175.75 34.1879C174.072 33.8031 172.332 33.7719 170.642 34.0963C168.951 34.4208 167.347 35.0938 165.931 36.0724C165.991 34.8515 165.73 33.6362 165.172 32.5484C164.615 31.4606 163.781 30.5384 162.755 29.8744C162.406 30.9932 161.826 32.026 161.051 32.9049C160.276 33.7839 159.324 34.4893 158.258 34.9749C157.192 35.4605 156.035 35.7155 154.863 35.7231C153.691 35.7306 152.531 35.4906 151.459 35.0187C151.071 32.6015 155.286 32.7875 157.006 31.021C158.726 29.2546 157.378 26.5275 155.906 24.73C151.898 20.0934 146.415 16.9797 140.38 15.9134C136.552 15.2936 132.307 15.4175 129.254 12.9538C127.488 11.5283 126.388 9.43646 124.606 8.04191C120.732 5.05137 115.138 6.4924 110.552 8.22784C104.261 10.6141 97.6754 13.8061 94.7158 19.8491C91.7563 25.8922 95.0722 35.0652 101.797 35.2202C103.502 35.2202 105.361 34.6934 106.926 35.3906C109.188 36.3668 109.855 39.2644 109.7 41.7126C109.545 44.1608 108.894 46.6865 109.777 48.9798C110.66 51.273 113.899 52.838 115.526 51.0096C119.074 48.4994 119.399 43.479 119.213 39.1404C119.028 34.8018 118.888 29.9364 121.894 26.8529C124.9 23.7694 131.997 25.9077 130.881 30.0913C130.215 32.555 127.1 33.9651 126.853 36.5218C126.605 39.0784 129.549 40.9378 132.136 41.1703C134.724 41.4027 137.498 40.9069 139.884 41.914C142.27 42.9212 143.866 46.4851 141.774 48.1121C138.102 51.2111 130.788 43.9284 128.511 48.1121C127.891 49.1812 128.154 50.5448 127.875 51.7379C127.023 55.4257 122.158 56.1075 118.377 56.03C114.596 55.9525 110.629 55.7201 107.437 53.6283C104.245 51.5365 102.618 46.7795 105.005 43.8664C103.316 42.2239 100.217 43.1691 98.884 45.1525C97.7665 47.2528 97.277 49.6304 97.474 52.0013C93.6467 50.5603 89.6335 53.3804 86.9218 56.3709C84.2102 59.3615 81.4211 62.9408 77.4234 63.5606C73.4257 64.1804 68.2968 61.8096 65.7711 65.0171C62.4862 69.2008 69.2575 76.0651 65.9416 80.2023C64.0512 82.5265 60.4253 81.9222 57.4193 82.3096C49.4704 83.3632 45.1937 94.1478 49.5323 100.904C53.8709 107.659 64.3301 108.791 70.6676 103.894C75.0682 100.532 77.4234 95.2479 80.8788 90.9403C84.3342 86.6327 90.1758 83.1928 95.1962 85.4551C97.1094 86.5082 98.7906 87.9364 100.139 89.6542C102.37 92.1489 104.617 94.6436 106.848 97.1848C108.274 98.7343 109.824 100.749 109.359 102.856C108.956 104.545 107.437 105.676 106.632 107.195C104.369 111.564 110.397 116.879 114.937 114.942C119.477 113.005 120.856 106.683 118.578 102.314C115.479 96.2861 106.895 92.2574 108.088 85.5325C113.186 82.4335 119.802 87.4074 121.693 93.0786C123.583 98.7498 122.777 104.948 124.234 110.696C125.69 116.445 131.253 122.225 136.878 120.319C136.196 115.422 135.53 110.557 134.848 105.676C138.551 103.662 141.325 111.502 145.493 110.867C148.034 110.464 148.84 107.009 148.127 104.498C147.414 101.988 145.818 99.7415 145.741 97.1383C145.648 92.3969 151.412 89.0034 155.968 90.429C160.523 91.8545 163.235 96.7974 163.436 101.523C163.339 103.404 163.484 105.289 163.87 107.133C165.094 111.022 169.448 112.788 172.95 114.88C176.452 116.972 179.83 121.264 177.723 124.766C176.778 126.315 174.841 127.602 175.197 129.414C175.553 131.227 177.661 131.94 177.444 133.536C177.242 134.59 176.034 135.086 174.996 135.427C172.33 136.093 169.557 136.031 166.954 136.868C164.351 137.704 161.809 139.688 161.623 142.368C161.375 146.211 165.621 148.69 167.295 152.146C168.968 155.601 168.038 159.397 168.844 162.992C169.603 166.324 171.757 169.19 173.384 172.15C178.435 181.648 178.327 192.913 179.923 203.527C180.636 208.331 182.402 213.816 186.973 215.365C189.567 215.954 192.272 215.825 194.798 214.994C201.972 213.274 209.457 211.414 214.942 206.595C220.427 201.776 223.433 192.96 219.311 186.824C218.859 185.984 218.115 185.339 217.22 185.011C215.922 184.909 214.621 185.16 213.454 185.739C209.766 186.839 205.707 184.902 203.197 181.927C200.686 178.952 199.478 175.233 198.254 171.561C196.937 167.532 195.635 163.473 194.271 159.397C196.797 157.848 200.252 159.134 202.298 161.334C204.343 163.535 205.319 166.417 206.853 168.973C211.502 176.86 220.35 181.369 229.197 183.678C231.49 184.137 233.7 184.942 235.752 186.064C242.027 190.109 242.523 200.304 249.325 203.465C251.216 204.348 253.431 204.55 255.167 205.696C257.786 207.432 258.731 210.825 259.134 213.955C259.877 219.766 259.567 225.716 261.148 231.387C262.728 237.058 266.742 242.544 272.506 243.458C274.325 243.673 276.168 243.528 277.931 243.031C279.693 242.534 281.341 241.694 282.779 240.56C283.848 235.369 284.793 230.148 285.553 224.833C285.692 223.609 285.847 222.509 285.925 221.393Z" fill="white"/>
<path d="M174.922 307.148C171.25 307.334 170.274 309.332 167.903 311.703C164.882 314.802 160.76 317.7 157.955 320.768C153.214 325.974 155.43 335.488 149.604 339.594C148.32 340.277 147.073 341.027 145.869 341.841C144.749 342.982 144.121 344.518 144.121 346.118C144.121 347.717 144.749 349.253 145.869 350.394C147.057 351.473 148.532 352.185 150.116 352.444C151.7 352.702 153.325 352.496 154.794 351.851C157.721 350.491 160.051 348.111 161.349 345.157C162.34 343.081 163.084 340.679 165.021 339.424C168.322 337.27 172.614 339.842 176.565 339.858C193.377 339.997 191.006 306.326 174.922 307.148Z" fill="white"/>
<g opacity="0.3">
<path d="M186.863 260.488C197.523 253.655 204.031 235.696 192.875 229.7C188.66 227.437 183.345 228.011 179.177 225.655C173.723 222.556 171.972 215.723 170.732 209.602C167.478 193.529 164.219 177.461 160.955 161.397C158.987 151.713 155.532 140.324 146.049 137.566C140.672 136.017 134.985 137.845 129.392 138.062C110.131 138.759 85.1534 88.8032 66.4664 117.283C65.6761 108.699 51.7306 109.861 46.3228 116.617C40.9151 123.373 38.5753 133.011 31.0447 137.132C25.2651 140.231 17.595 139.41 12.6211 143.733C9.11927 146.832 7.97263 151.589 6.85699 156.129C4.87363 164.755 2.88509 173.385 0.891393 182.021C-0.65811 188.979 -2.20761 196.432 0.318084 203.095C2.84377 209.757 11.5365 214.468 17.4401 210.455C20.1517 208.611 21.6547 205.45 23.979 203.141C25.8991 201.301 28.3114 200.057 30.9238 199.559C33.5363 199.061 36.2371 199.331 38.6993 200.336C42.79 202.072 45.7495 205.713 48.2752 209.386C68.8991 239.198 72.2305 277.905 68.1088 313.915C67.3651 320.516 66.3889 327.256 67.9229 333.718C69.7203 341.279 74.8492 347.927 75.5155 355.674C76.0268 361.624 73.842 367.776 75.5155 373.493C78.6145 384.046 93.7531 386.664 103.035 380.776C112.316 374.888 116.841 363.871 120.079 353.35C123.318 342.829 126.029 331.657 133.358 323.46C137.914 318.378 144.05 314.674 147.567 308.833C152.479 300.651 151.255 289.944 155.935 281.623C162.071 270.56 176.125 267.306 186.863 260.488Z" fill="black"/>
</g>
<g opacity="0.3">
<path d="M285.925 221.399C286.405 217.944 286.808 214.504 287.103 211.064C287.397 207.624 287.645 204.2 287.784 200.775C287.924 198.002 288.001 195.259 288.017 192.501C288.032 189.743 288.017 186.706 288.017 183.824C287.825 175.215 287.163 166.623 286.033 158.086C285.6 154.832 285.104 151.578 284.484 148.355C283.864 145.132 283.291 141.925 282.593 138.718C281.705 136.269 280.724 133.842 279.649 131.435C269.376 108.394 252.409 89.025 240.664 66.6966C236.837 59.4449 233.893 53.4639 225.603 50.9537C213.362 47.2039 205.986 53.4174 198.812 40.2466C196.875 36.7137 193.125 33.1499 189.329 34.5289C189.871 37.2096 190.445 39.8902 190.987 42.6019C191.118 43.1677 191.118 43.756 190.987 44.3218C190.538 46.0882 187.81 46.1967 186.431 44.9881C185.267 43.5505 184.365 41.9193 183.766 40.1691C182.918 38.6712 181.767 37.3663 180.387 36.3375C179.007 35.3088 177.428 34.5787 175.75 34.1939C174.072 33.8091 172.333 33.7779 170.642 34.1024C168.952 34.4268 167.347 35.0998 165.931 36.0784C165.992 34.8576 165.73 33.6423 165.172 32.5544C164.615 31.4666 163.781 30.5445 162.755 29.8804C162.407 30.9993 161.826 32.032 161.051 32.9109C160.277 33.7899 159.325 34.4953 158.258 34.9809C157.192 35.4666 156.035 35.7215 154.863 35.7291C153.692 35.7366 152.532 35.4966 151.459 35.0248C151.072 32.6075 155.286 32.7935 157.006 31.0271C158.726 29.2606 157.378 26.5335 155.906 24.7361C151.898 20.0995 146.415 16.9858 140.38 15.9194C136.553 15.2996 132.307 15.4236 129.255 12.9599C127.488 11.5343 126.388 9.44249 124.606 8.04794C120.732 5.0574 122.22 11.3949 117.633 13.1458C111.342 15.532 107.934 16.2448 104.958 22.2879C104.364 23.4989 103.847 24.7461 103.409 26.0222C102.801 27.6682 102.777 29.473 103.342 31.1345C103.906 32.7959 105.024 34.2131 106.508 35.1487L106.973 35.3967C109.235 36.3728 109.901 39.2704 109.746 41.7186C109.591 44.1669 108.941 46.6925 109.824 48.9858C110.707 51.2791 113.946 52.8441 115.573 51.0157C119.121 48.5055 119.446 43.4851 119.26 39.1465C119.074 34.8078 118.935 29.9424 121.941 26.8589C124.947 23.7754 132.044 25.9137 130.928 30.0974C130.262 32.5611 127.147 33.9711 126.899 36.5278C126.651 39.0845 129.596 40.9439 132.183 41.1763C134.771 41.4087 137.544 40.9129 139.931 41.9201C142.317 42.9273 143.913 46.4911 141.821 48.1181C138.149 51.2171 130.835 43.9344 128.557 48.1181C127.938 49.1872 128.201 50.5508 127.922 51.7439C127.07 55.4317 122.204 56.1135 118.424 56.0361C114.643 55.9586 110.676 55.7261 107.484 53.6343C104.292 51.5425 102.665 46.7855 105.051 43.8724C103.362 42.23 100.263 43.1752 98.9309 45.1585C97.8134 47.2589 97.3239 49.6364 97.5208 52.0073C93.6936 50.5663 89.6803 53.3864 86.9687 56.3769C84.2571 59.3675 81.468 62.9468 77.4703 63.5666C73.4725 64.1864 68.3437 61.8157 65.818 65.0232C62.5331 69.2068 69.3044 76.0711 65.9885 80.2083C64.0981 82.5325 60.4722 81.9282 57.4662 82.3156C49.5172 83.3693 45.2406 94.1538 49.5792 100.91C53.9178 107.665 64.377 108.797 70.7144 103.9C75.115 100.538 77.4703 95.254 80.9257 90.9464C84.3811 86.6387 90.2227 83.1988 95.2431 85.4611C97.1563 86.5142 98.8375 87.9424 100.186 89.6603C102.417 92.155 104.664 94.6497 106.895 97.1909C108.321 98.7404 109.87 100.755 109.406 102.862C109.003 104.551 107.484 105.682 106.678 107.201C104.416 111.57 110.444 116.885 114.984 114.948C119.524 113.011 120.903 106.689 118.625 102.32C115.526 96.2921 106.942 92.2634 108.135 85.5386C113.233 82.4396 119.849 87.4135 121.74 93.0847C123.63 98.7558 122.824 104.954 124.281 110.703C125.737 116.451 131.3 122.231 136.925 120.325C136.243 115.429 135.577 110.563 134.895 105.682C138.598 103.668 141.372 111.508 145.54 110.873C148.081 110.47 148.887 107.015 148.174 104.505C147.461 101.994 145.865 99.7475 145.788 97.1444C145.695 92.4029 151.459 89.0095 156.015 90.435C160.57 91.8606 163.282 96.8035 163.483 101.529C163.385 103.41 163.531 105.295 163.917 107.139C165.141 111.028 169.495 112.794 172.997 114.886C176.499 116.978 179.877 121.27 177.77 124.772C176.824 126.322 174.888 127.608 175.244 129.421C175.6 131.233 177.708 131.946 177.491 133.542C177.289 134.596 176.081 135.092 175.042 135.433C172.377 136.099 169.604 136.037 167.001 136.874C164.397 137.71 161.856 139.694 161.67 142.374C161.422 146.217 165.668 148.696 167.341 152.152C169.015 155.607 168.085 159.403 168.891 162.998C169.65 166.33 171.804 169.196 173.431 172.156C178.482 181.654 178.374 192.919 179.97 203.533C180.683 208.337 182.449 213.822 187.02 215.371C189.614 215.96 192.319 215.831 194.845 215C202.019 213.28 209.503 211.42 214.989 206.601C220.474 201.782 223.48 192.966 219.358 186.83C218.906 185.99 218.162 185.345 217.266 185.017C215.969 184.915 214.667 185.167 213.501 185.745C209.813 186.845 205.754 184.908 203.243 181.933C200.733 178.958 199.525 175.239 198.301 171.567C196.983 167.538 195.682 163.479 194.318 159.403C196.844 157.854 200.299 159.14 202.345 161.34C204.39 163.541 205.366 166.423 206.9 168.979C211.549 176.866 220.396 181.375 229.244 183.684C231.537 184.143 233.747 184.948 235.798 186.07C242.074 190.115 242.57 200.31 249.372 203.471C251.263 204.355 253.478 204.556 255.214 205.703C257.832 207.438 258.778 210.831 259.181 213.961C259.924 219.772 259.614 225.722 261.195 231.393C262.775 237.065 266.789 242.55 272.553 243.464C274.371 243.679 276.215 243.534 277.978 243.037C279.74 242.54 281.388 241.7 282.826 240.566C283.895 235.376 284.84 230.154 285.6 224.839C285.693 223.615 285.847 222.515 285.925 221.399Z" fill="black"/>
</g>
<g opacity="0.3">
<path d="M174.922 307.148C171.25 307.334 170.274 309.332 167.903 311.703C164.882 314.802 160.76 317.7 157.955 320.768C153.214 325.974 155.43 335.488 149.604 339.594C148.32 340.277 147.073 341.027 145.869 341.841C144.749 342.982 144.121 344.518 144.121 346.118C144.121 347.717 144.749 349.253 145.869 350.394C147.057 351.473 148.532 352.185 150.116 352.444C151.7 352.702 153.325 352.496 154.794 351.851C157.721 350.491 160.051 348.111 161.349 345.157C162.34 343.081 163.084 340.679 165.021 339.424C168.322 337.27 172.614 339.842 176.565 339.858C193.377 339.997 191.006 306.326 174.922 307.148Z" fill="black"/>
</g>
</g>
</svg>
